*
%LPD*%
%LNMECH*%
%FSLAX24Y24*%
%MOIN*%
%AD*%
%AMMACRO11-M1*
1,1,0.001,0.01,0*
20,1,0.001,0.01,0,-0.01,0,0*
1,1,0.001,-0.01,0*
1,1,0.001,0,0.01*
20,1,0.001,0,0.01,0,-0.01,0*
1,1,0.001,0,-0.01*
%
%AMMACRO15-M1*
1,1,0.001,0.021,0*
20,1,0.001,0.021,0,0.020681,-0.003647,0*
1,1,0.001,0.020681,-0.003647*
20,1,0.001,0.020681,-0.003647,0.019734,-0.007182,0*
1,1,0.001,0.019734,-0.007182*
20,1,0.001,0.019734,-0.007182,0.018187,-0.0105,0*
1,1,0.001,0.018187,-0.0105*
20,1,0.001,0.018187,-0.0105,0.016087,-0.013499,0*
1,1,0.001,0.016087,-0.013499*
20,1,0.001,0.016087,-0.013499,0.013499,-0.016087,0*
1,1,0.001,0.013499,-0.016087*
20,1,0.001,0.013499,-0.016087,0.0105,-0.018187,0*
1,1,0.001,0.0105,-0.018187*
20,1,0.001,0.0105,-0.018187,0.007182,-0.019734,0*
1,1,0.001,0.007182,-0.019734*
20,1,0.001,0.007182,-0.019734,0.003647,-0.020681,0*
1,1,0.001,0.003647,-0.020681*
20,1,0.001,0.003647,-0.020681,0,-0.021,0*
1,1,0.001,0,-0.021*
20,1,0.001,0,-0.021,-0.003647,-0.020681,0*
1,1,0.001,-0.003647,-0.020681*
20,1,0.001,-0.003647,-0.020681,-0.007182,-0.019734,0*
1,1,0.001,-0.007182,-0.019734*
20,1,0.001,-0.007182,-0.019734,-0.0105,-0.018187,0*
1,1,0.001,-0.0105,-0.018187*
20,1,0.001,-0.0105,-0.018187,-0.013499,-0.016087,0*
1,1,0.001,-0.013499,-0.016087*
20,1,0.001,-0.013499,-0.016087,-0.016087,-0.013499,0*
1,1,0.001,-0.016087,-0.013499*
20,1,0.001,-0.016087,-0.013499,-0.018187,-0.0105,0*
1,1,0.001,-0.018187,-0.0105*
20,1,0.001,-0.018187,-0.0105,-0.019734,-0.007182,0*
1,1,0.001,-0.019734,-0.007182*
20,1,0.001,-0.019734,-0.007182,-0.020681,-0.003647,0*
1,1,0.001,-0.020681,-0.003647*
20,1,0.001,-0.020681,-0.003647,-0.021,0,0*
1,1,0.001,-0.021,0*
20,1,0.001,-0.021,0,-0.020681,0.003647,0*
1,1,0.001,-0.020681,0.003647*
20,1,0.001,-0.020681,0.003647,-0.019734,0.007182,0*
1,1,0.001,-0.019734,0.007182*
20,1,0.001,-0.019734,0.007182,-0.018187,0.0105,0*
1,1,0.001,-0.018187,0.0105*
20,1,0.001,-0.018187,0.0105,-0.016087,0.013499,0*
1,1,0.001,-0.016087,0.013499*
20,1,0.001,-0.016087,0.013499,-0.013499,0.016087,0*
1,1,0.001,-0.013499,0.016087*
20,1,0.001,-0.013499,0.016087,-0.0105,0.018187,0*
1,1,0.001,-0.0105,0.018187*
20,1,0.001,-0.0105,0.018187,-0.007182,0.019734,0*
1,1,0.001,-0.007182,0.019734*
20,1,0.001,-0.007182,0.019734,-0.003647,0.020681,0*
1,1,0.001,-0.003647,0.020681*
20,1,0.001,-0.003647,0.020681,0,0.021,0*
1,1,0.001,0,0.021*
20,1,0.001,0,0.021,0.003647,0.020681,0*
1,1,0.001,0.003647,0.020681*
20,1,0.001,0.003647,0.020681,0.007182,0.019734,0*
1,1,0.001,0.007182,0.019734*
20,1,0.001,0.007182,0.019734,0.0105,0.018187,0*
1,1,0.001,0.0105,0.018187*
20,1,0.001,0.0105,0.018187,0.013499,0.016087,0*
1,1,0.001,0.013499,0.016087*
20,1,0.001,0.013499,0.016087,0.016087,0.013499,0*
1,1,0.001,0.016087,0.013499*
20,1,0.001,0.016087,0.013499,0.018187,0.0105,0*
1,1,0.001,0.018187,0.0105*
20,1,0.001,0.018187,0.0105,0.019734,0.007182,0*
1,1,0.001,0.019734,0.007182*
20,1,0.001,0.019734,0.007182,0.020681,0.003647,0*
1,1,0.001,0.020681,0.003647*
20,1,0.001,0.020681,0.003647,0.021,0,0*
1,1,0.001,0.021,0*
1,1,0.001,-0.0077,-0.0105*
20,1,0.001,-0.0077,-0.0105,-0.0077,0.0105,0*
1,1,0.001,-0.0077,0.0105*
20,1,0.001,-0.0077,0.0105,-0.0007,0.0105,0*
1,1,0.001,-0.0007,0.0105*
20,1,0.001,-0.0007,0.0105,0.0021,0.0094,0*
1,1,0.001,0.0021,0.0094*
20,1,0.001,0.0021,0.0094,0.0042,0.008,0*
1,1,0.001,0.0042,0.008*
20,1,0.001,0.0042,0.008,0.006,0.006,0*
1,1,0.001,0.006,0.006*
20,1,0.001,0.006,0.006,0.0074,0.0035,0*
1,1,0.001,0.0074,0.0035*
20,1,0.001,0.0074,0.0035,0.0077,0,0*
1,1,0.001,0.0077,0*
20,1,0.001,0.0077,0,0.0074,-0.0035,0*
1,1,0.001,0.0074,-0.0035*
20,1,0.001,0.0074,-0.0035,0.006,-0.006,0*
1,1,0.001,0.006,-0.006*
20,1,0.001,0.006,-0.006,0.0042,-0.0081,0*
1,1,0.001,0.0042,-0.0081*
20,1,0.001,0.0042,-0.0081,0.0021,-0.0095,0*
1,1,0.001,0.0021,-0.0095*
20,1,0.001,0.0021,-0.0095,-0.0007,-0.0105,0*
1,1,0.001,-0.0007,-0.0105*
20,1,0.001,-0.0007,-0.0105,-0.0077,-0.0105,0*
1,1,0.001,-0.0077,-0.0105*
%
%AMMACRO14-M1*
1,1,0.001,0.0625,0*
20,1,0.001,0.0625,0,0.06155,-0.010853,0*
1,1,0.001,0.06155,-0.010853*
20,1,0.001,0.06155,-0.010853,0.058731,-0.021376,0*
1,1,0.001,0.058731,-0.021376*
20,1,0.001,0.058731,-0.021376,0.054127,-0.03125,0*
1,1,0.001,0.054127,-0.03125*
20,1,0.001,0.054127,-0.03125,0.047878,-0.040174,0*
1,1,0.001,0.047878,-0.040174*
20,1,0.001,0.047878,-0.040174,0.040174,-0.047878,0*
1,1,0.001,0.040174,-0.047878*
20,1,0.001,0.040174,-0.047878,0.03125,-0.054127,0*
1,1,0.001,0.03125,-0.054127*
20,1,0.001,0.03125,-0.054127,0.021376,-0.058731,0*
1,1,0.001,0.021376,-0.058731*
20,1,0.001,0.021376,-0.058731,0.010853,-0.06155,0*
1,1,0.001,0.010853,-0.06155*
20,1,0.001,0.010853,-0.06155,0,-0.0625,0*
1,1,0.001,0,-0.0625*
20,1,0.001,0,-0.0625,-0.010853,-0.06155,0*
1,1,0.001,-0.010853,-0.06155*
20,1,0.001,-0.010853,-0.06155,-0.021376,-0.058731,0*
1,1,0.001,-0.021376,-0.058731*
20,1,0.001,-0.021376,-0.058731,-0.03125,-0.054127,0*
1,1,0.001,-0.03125,-0.054127*
20,1,0.001,-0.03125,-0.054127,-0.040174,-0.047878,0*
1,1,0.001,-0.040174,-0.047878*
20,1,0.001,-0.040174,-0.047878,-0.047878,-0.040174,0*
1,1,0.001,-0.047878,-0.040174*
20,1,0.001,-0.047878,-0.040174,-0.054127,-0.03125,0*
1,1,0.001,-0.054127,-0.03125*
20,1,0.001,-0.054127,-0.03125,-0.058731,-0.021376,0*
1,1,0.001,-0.058731,-0.021376*
20,1,0.001,-0.058731,-0.021376,-0.06155,-0.010853,0*
1,1,0.001,-0.06155,-0.010853*
20,1,0.001,-0.06155,-0.010853,-0.0625,0,0*
1,1,0.001,-0.0625,0*
20,1,0.001,-0.0625,0,-0.06155,0.010853,0*
1,1,0.001,-0.06155,0.010853*
20,1,0.001,-0.06155,0.010853,-0.058731,0.021376,0*
1,1,0.001,-0.058731,0.021376*
20,1,0.001,-0.058731,0.021376,-0.054127,0.03125,0*
1,1,0.001,-0.054127,0.03125*
20,1,0.001,-0.054127,0.03125,-0.047878,0.040174,0*
1,1,0.001,-0.047878,0.040174*
20,1,0.001,-0.047878,0.040174,-0.040174,0.047878,0*
1,1,0.001,-0.040174,0.047878*
20,1,0.001,-0.040174,0.047878,-0.03125,0.054127,0*
1,1,0.001,-0.03125,0.054127*
20,1,0.001,-0.03125,0.054127,-0.021376,0.058731,0*
1,1,0.001,-0.021376,0.058731*
20,1,0.001,-0.021376,0.058731,-0.010853,0.06155,0*
1,1,0.001,-0.010853,0.06155*
20,1,0.001,-0.010853,0.06155,0,0.0625,0*
1,1,0.001,0,0.0625*
20,1,0.001,0,0.0625,0.010853,0.06155,0*
1,1,0.001,0.010853,0.06155*
20,1,0.001,0.010853,0.06155,0.021376,0.058731,0*
1,1,0.001,0.021376,0.058731*
20,1,0.001,0.021376,0.058731,0.03125,0.054127,0*
1,1,0.001,0.03125,0.054127*
20,1,0.001,0.03125,0.054127,0.040174,0.047878,0*
1,1,0.001,0.040174,0.047878*
20,1,0.001,0.040174,0.047878,0.047878,0.040174,0*
1,1,0.001,0.047878,0.040174*
20,1,0.001,0.047878,0.040174,0.054127,0.03125,0*
1,1,0.001,0.054127,0.03125*
20,1,0.001,0.054127,0.03125,0.058731,0.021376,0*
1,1,0.001,0.058731,0.021376*
20,1,0.001,0.058731,0.021376,0.06155,0.010853,0*
1,1,0.001,0.06155,0.010853*
20,1,0.001,0.06155,0.010853,0.0625,0,0*
1,1,0.001,0.0625,0*
1,1,0.001,0.0063,0*
20,1,0.001,0.0063,0,0.0271,0,0*
1,1,0.001,0.0271,0*
20,1,0.001,0.0271,0,0.0271,-0.0187,0*
1,1,0.001,0.0271,-0.0187*
20,1,0.001,0.0271,-0.0187,0.0209,-0.025,0*
1,1,0.001,0.0209,-0.025*
20,1,0.001,0.0209,-0.025,0.0136,-0.0291,0*
1,1,0.001,0.0136,-0.0291*
20,1,0.001,0.0136,-0.0291,0.0032,-0.0312,0*
1,1,0.001,0.0032,-0.0312*
20,1,0.001,0.0032,-0.0312,-0.0072,-0.0291,0*
1,1,0.001,-0.0072,-0.0291*
20,1,0.001,-0.0072,-0.0291,-0.0145,-0.025,0*
1,1,0.001,-0.0145,-0.025*
20,1,0.001,-0.0145,-0.025,-0.0208,-0.0187,0*
1,1,0.001,-0.0208,-0.0187*
20,1,0.001,-0.0208,-0.0187,-0.025,-0.0114,0*
1,1,0.001,-0.025,-0.0114*
20,1,0.001,-0.025,-0.0114,-0.027,-0.0031,0*
1,1,0.001,-0.027,-0.0031*
20,1,0.001,-0.027,-0.0031,-0.027,0.0042,0*
1,1,0.001,-0.027,0.0042*
20,1,0.001,-0.027,0.0042,-0.025,0.0105,0*
1,1,0.001,-0.025,0.0105*
20,1,0.001,-0.025,0.0105,-0.0208,0.0178,0*
1,1,0.001,-0.0208,0.0178*
20,1,0.001,-0.0208,0.0178,-0.0145,0.024,0*
1,1,0.001,-0.0145,0.024*
20,1,0.001,-0.0145,0.024,-0.0083,0.0282,0*
1,1,0.001,-0.0083,0.0282*
20,1,0.001,-0.0083,0.0282,0,0.0313,0*
1,1,0.001,0,0.0313*
20,1,0.001,0,0.0313,0.0073,0.0313,0*
1,1,0.001,0.0073,0.0313*
20,1,0.001,0.0073,0.0313,0.0157,0.0292,0*
1,1,0.001,0.0157,0.0292*
20,1,0.001,0.0157,0.0292,0.0219,0.025,0*
1,1,0.001,0.0219,0.025*
%
%AMMACRO13-M1*
1,1,0.001,0.0175,0*
20,1,0.001,0.0175,0,0.017234,-0.003039,0*
1,1,0.001,0.017234,-0.003039*
20,1,0.001,0.017234,-0.003039,0.016445,-0.005985,0*
1,1,0.001,0.016445,-0.005985*
20,1,0.001,0.016445,-0.005985,0.015155,-0.00875,0*
1,1,0.001,0.015155,-0.00875*
20,1,0.001,0.015155,-0.00875,0.013406,-0.011249,0*
1,1,0.001,0.013406,-0.011249*
20,1,0.001,0.013406,-0.011249,0.011249,-0.013406,0*
1,1,0.001,0.011249,-0.013406*
20,1,0.001,0.011249,-0.013406,0.00875,-0.015155,0*
1,1,0.001,0.00875,-0.015155*
20,1,0.001,0.00875,-0.015155,0.005985,-0.016445,0*
1,1,0.001,0.005985,-0.016445*
20,1,0.001,0.005985,-0.016445,0.003039,-0.017234,0*
1,1,0.001,0.003039,-0.017234*
20,1,0.001,0.003039,-0.017234,0,-0.0175,0*
1,1,0.001,0,-0.0175*
20,1,0.001,0,-0.0175,-0.003039,-0.017234,0*
1,1,0.001,-0.003039,-0.017234*
20,1,0.001,-0.003039,-0.017234,-0.005985,-0.016445,0*
1,1,0.001,-0.005985,-0.016445*
20,1,0.001,-0.005985,-0.016445,-0.00875,-0.015155,0*
1,1,0.001,-0.00875,-0.015155*
20,1,0.001,-0.00875,-0.015155,-0.011249,-0.013406,0*
1,1,0.001,-0.011249,-0.013406*
20,1,0.001,-0.011249,-0.013406,-0.013406,-0.011249,0*
1,1,0.001,-0.013406,-0.011249*
20,1,0.001,-0.013406,-0.011249,-0.015155,-0.00875,0*
1,1,0.001,-0.015155,-0.00875*
20,1,0.001,-0.015155,-0.00875,-0.016445,-0.005985,0*
1,1,0.001,-0.016445,-0.005985*
20,1,0.001,-0.016445,-0.005985,-0.017234,-0.003039,0*
1,1,0.001,-0.017234,-0.003039*
20,1,0.001,-0.017234,-0.003039,-0.0175,0,0*
1,1,0.001,-0.0175,0*
20,1,0.001,-0.0175,0,-0.017234,0.003039,0*
1,1,0.001,-0.017234,0.003039*
20,1,0.001,-0.017234,0.003039,-0.016445,0.005985,0*
1,1,0.001,-0.016445,0.005985*
20,1,0.001,-0.016445,0.005985,-0.015155,0.00875,0*
1,1,0.001,-0.015155,0.00875*
20,1,0.001,-0.015155,0.00875,-0.013406,0.011249,0*
1,1,0.001,-0.013406,0.011249*
20,1,0.001,-0.013406,0.011249,-0.011249,0.013406,0*
1,1,0.001,-0.011249,0.013406*
20,1,0.001,-0.011249,0.013406,-0.00875,0.015155,0*
1,1,0.001,-0.00875,0.015155*
20,1,0.001,-0.00875,0.015155,-0.005985,0.016445,0*
1,1,0.001,-0.005985,0.016445*
20,1,0.001,-0.005985,0.016445,-0.003039,0.017234,0*
1,1,0.001,-0.003039,0.017234*
20,1,0.001,-0.003039,0.017234,0,0.0175,0*
1,1,0.001,0,0.0175*
20,1,0.001,0,0.0175,0.003039,0.017234,0*
1,1,0.001,0.003039,0.017234*
20,1,0.001,0.003039,0.017234,0.005985,0.016445,0*
1,1,0.001,0.005985,0.016445*
20,1,0.001,0.005985,0.016445,0.00875,0.015155,0*
1,1,0.001,0.00875,0.015155*
20,1,0.001,0.00875,0.015155,0.011249,0.013406,0*
1,1,0.001,0.011249,0.013406*
20,1,0.001,0.011249,0.013406,0.013406,0.011249,0*
1,1,0.001,0.013406,0.011249*
20,1,0.001,0.013406,0.011249,0.015155,0.00875,0*
1,1,0.001,0.015155,0.00875*
20,1,0.001,0.015155,0.00875,0.016445,0.005985,0*
1,1,0.001,0.016445,0.005985*
20,1,0.001,0.016445,0.005985,0.017234,0.003039,0*
1,1,0.001,0.017234,0.003039*
20,1,0.001,0.017234,0.003039,0.0175,0,0*
1,1,0.001,0.0175,0*
1,1,0.001,0.0024,0.0006*
20,1,0.001,0.0024,0.0006,0.0036,0.0015,0*
1,1,0.001,0.0036,0.0015*
20,1,0.001,0.0036,0.0015,0.0044,0.003,0*
1,1,0.001,0.0044,0.003*
20,1,0.001,0.0044,0.003,0.005,0.005,0*
1,1,0.001,0.005,0.005*
20,1,0.001,0.005,0.005,0.0044,0.0068,0*
1,1,0.001,0.0044,0.0068*
20,1,0.001,0.0044,0.0068,0.0033,0.0079,0*
1,1,0.001,0.0033,0.0079*
20,1,0.001,0.0033,0.0079,0.0012,0.0088,0*
1,1,0.001,0.0012,0.0088*
20,1,0.001,0.0012,0.0088,-0.0067,0.0088,0*
1,1,0.001,-0.0067,0.0088*
20,1,0.001,-0.0067,0.0088,-0.0067,-0.0087,0*
1,1,0.001,-0.0067,-0.0087*
20,1,0.001,-0.0067,-0.0087,0.003,-0.0087,0*
1,1,0.001,0.003,-0.0087*
20,1,0.001,0.003,-0.0087,0.005,-0.0075,0*
1,1,0.001,0.005,-0.0075*
20,1,0.001,0.005,-0.0075,0.0062,-0.0058,0*
1,1,0.001,0.0062,-0.0058*
20,1,0.001,0.0062,-0.0058,0.0068,-0.0037,0*
1,1,0.001,0.0068,-0.0037*
20,1,0.001,0.0068,-0.0037,0.0062,-0.0017,0*
1,1,0.001,0.0062,-0.0017*
20,1,0.001,0.0062,-0.0017,0.0044,0,0*
1,1,0.001,0.0044,0*
20,1,0.001,0.0044,0,0.0024,0.0006,0*
1,1,0.001,0.0024,0.0006*
20,1,0.001,0.0024,0.0006,-0.0067,0.0006,0*
1,1,0.001,-0.0067,0.0006*
%
%AMMACRO16-M1*
1,1,0.001,0.035,0*
20,1,0.001,0.035,0,0.034468,-0.006078,0*
1,1,0.001,0.034468,-0.006078*
20,1,0.001,0.034468,-0.006078,0.032889,-0.011971,0*
1,1,0.001,0.032889,-0.011971*
20,1,0.001,0.032889,-0.011971,0.030311,-0.0175,0*
1,1,0.001,0.030311,-0.0175*
20,1,0.001,0.030311,-0.0175,0.026812,-0.022498,0*
1,1,0.001,0.026812,-0.022498*
20,1,0.001,0.026812,-0.022498,0.022498,-0.026812,0*
1,1,0.001,0.022498,-0.026812*
20,1,0.001,0.022498,-0.026812,0.0175,-0.030311,0*
1,1,0.001,0.0175,-0.030311*
20,1,0.001,0.0175,-0.030311,0.011971,-0.032889,0*
1,1,0.001,0.011971,-0.032889*
20,1,0.001,0.011971,-0.032889,0.006078,-0.034468,0*
1,1,0.001,0.006078,-0.034468*
20,1,0.001,0.006078,-0.034468,0,-0.035,0*
1,1,0.001,0,-0.035*
20,1,0.001,0,-0.035,-0.006078,-0.034468,0*
1,1,0.001,-0.006078,-0.034468*
20,1,0.001,-0.006078,-0.034468,-0.011971,-0.032889,0*
1,1,0.001,-0.011971,-0.032889*
20,1,0.001,-0.011971,-0.032889,-0.0175,-0.030311,0*
1,1,0.001,-0.0175,-0.030311*
20,1,0.001,-0.0175,-0.030311,-0.022498,-0.026812,0*
1,1,0.001,-0.022498,-0.026812*
20,1,0.001,-0.022498,-0.026812,-0.026812,-0.022498,0*
1,1,0.001,-0.026812,-0.022498*
20,1,0.001,-0.026812,-0.022498,-0.030311,-0.0175,0*
1,1,0.001,-0.030311,-0.0175*
20,1,0.001,-0.030311,-0.0175,-0.032889,-0.011971,0*
1,1,0.001,-0.032889,-0.011971*
20,1,0.001,-0.032889,-0.011971,-0.034468,-0.006078,0*
1,1,0.001,-0.034468,-0.006078*
20,1,0.001,-0.034468,-0.006078,-0.035,0,0*
1,1,0.001,-0.035,0*
20,1,0.001,-0.035,0,-0.034468,0.006078,0*
1,1,0.001,-0.034468,0.006078*
20,1,0.001,-0.034468,0.006078,-0.032889,0.011971,0*
1,1,0.001,-0.032889,0.011971*
20,1,0.001,-0.032889,0.011971,-0.030311,0.0175,0*
1,1,0.001,-0.030311,0.0175*
20,1,0.001,-0.030311,0.0175,-0.026812,0.022498,0*
1,1,0.001,-0.026812,0.022498*
20,1,0.001,-0.026812,0.022498,-0.022498,0.026812,0*
1,1,0.001,-0.022498,0.026812*
20,1,0.001,-0.022498,0.026812,-0.0175,0.030311,0*
1,1,0.001,-0.0175,0.030311*
20,1,0.001,-0.0175,0.030311,-0.011971,0.032889,0*
1,1,0.001,-0.011971,0.032889*
20,1,0.001,-0.011971,0.032889,-0.006078,0.034468,0*
1,1,0.001,-0.006078,0.034468*
20,1,0.001,-0.006078,0.034468,0,0.035,0*
1,1,0.001,0,0.035*
20,1,0.001,0,0.035,0.006078,0.034468,0*
1,1,0.001,0.006078,0.034468*
20,1,0.001,0.006078,0.034468,0.011971,0.032889,0*
1,1,0.001,0.011971,0.032889*
20,1,0.001,0.011971,0.032889,0.0175,0.030311,0*
1,1,0.001,0.0175,0.030311*
20,1,0.001,0.0175,0.030311,0.022498,0.026812,0*
1,1,0.001,0.022498,0.026812*
20,1,0.001,0.022498,0.026812,0.026812,0.022498,0*
1,1,0.001,0.026812,0.022498*
20,1,0.001,0.026812,0.022498,0.030311,0.0175,0*
1,1,0.001,0.030311,0.0175*
20,1,0.001,0.030311,0.0175,0.032889,0.011971,0*
1,1,0.001,0.032889,0.011971*
20,1,0.001,0.032889,0.011971,0.034468,0.006078,0*
1,1,0.001,0.034468,0.006078*
20,1,0.001,0.034468,0.006078,0.035,0,0*
1,1,0.001,0.035,0*
1,1,0.001,0.0117,-0.0175*
20,1,0.001,0.0117,-0.0175,-0.0117,-0.0175,0*
1,1,0.001,-0.0117,-0.0175*
20,1,0.001,-0.0117,-0.0175,-0.0117,0.0175,0*
1,1,0.001,-0.0117,0.0175*
20,1,0.001,-0.0117,0.0175,0.0117,0.0175,0*
1,1,0.001,0.0117,0.0175*
1,1,0.001,0.0023,0.0006*
20,1,0.001,0.0023,0.0006,-0.0117,0.0006,0*
1,1,0.001,-0.0117,0.0006*
%
%AMMACRO18-M1*
1,1,0.001,0.014,0*
20,1,0.001,0.014,0,0.013787,-0.002431,0*
1,1,0.001,0.013787,-0.002431*
20,1,0.001,0.013787,-0.002431,0.013156,-0.004788,0*
1,1,0.001,0.013156,-0.004788*
20,1,0.001,0.013156,-0.004788,0.012124,-0.007,0*
1,1,0.001,0.012124,-0.007*
20,1,0.001,0.012124,-0.007,0.010725,-0.008999,0*
1,1,0.001,0.010725,-0.008999*
20,1,0.001,0.010725,-0.008999,0.008999,-0.010725,0*
1,1,0.001,0.008999,-0.010725*
20,1,0.001,0.008999,-0.010725,0.007,-0.012124,0*
1,1,0.001,0.007,-0.012124*
20,1,0.001,0.007,-0.012124,0.004788,-0.013156,0*
1,1,0.001,0.004788,-0.013156*
20,1,0.001,0.004788,-0.013156,0.002431,-0.013787,0*
1,1,0.001,0.002431,-0.013787*
20,1,0.001,0.002431,-0.013787,0,-0.014,0*
1,1,0.001,0,-0.014*
20,1,0.001,0,-0.014,-0.002431,-0.013787,0*
1,1,0.001,-0.002431,-0.013787*
20,1,0.001,-0.002431,-0.013787,-0.004788,-0.013156,0*
1,1,0.001,-0.004788,-0.013156*
20,1,0.001,-0.004788,-0.013156,-0.007,-0.012124,0*
1,1,0.001,-0.007,-0.012124*
20,1,0.001,-0.007,-0.012124,-0.008999,-0.010725,0*
1,1,0.001,-0.008999,-0.010725*
20,1,0.001,-0.008999,-0.010725,-0.010725,-0.008999,0*
1,1,0.001,-0.010725,-0.008999*
20,1,0.001,-0.010725,-0.008999,-0.012124,-0.007,0*
1,1,0.001,-0.012124,-0.007*
20,1,0.001,-0.012124,-0.007,-0.013156,-0.004788,0*
1,1,0.001,-0.013156,-0.004788*
20,1,0.001,-0.013156,-0.004788,-0.013787,-0.002431,0*
1,1,0.001,-0.013787,-0.002431*
20,1,0.001,-0.013787,-0.002431,-0.014,0,0*
1,1,0.001,-0.014,0*
20,1,0.001,-0.014,0,-0.013787,0.002431,0*
1,1,0.001,-0.013787,0.002431*
20,1,0.001,-0.013787,0.002431,-0.013156,0.004788,0*
1,1,0.001,-0.013156,0.004788*
20,1,0.001,-0.013156,0.004788,-0.012124,0.007,0*
1,1,0.001,-0.012124,0.007*
20,1,0.001,-0.012124,0.007,-0.010725,0.008999,0*
1,1,0.001,-0.010725,0.008999*
20,1,0.001,-0.010725,0.008999,-0.008999,0.010725,0*
1,1,0.001,-0.008999,0.010725*
20,1,0.001,-0.008999,0.010725,-0.007,0.012124,0*
1,1,0.001,-0.007,0.012124*
20,1,0.001,-0.007,0.012124,-0.004788,0.013156,0*
1,1,0.001,-0.004788,0.013156*
20,1,0.001,-0.004788,0.013156,-0.002431,0.013787,0*
1,1,0.001,-0.002431,0.013787*
20,1,0.001,-0.002431,0.013787,0,0.014,0*
1,1,0.001,0,0.014*
20,1,0.001,0,0.014,0.002431,0.013787,0*
1,1,0.001,0.002431,0.013787*
20,1,0.001,0.002431,0.013787,0.004788,0.013156,0*
1,1,0.001,0.004788,0.013156*
20,1,0.001,0.004788,0.013156,0.007,0.012124,0*
1,1,0.001,0.007,0.012124*
20,1,0.001,0.007,0.012124,0.008999,0.010725,0*
1,1,0.001,0.008999,0.010725*
20,1,0.001,0.008999,0.010725,0.010725,0.008999,0*
1,1,0.001,0.010725,0.008999*
20,1,0.001,0.010725,0.008999,0.012124,0.007,0*
1,1,0.001,0.012124,0.007*
20,1,0.001,0.012124,0.007,0.013156,0.004788,0*
1,1,0.001,0.013156,0.004788*
20,1,0.001,0.013156,0.004788,0.013787,0.002431,0*
1,1,0.001,0.013787,0.002431*
20,1,0.001,0.013787,0.002431,0.014,0,0*
1,1,0.001,0.014,0*
1,1,0.001,-0.0058,-0.007*
20,1,0.001,-0.0058,-0.007,0,0.007,0*
1,1,0.001,0,0.007*
20,1,0.001,0,0.007,0.0058,-0.007,0*
1,1,0.001,0.0058,-0.007*
1,1,0.001,0.0037,-0.0021*
20,1,0.001,0.0037,-0.0021,-0.0037,-0.0021,0*
1,1,0.001,-0.0037,-0.0021*
%
%AMMACRO12-M1*
1,1,0.001,0.019,0*
20,1,0.001,0.019,0,0.018711,-0.003299,0*
1,1,0.001,0.018711,-0.003299*
20,1,0.001,0.018711,-0.003299,0.017854,-0.006498,0*
1,1,0.001,0.017854,-0.006498*
20,1,0.001,0.017854,-0.006498,0.016454,-0.0095,0*
1,1,0.001,0.016454,-0.0095*
20,1,0.001,0.016454,-0.0095,0.014555,-0.012213,0*
1,1,0.001,0.014555,-0.012213*
20,1,0.001,0.014555,-0.012213,0.012213,-0.014555,0*
1,1,0.001,0.012213,-0.014555*
20,1,0.001,0.012213,-0.014555,0.0095,-0.016454,0*
1,1,0.001,0.0095,-0.016454*
20,1,0.001,0.0095,-0.016454,0.006498,-0.017854,0*
1,1,0.001,0.006498,-0.017854*
20,1,0.001,0.006498,-0.017854,0.003299,-0.018711,0*
1,1,0.001,0.003299,-0.018711*
20,1,0.001,0.003299,-0.018711,0,-0.019,0*
1,1,0.001,0,-0.019*
20,1,0.001,0,-0.019,-0.003299,-0.018711,0*
1,1,0.001,-0.003299,-0.018711*
20,1,0.001,-0.003299,-0.018711,-0.006498,-0.017854,0*
1,1,0.001,-0.006498,-0.017854*
20,1,0.001,-0.006498,-0.017854,-0.0095,-0.016454,0*
1,1,0.001,-0.0095,-0.016454*
20,1,0.001,-0.0095,-0.016454,-0.012213,-0.014555,0*
1,1,0.001,-0.012213,-0.014555*
20,1,0.001,-0.012213,-0.014555,-0.014555,-0.012213,0*
1,1,0.001,-0.014555,-0.012213*
20,1,0.001,-0.014555,-0.012213,-0.016454,-0.0095,0*
1,1,0.001,-0.016454,-0.0095*
20,1,0.001,-0.016454,-0.0095,-0.017854,-0.006498,0*
1,1,0.001,-0.017854,-0.006498*
20,1,0.001,-0.017854,-0.006498,-0.018711,-0.003299,0*
1,1,0.001,-0.018711,-0.003299*
20,1,0.001,-0.018711,-0.003299,-0.019,0,0*
1,1,0.001,-0.019,0*
20,1,0.001,-0.019,0,-0.018711,0.003299,0*
1,1,0.001,-0.018711,0.003299*
20,1,0.001,-0.018711,0.003299,-0.017854,0.006498,0*
1,1,0.001,-0.017854,0.006498*
20,1,0.001,-0.017854,0.006498,-0.016454,0.0095,0*
1,1,0.001,-0.016454,0.0095*
20,1,0.001,-0.016454,0.0095,-0.014555,0.012213,0*
1,1,0.001,-0.014555,0.012213*
20,1,0.001,-0.014555,0.012213,-0.012213,0.014555,0*
1,1,0.001,-0.012213,0.014555*
20,1,0.001,-0.012213,0.014555,-0.0095,0.016454,0*
1,1,0.001,-0.0095,0.016454*
20,1,0.001,-0.0095,0.016454,-0.006498,0.017854,0*
1,1,0.001,-0.006498,0.017854*
20,1,0.001,-0.006498,0.017854,-0.003299,0.018711,0*
1,1,0.001,-0.003299,0.018711*
20,1,0.001,-0.003299,0.018711,0,0.019,0*
1,1,0.001,0,0.019*
20,1,0.001,0,0.019,0.003299,0.018711,0*
1,1,0.001,0.003299,0.018711*
20,1,0.001,0.003299,0.018711,0.006498,0.017854,0*
1,1,0.001,0.006498,0.017854*
20,1,0.001,0.006498,0.017854,0.0095,0.016454,0*
1,1,0.001,0.0095,0.016454*
20,1,0.001,0.0095,0.016454,0.012213,0.014555,0*
1,1,0.001,0.012213,0.014555*
20,1,0.001,0.012213,0.014555,0.014555,0.012213,0*
1,1,0.001,0.014555,0.012213*
20,1,0.001,0.014555,0.012213,0.016454,0.0095,0*
1,1,0.001,0.016454,0.0095*
20,1,0.001,0.016454,0.0095,0.017854,0.006498,0*
1,1,0.001,0.017854,0.006498*
20,1,0.001,0.017854,0.006498,0.018711,0.003299,0*
1,1,0.001,0.018711,0.003299*
20,1,0.001,0.018711,0.003299,0.019,0,0*
1,1,0.001,0.019,0*
1,1,0.001,0.007,0.0079*
20,1,0.001,0.007,0.0079,0.0051,0.0089,0*
1,1,0.001,0.0051,0.0089*
20,1,0.001,0.0051,0.0089,0.0029,0.0095,0*
1,1,0.001,0.0029,0.0095*
20,1,0.001,0.0029,0.0095,0.0003,0.0095,0*
1,1,0.001,0.0003,0.0095*
20,1,0.001,0.0003,0.0095,-0.0025,0.0085,0*
1,1,0.001,-0.0025,0.0085*
20,1,0.001,-0.0025,0.0085,-0.0047,0.007,0*
1,1,0.001,-0.0047,0.007*
20,1,0.001,-0.0047,0.007,-0.0063,0.0051,0*
1,1,0.001,-0.0063,0.0051*
20,1,0.001,-0.0063,0.0051,-0.0076,0.0019,0*
1,1,0.001,-0.0076,0.0019*
20,1,0.001,-0.0076,0.0019,-0.0079,-0.001,0*
1,1,0.001,-0.0079,-0.001*
20,1,0.001,-0.0079,-0.001,-0.0073,-0.0038,0*
1,1,0.001,-0.0073,-0.0038*
20,1,0.001,-0.0073,-0.0038,-0.0063,-0.0057,0*
1,1,0.001,-0.0063,-0.0057*
20,1,0.001,-0.0063,-0.0057,-0.0044,-0.0076,0*
1,1,0.001,-0.0044,-0.0076*
20,1,0.001,-0.0044,-0.0076,-0.0022,-0.0089,0*
1,1,0.001,-0.0022,-0.0089*
20,1,0.001,-0.0022,-0.0089,0,-0.0095,0*
1,1,0.001,0,-0.0095*
20,1,0.001,0,-0.0095,0.0022,-0.0095,0*
1,1,0.001,0.0022,-0.0095*
20,1,0.001,0.0022,-0.0095,0.0044,-0.0089,0*
1,1,0.001,0.0044,-0.0089*
20,1,0.001,0.0044,-0.0089,0.0063,-0.0079,0*
1,1,0.001,0.0063,-0.0079*
20,1,0.001,0.0063,-0.0079,0.0079,-0.0067,0*
1,1,0.001,0.0079,-0.0067*
%
%AMMACRO10-M1*
1,1,0.001,-0.0438,-0.0625*
20,1,0.001,-0.0438,-0.0625,0.0438,0.0625,0*
1,1,0.001,0.0438,0.0625*
1,1,0.001,-0.0438,0.0625*
20,1,0.001,-0.0438,0.0625,0.0438,-0.0625,0*
1,1,0.001,0.0438,-0.0625*
%
%AMMACRO17-M1*
1,1,0.001,0.043,0*
20,1,0.001,0.043,0,0.042347,-0.007467,0*
1,1,0.001,0.042347,-0.007467*
20,1,0.001,0.042347,-0.007467,0.040407,-0.014707,0*
1,1,0.001,0.040407,-0.014707*
20,1,0.001,0.040407,-0.014707,0.037239,-0.0215,0*
1,1,0.001,0.037239,-0.0215*
20,1,0.001,0.037239,-0.0215,0.03294,-0.02764,0*
1,1,0.001,0.03294,-0.02764*
20,1,0.001,0.03294,-0.02764,0.02764,-0.03294,0*
1,1,0.001,0.02764,-0.03294*
20,1,0.001,0.02764,-0.03294,0.0215,-0.037239,0*
1,1,0.001,0.0215,-0.037239*
20,1,0.001,0.0215,-0.037239,0.014707,-0.040407,0*
1,1,0.001,0.014707,-0.040407*
20,1,0.001,0.014707,-0.040407,0.007467,-0.042347,0*
1,1,0.001,0.007467,-0.042347*
20,1,0.001,0.007467,-0.042347,0,-0.043,0*
1,1,0.001,0,-0.043*
20,1,0.001,0,-0.043,-0.007467,-0.042347,0*
1,1,0.001,-0.007467,-0.042347*
20,1,0.001,-0.007467,-0.042347,-0.014707,-0.040407,0*
1,1,0.001,-0.014707,-0.040407*
20,1,0.001,-0.014707,-0.040407,-0.0215,-0.037239,0*
1,1,0.001,-0.0215,-0.037239*
20,1,0.001,-0.0215,-0.037239,-0.02764,-0.03294,0*
1,1,0.001,-0.02764,-0.03294*
20,1,0.001,-0.02764,-0.03294,-0.03294,-0.02764,0*
1,1,0.001,-0.03294,-0.02764*
20,1,0.001,-0.03294,-0.02764,-0.037239,-0.0215,0*
1,1,0.001,-0.037239,-0.0215*
20,1,0.001,-0.037239,-0.0215,-0.040407,-0.014707,0*
1,1,0.001,-0.040407,-0.014707*
20,1,0.001,-0.040407,-0.014707,-0.042347,-0.007467,0*
1,1,0.001,-0.042347,-0.007467*
20,1,0.001,-0.042347,-0.007467,-0.043,0,0*
1,1,0.001,-0.043,0*
20,1,0.001,-0.043,0,-0.042347,0.007467,0*
1,1,0.001,-0.042347,0.007467*
20,1,0.001,-0.042347,0.007467,-0.040407,0.014707,0*
1,1,0.001,-0.040407,0.014707*
20,1,0.001,-0.040407,0.014707,-0.037239,0.0215,0*
1,1,0.001,-0.037239,0.0215*
20,1,0.001,-0.037239,0.0215,-0.03294,0.02764,0*
1,1,0.001,-0.03294,0.02764*
20,1,0.001,-0.03294,0.02764,-0.02764,0.03294,0*
1,1,0.001,-0.02764,0.03294*
20,1,0.001,-0.02764,0.03294,-0.0215,0.037239,0*
1,1,0.001,-0.0215,0.037239*
20,1,0.001,-0.0215,0.037239,-0.014707,0.040407,0*
1,1,0.001,-0.014707,0.040407*
20,1,0.001,-0.014707,0.040407,-0.007467,0.042347,0*
1,1,0.001,-0.007467,0.042347*
20,1,0.001,-0.007467,0.042347,0,0.043,0*
1,1,0.001,0,0.043*
20,1,0.001,0,0.043,0.007467,0.042347,0*
1,1,0.001,0.007467,0.042347*
20,1,0.001,0.007467,0.042347,0.014707,0.040407,0*
1,1,0.001,0.014707,0.040407*
20,1,0.001,0.014707,0.040407,0.0215,0.037239,0*
1,1,0.001,0.0215,0.037239*
20,1,0.001,0.0215,0.037239,0.02764,0.03294,0*
1,1,0.001,0.02764,0.03294*
20,1,0.001,0.02764,0.03294,0.03294,0.02764,0*
1,1,0.001,0.03294,0.02764*
20,1,0.001,0.03294,0.02764,0.037239,0.0215,0*
1,1,0.001,0.037239,0.0215*
20,1,0.001,0.037239,0.0215,0.040407,0.014707,0*
1,1,0.001,0.040407,0.014707*
20,1,0.001,0.040407,0.014707,0.042347,0.007467,0*
1,1,0.001,0.042347,0.007467*
20,1,0.001,0.042347,0.007467,0.043,0,0*
1,1,0.001,0.043,0*
1,1,0.001,-0.0136,-0.0215*
20,1,0.001,-0.0136,-0.0215,-0.0136,0.0215,0*
1,1,0.001,-0.0136,0.0215*
20,1,0.001,-0.0136,0.0215,0.0136,0.0215,0*
1,1,0.001,0.0136,0.0215*
1,1,0.001,0.0036,0.0007*
20,1,0.001,0.0036,0.0007,-0.0136,0.0007,0*
1,1,0.001,-0.0136,0.0007*
%
%AMMACRO19-M1*
1,1,0.001,0.014,0*
20,1,0.001,0.014,0,0.007,0.012124,0*
1,1,0.001,0.007,0.012124*
20,1,0.001,0.007,0.012124,-0.007,0.012124,0*
1,1,0.001,-0.007,0.012124*
20,1,0.001,-0.007,0.012124,-0.014,0,0*
1,1,0.001,-0.014,0*
20,1,0.001,-0.014,0,-0.007,-0.012124,0*
1,1,0.001,-0.007,-0.012124*
20,1,0.001,-0.007,-0.012124,0.007,-0.012124,0*
1,1,0.001,0.007,-0.012124*
20,1,0.001,0.007,-0.012124,0.014,0,0*
1,1,0.001,0.014,0*
%
%ADD13C,0.05*%
%ADD26C,0.005*%
%ADD111MACRO11-M1*%
%ADD113MACRO15-M1*%
%ADD116MACRO14-M1*%
%ADD117MACRO13-M1*%
%ADD119MACRO16-M1*%
%ADD122MACRO18-M1*%
%ADD125MACRO12-M1*%
%ADD126MACRO10-M1*%
%ADD127MACRO17-M1*%
%ADD130MACRO19-M1*%
%AMMACRO20-R90*
1,1,0.001,0,0.019*
20,1,0.001,0.019,0,0.018711,-0.003299,90*
1,1,0.001,0.003299,0.018711*
20,1,0.001,0.018711,-0.003299,0.017854,-0.006498,90*
1,1,0.001,0.006498,0.017854*
20,1,0.001,0.017854,-0.006498,0.016454,-0.0095,90*
1,1,0.001,0.0095,0.016454*
20,1,0.001,0.016454,-0.0095,0.014555,-0.012213,90*
1,1,0.001,0.012213,0.014555*
20,1,0.001,0.014555,-0.012213,0.012213,-0.014555,90*
1,1,0.001,0.014555,0.012213*
20,1,0.001,0.012213,-0.014555,0.0095,-0.016454,90*
1,1,0.001,0.016454,0.0095*
20,1,0.001,0.0095,-0.016454,0.006498,-0.017854,90*
1,1,0.001,0.017854,0.006498*
20,1,0.001,0.006498,-0.017854,0.003299,-0.018711,90*
1,1,0.001,0.018711,0.003299*
20,1,0.001,0.003299,-0.018711,0,-0.019,90*
1,1,0.001,0.019,-0*
20,1,0.001,0,-0.019,-0.003299,-0.018711,90*
1,1,0.001,0.018711,-0.003299*
20,1,0.001,-0.003299,-0.018711,-0.006498,-0.017854,90*
1,1,0.001,0.017854,-0.006498*
20,1,0.001,-0.006498,-0.017854,-0.0095,-0.016454,90*
1,1,0.001,0.016454,-0.0095*
20,1,0.001,-0.0095,-0.016454,-0.012213,-0.014555,90*
1,1,0.001,0.014555,-0.012213*
20,1,0.001,-0.012213,-0.014555,-0.014555,-0.012213,90*
1,1,0.001,0.012213,-0.014555*
20,1,0.001,-0.014555,-0.012213,-0.016454,-0.0095,90*
1,1,0.001,0.0095,-0.016454*
20,1,0.001,-0.016454,-0.0095,-0.017854,-0.006498,90*
1,1,0.001,0.006498,-0.017854*
20,1,0.001,-0.017854,-0.006498,-0.018711,-0.003299,90*
1,1,0.001,0.003299,-0.018711*
20,1,0.001,-0.018711,-0.003299,-0.019,0,90*
1,1,0.001,-0,-0.019*
20,1,0.001,-0.019,0,-0.018711,0.003299,90*
1,1,0.001,-0.003299,-0.018711*
20,1,0.001,-0.018711,0.003299,-0.017854,0.006498,90*
1,1,0.001,-0.006498,-0.017854*
20,1,0.001,-0.017854,0.006498,-0.016454,0.0095,90*
1,1,0.001,-0.0095,-0.016454*
20,1,0.001,-0.016454,0.0095,-0.014555,0.012213,90*
1,1,0.001,-0.012213,-0.014555*
20,1,0.001,-0.014555,0.012213,-0.012213,0.014555,90*
1,1,0.001,-0.014555,-0.012213*
20,1,0.001,-0.012213,0.014555,-0.0095,0.016454,90*
1,1,0.001,-0.016454,-0.0095*
20,1,0.001,-0.0095,0.016454,-0.006498,0.017854,90*
1,1,0.001,-0.017854,-0.006498*
20,1,0.001,-0.006498,0.017854,-0.003299,0.018711,90*
1,1,0.001,-0.018711,-0.003299*
20,1,0.001,-0.003299,0.018711,0,0.019,90*
1,1,0.001,-0.019,0*
20,1,0.001,0,0.019,0.003299,0.018711,90*
1,1,0.001,-0.018711,0.003299*
20,1,0.001,0.003299,0.018711,0.006498,0.017854,90*
1,1,0.001,-0.017854,0.006498*
20,1,0.001,0.006498,0.017854,0.0095,0.016454,90*
1,1,0.001,-0.016454,0.0095*
20,1,0.001,0.0095,0.016454,0.012213,0.014555,90*
1,1,0.001,-0.014555,0.012213*
20,1,0.001,0.012213,0.014555,0.014555,0.012213,90*
1,1,0.001,-0.012213,0.014555*
20,1,0.001,0.014555,0.012213,0.016454,0.0095,90*
1,1,0.001,-0.0095,0.016454*
20,1,0.001,0.016454,0.0095,0.017854,0.006498,90*
1,1,0.001,-0.006498,0.017854*
20,1,0.001,0.017854,0.006498,0.018711,0.003299,90*
1,1,0.001,-0.003299,0.018711*
20,1,0.001,0.018711,0.003299,0.019,0,90*
1,1,0.001,0,0.019*
1,1,0.001,0.0095,-0.007*
20,1,0.001,-0.007,-0.0095,-0.007,0.0095,90*
1,1,0.001,-0.0095,-0.007*
20,1,0.001,-0.007,0.0095,-0.0006,0.0095,90*
1,1,0.001,-0.0095,-0.0006*
20,1,0.001,-0.0006,0.0095,0.0019,0.0085,90*
1,1,0.001,-0.0085,0.0019*
20,1,0.001,0.0019,0.0085,0.0038,0.0073,90*
1,1,0.001,-0.0073,0.0038*
20,1,0.001,0.0038,0.0073,0.0054,0.0054,90*
1,1,0.001,-0.0054,0.0054*
20,1,0.001,0.0054,0.0054,0.0067,0.0032,90*
1,1,0.001,-0.0032,0.0067*
20,1,0.001,0.0067,0.0032,0.007,0,90*
1,1,0.001,0,0.007*
20,1,0.001,0.007,0,0.0067,-0.0032,90*
1,1,0.001,0.0032,0.0067*
20,1,0.001,0.0067,-0.0032,0.0054,-0.0054,90*
1,1,0.001,0.0054,0.0054*
20,1,0.001,0.0054,-0.0054,0.0038,-0.0073,90*
1,1,0.001,0.0073,0.0038*
20,1,0.001,0.0038,-0.0073,0.0019,-0.0086,90*
1,1,0.001,0.0086,0.0019*
20,1,0.001,0.0019,-0.0086,-0.0006,-0.0095,90*
1,1,0.001,0.0095,-0.0006*
20,1,0.001,-0.0006,-0.0095,-0.007,-0.0095,90*
1,1,0.001,0.0095,-0.007*
%
%ADD140MACRO20-R90*%
%AMMACRO21-R90*
1,1,0.001,0,0.01*
20,1,0.001,0.01,0,0.009848,-0.001736,90*
1,1,0.001,0.001736,0.009848*
20,1,0.001,0.009848,-0.001736,0.009397,-0.00342,90*
1,1,0.001,0.00342,0.009397*
20,1,0.001,0.009397,-0.00342,0.00866,-0.005,90*
1,1,0.001,0.005,0.00866*
20,1,0.001,0.00866,-0.005,0.00766,-0.006428,90*
1,1,0.001,0.006428,0.00766*
20,1,0.001,0.00766,-0.006428,0.006428,-0.00766,90*
1,1,0.001,0.00766,0.006428*
20,1,0.001,0.006428,-0.00766,0.005,-0.00866,90*
1,1,0.001,0.00866,0.005*
20,1,0.001,0.005,-0.00866,0.00342,-0.009397,90*
1,1,0.001,0.009397,0.00342*
20,1,0.001,0.00342,-0.009397,0.001736,-0.009848,90*
1,1,0.001,0.009848,0.001736*
20,1,0.001,0.001736,-0.009848,0,-0.01,90*
1,1,0.001,0.01,-0*
20,1,0.001,0,-0.01,-0.001736,-0.009848,90*
1,1,0.001,0.009848,-0.001736*
20,1,0.001,-0.001736,-0.009848,-0.00342,-0.009397,90*
1,1,0.001,0.009397,-0.00342*
20,1,0.001,-0.00342,-0.009397,-0.005,-0.00866,90*
1,1,0.001,0.00866,-0.005*
20,1,0.001,-0.005,-0.00866,-0.006428,-0.00766,90*
1,1,0.001,0.00766,-0.006428*
20,1,0.001,-0.006428,-0.00766,-0.00766,-0.006428,90*
1,1,0.001,0.006428,-0.00766*
20,1,0.001,-0.00766,-0.006428,-0.00866,-0.005,90*
1,1,0.001,0.005,-0.00866*
20,1,0.001,-0.00866,-0.005,-0.009397,-0.00342,90*
1,1,0.001,0.00342,-0.009397*
20,1,0.001,-0.009397,-0.00342,-0.009848,-0.001736,90*
1,1,0.001,0.001736,-0.009848*
20,1,0.001,-0.009848,-0.001736,-0.01,0,90*
1,1,0.001,-0,-0.01*
20,1,0.001,-0.01,0,-0.009848,0.001736,90*
1,1,0.001,-0.001736,-0.009848*
20,1,0.001,-0.009848,0.001736,-0.009397,0.00342,90*
1,1,0.001,-0.00342,-0.009397*
20,1,0.001,-0.009397,0.00342,-0.00866,0.005,90*
1,1,0.001,-0.005,-0.00866*
20,1,0.001,-0.00866,0.005,-0.00766,0.006428,90*
1,1,0.001,-0.006428,-0.00766*
20,1,0.001,-0.00766,0.006428,-0.006428,0.00766,90*
1,1,0.001,-0.00766,-0.006428*
20,1,0.001,-0.006428,0.00766,-0.005,0.00866,90*
1,1,0.001,-0.00866,-0.005*
20,1,0.001,-0.005,0.00866,-0.00342,0.009397,90*
1,1,0.001,-0.009397,-0.00342*
20,1,0.001,-0.00342,0.009397,-0.001736,0.009848,90*
1,1,0.001,-0.009848,-0.001736*
20,1,0.001,-0.001736,0.009848,0,0.01,90*
1,1,0.001,-0.01,0*
20,1,0.001,0,0.01,0.001736,0.009848,90*
1,1,0.001,-0.009848,0.001736*
20,1,0.001,0.001736,0.009848,0.00342,0.009397,90*
1,1,0.001,-0.009397,0.00342*
20,1,0.001,0.00342,0.009397,0.005,0.00866,90*
1,1,0.001,-0.00866,0.005*
20,1,0.001,0.005,0.00866,0.006428,0.00766,90*
1,1,0.001,-0.00766,0.006428*
20,1,0.001,0.006428,0.00766,0.00766,0.006428,90*
1,1,0.001,-0.006428,0.00766*
20,1,0.001,0.00766,0.006428,0.00866,0.005,90*
1,1,0.001,-0.005,0.00866*
20,1,0.001,0.00866,0.005,0.009397,0.00342,90*
1,1,0.001,-0.00342,0.009397*
20,1,0.001,0.009397,0.00342,0.009848,0.001736,90*
1,1,0.001,-0.001736,0.009848*
20,1,0.001,0.009848,0.001736,0.01,0,90*
1,1,0.001,0,0.01*
1,1,0.001,0.005,-0.0042*
20,1,0.001,-0.0042,-0.005,0,0.005,90*
1,1,0.001,-0.005,0*
20,1,0.001,0,0.005,0.0042,-0.005,90*
1,1,0.001,0.005,0.0042*
1,1,0.001,0.0015,0.0027*
20,1,0.001,0.0027,-0.0015,-0.0027,-0.0015,90*
1,1,0.001,0.0015,-0.0027*
%
%ADD141MACRO21-R90*%
%AMMACRO22-R90*
1,1,0.001,0,0.021*
20,1,0.001,0.021,0,0.020681,-0.003647,90*
1,1,0.001,0.003647,0.020681*
20,1,0.001,0.020681,-0.003647,0.019734,-0.007182,90*
1,1,0.001,0.007182,0.019734*
20,1,0.001,0.019734,-0.007182,0.018187,-0.0105,90*
1,1,0.001,0.0105,0.018187*
20,1,0.001,0.018187,-0.0105,0.016087,-0.013499,90*
1,1,0.001,0.013499,0.016087*
20,1,0.001,0.016087,-0.013499,0.013499,-0.016087,90*
1,1,0.001,0.016087,0.013499*
20,1,0.001,0.013499,-0.016087,0.0105,-0.018187,90*
1,1,0.001,0.018187,0.0105*
20,1,0.001,0.0105,-0.018187,0.007182,-0.019734,90*
1,1,0.001,0.019734,0.007182*
20,1,0.001,0.007182,-0.019734,0.003647,-0.020681,90*
1,1,0.001,0.020681,0.003647*
20,1,0.001,0.003647,-0.020681,0,-0.021,90*
1,1,0.001,0.021,-0*
20,1,0.001,0,-0.021,-0.003647,-0.020681,90*
1,1,0.001,0.020681,-0.003647*
20,1,0.001,-0.003647,-0.020681,-0.007182,-0.019734,90*
1,1,0.001,0.019734,-0.007182*
20,1,0.001,-0.007182,-0.019734,-0.0105,-0.018187,90*
1,1,0.001,0.018187,-0.0105*
20,1,0.001,-0.0105,-0.018187,-0.013499,-0.016087,90*
1,1,0.001,0.016087,-0.013499*
20,1,0.001,-0.013499,-0.016087,-0.016087,-0.013499,90*
1,1,0.001,0.013499,-0.016087*
20,1,0.001,-0.016087,-0.013499,-0.018187,-0.0105,90*
1,1,0.001,0.0105,-0.018187*
20,1,0.001,-0.018187,-0.0105,-0.019734,-0.007182,90*
1,1,0.001,0.007182,-0.019734*
20,1,0.001,-0.019734,-0.007182,-0.020681,-0.003647,90*
1,1,0.001,0.003647,-0.020681*
20,1,0.001,-0.020681,-0.003647,-0.021,0,90*
1,1,0.001,-0,-0.021*
20,1,0.001,-0.021,0,-0.020681,0.003647,90*
1,1,0.001,-0.003647,-0.020681*
20,1,0.001,-0.020681,0.003647,-0.019734,0.007182,90*
1,1,0.001,-0.007182,-0.019734*
20,1,0.001,-0.019734,0.007182,-0.018187,0.0105,90*
1,1,0.001,-0.0105,-0.018187*
20,1,0.001,-0.018187,0.0105,-0.016087,0.013499,90*
1,1,0.001,-0.013499,-0.016087*
20,1,0.001,-0.016087,0.013499,-0.013499,0.016087,90*
1,1,0.001,-0.016087,-0.013499*
20,1,0.001,-0.013499,0.016087,-0.0105,0.018187,90*
1,1,0.001,-0.018187,-0.0105*
20,1,0.001,-0.0105,0.018187,-0.007182,0.019734,90*
1,1,0.001,-0.019734,-0.007182*
20,1,0.001,-0.007182,0.019734,-0.003647,0.020681,90*
1,1,0.001,-0.020681,-0.003647*
20,1,0.001,-0.003647,0.020681,0,0.021,90*
1,1,0.001,-0.021,0*
20,1,0.001,0,0.021,0.003647,0.020681,90*
1,1,0.001,-0.020681,0.003647*
20,1,0.001,0.003647,0.020681,0.007182,0.019734,90*
1,1,0.001,-0.019734,0.007182*
20,1,0.001,0.007182,0.019734,0.0105,0.018187,90*
1,1,0.001,-0.018187,0.0105*
20,1,0.001,0.0105,0.018187,0.013499,0.016087,90*
1,1,0.001,-0.016087,0.013499*
20,1,0.001,0.013499,0.016087,0.016087,0.013499,90*
1,1,0.001,-0.013499,0.016087*
20,1,0.001,0.016087,0.013499,0.018187,0.0105,90*
1,1,0.001,-0.0105,0.018187*
20,1,0.001,0.018187,0.0105,0.019734,0.007182,90*
1,1,0.001,-0.007182,0.019734*
20,1,0.001,0.019734,0.007182,0.020681,0.003647,90*
1,1,0.001,-0.003647,0.020681*
20,1,0.001,0.020681,0.003647,0.021,0,90*
1,1,0.001,0,0.021*
1,1,0.001,0.0105,0.007*
20,1,0.001,0.007,-0.0105,-0.007,-0.0105,90*
1,1,0.001,0.0105,-0.007*
20,1,0.001,-0.007,-0.0105,-0.007,0.0105,90*
1,1,0.001,-0.0105,-0.007*
20,1,0.001,-0.007,0.0105,0.007,0.0105,90*
1,1,0.001,-0.0105,0.007*
1,1,0.001,-0.0004,0.0014*
20,1,0.001,0.0014,0.0004,-0.007,0.0004,90*
1,1,0.001,-0.0004,-0.007*
%
%ADD142MACRO22-R90*%
%AMMACRO23-R90*
1,1,0.001,0,0.043*
20,1,0.001,0.043,0,0.042347,-0.007467,90*
1,1,0.001,0.007467,0.042347*
20,1,0.001,0.042347,-0.007467,0.040407,-0.014707,90*
1,1,0.001,0.014707,0.040407*
20,1,0.001,0.040407,-0.014707,0.037239,-0.0215,90*
1,1,0.001,0.0215,0.037239*
20,1,0.001,0.037239,-0.0215,0.03294,-0.02764,90*
1,1,0.001,0.02764,0.03294*
20,1,0.001,0.03294,-0.02764,0.02764,-0.03294,90*
1,1,0.001,0.03294,0.02764*
20,1,0.001,0.02764,-0.03294,0.0215,-0.037239,90*
1,1,0.001,0.037239,0.0215*
20,1,0.001,0.0215,-0.037239,0.014707,-0.040407,90*
1,1,0.001,0.040407,0.014707*
20,1,0.001,0.014707,-0.040407,0.007467,-0.042347,90*
1,1,0.001,0.042347,0.007467*
20,1,0.001,0.007467,-0.042347,0,-0.043,90*
1,1,0.001,0.043,-0*
20,1,0.001,0,-0.043,-0.007467,-0.042347,90*
1,1,0.001,0.042347,-0.007467*
20,1,0.001,-0.007467,-0.042347,-0.014707,-0.040407,90*
1,1,0.001,0.040407,-0.014707*
20,1,0.001,-0.014707,-0.040407,-0.0215,-0.037239,90*
1,1,0.001,0.037239,-0.0215*
20,1,0.001,-0.0215,-0.037239,-0.02764,-0.03294,90*
1,1,0.001,0.03294,-0.02764*
20,1,0.001,-0.02764,-0.03294,-0.03294,-0.02764,90*
1,1,0.001,0.02764,-0.03294*
20,1,0.001,-0.03294,-0.02764,-0.037239,-0.0215,90*
1,1,0.001,0.0215,-0.037239*
20,1,0.001,-0.037239,-0.0215,-0.040407,-0.014707,90*
1,1,0.001,0.014707,-0.040407*
20,1,0.001,-0.040407,-0.014707,-0.042347,-0.007467,90*
1,1,0.001,0.007467,-0.042347*
20,1,0.001,-0.042347,-0.007467,-0.043,0,90*
1,1,0.001,-0,-0.043*
20,1,0.001,-0.043,0,-0.042347,0.007467,90*
1,1,0.001,-0.007467,-0.042347*
20,1,0.001,-0.042347,0.007467,-0.040407,0.014707,90*
1,1,0.001,-0.014707,-0.040407*
20,1,0.001,-0.040407,0.014707,-0.037239,0.0215,90*
1,1,0.001,-0.0215,-0.037239*
20,1,0.001,-0.037239,0.0215,-0.03294,0.02764,90*
1,1,0.001,-0.02764,-0.03294*
20,1,0.001,-0.03294,0.02764,-0.02764,0.03294,90*
1,1,0.001,-0.03294,-0.02764*
20,1,0.001,-0.02764,0.03294,-0.0215,0.037239,90*
1,1,0.001,-0.037239,-0.0215*
20,1,0.001,-0.0215,0.037239,-0.014707,0.040407,90*
1,1,0.001,-0.040407,-0.014707*
20,1,0.001,-0.014707,0.040407,-0.007467,0.042347,90*
1,1,0.001,-0.042347,-0.007467*
20,1,0.001,-0.007467,0.042347,0,0.043,90*
1,1,0.001,-0.043,0*
20,1,0.001,0,0.043,0.007467,0.042347,90*
1,1,0.001,-0.042347,0.007467*
20,1,0.001,0.007467,0.042347,0.014707,0.040407,90*
1,1,0.001,-0.040407,0.014707*
20,1,0.001,0.014707,0.040407,0.0215,0.037239,90*
1,1,0.001,-0.037239,0.0215*
20,1,0.001,0.0215,0.037239,0.02764,0.03294,90*
1,1,0.001,-0.03294,0.02764*
20,1,0.001,0.02764,0.03294,0.03294,0.02764,90*
1,1,0.001,-0.02764,0.03294*
20,1,0.001,0.03294,0.02764,0.037239,0.0215,90*
1,1,0.001,-0.0215,0.037239*
20,1,0.001,0.037239,0.0215,0.040407,0.014707,90*
1,1,0.001,-0.014707,0.040407*
20,1,0.001,0.040407,0.014707,0.042347,0.007467,90*
1,1,0.001,-0.007467,0.042347*
20,1,0.001,0.042347,0.007467,0.043,0,90*
1,1,0.001,0,0.043*
1,1,0.001,0.0215,-0.0136*
20,1,0.001,-0.0136,-0.0215,-0.0136,0.0215,90*
1,1,0.001,-0.0215,-0.0136*
20,1,0.001,-0.0136,0.0215,0.0136,0.0215,90*
1,1,0.001,-0.0215,0.0136*
1,1,0.001,-0.0007,0.0036*
20,1,0.001,0.0036,0.0007,-0.0136,0.0007,90*
1,1,0.001,-0.0007,-0.0136*
%
%ADD143MACRO23-R90*%
%AMMACRO24-R90*
1,1,0.001,0,0.01*
20,1,0.001,0.01,0,-0.01,0,90*
1,1,0.001,-0,-0.01*
1,1,0.001,-0.01,0*
20,1,0.001,0,0.01,0,-0.01,90*
1,1,0.001,0.01,-0*
%
%ADD144MACRO24-R90*%
%AMMACRO25-R90*
1,1,0.001,0,0.0175*
20,1,0.001,0.0175,0,0.017234,-0.003039,90*
1,1,0.001,0.003039,0.017234*
20,1,0.001,0.017234,-0.003039,0.016445,-0.005985,90*
1,1,0.001,0.005985,0.016445*
20,1,0.001,0.016445,-0.005985,0.015155,-0.00875,90*
1,1,0.001,0.00875,0.015155*
20,1,0.001,0.015155,-0.00875,0.013406,-0.011249,90*
1,1,0.001,0.011249,0.013406*
20,1,0.001,0.013406,-0.011249,0.011249,-0.013406,90*
1,1,0.001,0.013406,0.011249*
20,1,0.001,0.011249,-0.013406,0.00875,-0.015155,90*
1,1,0.001,0.015155,0.00875*
20,1,0.001,0.00875,-0.015155,0.005985,-0.016445,90*
1,1,0.001,0.016445,0.005985*
20,1,0.001,0.005985,-0.016445,0.003039,-0.017234,90*
1,1,0.001,0.017234,0.003039*
20,1,0.001,0.003039,-0.017234,0,-0.0175,90*
1,1,0.001,0.0175,-0*
20,1,0.001,0,-0.0175,-0.003039,-0.017234,90*
1,1,0.001,0.017234,-0.003039*
20,1,0.001,-0.003039,-0.017234,-0.005985,-0.016445,90*
1,1,0.001,0.016445,-0.005985*
20,1,0.001,-0.005985,-0.016445,-0.00875,-0.015155,90*
1,1,0.001,0.015155,-0.00875*
20,1,0.001,-0.00875,-0.015155,-0.011249,-0.013406,90*
1,1,0.001,0.013406,-0.011249*
20,1,0.001,-0.011249,-0.013406,-0.013406,-0.011249,90*
1,1,0.001,0.011249,-0.013406*
20,1,0.001,-0.013406,-0.011249,-0.015155,-0.00875,90*
1,1,0.001,0.00875,-0.015155*
20,1,0.001,-0.015155,-0.00875,-0.016445,-0.005985,90*
1,1,0.001,0.005985,-0.016445*
20,1,0.001,-0.016445,-0.005985,-0.017234,-0.003039,90*
1,1,0.001,0.003039,-0.017234*
20,1,0.001,-0.017234,-0.003039,-0.0175,0,90*
1,1,0.001,-0,-0.0175*
20,1,0.001,-0.0175,0,-0.017234,0.003039,90*
1,1,0.001,-0.003039,-0.017234*
20,1,0.001,-0.017234,0.003039,-0.016445,0.005985,90*
1,1,0.001,-0.005985,-0.016445*
20,1,0.001,-0.016445,0.005985,-0.015155,0.00875,90*
1,1,0.001,-0.00875,-0.015155*
20,1,0.001,-0.015155,0.00875,-0.013406,0.011249,90*
1,1,0.001,-0.011249,-0.013406*
20,1,0.001,-0.013406,0.011249,-0.011249,0.013406,90*
1,1,0.001,-0.013406,-0.011249*
20,1,0.001,-0.011249,0.013406,-0.00875,0.015155,90*
1,1,0.001,-0.015155,-0.00875*
20,1,0.001,-0.00875,0.015155,-0.005985,0.016445,90*
1,1,0.001,-0.016445,-0.005985*
20,1,0.001,-0.005985,0.016445,-0.003039,0.017234,90*
1,1,0.001,-0.017234,-0.003039*
20,1,0.001,-0.003039,0.017234,0,0.0175,90*
1,1,0.001,-0.0175,0*
20,1,0.001,0,0.0175,0.003039,0.017234,90*
1,1,0.001,-0.017234,0.003039*
20,1,0.001,0.003039,0.017234,0.005985,0.016445,90*
1,1,0.001,-0.016445,0.005985*
20,1,0.001,0.005985,0.016445,0.00875,0.015155,90*
1,1,0.001,-0.015155,0.00875*
20,1,0.001,0.00875,0.015155,0.011249,0.013406,90*
1,1,0.001,-0.013406,0.011249*
20,1,0.001,0.011249,0.013406,0.013406,0.011249,90*
1,1,0.001,-0.011249,0.013406*
20,1,0.001,0.013406,0.011249,0.015155,0.00875,90*
1,1,0.001,-0.00875,0.015155*
20,1,0.001,0.015155,0.00875,0.016445,0.005985,90*
1,1,0.001,-0.005985,0.016445*
20,1,0.001,0.016445,0.005985,0.017234,0.003039,90*
1,1,0.001,-0.003039,0.017234*
20,1,0.001,0.017234,0.003039,0.0175,0,90*
1,1,0.001,0,0.0175*
1,1,0.001,-0.0073,0.0065*
20,1,0.001,0.0065,0.0073,0.0047,0.0082,90*
1,1,0.001,-0.0082,0.0047*
20,1,0.001,0.0047,0.0082,0.0027,0.0088,90*
1,1,0.001,-0.0088,0.0027*
20,1,0.001,0.0027,0.0088,0.0003,0.0088,90*
1,1,0.001,-0.0088,0.0003*
20,1,0.001,0.0003,0.0088,-0.0023,0.0079,90*
1,1,0.001,-0.0079,-0.0023*
20,1,0.001,-0.0023,0.0079,-0.0043,0.0065,90*
1,1,0.001,-0.0065,-0.0043*
20,1,0.001,-0.0043,0.0065,-0.0058,0.0047,90*
1,1,0.001,-0.0047,-0.0058*
20,1,0.001,-0.0058,0.0047,-0.007,0.0018,90*
1,1,0.001,-0.0018,-0.007*
20,1,0.001,-0.007,0.0018,-0.0072,-0.0008,90*
1,1,0.001,0.0008,-0.0072*
20,1,0.001,-0.0072,-0.0008,-0.0067,-0.0035,90*
1,1,0.001,0.0035,-0.0067*
20,1,0.001,-0.0067,-0.0035,-0.0058,-0.0052,90*
1,1,0.001,0.0052,-0.0058*
20,1,0.001,-0.0058,-0.0052,-0.004,-0.007,90*
1,1,0.001,0.007,-0.004*
20,1,0.001,-0.004,-0.007,-0.002,-0.0081,90*
1,1,0.001,0.0081,-0.002*
20,1,0.001,-0.002,-0.0081,0,-0.0087,90*
1,1,0.001,0.0087,-0*
20,1,0.001,0,-0.0087,0.0021,-0.0087,90*
1,1,0.001,0.0087,0.0021*
20,1,0.001,0.0021,-0.0087,0.0041,-0.0081,90*
1,1,0.001,0.0081,0.0041*
20,1,0.001,0.0041,-0.0081,0.0059,-0.0072,90*
1,1,0.001,0.0072,0.0059*
20,1,0.001,0.0059,-0.0072,0.0073,-0.0061,90*
1,1,0.001,0.0061,0.0073*
%
%ADD145MACRO25-R90*%
%AMMACRO18-R90*
1,1,0.001,0.0625,-0.0438*
20,1,0.001,-0.0438,-0.0625,0.0438,0.0625,90*
1,1,0.001,-0.0625,0.0438*
1,1,0.001,-0.0625,-0.0438*
20,1,0.001,-0.0438,0.0625,0.0438,-0.0625,90*
1,1,0.001,0.0625,0.0438*
%
%ADD146MACRO18-R90*%
%AMMACRO19-R90*
1,1,0.001,0,0.014*
20,1,0.001,0.014,0,0.013787,-0.002431,90*
1,1,0.001,0.002431,0.013787*
20,1,0.001,0.013787,-0.002431,0.013156,-0.004788,90*
1,1,0.001,0.004788,0.013156*
20,1,0.001,0.013156,-0.004788,0.012124,-0.007,90*
1,1,0.001,0.007,0.012124*
20,1,0.001,0.012124,-0.007,0.010725,-0.008999,90*
1,1,0.001,0.008999,0.010725*
20,1,0.001,0.010725,-0.008999,0.008999,-0.010725,90*
1,1,0.001,0.010725,0.008999*
20,1,0.001,0.008999,-0.010725,0.007,-0.012124,90*
1,1,0.001,0.012124,0.007*
20,1,0.001,0.007,-0.012124,0.004788,-0.013156,90*
1,1,0.001,0.013156,0.004788*
20,1,0.001,0.004788,-0.013156,0.002431,-0.013787,90*
1,1,0.001,0.013787,0.002431*
20,1,0.001,0.002431,-0.013787,0,-0.014,90*
1,1,0.001,0.014,-0*
20,1,0.001,0,-0.014,-0.002431,-0.013787,90*
1,1,0.001,0.013787,-0.002431*
20,1,0.001,-0.002431,-0.013787,-0.004788,-0.013156,90*
1,1,0.001,0.013156,-0.004788*
20,1,0.001,-0.004788,-0.013156,-0.007,-0.012124,90*
1,1,0.001,0.012124,-0.007*
20,1,0.001,-0.007,-0.012124,-0.008999,-0.010725,90*
1,1,0.001,0.010725,-0.008999*
20,1,0.001,-0.008999,-0.010725,-0.010725,-0.008999,90*
1,1,0.001,0.008999,-0.010725*
20,1,0.001,-0.010725,-0.008999,-0.012124,-0.007,90*
1,1,0.001,0.007,-0.012124*
20,1,0.001,-0.012124,-0.007,-0.013156,-0.004788,90*
1,1,0.001,0.004788,-0.013156*
20,1,0.001,-0.013156,-0.004788,-0.013787,-0.002431,90*
1,1,0.001,0.002431,-0.013787*
20,1,0.001,-0.013787,-0.002431,-0.014,0,90*
1,1,0.001,-0,-0.014*
20,1,0.001,-0.014,0,-0.013787,0.002431,90*
1,1,0.001,-0.002431,-0.013787*
20,1,0.001,-0.013787,0.002431,-0.013156,0.004788,90*
1,1,0.001,-0.004788,-0.013156*
20,1,0.001,-0.013156,0.004788,-0.012124,0.007,90*
1,1,0.001,-0.007,-0.012124*
20,1,0.001,-0.012124,0.007,-0.010725,0.008999,90*
1,1,0.001,-0.008999,-0.010725*
20,1,0.001,-0.010725,0.008999,-0.008999,0.010725,90*
1,1,0.001,-0.010725,-0.008999*
20,1,0.001,-0.008999,0.010725,-0.007,0.012124,90*
1,1,0.001,-0.012124,-0.007*
20,1,0.001,-0.007,0.012124,-0.004788,0.013156,90*
1,1,0.001,-0.013156,-0.004788*
20,1,0.001,-0.004788,0.013156,-0.002431,0.013787,90*
1,1,0.001,-0.013787,-0.002431*
20,1,0.001,-0.002431,0.013787,0,0.014,90*
1,1,0.001,-0.014,0*
20,1,0.001,0,0.014,0.002431,0.013787,90*
1,1,0.001,-0.013787,0.002431*
20,1,0.001,0.002431,0.013787,0.004788,0.013156,90*
1,1,0.001,-0.013156,0.004788*
20,1,0.001,0.004788,0.013156,0.007,0.012124,90*
1,1,0.001,-0.012124,0.007*
20,1,0.001,0.007,0.012124,0.008999,0.010725,90*
1,1,0.001,-0.010725,0.008999*
20,1,0.001,0.008999,0.010725,0.010725,0.008999,90*
1,1,0.001,-0.008999,0.010725*
20,1,0.001,0.010725,0.008999,0.012124,0.007,90*
1,1,0.001,-0.007,0.012124*
20,1,0.001,0.012124,0.007,0.013156,0.004788,90*
1,1,0.001,-0.004788,0.013156*
20,1,0.001,0.013156,0.004788,0.013787,0.002431,90*
1,1,0.001,-0.002431,0.013787*
20,1,0.001,0.013787,0.002431,0.014,0,90*
1,1,0.001,0,0.014*
1,1,0.001,-0.0005,0.0019*
20,1,0.001,0.0019,0.0005,0.0028,0.0012,90*
1,1,0.001,-0.0012,0.0028*
20,1,0.001,0.0028,0.0012,0.0035,0.0023,90*
1,1,0.001,-0.0023,0.0035*
20,1,0.001,0.0035,0.0023,0.004,0.004,90*
1,1,0.001,-0.004,0.004*
20,1,0.001,0.004,0.004,0.0035,0.0054,90*
1,1,0.001,-0.0054,0.0035*
20,1,0.001,0.0035,0.0054,0.0026,0.0063,90*
1,1,0.001,-0.0063,0.0026*
20,1,0.001,0.0026,0.0063,0.0009,0.007,90*
1,1,0.001,-0.007,0.0009*
20,1,0.001,0.0009,0.007,-0.0054,0.007,90*
1,1,0.001,-0.007,-0.0054*
20,1,0.001,-0.0054,0.007,-0.0054,-0.007,90*
1,1,0.001,0.007,-0.0054*
20,1,0.001,-0.0054,-0.007,0.0023,-0.007,90*
1,1,0.001,0.007,0.0023*
20,1,0.001,0.0023,-0.007,0.004,-0.0061,90*
1,1,0.001,0.0061,0.004*
20,1,0.001,0.004,-0.0061,0.0049,-0.0047,90*
1,1,0.001,0.0047,0.0049*
20,1,0.001,0.0049,-0.0047,0.0054,-0.003,90*
1,1,0.001,0.003,0.0054*
20,1,0.001,0.0054,-0.003,0.0049,-0.0014,90*
1,1,0.001,0.0014,0.0049*
20,1,0.001,0.0049,-0.0014,0.0035,0,90*
1,1,0.001,0,0.0035*
20,1,0.001,0.0035,0,0.0019,0.0005,90*
1,1,0.001,-0.0005,0.0019*
20,1,0.001,0.0019,0.0005,-0.0054,0.0005,90*
1,1,0.001,-0.0005,-0.0054*
%
%ADD147MACRO19-R90*%
G54D126*
%SRX1Y1I0.0J0.0*%
G1X1000Y1000D3*
G1X1000Y34000D3*
G1X64000Y1000D3*
G1X64000Y34000D3*
G54D111*
G1X1400Y7000D3*
G1X1400Y7600D3*
G1X1400Y8200D3*
G1X1400Y8800D3*
G1X1400Y9400D3*
G1X3200Y9400D3*
G1X3200Y8800D3*
G1X2600Y9400D3*
G1X2600Y8800D3*
G1X2000Y9400D3*
G1X2000Y8800D3*
G1X3800Y7000D3*
G1X3800Y7600D3*
G1X3800Y8200D3*
G1X3800Y8800D3*
G1X3800Y9400D3*
G1X7300Y26650D3*
G1X6440Y27100D3*
G1X8800Y12450D3*
G1X8800Y14650D3*
G1X10000Y18800D3*
G1X10000Y21200D3*
G1X11200Y18800D3*
G1X11200Y19400D3*
G1X11200Y20600D3*
G1X11200Y20000D3*
G1X11200Y21200D3*
G1X17000Y16200D3*
G1X18550Y11430D3*
G1X18550Y14650D3*
G1X23800Y18000D3*
G1X24150Y20950D3*
G1X24150Y22150D3*
G1X24850Y22150D3*
G1X25300Y18000D3*
G1X25300Y20450D3*
G1X26050Y26700D3*
G1X27150Y5400D3*
G1X27150Y7400D3*
G1X27150Y9400D3*
G1X27100Y11520D3*
G1X27100Y14480D3*
G1X26750Y17050D3*
G1X27100Y26700D3*
G1X26700Y31950D3*
G1X27800Y2800D3*
G1X27800Y4000D3*
G1X27700Y11520D3*
G1X27700Y14480D3*
G1X28850Y17050D3*
G1X27700Y18880D3*
G1X27700Y19950D3*
G1X27700Y29300D3*
G1X27700Y31950D3*
G1X29550Y8800D3*
G1X29350Y20400D3*
G1X30150Y28850D3*
G1X30800Y8600D3*
G1X31100Y9950D3*
G1X30500Y9950D3*
G1X31100Y29200D3*
G1X32600Y26350D3*
G1X32950Y28850D3*
G1X34150Y3800D3*
G1X34150Y4650D3*
G1X33300Y7950D3*
G1X33800Y9950D3*
G1X34150Y11400D3*
G1X33600Y11520D3*
G1X34150Y14550D3*
G1X33600Y15050D3*
G1X35400Y600D3*
G1X35400Y2000D3*
G1X35400Y3950D3*
G1X35400Y6100D3*
G1X34500Y9950D3*
G1X36200Y3900D3*
G1X36200Y7900D3*
G1X36900Y15050D3*
G1X38400Y6100D3*
G1X37400Y8300D3*
G1X37590Y24100D3*
G1X38300Y24400D3*
G1X38300Y25200D3*
G1X37580Y29150D3*
G1X38210Y32900D3*
G1X39400Y7450D3*
G1X40400Y5800D3*
G1X40550Y28650D3*
G1X40550Y30350D3*
G1X41050Y30500D3*
G1X41750Y14550D3*
G1X41750Y16750D3*
G1X41300Y28350D3*
G1X43400Y5850D3*
G1X43000Y15450D3*
G1X43150Y20650D3*
G1X43850Y21350D3*
G1X43250Y26750D3*
G1X43250Y28750D3*
G1X44400Y5850D3*
G1X45000Y11500D3*
G1X44450Y21950D3*
G1X45150Y22650D3*
G1X45210Y27960D3*
G1X45200Y30350D3*
G1X44530Y31940D3*
G1X45400Y5850D3*
G1X46400Y11500D3*
G1X46400Y15350D3*
G1X46510Y25710D3*
G1X46900Y1700D3*
G1X46950Y3900D3*
G1X46950Y7000D3*
G1X46950Y6200D3*
G1X46950Y7600D3*
G1X47400Y15700D3*
G1X47100Y19200D3*
G1X47900Y18500D3*
G1X47100Y18500D3*
G1X47100Y19800D3*
G1X47500Y25650D3*
G1X47350Y28700D3*
G1X48900Y3900D3*
G1X48100Y7000D3*
G1X48100Y6200D3*
G1X48100Y7600D3*
G1X48400Y11500D3*
G1X48400Y14850D3*
G1X48500Y19200D3*
G1X48500Y19800D3*
G1X50100Y4350D3*
G1X49550Y20500D3*
G1X50600Y21850D3*
G1X50600Y21100D3*
G1X49550Y21100D3*
G1X50650Y28750D3*
G1X50100Y28750D3*
G1X49550Y28750D3*
G1X50650Y29750D3*
G1X50100Y29950D3*
G1X49550Y30150D3*
G1X52700Y3150D3*
G1X52650Y5200D3*
G1X52750Y7150D3*
G1X52800Y21850D3*
G1X52800Y21150D3*
G1X52600Y29500D3*
G1X54450Y11500D3*
G1X54450Y14500D3*
G1X53800Y15150D3*
G1X53800Y15850D3*
G1X55850Y5650D3*
G1X55800Y7300D3*
G1X55800Y8000D3*
G1X54850Y9700D3*
G1X55550Y11500D3*
G1X56100Y12900D3*
G1X55550Y14500D3*
G1X55000Y14500D3*
G1X56100Y14500D3*
G1X55650Y20650D3*
G1X55650Y21300D3*
G1X55500Y24000D3*
G1X55500Y24600D3*
G1X56650Y5650D3*
G1X57300Y5950D3*
G1X57300Y8650D3*
G1X57300Y10900D3*
G1X56600Y15150D3*
G1X56600Y15850D3*
G1X56800Y25500D3*
G1X57750Y9700D3*
G1X57750Y12450D3*
G1X57750Y15300D3*
G1X59050Y19600D3*
G1X60750Y4150D3*
G1X60750Y5150D3*
G1X60750Y6150D3*
G1X-4913Y-1220D2*
G54D26*
G1X-4913Y-470D1*
G1X-4670Y-1095D1*
G1X-4427Y-470D1*
G1X-4427Y-1220D1*
G1X-3733Y-1220D2*
G1X-4107Y-1220D1*
G1X-4107Y-470D1*
G1X-3733Y-470D1*
G1X-3883Y-832D2*
G1X-4107Y-832D1*
G1X-2965Y-533D2*
G1X-3021Y-495D1*
G1X-3086Y-470D1*
G1X-3161Y-470D1*
G1X-3245Y-508D1*
G1X-3310Y-570D1*
G1X-3357Y-645D1*
G1X-3394Y-770D1*
G1X-3403Y-883D1*
G1X-3385Y-995D1*
G1X-3357Y-1070D1*
G1X-3301Y-1145D1*
G1X-3235Y-1195D1*
G1X-3170Y-1220D1*
G1X-3105Y-1220D1*
G1X-3039Y-1195D1*
G1X-2983Y-1158D1*
G1X-2937Y-1108D1*
G1X-2616Y-1220D2*
G1X-2616Y-470D1*
G1X-2224Y-470D2*
G1X-2224Y-1220D1*
G1X-2224Y-845D2*
G1X-2616Y-845D1*
G54D125*
G1X1650Y13700D3*
G1X1600Y30800D3*
G1X2650Y13700D3*
G1X2600Y30800D3*
G1X3650Y13700D3*
G1X3600Y30800D3*
G1X16550Y2600D3*
G1X16550Y5600D3*
G1X18550Y2600D3*
G1X18550Y5600D3*
G1X18650Y27100D3*
G1X18650Y28100D3*
G1X18650Y29100D3*
G1X37400Y2200D3*
G1X38400Y3200D3*
G1X37400Y3200D3*
G1X38400Y2200D3*
G1X39400Y3200D3*
G1X39400Y2200D3*
G1X40400Y3200D3*
G1X40400Y2200D3*
G1X42400Y3200D3*
G1X41400Y3200D3*
G1X42400Y2200D3*
G1X41400Y2200D3*
G1X43400Y3200D3*
G1X43400Y2200D3*
G1X44400Y3200D3*
G1X44400Y2200D3*
G1X46400Y3200D3*
G1X45400Y3200D3*
G1X46400Y2200D3*
G1X45400Y2200D3*
G1X47400Y3200D3*
G1X47400Y2200D3*
G1X48400Y3200D3*
G1X48400Y2200D3*
G1X49400Y3200D3*
G1X49400Y2200D3*
G54D117*
G1X950Y15350D3*
G1X4950Y15350D3*
G1X5610Y27310D3*
G1X5610Y31310D3*
G1X6150Y17000D3*
G1X6150Y21000D3*
G1X6950Y28050D3*
G1X6950Y32050D3*
G1X9200Y2800D3*
G1X9200Y3800D3*
G1X9200Y5800D3*
G1X9200Y4800D3*
G1X9200Y6800D3*
G1X9200Y7800D3*
G1X9200Y9800D3*
G1X9200Y8800D3*
G1X9400Y28300D3*
G1X9400Y30800D3*
G1X12200Y2800D3*
G1X12200Y3800D3*
G1X12200Y4800D3*
G1X12200Y5800D3*
G1X12200Y6800D3*
G1X12200Y7800D3*
G1X12200Y8800D3*
G1X12200Y9800D3*
G1X11950Y31050D3*
G1X13800Y17200D3*
G1X13800Y20200D3*
G1X14600Y7800D3*
G1X14600Y10300D3*
G1X14800Y17200D3*
G1X14800Y20200D3*
G1X15800Y17200D3*
G1X16800Y17200D3*
G1X16800Y20200D3*
G1X15800Y20200D3*
G1X15950Y31050D3*
G1X20000Y2550D3*
G1X20000Y4550D3*
G1X20000Y3550D3*
G1X20000Y5550D3*
G1X20000Y6550D3*
G1X20000Y8550D3*
G1X20000Y7550D3*
G1X20950Y26100D3*
G1X20950Y30100D3*
G1X23000Y2550D3*
G1X23000Y3550D3*
G1X23000Y4550D3*
G1X23000Y5550D3*
G1X23000Y6550D3*
G1X23000Y7550D3*
G1X23000Y8550D3*
G1X23200Y27800D3*
G1X23200Y32800D3*
G1X24200Y30800D3*
G1X26200Y27800D3*
G1X26200Y32800D3*
G1X27200Y30800D3*
G1X28800Y1500D3*
G1X28800Y2800D3*
G1X28800Y3800D3*
G1X28800Y5800D3*
G1X28800Y4800D3*
G1X28800Y6800D3*
G1X28800Y7800D3*
G1X28800Y8800D3*
G1X30350Y16400D3*
G1X29350Y18400D3*
G1X30350Y21400D3*
G1X32800Y1500D3*
G1X31800Y2800D3*
G1X31800Y3800D3*
G1X31800Y4800D3*
G1X31800Y5800D3*
G1X31800Y6800D3*
G1X31800Y7800D3*
G1X31800Y8800D3*
G1X32950Y16400D3*
G1X31950Y18400D3*
G1X32950Y21400D3*
G1X33300Y4800D3*
G1X33300Y8800D3*
G1X35800Y16400D3*
G1X35800Y17400D3*
G1X35800Y19400D3*
G1X35800Y18400D3*
G1X35800Y20400D3*
G1X35800Y21400D3*
G1X35800Y22400D3*
G1X38800Y16400D3*
G1X38800Y17400D3*
G1X38800Y18400D3*
G1X38800Y19400D3*
G1X38800Y20400D3*
G1X38800Y21400D3*
G1X38800Y22400D3*
G1X40250Y25350D3*
G1X42350Y20700D3*
G1X42250Y25350D3*
G1X41250Y27350D3*
G1X43000Y16700D3*
G1X43350Y30900D3*
G1X43700Y32260D3*
G1X45000Y15700D3*
G1X45000Y17700D3*
G1X44850Y20700D3*
G1X46400Y4500D3*
G1X46400Y8500D3*
G1X46000Y22350D3*
G1X46000Y25350D3*
G1X47000Y22350D3*
G1X47000Y25350D3*
G1X47350Y30900D3*
G1X47700Y32260D3*
G1X48000Y22350D3*
G1X49000Y22350D3*
G1X49000Y25350D3*
G1X48000Y25350D3*
G1X51850Y17500D3*
G1X51850Y19500D3*
G1X51850Y18500D3*
G1X51850Y20500D3*
G1X51850Y21500D3*
G1X51850Y23500D3*
G1X51850Y22500D3*
G1X55200Y3150D3*
G1X55200Y2150D3*
G1X55200Y4150D3*
G1X55200Y5150D3*
G1X55200Y7150D3*
G1X55200Y6150D3*
G1X55200Y8150D3*
G1X54850Y17500D3*
G1X54850Y18500D3*
G1X54850Y19500D3*
G1X54850Y20500D3*
G1X54850Y21500D3*
G1X54850Y22500D3*
G1X54850Y23500D3*
G1X57300Y18150D3*
G1X57300Y17150D3*
G1X57300Y19150D3*
G1X57300Y20150D3*
G1X57300Y22150D3*
G1X57300Y21150D3*
G1X57300Y23150D3*
G1X58200Y2150D3*
G1X58200Y3150D3*
G1X58200Y4150D3*
G1X58200Y5150D3*
G1X58200Y6150D3*
G1X58200Y7150D3*
G1X58200Y8150D3*
G1X60300Y17150D3*
G1X60300Y18150D3*
G1X60300Y19150D3*
G1X60300Y20150D3*
G1X60300Y21150D3*
G1X60300Y22150D3*
G1X60300Y23150D3*
G1X-250Y1750D2*
G54D13*
G1X-250Y-250D1*
G1X1750Y-250D1*
G1X-250Y35250D2*
G1X-250Y33250D1*
G1X1750Y35250D2*
G1X-250Y35250D1*
G1X84250Y-250D2*
G1X86250Y-250D1*
G1X86250Y35250D2*
G1X84250Y35250D1*
G1X86250Y-250D2*
G1X86250Y1750D1*
G1X86250Y33250D2*
G1X86250Y35250D1*
G54D116*
G1X2650Y7700D3*
G1X2600Y24800D3*
G1X12650Y28100D3*
G54D113*
G1X1960Y19220D3*
G1X3960Y19220D3*
G1X7000Y1200D3*
G1X14800Y15000D3*
G1X15800Y15000D3*
G1X16800Y15000D3*
G1X18500Y15400D3*
G1X18500Y16400D3*
G1X20600Y31200D3*
G1X21600Y31200D3*
G1X23600Y17200D3*
G1X23600Y20200D3*
G1X29600Y29700D3*
G1X29600Y30700D3*
G1X31600Y29700D3*
G1X30600Y29700D3*
G1X31600Y30700D3*
G1X30600Y30700D3*
G1X32600Y29700D3*
G1X32600Y30700D3*
G1X33600Y29700D3*
G1X33600Y30700D3*
G1X34590Y17410D3*
G1X34570Y22390D3*
G1X35250Y24350D3*
G1X35250Y25350D3*
G1X35250Y26350D3*
G1X35250Y27350D3*
G1X35250Y28350D3*
G1X36250Y24350D3*
G1X36250Y25350D3*
G1X36250Y26350D3*
G1X36250Y27350D3*
G1X36250Y28350D3*
G1X38050Y31300D3*
G1X38050Y32300D3*
G1X39050Y31300D3*
G1X39050Y32300D3*
G1X39900Y18400D3*
G1X40900Y18400D3*
G1X39900Y20400D3*
G1X40900Y20400D3*
G1X41050Y31300D3*
G1X40050Y31300D3*
G1X41050Y32300D3*
G1X40050Y32300D3*
G1X42050Y31300D3*
G1X42050Y32300D3*
G1X53800Y29050D3*
G1X54800Y29050D3*
G1X54800Y30050D3*
G1X53800Y30050D3*
G1X55800Y29050D3*
G1X55800Y30050D3*
G1X56800Y29050D3*
G1X56800Y30050D3*
G1X57800Y29050D3*
G1X57800Y30050D3*
G1X63370Y30070D3*
G54D119*
G1X3250Y33000D3*
G1X4810Y33000D3*
G1X11950Y33000D3*
G1X13510Y33000D3*
G54D127*
G1X6050Y23500D3*
G1X9050Y23500D3*
G1X16850Y23500D3*
G1X19850Y23500D3*
G54D122*
G1X13200Y2450D3*
G1X13200Y5050D3*
G1X14200Y1450D3*
G1X15200Y2450D3*
G1X14200Y4050D3*
G1X15200Y5050D3*
G1X20600Y32400D3*
G1X19600Y33400D3*
G1X22000Y23200D3*
G1X22000Y25200D3*
G1X21600Y33400D3*
G1X23000Y24200D3*
G54D130*
G1X25650Y2150D3*
G1X25650Y9540D3*
G1X25650Y11300D3*
G1X25650Y14580D3*
G1X28390Y12570D3*
G1X28390Y14750D3*
G1X28400Y18800D3*
G1X28400Y20030D3*
G1X28400Y29260D3*
G1X28400Y30700D3*
G1X43900Y25350D3*
G1X44900Y25350D3*
G1X47400Y11420D3*
G1X47400Y13750D3*
G1X62100Y13700D3*
G1X63800Y13700D3*
G54D140*
G1X71452Y1845D3*
G1X69452Y1845D3*
G1X76502Y5095D3*
G1X75502Y5095D3*
G1X71452Y4845D3*
G1X69452Y4845D3*
G1X76486Y6079D3*
G1X75502Y6079D3*
G54D141*
G1X83062Y5055D3*
G1X76295Y7045D3*
G1X74707Y7290D3*
G1X72302Y8155D3*
G1X77262Y9285D3*
G1X72312Y10245D3*
G1X79512Y13365D3*
G1X78412Y13365D3*
G1X73542Y12735D3*
G1X72242Y12725D3*
G1X79842Y15175D3*
G1X78412Y15175D3*
G1X78412Y13955D3*
G1X79842Y13955D3*
G1X80172Y14565D3*
G1X78412Y14565D3*
G1X72947Y14590D3*
G1X70757Y14780D3*
G1X82022Y17395D3*
G1X80177Y18545D3*
G1X79802Y17355D3*
G1X70757Y16340D3*
G1X71852Y17555D3*
G1X66752Y18345D3*
G1X84102Y20495D3*
G1X83552Y21205D3*
G1X81552Y20705D3*
G1X81562Y18960D3*
G1X82022Y20205D3*
G1X79802Y19545D3*
G1X69952Y22095D3*
G1X66752Y23945D3*
G1X70972Y26815D3*
G54D142*
G1X80842Y5065D3*
G1X81842Y5065D3*
G1X80842Y8065D3*
G1X81842Y8065D3*
G1X80842Y7065D3*
G1X81842Y7065D3*
G1X80842Y6065D3*
G1X81842Y6065D3*
G1X80842Y9065D3*
G1X81842Y9065D3*
G1X83502Y23995D3*
G1X82502Y23995D3*
G1X81502Y23995D3*
G1X77652Y27045D3*
G1X77652Y28045D3*
G1X76652Y27045D3*
G1X76652Y28045D3*
G1X75652Y27045D3*
G1X75652Y28045D3*
G1X74652Y27045D3*
G1X74652Y28045D3*
G1X73652Y27045D3*
G1X73652Y28045D3*
G54D143*
G1X78370Y4007D3*
G1X73626Y4027D3*
G1X75902Y8575D3*
G54D144*
G1X73892Y16065D3*
G1X75902Y26045D3*
G1X74352Y26045D3*
G54D145*
G1X78102Y18645D3*
G1X76702Y18645D3*
G1X75352Y18645D3*
G1X74052Y18645D3*
G1X78102Y22645D3*
G1X76702Y22645D3*
G1X75352Y22645D3*
G1X74052Y22645D3*
G54D146*
G1X85002Y995D3*
G1X67002Y995D3*
G1X85002Y28995D3*
G1X67002Y28995D3*
G54D147*
G1X74782Y2435D3*
G1X77142Y3305D3*
G1X76652Y11245D3*
G1X76652Y13245D3*
G1X74652Y17795D3*
G1X74652Y19770D3*
G1X82002Y21895D3*
G1X78382Y21805D3*
G1X75362Y21815D3*
G1X76742Y21805D3*
G1X73952Y21815D3*
M2*
