*
%LPD*%
%LNSMB*%
%FSLAX24Y24*%
%MOIN*%
%AD*%
%ADD13C,0.05*%
%ADD14C,0.06*%
%ADD16C,0.062*%
%ADD18R,0.086X0.086*%
%ADD19C,0.1*%
%ADD20R,0.062X0.062*%
%ADD21R,0.05X0.05*%
%ADD24C,0.055*%
%ADD26C,0.005*%
%ADD56C,0.11*%
%ADD57C,0.145*%
%ADD58C,0.041*%
%ADD59C,0.043*%
%ADD60C,0.09*%
%ADD61C,0.057*%
%ADD62C,0.067*%
%ADD63R,0.067X0.067*%
%ADD85C,0.075*%
%ADD86C,0.147*%
%ADD87R,0.063X0.063*%
%ADD88R,0.1X0.1*%
%ADD90C,0.063*%
%ADD92C,0.058*%
%ADD93R,0.058X0.058*%
%ADD95C,0.056*%
%ADD96R,0.06X0.06*%
%ADD131C,0.114*%
%ADD132R,0.056X0.056*%
%ADD138R,0.048X0.056*%
%ADD139R,0.04X0.056*%
G54D57*
%SRX1Y1I0.0J0.0*%
G1X1000Y1000D3*
G1X1000Y34000D3*
G1X64000Y1000D3*
G1X64000Y34000D3*
G54D18*
G1X1650Y12200D3*
G1X2970Y12200D3*
G1X3650Y13700D3*
G1X3600Y30800D3*
G1X14800Y16200D3*
G1X16120Y16200D3*
G1X15800Y18700D3*
G1X17120Y18700D3*
G1X18650Y27100D3*
G1X30500Y18400D3*
G1X30500Y19720D3*
G1X33150Y18400D3*
G1X33150Y19720D3*
G1X37580Y28350D3*
G1X38900Y28350D3*
G1X41060Y33510D3*
G1X42380Y33510D3*
G1X50050Y24030D3*
G1X50050Y25350D3*
G54D131*
G1X6050Y23500D3*
G1X9050Y23500D3*
G1X16850Y23500D3*
G1X19850Y23500D3*
G54D63*
G1X7000Y1200D3*
G1X18500Y15400D3*
G1X20600Y31200D3*
G1X33600Y30700D3*
G1X34590Y17410D3*
G1X34570Y22390D3*
G1X36250Y24350D3*
G1X39900Y18400D3*
G1X39900Y20400D3*
G1X42050Y32300D3*
G1X57800Y30050D3*
G1X63370Y30070D3*
G54D62*
G1X18500Y16400D3*
G1X21600Y31200D3*
G1X29600Y29700D3*
G1X29600Y30700D3*
G1X31600Y29700D3*
G1X30600Y29700D3*
G1X31600Y30700D3*
G1X30600Y30700D3*
G1X32600Y29700D3*
G1X32600Y30700D3*
G1X33600Y29700D3*
G1X35250Y24350D3*
G1X35250Y25350D3*
G1X35250Y26350D3*
G1X35250Y27350D3*
G1X35250Y28350D3*
G1X36250Y25350D3*
G1X36250Y26350D3*
G1X36250Y27350D3*
G1X36250Y28350D3*
G1X38050Y31300D3*
G1X38050Y32300D3*
G1X39050Y31300D3*
G1X39050Y32300D3*
G1X40900Y18400D3*
G1X40900Y20400D3*
G1X41050Y31300D3*
G1X40050Y31300D3*
G1X41050Y32300D3*
G1X40050Y32300D3*
G1X42050Y31300D3*
G1X53800Y29050D3*
G1X54800Y29050D3*
G1X54800Y30050D3*
G1X53800Y30050D3*
G1X55800Y29050D3*
G1X55800Y30050D3*
G1X56800Y29050D3*
G1X56800Y30050D3*
G1X57800Y29050D3*
G54D85*
G1X1650Y13700D3*
G1X1600Y30800D3*
G1X2650Y13700D3*
G1X2600Y30800D3*
G1X18650Y28100D3*
G1X18650Y29100D3*
G54D92*
G1X9200Y2800D3*
G1X9200Y3800D3*
G1X9200Y5800D3*
G1X9200Y4800D3*
G1X9200Y6800D3*
G1X9200Y7800D3*
G1X9200Y8800D3*
G1X12200Y2800D3*
G1X12200Y3800D3*
G1X12200Y4800D3*
G1X12200Y5800D3*
G1X12200Y6800D3*
G1X12200Y7800D3*
G1X12200Y8800D3*
G1X12200Y9800D3*
G1X13800Y20200D3*
G1X14800Y17200D3*
G1X14800Y20200D3*
G1X15800Y17200D3*
G1X16800Y17200D3*
G1X16800Y20200D3*
G1X15800Y20200D3*
G1X20000Y2550D3*
G1X20000Y4550D3*
G1X20000Y3550D3*
G1X20000Y5550D3*
G1X20000Y6550D3*
G1X20000Y8550D3*
G1X20000Y7550D3*
G1X23000Y3550D3*
G1X23000Y4550D3*
G1X23000Y5550D3*
G1X23000Y6550D3*
G1X23000Y7550D3*
G1X23000Y8550D3*
G1X28800Y2800D3*
G1X28800Y3800D3*
G1X28800Y5800D3*
G1X28800Y4800D3*
G1X28800Y6800D3*
G1X28800Y7800D3*
G1X28800Y8800D3*
G1X31800Y3800D3*
G1X31800Y4800D3*
G1X31800Y5800D3*
G1X31800Y6800D3*
G1X31800Y7800D3*
G1X31800Y8800D3*
G1X35800Y16400D3*
G1X35800Y17400D3*
G1X35800Y19400D3*
G1X35800Y18400D3*
G1X35800Y20400D3*
G1X35800Y21400D3*
G1X38800Y16400D3*
G1X38800Y17400D3*
G1X38800Y18400D3*
G1X38800Y19400D3*
G1X38800Y20400D3*
G1X38800Y21400D3*
G1X38800Y22400D3*
G1X46000Y25350D3*
G1X47000Y22350D3*
G1X47000Y25350D3*
G1X48000Y22350D3*
G1X49000Y22350D3*
G1X49000Y25350D3*
G1X48000Y25350D3*
G1X51850Y17500D3*
G1X51850Y19500D3*
G1X51850Y18500D3*
G1X51850Y20500D3*
G1X51850Y21500D3*
G1X51850Y22500D3*
G1X55200Y3150D3*
G1X55200Y2150D3*
G1X55200Y4150D3*
G1X55200Y5150D3*
G1X55200Y7150D3*
G1X55200Y6150D3*
G1X54850Y17500D3*
G1X54850Y18500D3*
G1X54850Y19500D3*
G1X54850Y20500D3*
G1X54850Y21500D3*
G1X54850Y22500D3*
G1X54850Y23500D3*
G1X57300Y18150D3*
G1X57300Y17150D3*
G1X57300Y19150D3*
G1X57300Y20150D3*
G1X57300Y22150D3*
G1X57300Y21150D3*
G1X57300Y23150D3*
G1X58200Y2150D3*
G1X58200Y3150D3*
G1X58200Y4150D3*
G1X58200Y5150D3*
G1X58200Y6150D3*
G1X58200Y7150D3*
G1X58200Y8150D3*
G1X60300Y18150D3*
G1X60300Y19150D3*
G1X60300Y20150D3*
G1X60300Y21150D3*
G1X60300Y22150D3*
G1X60300Y23150D3*
G54D96*
G1X40400Y3200D3*
G1X43400Y2200D3*
G1X44900Y25350D3*
G1X49400Y3200D3*
G54D24*
G1X950Y15350D3*
G1X4950Y15350D3*
G1X5610Y27310D3*
G1X5610Y31310D3*
G1X6150Y17000D3*
G1X6150Y21000D3*
G1X6950Y28050D3*
G1X6950Y32050D3*
G1X11950Y31050D3*
G1X15950Y31050D3*
G1X20950Y26100D3*
G1X20950Y30100D3*
G1X28800Y1500D3*
G1X32800Y1500D3*
G1X33300Y4800D3*
G1X33300Y8800D3*
G1X43350Y30900D3*
G1X43700Y32260D3*
G1X46400Y4500D3*
G1X46400Y8500D3*
G1X47350Y30900D3*
G1X47700Y32260D3*
G1X-7726Y1710D2*
G54D26*
G1X-7651Y1647D1*
G1X-7567Y1610D1*
G1X-7493Y1610D1*
G1X-7418Y1647D1*
G1X-7362Y1710D1*
G1X-7334Y1798D1*
G1X-7353Y1885D1*
G1X-7399Y1960D1*
G1X-7483Y2010D1*
G1X-7595Y2035D1*
G1X-7661Y2085D1*
G1X-7689Y2172D1*
G1X-7670Y2260D1*
G1X-7623Y2322D1*
G1X-7558Y2360D1*
G1X-7493Y2360D1*
G1X-7427Y2335D1*
G1X-7371Y2272D1*
G1X-7023Y1610D2*
G1X-7023Y2360D1*
G1X-6780Y1735D1*
G1X-6537Y2360D1*
G1X-6537Y1610D1*
G1X-5955Y2010D2*
G1X-5918Y2047D1*
G1X-5890Y2110D1*
G1X-5871Y2198D1*
G1X-5890Y2272D1*
G1X-5927Y2322D1*
G1X-5993Y2360D1*
G1X-6245Y2360D1*
G1X-6245Y1610D1*
G1X-5937Y1610D1*
G1X-5871Y1660D1*
G1X-5834Y1735D1*
G1X-5815Y1823D1*
G1X-5834Y1910D1*
G1X-5890Y1985D1*
G1X-5955Y2010D1*
G1X-6245Y2010D1*
G54D93*
G1X9200Y9800D3*
G1X13800Y17200D3*
G1X23000Y2550D3*
G1X31800Y2800D3*
G1X35800Y22400D3*
G1X46000Y22350D3*
G1X51850Y23500D3*
G1X55200Y8150D3*
G1X60300Y17150D3*
G54D21*
G1X1600Y31850D3*
G1X760Y31850D3*
G1X4950Y13710D3*
G1X4950Y14550D3*
G1X5600Y26410D3*
G1X6440Y26410D3*
G1X6100Y28850D3*
G1X6940Y28850D3*
G1X11250Y9800D3*
G1X11250Y10640D3*
G1X13200Y2450D3*
G1X13200Y5050D3*
G1X16650Y21000D3*
G1X15810Y21000D3*
G1X18400Y20200D3*
G1X19240Y20200D3*
G1X19500Y15550D3*
G1X19500Y16390D3*
G1X20160Y20200D3*
G1X19850Y28700D3*
G1X19850Y27860D3*
G1X19600Y33400D3*
G1X21950Y1550D3*
G1X21110Y1550D3*
G1X21100Y2550D3*
G1X21940Y2550D3*
G1X21000Y20200D3*
G1X22000Y23200D3*
G1X27160Y4800D3*
G1X27160Y6800D3*
G1X27160Y8800D3*
G1X27100Y27360D3*
G1X27100Y28200D3*
G1X28000Y4800D3*
G1X28000Y6800D3*
G1X28000Y8800D3*
G1X29900Y2800D3*
G1X29510Y15580D3*
G1X30740Y2800D3*
G1X30800Y4500D3*
G1X30800Y3660D3*
G1X30350Y15580D3*
G1X32110Y15550D3*
G1X32950Y15550D3*
G1X32600Y31950D3*
G1X33440Y31950D3*
G1X36900Y16560D3*
G1X36900Y17400D3*
G1X36900Y18400D3*
G1X36900Y19400D3*
G1X36900Y20400D3*
G1X36900Y21300D3*
G1X36900Y22140D3*
G1X37400Y4360D3*
G1X38400Y4360D3*
G1X37400Y5200D3*
G1X38400Y5200D3*
G1X37750Y16560D3*
G1X37750Y17400D3*
G1X37740Y18400D3*
G1X37740Y19400D3*
G1X37740Y20400D3*
G1X37750Y21300D3*
G1X37750Y22140D3*
G1X38210Y33440D3*
G1X39400Y4360D3*
G1X39400Y5200D3*
G1X39050Y33440D3*
G1X40400Y4360D3*
G1X40400Y5200D3*
G1X43400Y4360D3*
G1X43400Y5200D3*
G1X43700Y33500D3*
G1X44400Y4360D3*
G1X44400Y5200D3*
G1X44900Y23450D3*
G1X44900Y24290D3*
G1X44540Y33500D3*
G1X45400Y4360D3*
G1X45400Y5200D3*
G1X46160Y23350D3*
G1X46160Y24350D3*
G1X47000Y23350D3*
G1X47000Y24350D3*
G1X48850Y21450D3*
G1X48010Y21450D3*
G1X48000Y23350D3*
G1X48840Y23350D3*
G1X49000Y26150D3*
G1X48160Y26150D3*
G1X53000Y23500D3*
G1X54350Y3150D3*
G1X53510Y3150D3*
G1X54350Y5150D3*
G1X53510Y5150D3*
G1X54350Y7150D3*
G1X53510Y7150D3*
G1X53840Y23500D3*
G1X57360Y1300D3*
G1X58200Y1300D3*
G1X58310Y17150D3*
G1X58200Y20150D3*
G1X59100Y4150D3*
G1X59940Y4150D3*
G1X59100Y5150D3*
G1X59940Y5150D3*
G1X59100Y6150D3*
G1X59940Y6150D3*
G1X59150Y17150D3*
G1X59040Y20150D3*
G54D132*
G1X9400Y28300D3*
G1X14600Y10300D3*
G1X23200Y27800D3*
G1X26200Y27800D3*
G1X30350Y21400D3*
G1X32950Y21400D3*
G1X42250Y25350D3*
G1X45000Y17700D3*
G1X44850Y20700D3*
G54D86*
G1X2650Y7700D3*
G1X2600Y24800D3*
G1X12650Y28100D3*
G54D87*
G1X1960Y19220D3*
G1X23600Y20200D3*
G54D95*
G1X9400Y30800D3*
G1X14600Y7800D3*
G1X23200Y32800D3*
G1X24200Y30800D3*
G1X26200Y32800D3*
G1X27200Y30800D3*
G1X30350Y16400D3*
G1X29350Y18400D3*
G1X32950Y16400D3*
G1X31950Y18400D3*
G1X40250Y25350D3*
G1X42350Y20700D3*
G1X41250Y27350D3*
G1X43000Y16700D3*
G1X45000Y15700D3*
G54D13*
G1X14200Y1450D3*
G1X15200Y2450D3*
G1X14200Y4050D3*
G1X15200Y5050D3*
G1X20600Y32400D3*
G1X22000Y25200D3*
G1X21600Y33400D3*
G1X23000Y24200D3*
G54D88*
G1X3250Y33000D3*
G1X11950Y33000D3*
G54D20*
G1X14800Y15000D3*
G54D90*
G1X3960Y19220D3*
G1X23600Y17200D3*
G54D14*
G1X16550Y2600D3*
G1X16550Y5600D3*
G1X18550Y2600D3*
G1X18550Y5600D3*
G1X25650Y2150D3*
G1X25650Y9540D3*
G1X25650Y11300D3*
G1X25650Y14580D3*
G1X28390Y12570D3*
G1X28390Y14750D3*
G1X28400Y18800D3*
G1X28400Y20030D3*
G1X28400Y29260D3*
G1X28400Y30700D3*
G1X37400Y2200D3*
G1X38400Y3200D3*
G1X37400Y3200D3*
G1X38400Y2200D3*
G1X39400Y3200D3*
G1X39400Y2200D3*
G1X40400Y2200D3*
G1X42400Y3200D3*
G1X41400Y3200D3*
G1X42400Y2200D3*
G1X41400Y2200D3*
G1X43400Y3200D3*
G1X43900Y25350D3*
G1X44400Y3200D3*
G1X44400Y2200D3*
G1X46400Y3200D3*
G1X45400Y3200D3*
G1X46400Y2200D3*
G1X45400Y2200D3*
G1X47400Y3200D3*
G1X47400Y2200D3*
G1X47400Y11420D3*
G1X47400Y13750D3*
G1X48400Y3200D3*
G1X48400Y2200D3*
G1X49400Y2200D3*
G1X62100Y13700D3*
G1X63800Y13700D3*
G54D19*
G1X4810Y33000D3*
G1X13510Y33000D3*
G54D16*
G1X15800Y15000D3*
G1X16800Y15000D3*
G54D57*
G1X85002Y995D3*
G1X67002Y995D3*
G1X85002Y28995D3*
G1X67002Y28995D3*
G54D63*
G1X80842Y9065D3*
G1X77652Y27045D3*
G54D138*
G1X76222Y2435D3*
G54D21*
G1X75802Y12345D3*
G1X76652Y12345D3*
G1X75952Y11245D3*
G1X75102Y11245D3*
G1X73252Y13895D3*
G1X72402Y13895D3*
G1X78102Y23645D3*
G1X76702Y23645D3*
G1X75352Y23645D3*
G1X74052Y23645D3*
G1X78102Y24495D3*
G1X76702Y24495D3*
G1X75352Y24495D3*
G1X74052Y24495D3*
G54D139*
G1X75502Y2435D3*
G1X75502Y3305D3*
G1X76262Y3305D3*
G54D61*
G1X76652Y11245D3*
G1X76652Y13245D3*
G54D24*
G1X74782Y2435D3*
G1X77142Y3305D3*
G1X78102Y18645D3*
G1X76702Y18645D3*
G1X75352Y18645D3*
G1X74052Y18645D3*
G1X74652Y17795D3*
G1X74652Y19770D3*
G1X82002Y21895D3*
G1X78102Y22645D3*
G1X78382Y21805D3*
G1X76702Y22645D3*
G1X75352Y22645D3*
G1X75362Y21815D3*
G1X76742Y21805D3*
G1X74052Y22645D3*
G1X73952Y21815D3*
G54D14*
G1X71452Y1845D3*
G1X69452Y1845D3*
G1X71452Y4845D3*
G1X69452Y4845D3*
G54D58*
G1X66752Y18345D3*
G1X66752Y23945D3*
G54D20*
G1X83502Y23995D3*
G54D59*
G1X83062Y5055D3*
G1X76295Y7045D3*
G1X74707Y7290D3*
G1X72302Y8155D3*
G1X77262Y9285D3*
G1X72312Y10245D3*
G1X79512Y13365D3*
G1X78412Y13365D3*
G1X73542Y12735D3*
G1X72242Y12725D3*
G1X79842Y15175D3*
G1X78412Y15175D3*
G1X78412Y13955D3*
G1X79842Y13955D3*
G1X80172Y14565D3*
G1X78412Y14565D3*
G1X72947Y14590D3*
G1X70757Y14780D3*
G1X82022Y17395D3*
G1X80177Y18545D3*
G1X79802Y17355D3*
G1X70757Y16340D3*
G1X71852Y17555D3*
G1X84102Y20495D3*
G1X83552Y21205D3*
G1X81552Y20705D3*
G1X81562Y18960D3*
G1X82022Y20205D3*
G1X79802Y19545D3*
G1X69952Y22095D3*
G1X70972Y26815D3*
G54D62*
G1X80842Y5065D3*
G1X81842Y5065D3*
G1X76502Y5095D3*
G1X75502Y5095D3*
G1X80842Y8065D3*
G1X81842Y8065D3*
G1X80842Y7065D3*
G1X81842Y7065D3*
G1X80842Y6065D3*
G1X81842Y6065D3*
G1X76486Y6079D3*
G1X75502Y6079D3*
G1X81842Y9065D3*
G1X77652Y28045D3*
G1X76652Y27045D3*
G1X76652Y28045D3*
G1X75652Y27045D3*
G1X75652Y28045D3*
G1X74652Y27045D3*
G1X74652Y28045D3*
G1X73652Y27045D3*
G1X73652Y28045D3*
G54D16*
G1X82502Y23995D3*
G1X81502Y23995D3*
G54D60*
G1X78370Y4007D3*
G1X73626Y4027D3*
G54D18*
G1X77702Y5725D3*
G1X77702Y7045D3*
G1X73552Y12745D3*
G1X72232Y12745D3*
G1X73902Y16845D3*
G1X72582Y16845D3*
G54D56*
G1X75902Y8575D3*
M2*
