*
%LPD*%
%LNSSB*%
%FSLAX24Y24*%
%MOIN*%
%AD*%
%ADD26C,0.005*%
%ADD27C,0.008*%
%ADD78C,0.006*%
%ADD79C,0.02*%
G54D26*
%SRX1Y1I0.0J0.0*%
G1X-7686Y3060D2*
G1X-7611Y2997D1*
G1X-7527Y2960D1*
G1X-7453Y2960D1*
G1X-7378Y2997D1*
G1X-7322Y3060D1*
G1X-7294Y3148D1*
G1X-7313Y3235D1*
G1X-7359Y3310D1*
G1X-7443Y3360D1*
G1X-7555Y3385D1*
G1X-7621Y3435D1*
G1X-7649Y3522D1*
G1X-7630Y3610D1*
G1X-7583Y3672D1*
G1X-7518Y3710D1*
G1X-7453Y3710D1*
G1X-7387Y3685D1*
G1X-7331Y3622D1*
G1X-6936Y3060D2*
G1X-6861Y2997D1*
G1X-6777Y2960D1*
G1X-6703Y2960D1*
G1X-6628Y2997D1*
G1X-6572Y3060D1*
G1X-6544Y3148D1*
G1X-6563Y3235D1*
G1X-6609Y3310D1*
G1X-6693Y3360D1*
G1X-6805Y3385D1*
G1X-6871Y3435D1*
G1X-6899Y3522D1*
G1X-6880Y3610D1*
G1X-6833Y3672D1*
G1X-6768Y3710D1*
G1X-6703Y3710D1*
G1X-6637Y3685D1*
G1X-6581Y3622D1*
G1X-5915Y3360D2*
G1X-5878Y3397D1*
G1X-5850Y3460D1*
G1X-5831Y3548D1*
G1X-5850Y3622D1*
G1X-5887Y3672D1*
G1X-5953Y3710D1*
G1X-6205Y3710D1*
G1X-6205Y2960D1*
G1X-5897Y2960D1*
G1X-5831Y3010D1*
G1X-5794Y3085D1*
G1X-5775Y3173D1*
G1X-5794Y3260D1*
G1X-5850Y3335D1*
G1X-5915Y3360D1*
G1X-6205Y3360D1*
G1X1167Y12993D2*
G1X1111Y12955D1*
G1X1046Y12930D1*
G1X971Y12930D1*
G1X887Y12968D1*
G1X822Y13030D1*
G1X775Y13105D1*
G1X738Y13230D1*
G1X729Y13343D1*
G1X747Y13455D1*
G1X775Y13530D1*
G1X831Y13605D1*
G1X897Y13655D1*
G1X962Y13680D1*
G1X1027Y13680D1*
G1X1093Y13655D1*
G1X1149Y13618D1*
G1X1195Y13568D1*
G1X1507Y13530D2*
G1X1563Y13618D1*
G1X1637Y13668D1*
G1X1721Y13680D1*
G1X1796Y13668D1*
G1X1871Y13605D1*
G1X1917Y13530D1*
G1X1927Y13455D1*
G1X1908Y13368D1*
G1X1843Y13305D1*
G1X1777Y13280D1*
G1X1693Y13280D1*
G1X1777Y13280D2*
G1X1833Y13243D1*
G1X1880Y13180D1*
G1X1899Y13105D1*
G1X1880Y13030D1*
G1X1833Y12968D1*
G1X1749Y12930D1*
G1X1665Y12942D1*
G1X1581Y12993D1*
G1X2285Y13055D2*
G1X2341Y12980D1*
G1X2406Y12942D1*
G1X2481Y12930D1*
G1X2574Y12955D1*
G1X2639Y13018D1*
G1X2658Y13092D1*
G1X2649Y13168D1*
G1X2611Y13230D1*
G1X2425Y13355D1*
G1X2341Y13443D1*
G1X2285Y13568D1*
G1X2266Y13680D1*
G1X2658Y13680D1*
G1X3481Y32068D2*
G1X3519Y32093D1*
G1X3563Y32110D1*
G1X3614Y32110D1*
G1X3671Y32085D1*
G1X3715Y32043D1*
G1X3747Y31993D1*
G1X3772Y31910D1*
G1X3778Y31835D1*
G1X3766Y31760D1*
G1X3747Y31710D1*
G1X3709Y31660D1*
G1X3664Y31627D1*
G1X3620Y31610D1*
G1X3576Y31610D1*
G1X3531Y31627D1*
G1X3493Y31652D1*
G1X3462Y31685D1*
G1X3249Y31710D2*
G1X3211Y31652D1*
G1X3161Y31618D1*
G1X3104Y31610D1*
G1X3053Y31618D1*
G1X3002Y31660D1*
G1X2971Y31710D1*
G1X2964Y31760D1*
G1X2977Y31818D1*
G1X3021Y31860D1*
G1X3066Y31877D1*
G1X3123Y31877D1*
G1X3066Y31877D2*
G1X3028Y31902D1*
G1X2996Y31943D1*
G1X2983Y31993D1*
G1X2996Y32043D1*
G1X3028Y32085D1*
G1X3085Y32110D1*
G1X3142Y32102D1*
G1X3199Y32068D1*
G1X2739Y31685D2*
G1X2701Y31643D1*
G1X2657Y31618D1*
G1X2600Y31610D1*
G1X2543Y31627D1*
G1X2499Y31660D1*
G1X2467Y31718D1*
G1X2461Y31785D1*
G1X2473Y31852D1*
G1X2505Y31893D1*
G1X2549Y31927D1*
G1X2594Y31935D1*
G1X2638Y31927D1*
G1X2695Y31893D1*
G1X2676Y32110D1*
G1X2505Y32110D1*
G1X4213Y29120D2*
G1X4213Y28620D1*
G1X4372Y28620D1*
G1X4422Y28645D1*
G1X4454Y28678D1*
G1X4467Y28745D1*
G1X4454Y28812D1*
G1X4416Y28853D1*
G1X4372Y28878D1*
G1X4213Y28878D1*
G1X4372Y28878D2*
G1X4467Y29120D1*
G1X4730Y28912D2*
G1X4774Y28853D1*
G1X4812Y28820D1*
G1X4863Y28803D1*
G1X4907Y28820D1*
G1X4939Y28853D1*
G1X4964Y28903D1*
G1X4970Y28962D1*
G1X4964Y29012D1*
G1X4939Y29062D1*
G1X4901Y29103D1*
G1X4856Y29120D1*
G1X4806Y29103D1*
G1X4761Y29053D1*
G1X4736Y28978D1*
G1X4730Y28895D1*
G1X4742Y28787D1*
G1X4761Y28728D1*
G1X4793Y28670D1*
G1X4837Y28628D1*
G1X4882Y28620D1*
G1X4926Y28637D1*
G1X4958Y28678D1*
G1X5221Y29020D2*
G1X5259Y29078D1*
G1X5309Y29112D1*
G1X5366Y29120D1*
G1X5417Y29112D1*
G1X5468Y29070D1*
G1X5499Y29020D1*
G1X5506Y28970D1*
G1X5493Y28912D1*
G1X5449Y28870D1*
G1X5404Y28853D1*
G1X5347Y28853D1*
G1X5404Y28853D2*
G1X5442Y28828D1*
G1X5474Y28787D1*
G1X5487Y28737D1*
G1X5474Y28687D1*
G1X5442Y28645D1*
G1X5385Y28620D1*
G1X5328Y28628D1*
G1X5271Y28662D1*
G1X4742Y12721D2*
G1X4717Y12759D1*
G1X4700Y12803D1*
G1X4700Y12854D1*
G1X4725Y12911D1*
G1X4767Y12955D1*
G1X4817Y12987D1*
G1X4900Y13012D1*
G1X4975Y13018D1*
G1X5050Y13006D1*
G1X5100Y12987D1*
G1X5150Y12949D1*
G1X5183Y12904D1*
G1X5200Y12860D1*
G1X5200Y12816D1*
G1X5183Y12771D1*
G1X5158Y12733D1*
G1X5125Y12702D1*
G1X5100Y12489D2*
G1X5158Y12451D1*
G1X5192Y12401D1*
G1X5200Y12344D1*
G1X5192Y12293D1*
G1X5150Y12242D1*
G1X5100Y12211D1*
G1X5050Y12204D1*
G1X4992Y12217D1*
G1X4950Y12261D1*
G1X4933Y12306D1*
G1X4933Y12363D1*
G1X4933Y12306D2*
G1X4908Y12268D1*
G1X4867Y12236D1*
G1X4817Y12223D1*
G1X4767Y12236D1*
G1X4725Y12268D1*
G1X4700Y12325D1*
G1X4708Y12382D1*
G1X4742Y12439D1*
G1X5200Y11840D2*
G1X4700Y11840D1*
G1X4800Y11916D1*
G1X5200Y11916D2*
G1X5200Y11764D1*
G1X7133Y26720D2*
G1X7133Y26220D1*
G1X7292Y26220D1*
G1X7342Y26245D1*
G1X7374Y26278D1*
G1X7387Y26345D1*
G1X7374Y26412D1*
G1X7336Y26453D1*
G1X7292Y26478D1*
G1X7133Y26478D1*
G1X7292Y26478D2*
G1X7387Y26720D1*
G1X7650Y26512D2*
G1X7694Y26453D1*
G1X7732Y26420D1*
G1X7783Y26403D1*
G1X7827Y26420D1*
G1X7859Y26453D1*
G1X7884Y26503D1*
G1X7890Y26562D1*
G1X7884Y26612D1*
G1X7859Y26662D1*
G1X7821Y26703D1*
G1X7776Y26720D1*
G1X7726Y26703D1*
G1X7681Y26653D1*
G1X7656Y26578D1*
G1X7650Y26495D1*
G1X7662Y26387D1*
G1X7681Y26328D1*
G1X7713Y26270D1*
G1X7757Y26228D1*
G1X7802Y26220D1*
G1X7846Y26237D1*
G1X7878Y26278D1*
G1X8356Y26720D2*
G1X8356Y26220D1*
G1X8122Y26578D1*
G1X8438Y26578D1*
G1X11458Y11629D2*
G1X11483Y11591D1*
G1X11500Y11547D1*
G1X11500Y11496D1*
G1X11475Y11439D1*
G1X11433Y11395D1*
G1X11383Y11363D1*
G1X11300Y11338D1*
G1X11225Y11332D1*
G1X11150Y11344D1*
G1X11100Y11363D1*
G1X11050Y11401D1*
G1X11017Y11446D1*
G1X11000Y11490D1*
G1X11000Y11534D1*
G1X11017Y11579D1*
G1X11042Y11617D1*
G1X11075Y11648D1*
G1X11417Y11880D2*
G1X11467Y11918D1*
G1X11492Y11962D1*
G1X11500Y12013D1*
G1X11483Y12076D1*
G1X11442Y12120D1*
G1X11392Y12133D1*
G1X11342Y12127D1*
G1X11300Y12101D1*
G1X11217Y11975D1*
G1X11158Y11918D1*
G1X11075Y11880D1*
G1X11000Y11867D1*
G1X11000Y12133D1*
G1X11417Y12390D2*
G1X11467Y12428D1*
G1X11492Y12472D1*
G1X11500Y12523D1*
G1X11483Y12586D1*
G1X11442Y12630D1*
G1X11392Y12643D1*
G1X11342Y12637D1*
G1X11300Y12611D1*
G1X11217Y12485D1*
G1X11158Y12428D1*
G1X11075Y12390D1*
G1X11000Y12377D1*
G1X11000Y12643D1*
G1X12115Y15933D2*
G1X12059Y15895D1*
G1X11994Y15870D1*
G1X11919Y15870D1*
G1X11835Y15908D1*
G1X11770Y15970D1*
G1X11723Y16045D1*
G1X11686Y16170D1*
G1X11677Y16283D1*
G1X11695Y16395D1*
G1X11723Y16470D1*
G1X11779Y16545D1*
G1X11845Y16595D1*
G1X11910Y16620D1*
G1X11975Y16620D1*
G1X12041Y16595D1*
G1X12097Y16558D1*
G1X12143Y16508D1*
G1X12483Y15995D2*
G1X12539Y15920D1*
G1X12604Y15882D1*
G1X12679Y15870D1*
G1X12772Y15895D1*
G1X12837Y15958D1*
G1X12856Y16032D1*
G1X12847Y16108D1*
G1X12809Y16170D1*
G1X12623Y16295D1*
G1X12539Y16383D1*
G1X12483Y16508D1*
G1X12464Y16620D1*
G1X12856Y16620D1*
G1X13391Y16620D2*
G1X13410Y16458D1*
G1X13438Y16320D1*
G1X13475Y16195D1*
G1X13522Y16058D1*
G1X13597Y15870D1*
G1X13223Y15870D1*
G1X13425Y18493D2*
G1X13369Y18455D1*
G1X13304Y18430D1*
G1X13229Y18430D1*
G1X13145Y18468D1*
G1X13080Y18530D1*
G1X13033Y18605D1*
G1X12996Y18730D1*
G1X12987Y18843D1*
G1X13005Y18955D1*
G1X13033Y19030D1*
G1X13089Y19105D1*
G1X13155Y19155D1*
G1X13220Y19180D1*
G1X13285Y19180D1*
G1X13351Y19155D1*
G1X13407Y19118D1*
G1X13453Y19068D1*
G1X13793Y18555D2*
G1X13849Y18480D1*
G1X13914Y18442D1*
G1X13989Y18430D1*
G1X14082Y18455D1*
G1X14147Y18518D1*
G1X14166Y18592D1*
G1X14157Y18668D1*
G1X14119Y18730D1*
G1X13933Y18855D1*
G1X13849Y18943D1*
G1X13793Y19068D1*
G1X13774Y19180D1*
G1X14166Y19180D1*
G1X14543Y18868D2*
G1X14608Y18780D1*
G1X14664Y18730D1*
G1X14739Y18705D1*
G1X14804Y18730D1*
G1X14851Y18780D1*
G1X14888Y18855D1*
G1X14897Y18943D1*
G1X14888Y19018D1*
G1X14851Y19093D1*
G1X14795Y19155D1*
G1X14729Y19180D1*
G1X14655Y19155D1*
G1X14589Y19080D1*
G1X14552Y18967D1*
G1X14543Y18843D1*
G1X14561Y18680D1*
G1X14589Y18592D1*
G1X14636Y18505D1*
G1X14701Y18442D1*
G1X14767Y18430D1*
G1X14832Y18455D1*
G1X14879Y18518D1*
G1X14861Y21498D2*
G1X14899Y21523D1*
G1X14943Y21540D1*
G1X14994Y21540D1*
G1X15051Y21515D1*
G1X15095Y21473D1*
G1X15127Y21423D1*
G1X15152Y21340D1*
G1X15158Y21265D1*
G1X15146Y21190D1*
G1X15127Y21140D1*
G1X15089Y21090D1*
G1X15044Y21057D1*
G1X15000Y21040D1*
G1X14956Y21040D1*
G1X14911Y21057D1*
G1X14873Y21082D1*
G1X14842Y21115D1*
G1X14610Y21457D2*
G1X14572Y21507D1*
G1X14528Y21532D1*
G1X14477Y21540D1*
G1X14414Y21523D1*
G1X14370Y21482D1*
G1X14357Y21432D1*
G1X14363Y21382D1*
G1X14389Y21340D1*
G1X14515Y21257D1*
G1X14572Y21198D1*
G1X14610Y21115D1*
G1X14623Y21040D1*
G1X14357Y21040D1*
G1X14119Y21115D2*
G1X14081Y21073D1*
G1X14037Y21048D1*
G1X13980Y21040D1*
G1X13923Y21057D1*
G1X13879Y21090D1*
G1X13847Y21148D1*
G1X13841Y21215D1*
G1X13853Y21282D1*
G1X13885Y21323D1*
G1X13929Y21357D1*
G1X13974Y21365D1*
G1X14018Y21357D1*
G1X14075Y21323D1*
G1X14056Y21540D1*
G1X13885Y21540D1*
G1X18509Y18972D2*
G1X18471Y18947D1*
G1X18427Y18930D1*
G1X18376Y18930D1*
G1X18319Y18955D1*
G1X18275Y18997D1*
G1X18243Y19047D1*
G1X18218Y19130D1*
G1X18212Y19205D1*
G1X18224Y19280D1*
G1X18243Y19330D1*
G1X18281Y19380D1*
G1X18326Y19413D1*
G1X18370Y19430D1*
G1X18414Y19430D1*
G1X18459Y19413D1*
G1X18497Y19388D1*
G1X18528Y19355D1*
G1X18760Y19013D2*
G1X18798Y18963D1*
G1X18842Y18938D1*
G1X18893Y18930D1*
G1X18956Y18947D1*
G1X19000Y18988D1*
G1X19013Y19038D1*
G1X19007Y19088D1*
G1X18981Y19130D1*
G1X18855Y19213D1*
G1X18798Y19272D1*
G1X18760Y19355D1*
G1X18747Y19430D1*
G1X19013Y19430D1*
G1X19282Y19372D2*
G1X19327Y19413D1*
G1X19377Y19430D1*
G1X19428Y19413D1*
G1X19472Y19363D1*
G1X19504Y19288D1*
G1X19517Y19213D1*
G1X19517Y19122D1*
G1X19504Y19047D1*
G1X19472Y18980D1*
G1X19434Y18947D1*
G1X19390Y18930D1*
G1X19339Y18947D1*
G1X19301Y18980D1*
G1X19276Y19030D1*
G1X19263Y19097D1*
G1X19276Y19155D1*
G1X19308Y19213D1*
G1X19346Y19247D1*
G1X19390Y19255D1*
G1X19441Y19238D1*
G1X19479Y19197D1*
G1X19517Y19122D1*
G1X20250Y15363D2*
G1X20750Y15363D1*
G1X20750Y15522D1*
G1X20725Y15572D1*
G1X20692Y15604D1*
G1X20625Y15617D1*
G1X20558Y15604D1*
G1X20517Y15566D1*
G1X20492Y15522D1*
G1X20492Y15363D1*
G1X20492Y15522D2*
G1X20250Y15617D1*
G1X20325Y15861D2*
G1X20283Y15899D1*
G1X20258Y15943D1*
G1X20250Y16000D1*
G1X20267Y16057D1*
G1X20300Y16101D1*
G1X20358Y16133D1*
G1X20425Y16139D1*
G1X20492Y16127D1*
G1X20533Y16095D1*
G1X20567Y16051D1*
G1X20575Y16006D1*
G1X20567Y15962D1*
G1X20533Y15905D1*
G1X20750Y15924D1*
G1X20750Y16095D1*
G1X20458Y16390D2*
G1X20517Y16434D1*
G1X20550Y16472D1*
G1X20567Y16523D1*
G1X20550Y16567D1*
G1X20517Y16599D1*
G1X20467Y16624D1*
G1X20408Y16630D1*
G1X20358Y16624D1*
G1X20308Y16599D1*
G1X20267Y16561D1*
G1X20250Y16516D1*
G1X20267Y16466D1*
G1X20317Y16421D1*
G1X20392Y16396D1*
G1X20475Y16390D1*
G1X20583Y16402D1*
G1X20642Y16421D1*
G1X20700Y16453D1*
G1X20742Y16497D1*
G1X20750Y16542D1*
G1X20733Y16586D1*
G1X20692Y16618D1*
G1X21187Y20950D2*
G1X21187Y21450D1*
G1X21028Y21450D1*
G1X20978Y21425D1*
G1X20946Y21392D1*
G1X20933Y21325D1*
G1X20946Y21258D1*
G1X20984Y21217D1*
G1X21028Y21192D1*
G1X21187Y21192D1*
G1X21028Y21192D2*
G1X20933Y20950D1*
G1X20689Y21025D2*
G1X20651Y20983D1*
G1X20607Y20958D1*
G1X20550Y20950D1*
G1X20493Y20967D1*
G1X20449Y21000D1*
G1X20417Y21058D1*
G1X20411Y21125D1*
G1X20423Y21192D1*
G1X20455Y21233D1*
G1X20499Y21267D1*
G1X20544Y21275D1*
G1X20588Y21267D1*
G1X20645Y21233D1*
G1X20626Y21450D1*
G1X20455Y21450D1*
G1X20053Y20950D2*
G1X20040Y21058D1*
G1X20021Y21150D1*
G1X19996Y21233D1*
G1X19964Y21325D1*
G1X19913Y21450D1*
G1X20167Y21450D1*
G1X21700Y28937D2*
G1X21200Y28937D1*
G1X21200Y28778D1*
G1X21225Y28728D1*
G1X21258Y28696D1*
G1X21325Y28683D1*
G1X21392Y28696D1*
G1X21433Y28734D1*
G1X21458Y28778D1*
G1X21458Y28937D1*
G1X21458Y28778D2*
G1X21700Y28683D1*
G1X21625Y28439D2*
G1X21667Y28401D1*
G1X21692Y28357D1*
G1X21700Y28300D1*
G1X21683Y28243D1*
G1X21650Y28199D1*
G1X21592Y28167D1*
G1X21525Y28161D1*
G1X21458Y28173D1*
G1X21417Y28205D1*
G1X21383Y28249D1*
G1X21375Y28294D1*
G1X21383Y28338D1*
G1X21417Y28395D1*
G1X21200Y28376D1*
G1X21200Y28205D1*
G1X21700Y27790D2*
G1X21692Y27746D1*
G1X21667Y27695D1*
G1X21625Y27663D1*
G1X21567Y27651D1*
G1X21508Y27663D1*
G1X21458Y27701D1*
G1X21433Y27758D1*
G1X21433Y27822D1*
G1X21417Y27860D1*
G1X21375Y27891D1*
G1X21317Y27904D1*
G1X21258Y27885D1*
G1X21217Y27841D1*
G1X21200Y27790D1*
G1X21217Y27739D1*
G1X21258Y27695D1*
G1X21317Y27676D1*
G1X21375Y27689D1*
G1X21417Y27720D1*
G1X21433Y27758D1*
G1X21433Y27822D1*
G1X21458Y27879D1*
G1X21508Y27917D1*
G1X21567Y27929D1*
G1X21625Y27917D1*
G1X21667Y27885D1*
G1X21692Y27834D1*
G1X21700Y27790D1*
G1X23491Y1498D2*
G1X23529Y1523D1*
G1X23573Y1540D1*
G1X23624Y1540D1*
G1X23681Y1515D1*
G1X23725Y1473D1*
G1X23757Y1423D1*
G1X23782Y1340D1*
G1X23788Y1265D1*
G1X23776Y1190D1*
G1X23757Y1140D1*
G1X23719Y1090D1*
G1X23674Y1057D1*
G1X23630Y1040D1*
G1X23586Y1040D1*
G1X23541Y1057D1*
G1X23503Y1082D1*
G1X23472Y1115D1*
G1X23120Y1040D2*
G1X23120Y1540D1*
G1X23196Y1440D1*
G1X23196Y1040D2*
G1X23044Y1040D1*
G1X22610Y1040D2*
G1X22566Y1048D1*
G1X22515Y1073D1*
G1X22483Y1115D1*
G1X22471Y1173D1*
G1X22483Y1232D1*
G1X22521Y1282D1*
G1X22578Y1307D1*
G1X22642Y1307D1*
G1X22680Y1323D1*
G1X22711Y1365D1*
G1X22724Y1423D1*
G1X22705Y1482D1*
G1X22661Y1523D1*
G1X22610Y1540D1*
G1X22559Y1523D1*
G1X22515Y1482D1*
G1X22496Y1423D1*
G1X22509Y1365D1*
G1X22540Y1323D1*
G1X22578Y1307D1*
G1X22642Y1307D1*
G1X22699Y1282D1*
G1X22737Y1232D1*
G1X22749Y1173D1*
G1X22737Y1115D1*
G1X22705Y1073D1*
G1X22654Y1048D1*
G1X22610Y1040D1*
G1X23733Y2890D2*
G1X23733Y2390D1*
G1X23892Y2390D1*
G1X23942Y2415D1*
G1X23974Y2448D1*
G1X23987Y2515D1*
G1X23974Y2582D1*
G1X23936Y2623D1*
G1X23892Y2648D1*
G1X23733Y2648D1*
G1X23892Y2648D2*
G1X23987Y2890D1*
G1X24250Y2473D2*
G1X24288Y2423D1*
G1X24332Y2398D1*
G1X24383Y2390D1*
G1X24446Y2407D1*
G1X24490Y2448D1*
G1X24503Y2498D1*
G1X24497Y2548D1*
G1X24471Y2590D1*
G1X24345Y2673D1*
G1X24288Y2732D1*
G1X24250Y2815D1*
G1X24237Y2890D1*
G1X24503Y2890D1*
G1X24741Y2790D2*
G1X24779Y2848D1*
G1X24829Y2882D1*
G1X24886Y2890D1*
G1X24937Y2882D1*
G1X24988Y2840D1*
G1X25019Y2790D1*
G1X25026Y2740D1*
G1X25013Y2682D1*
G1X24969Y2640D1*
G1X24924Y2623D1*
G1X24867Y2623D1*
G1X24924Y2623D2*
G1X24962Y2598D1*
G1X24994Y2557D1*
G1X25007Y2507D1*
G1X24994Y2457D1*
G1X24962Y2415D1*
G1X24905Y2390D1*
G1X24848Y2398D1*
G1X24791Y2432D1*
G1X27427Y3740D2*
G1X27427Y4240D1*
G1X27268Y4240D1*
G1X27218Y4215D1*
G1X27186Y4182D1*
G1X27173Y4115D1*
G1X27186Y4048D1*
G1X27224Y4007D1*
G1X27268Y3982D1*
G1X27427Y3982D1*
G1X27268Y3982D2*
G1X27173Y3740D1*
G1X26929Y3815D2*
G1X26891Y3773D1*
G1X26847Y3748D1*
G1X26790Y3740D1*
G1X26733Y3757D1*
G1X26689Y3790D1*
G1X26657Y3848D1*
G1X26651Y3915D1*
G1X26663Y3982D1*
G1X26695Y4023D1*
G1X26739Y4057D1*
G1X26784Y4065D1*
G1X26828Y4057D1*
G1X26885Y4023D1*
G1X26866Y4240D1*
G1X26695Y4240D1*
G1X26419Y3815D2*
G1X26381Y3773D1*
G1X26337Y3748D1*
G1X26280Y3740D1*
G1X26223Y3757D1*
G1X26179Y3790D1*
G1X26147Y3848D1*
G1X26141Y3915D1*
G1X26153Y3982D1*
G1X26185Y4023D1*
G1X26229Y4057D1*
G1X26274Y4065D1*
G1X26318Y4057D1*
G1X26375Y4023D1*
G1X26356Y4240D1*
G1X26185Y4240D1*
G1X27557Y5810D2*
G1X27557Y6310D1*
G1X27398Y6310D1*
G1X27348Y6285D1*
G1X27316Y6252D1*
G1X27303Y6185D1*
G1X27316Y6118D1*
G1X27354Y6077D1*
G1X27398Y6052D1*
G1X27557Y6052D1*
G1X27398Y6052D2*
G1X27303Y5810D1*
G1X27059Y5885D2*
G1X27021Y5843D1*
G1X26977Y5818D1*
G1X26920Y5810D1*
G1X26863Y5827D1*
G1X26819Y5860D1*
G1X26787Y5918D1*
G1X26781Y5985D1*
G1X26793Y6052D1*
G1X26825Y6093D1*
G1X26869Y6127D1*
G1X26914Y6135D1*
G1X26958Y6127D1*
G1X27015Y6093D1*
G1X26996Y6310D1*
G1X26825Y6310D1*
G1X26549Y5910D2*
G1X26511Y5852D1*
G1X26461Y5818D1*
G1X26404Y5810D1*
G1X26353Y5818D1*
G1X26302Y5860D1*
G1X26271Y5910D1*
G1X26264Y5960D1*
G1X26277Y6018D1*
G1X26321Y6060D1*
G1X26366Y6077D1*
G1X26423Y6077D1*
G1X26366Y6077D2*
G1X26328Y6102D1*
G1X26296Y6143D1*
G1X26283Y6193D1*
G1X26296Y6243D1*
G1X26328Y6285D1*
G1X26385Y6310D1*
G1X26442Y6302D1*
G1X26499Y6268D1*
G1X27617Y7780D2*
G1X27617Y8280D1*
G1X27458Y8280D1*
G1X27408Y8255D1*
G1X27376Y8222D1*
G1X27363Y8155D1*
G1X27376Y8088D1*
G1X27414Y8047D1*
G1X27458Y8022D1*
G1X27617Y8022D1*
G1X27458Y8022D2*
G1X27363Y7780D1*
G1X26904Y7780D2*
G1X26904Y8280D1*
G1X27138Y7922D1*
G1X26822Y7922D1*
G1X26609Y7855D2*
G1X26571Y7813D1*
G1X26527Y7788D1*
G1X26470Y7780D1*
G1X26413Y7797D1*
G1X26369Y7830D1*
G1X26337Y7888D1*
G1X26331Y7955D1*
G1X26343Y8022D1*
G1X26375Y8063D1*
G1X26419Y8097D1*
G1X26464Y8105D1*
G1X26508Y8097D1*
G1X26565Y8063D1*
G1X26546Y8280D1*
G1X26375Y8280D1*
G1X27513Y15930D2*
G1X27513Y15430D1*
G1X27672Y15430D1*
G1X27722Y15455D1*
G1X27754Y15488D1*
G1X27767Y15555D1*
G1X27754Y15622D1*
G1X27716Y15663D1*
G1X27672Y15688D1*
G1X27513Y15688D1*
G1X27672Y15688D2*
G1X27767Y15930D1*
G1X28030Y15513D2*
G1X28068Y15463D1*
G1X28112Y15438D1*
G1X28163Y15430D1*
G1X28226Y15447D1*
G1X28270Y15488D1*
G1X28283Y15538D1*
G1X28277Y15588D1*
G1X28251Y15630D1*
G1X28125Y15713D1*
G1X28068Y15772D1*
G1X28030Y15855D1*
G1X28017Y15930D1*
G1X28283Y15930D1*
G1X28736Y15930D2*
G1X28736Y15430D1*
G1X28502Y15788D1*
G1X28818Y15788D1*
G1X28025Y17325D2*
G1X27969Y17287D1*
G1X27904Y17262D1*
G1X27829Y17262D1*
G1X27745Y17300D1*
G1X27680Y17362D1*
G1X27633Y17437D1*
G1X27596Y17562D1*
G1X27587Y17675D1*
G1X27605Y17787D1*
G1X27633Y17862D1*
G1X27689Y17937D1*
G1X27755Y17987D1*
G1X27820Y18012D1*
G1X27885Y18012D1*
G1X27951Y17987D1*
G1X28007Y17950D1*
G1X28053Y17900D1*
G1X28393Y17387D2*
G1X28449Y17312D1*
G1X28514Y17274D1*
G1X28589Y17262D1*
G1X28682Y17287D1*
G1X28747Y17350D1*
G1X28766Y17424D1*
G1X28757Y17500D1*
G1X28719Y17562D1*
G1X28533Y17687D1*
G1X28449Y17775D1*
G1X28393Y17900D1*
G1X28374Y18012D1*
G1X28766Y18012D1*
G1X29320Y18012D2*
G1X29320Y17262D1*
G1X29208Y17412D1*
G1X29208Y18012D2*
G1X29432Y18012D1*
G1X28230Y28527D2*
G1X27730Y28527D1*
G1X27730Y28368D1*
G1X27755Y28318D1*
G1X27788Y28286D1*
G1X27855Y28273D1*
G1X27922Y28286D1*
G1X27963Y28324D1*
G1X27988Y28368D1*
G1X27988Y28527D1*
G1X27988Y28368D2*
G1X28230Y28273D1*
G1X28130Y28029D2*
G1X28188Y27991D1*
G1X28222Y27941D1*
G1X28230Y27884D1*
G1X28222Y27833D1*
G1X28180Y27782D1*
G1X28130Y27751D1*
G1X28080Y27744D1*
G1X28022Y27757D1*
G1X27980Y27801D1*
G1X27963Y27846D1*
G1X27963Y27903D1*
G1X27963Y27846D2*
G1X27938Y27808D1*
G1X27897Y27776D1*
G1X27847Y27763D1*
G1X27797Y27776D1*
G1X27755Y27808D1*
G1X27730Y27865D1*
G1X27738Y27922D1*
G1X27772Y27979D1*
G1X28155Y27519D2*
G1X28197Y27481D1*
G1X28222Y27437D1*
G1X28230Y27380D1*
G1X28213Y27323D1*
G1X28180Y27279D1*
G1X28122Y27247D1*
G1X28055Y27241D1*
G1X27988Y27253D1*
G1X27947Y27285D1*
G1X27913Y27329D1*
G1X27905Y27374D1*
G1X27913Y27418D1*
G1X27947Y27475D1*
G1X27730Y27456D1*
G1X27730Y27285D1*
G1X30029Y1652D2*
G1X29991Y1627D1*
G1X29947Y1610D1*
G1X29896Y1610D1*
G1X29839Y1635D1*
G1X29795Y1677D1*
G1X29763Y1727D1*
G1X29738Y1810D1*
G1X29732Y1885D1*
G1X29744Y1960D1*
G1X29763Y2010D1*
G1X29801Y2060D1*
G1X29846Y2093D1*
G1X29890Y2110D1*
G1X29934Y2110D1*
G1X29979Y2093D1*
G1X30017Y2068D1*
G1X30048Y2035D1*
G1X30400Y2110D2*
G1X30400Y1610D1*
G1X30324Y1710D1*
G1X30324Y2110D2*
G1X30476Y2110D1*
G1X30790Y1902D2*
G1X30834Y1843D1*
G1X30872Y1810D1*
G1X30923Y1793D1*
G1X30967Y1810D1*
G1X30999Y1843D1*
G1X31024Y1893D1*
G1X31030Y1952D1*
G1X31024Y2002D1*
G1X30999Y2052D1*
G1X30961Y2093D1*
G1X30916Y2110D1*
G1X30866Y2093D1*
G1X30821Y2043D1*
G1X30796Y1968D1*
G1X30790Y1885D1*
G1X30802Y1777D1*
G1X30821Y1718D1*
G1X30853Y1660D1*
G1X30897Y1618D1*
G1X30942Y1610D1*
G1X30986Y1627D1*
G1X31018Y1668D1*
G1X30050Y4687D2*
G1X29550Y4687D1*
G1X29550Y4528D1*
G1X29575Y4478D1*
G1X29608Y4446D1*
G1X29675Y4433D1*
G1X29742Y4446D1*
G1X29783Y4484D1*
G1X29808Y4528D1*
G1X29808Y4687D1*
G1X29808Y4528D2*
G1X30050Y4433D1*
G1X29633Y4170D2*
G1X29583Y4132D1*
G1X29558Y4088D1*
G1X29550Y4037D1*
G1X29567Y3974D1*
G1X29608Y3930D1*
G1X29658Y3917D1*
G1X29708Y3923D1*
G1X29750Y3949D1*
G1X29833Y4075D1*
G1X29892Y4132D1*
G1X29975Y4170D1*
G1X30050Y4183D1*
G1X30050Y3917D1*
G1X29633Y3660D2*
G1X29583Y3622D1*
G1X29558Y3578D1*
G1X29550Y3527D1*
G1X29567Y3464D1*
G1X29608Y3420D1*
G1X29658Y3407D1*
G1X29708Y3413D1*
G1X29750Y3439D1*
G1X29833Y3565D1*
G1X29892Y3622D1*
G1X29975Y3660D1*
G1X30050Y3673D1*
G1X30050Y3407D1*
G1X31611Y32158D2*
G1X31649Y32183D1*
G1X31693Y32200D1*
G1X31744Y32200D1*
G1X31801Y32175D1*
G1X31845Y32133D1*
G1X31877Y32083D1*
G1X31902Y32000D1*
G1X31908Y31925D1*
G1X31896Y31850D1*
G1X31877Y31800D1*
G1X31839Y31750D1*
G1X31794Y31717D1*
G1X31750Y31700D1*
G1X31706Y31700D1*
G1X31661Y31717D1*
G1X31623Y31742D1*
G1X31592Y31775D1*
G1X31360Y31908D2*
G1X31316Y31967D1*
G1X31278Y32000D1*
G1X31227Y32017D1*
G1X31183Y32000D1*
G1X31151Y31967D1*
G1X31126Y31917D1*
G1X31120Y31858D1*
G1X31126Y31808D1*
G1X31151Y31758D1*
G1X31189Y31717D1*
G1X31234Y31700D1*
G1X31284Y31717D1*
G1X31329Y31767D1*
G1X31354Y31842D1*
G1X31360Y31925D1*
G1X31348Y32033D1*
G1X31329Y32092D1*
G1X31297Y32150D1*
G1X31253Y32192D1*
G1X31208Y32200D1*
G1X31164Y32183D1*
G1X31132Y32142D1*
G1X31923Y14800D2*
G1X31923Y14300D1*
G1X32082Y14300D1*
G1X32132Y14325D1*
G1X32164Y14358D1*
G1X32177Y14425D1*
G1X32164Y14492D1*
G1X32126Y14533D1*
G1X32082Y14558D1*
G1X31923Y14558D1*
G1X32082Y14558D2*
G1X32177Y14800D1*
G1X32560Y14800D2*
G1X32560Y14300D1*
G1X32484Y14400D1*
G1X32484Y14800D2*
G1X32636Y14800D1*
G1X33070Y14800D2*
G1X33114Y14792D1*
G1X33165Y14767D1*
G1X33197Y14725D1*
G1X33209Y14667D1*
G1X33197Y14608D1*
G1X33159Y14558D1*
G1X33102Y14533D1*
G1X33038Y14533D1*
G1X33000Y14517D1*
G1X32969Y14475D1*
G1X32956Y14417D1*
G1X32975Y14358D1*
G1X33019Y14317D1*
G1X33070Y14300D1*
G1X33121Y14317D1*
G1X33165Y14358D1*
G1X33184Y14417D1*
G1X33171Y14475D1*
G1X33140Y14517D1*
G1X33102Y14533D1*
G1X33038Y14533D1*
G1X32981Y14558D1*
G1X32943Y14608D1*
G1X32931Y14667D1*
G1X32943Y14725D1*
G1X32975Y14767D1*
G1X33026Y14792D1*
G1X33070Y14800D1*
G1X32118Y19589D2*
G1X32143Y19551D1*
G1X32160Y19507D1*
G1X32160Y19456D1*
G1X32135Y19399D1*
G1X32093Y19355D1*
G1X32043Y19323D1*
G1X31960Y19298D1*
G1X31885Y19292D1*
G1X31810Y19304D1*
G1X31760Y19323D1*
G1X31710Y19361D1*
G1X31677Y19406D1*
G1X31660Y19450D1*
G1X31660Y19494D1*
G1X31677Y19539D1*
G1X31702Y19577D1*
G1X31735Y19608D1*
G1X31660Y19960D2*
G1X32160Y19960D1*
G1X32060Y19884D1*
G1X31660Y19884D2*
G1X31660Y20036D1*
G1X31660Y20457D2*
G1X31768Y20470D1*
G1X31860Y20489D1*
G1X31943Y20514D1*
G1X32035Y20546D1*
G1X32160Y20597D1*
G1X32160Y20343D1*
G1X35187Y18230D2*
G1X35187Y18730D1*
G1X35028Y18730D1*
G1X34978Y18705D1*
G1X34946Y18672D1*
G1X34933Y18605D1*
G1X34946Y18538D1*
G1X34984Y18497D1*
G1X35028Y18472D1*
G1X35187Y18472D1*
G1X35028Y18472D2*
G1X34933Y18230D1*
G1X34670Y18647D2*
G1X34632Y18697D1*
G1X34588Y18722D1*
G1X34537Y18730D1*
G1X34474Y18713D1*
G1X34430Y18672D1*
G1X34417Y18622D1*
G1X34423Y18572D1*
G1X34449Y18530D1*
G1X34575Y18447D1*
G1X34632Y18388D1*
G1X34670Y18305D1*
G1X34683Y18230D1*
G1X34417Y18230D1*
G1X34040Y18230D2*
G1X34040Y18730D1*
G1X34116Y18630D1*
G1X34116Y18230D2*
G1X33964Y18230D1*
G1X35187Y20200D2*
G1X35187Y20700D1*
G1X35028Y20700D1*
G1X34978Y20675D1*
G1X34946Y20642D1*
G1X34933Y20575D1*
G1X34946Y20508D1*
G1X34984Y20467D1*
G1X35028Y20442D1*
G1X35187Y20442D1*
G1X35028Y20442D2*
G1X34933Y20200D1*
G1X34689Y20300D2*
G1X34651Y20242D1*
G1X34601Y20208D1*
G1X34544Y20200D1*
G1X34493Y20208D1*
G1X34442Y20250D1*
G1X34411Y20300D1*
G1X34404Y20350D1*
G1X34417Y20408D1*
G1X34461Y20450D1*
G1X34506Y20467D1*
G1X34563Y20467D1*
G1X34506Y20467D2*
G1X34468Y20492D1*
G1X34436Y20533D1*
G1X34423Y20583D1*
G1X34436Y20633D1*
G1X34468Y20675D1*
G1X34525Y20700D1*
G1X34582Y20692D1*
G1X34639Y20658D1*
G1X34040Y20200D2*
G1X34040Y20700D1*
G1X34116Y20600D1*
G1X34116Y20200D2*
G1X33964Y20200D1*
G1X36910Y5317D2*
G1X36410Y5317D1*
G1X36410Y5158D1*
G1X36435Y5108D1*
G1X36468Y5076D1*
G1X36535Y5063D1*
G1X36602Y5076D1*
G1X36643Y5114D1*
G1X36668Y5158D1*
G1X36668Y5317D1*
G1X36668Y5158D2*
G1X36910Y5063D1*
G1X36810Y4819D2*
G1X36868Y4781D1*
G1X36902Y4731D1*
G1X36910Y4674D1*
G1X36902Y4623D1*
G1X36860Y4572D1*
G1X36810Y4541D1*
G1X36760Y4534D1*
G1X36702Y4547D1*
G1X36660Y4591D1*
G1X36643Y4636D1*
G1X36643Y4693D1*
G1X36643Y4636D2*
G1X36618Y4598D1*
G1X36577Y4566D1*
G1X36527Y4553D1*
G1X36477Y4566D1*
G1X36435Y4598D1*
G1X36410Y4655D1*
G1X36418Y4712D1*
G1X36452Y4769D1*
G1X36702Y4290D2*
G1X36643Y4246D1*
G1X36610Y4208D1*
G1X36593Y4157D1*
G1X36610Y4113D1*
G1X36643Y4081D1*
G1X36693Y4056D1*
G1X36752Y4050D1*
G1X36802Y4056D1*
G1X36852Y4081D1*
G1X36893Y4119D1*
G1X36910Y4164D1*
G1X36893Y4214D1*
G1X36843Y4259D1*
G1X36768Y4284D1*
G1X36685Y4290D1*
G1X36577Y4278D1*
G1X36518Y4259D1*
G1X36460Y4227D1*
G1X36418Y4183D1*
G1X36410Y4138D1*
G1X36427Y4094D1*
G1X36468Y4062D1*
G1X36530Y15727D2*
G1X36030Y15727D1*
G1X36030Y15568D1*
G1X36055Y15518D1*
G1X36088Y15486D1*
G1X36155Y15473D1*
G1X36222Y15486D1*
G1X36263Y15524D1*
G1X36288Y15568D1*
G1X36288Y15727D1*
G1X36288Y15568D2*
G1X36530Y15473D1*
G1X36530Y15090D2*
G1X36030Y15090D1*
G1X36130Y15166D1*
G1X36530Y15166D2*
G1X36530Y15014D1*
G1X36472Y14688D2*
G1X36513Y14643D1*
G1X36530Y14593D1*
G1X36513Y14542D1*
G1X36463Y14498D1*
G1X36388Y14466D1*
G1X36313Y14453D1*
G1X36222Y14453D1*
G1X36147Y14466D1*
G1X36080Y14498D1*
G1X36047Y14536D1*
G1X36030Y14580D1*
G1X36047Y14631D1*
G1X36080Y14669D1*
G1X36130Y14694D1*
G1X36197Y14707D1*
G1X36255Y14694D1*
G1X36313Y14662D1*
G1X36347Y14624D1*
G1X36355Y14580D1*
G1X36338Y14529D1*
G1X36297Y14491D1*
G1X36222Y14453D1*
G1X36842Y23621D2*
G1X36817Y23659D1*
G1X36800Y23703D1*
G1X36800Y23754D1*
G1X36825Y23811D1*
G1X36867Y23855D1*
G1X36917Y23887D1*
G1X37000Y23912D1*
G1X37075Y23918D1*
G1X37150Y23906D1*
G1X37200Y23887D1*
G1X37250Y23849D1*
G1X37283Y23804D1*
G1X37300Y23760D1*
G1X37300Y23716D1*
G1X37283Y23671D1*
G1X37258Y23633D1*
G1X37225Y23602D1*
G1X37300Y23250D2*
G1X36800Y23250D1*
G1X36900Y23326D1*
G1X37300Y23326D2*
G1X37300Y23174D1*
G1X37242Y22848D2*
G1X37283Y22803D1*
G1X37300Y22753D1*
G1X37283Y22702D1*
G1X37233Y22658D1*
G1X37158Y22626D1*
G1X37083Y22613D1*
G1X36992Y22613D1*
G1X36917Y22626D1*
G1X36850Y22658D1*
G1X36817Y22696D1*
G1X36800Y22740D1*
G1X36817Y22791D1*
G1X36850Y22829D1*
G1X36900Y22854D1*
G1X36967Y22867D1*
G1X37025Y22854D1*
G1X37083Y22822D1*
G1X37117Y22784D1*
G1X37125Y22740D1*
G1X37108Y22689D1*
G1X37067Y22651D1*
G1X36992Y22613D1*
G1X37437Y33310D2*
G1X37437Y33810D1*
G1X37278Y33810D1*
G1X37228Y33785D1*
G1X37196Y33752D1*
G1X37183Y33685D1*
G1X37196Y33618D1*
G1X37234Y33577D1*
G1X37278Y33552D1*
G1X37437Y33552D1*
G1X37278Y33552D2*
G1X37183Y33310D1*
G1X36800Y33310D2*
G1X36800Y33810D1*
G1X36876Y33710D1*
G1X36876Y33310D2*
G1X36724Y33310D1*
G1X36410Y33727D2*
G1X36372Y33777D1*
G1X36328Y33802D1*
G1X36277Y33810D1*
G1X36214Y33793D1*
G1X36170Y33752D1*
G1X36157Y33702D1*
G1X36163Y33652D1*
G1X36189Y33610D1*
G1X36315Y33527D1*
G1X36372Y33468D1*
G1X36410Y33385D1*
G1X36423Y33310D1*
G1X36157Y33310D1*
G1X38710Y7927D2*
G1X38210Y7927D1*
G1X38210Y7768D1*
G1X38235Y7718D1*
G1X38268Y7686D1*
G1X38335Y7673D1*
G1X38402Y7686D1*
G1X38443Y7724D1*
G1X38468Y7768D1*
G1X38468Y7927D1*
G1X38468Y7768D2*
G1X38710Y7673D1*
G1X38610Y7429D2*
G1X38668Y7391D1*
G1X38702Y7341D1*
G1X38710Y7284D1*
G1X38702Y7233D1*
G1X38660Y7182D1*
G1X38610Y7151D1*
G1X38560Y7144D1*
G1X38502Y7157D1*
G1X38460Y7201D1*
G1X38443Y7246D1*
G1X38443Y7303D1*
G1X38443Y7246D2*
G1X38418Y7208D1*
G1X38377Y7176D1*
G1X38327Y7163D1*
G1X38277Y7176D1*
G1X38235Y7208D1*
G1X38210Y7265D1*
G1X38218Y7322D1*
G1X38252Y7379D1*
G1X38710Y6780D2*
G1X38702Y6736D1*
G1X38677Y6685D1*
G1X38635Y6653D1*
G1X38577Y6641D1*
G1X38518Y6653D1*
G1X38468Y6691D1*
G1X38443Y6748D1*
G1X38443Y6812D1*
G1X38427Y6850D1*
G1X38385Y6881D1*
G1X38327Y6894D1*
G1X38268Y6875D1*
G1X38227Y6831D1*
G1X38210Y6780D1*
G1X38227Y6729D1*
G1X38268Y6685D1*
G1X38327Y6666D1*
G1X38385Y6679D1*
G1X38427Y6710D1*
G1X38443Y6748D1*
G1X38443Y6812D1*
G1X38468Y6869D1*
G1X38518Y6907D1*
G1X38577Y6919D1*
G1X38635Y6907D1*
G1X38677Y6875D1*
G1X38702Y6824D1*
G1X38710Y6780D1*
G1X37572Y15511D2*
G1X37547Y15549D1*
G1X37530Y15593D1*
G1X37530Y15644D1*
G1X37555Y15701D1*
G1X37597Y15745D1*
G1X37647Y15777D1*
G1X37730Y15802D1*
G1X37805Y15808D1*
G1X37880Y15796D1*
G1X37930Y15777D1*
G1X37980Y15739D1*
G1X38013Y15694D1*
G1X38030Y15650D1*
G1X38030Y15606D1*
G1X38013Y15561D1*
G1X37988Y15523D1*
G1X37955Y15492D1*
G1X38030Y15140D2*
G1X37530Y15140D1*
G1X37630Y15216D1*
G1X38030Y15216D2*
G1X38030Y15064D1*
G1X37955Y14769D2*
G1X37997Y14731D1*
G1X38022Y14687D1*
G1X38030Y14630D1*
G1X38013Y14573D1*
G1X37980Y14529D1*
G1X37922Y14497D1*
G1X37855Y14491D1*
G1X37788Y14503D1*
G1X37747Y14535D1*
G1X37713Y14579D1*
G1X37705Y14624D1*
G1X37713Y14668D1*
G1X37747Y14725D1*
G1X37530Y14706D1*
G1X37530Y14535D1*
G1X38440Y23937D2*
G1X37940Y23937D1*
G1X37940Y23778D1*
G1X37965Y23728D1*
G1X37998Y23696D1*
G1X38065Y23683D1*
G1X38132Y23696D1*
G1X38173Y23734D1*
G1X38198Y23778D1*
G1X38198Y23937D1*
G1X38198Y23778D2*
G1X38440Y23683D1*
G1X38023Y23420D2*
G1X37973Y23382D1*
G1X37948Y23338D1*
G1X37940Y23287D1*
G1X37957Y23224D1*
G1X37998Y23180D1*
G1X38048Y23167D1*
G1X38098Y23173D1*
G1X38140Y23199D1*
G1X38223Y23325D1*
G1X38282Y23382D1*
G1X38365Y23420D1*
G1X38440Y23433D1*
G1X38440Y23167D1*
G1X38440Y22803D2*
G1X38332Y22790D1*
G1X38240Y22771D1*
G1X38157Y22746D1*
G1X38065Y22714D1*
G1X37940Y22663D1*
G1X37940Y22917D1*
G1X38441Y27438D2*
G1X38479Y27463D1*
G1X38523Y27480D1*
G1X38574Y27480D1*
G1X38631Y27455D1*
G1X38675Y27413D1*
G1X38707Y27363D1*
G1X38732Y27280D1*
G1X38738Y27205D1*
G1X38726Y27130D1*
G1X38707Y27080D1*
G1X38669Y27030D1*
G1X38624Y26997D1*
G1X38580Y26980D1*
G1X38536Y26980D1*
G1X38491Y26997D1*
G1X38453Y27022D1*
G1X38422Y27055D1*
G1X38070Y26980D2*
G1X38070Y27480D1*
G1X38146Y27380D1*
G1X38146Y26980D2*
G1X37994Y26980D1*
G1X37699Y27080D2*
G1X37661Y27022D1*
G1X37611Y26988D1*
G1X37554Y26980D1*
G1X37503Y26988D1*
G1X37452Y27030D1*
G1X37421Y27080D1*
G1X37414Y27130D1*
G1X37427Y27188D1*
G1X37471Y27230D1*
G1X37516Y27247D1*
G1X37573Y27247D1*
G1X37516Y27247D2*
G1X37478Y27272D1*
G1X37446Y27313D1*
G1X37433Y27363D1*
G1X37446Y27413D1*
G1X37478Y27455D1*
G1X37535Y27480D1*
G1X37592Y27472D1*
G1X37649Y27438D1*
G1X40481Y19678D2*
G1X40519Y19703D1*
G1X40563Y19720D1*
G1X40614Y19720D1*
G1X40671Y19695D1*
G1X40715Y19653D1*
G1X40747Y19603D1*
G1X40772Y19520D1*
G1X40778Y19445D1*
G1X40766Y19370D1*
G1X40747Y19320D1*
G1X40709Y19270D1*
G1X40664Y19237D1*
G1X40620Y19220D1*
G1X40576Y19220D1*
G1X40531Y19237D1*
G1X40493Y19262D1*
G1X40462Y19295D1*
G1X40230Y19637D2*
G1X40192Y19687D1*
G1X40148Y19712D1*
G1X40097Y19720D1*
G1X40034Y19703D1*
G1X39990Y19662D1*
G1X39977Y19612D1*
G1X39983Y19562D1*
G1X40009Y19520D1*
G1X40135Y19437D1*
G1X40192Y19378D1*
G1X40230Y19295D1*
G1X40243Y19220D1*
G1X39977Y19220D1*
G1X39600Y19720D2*
G1X39651Y19703D1*
G1X39689Y19662D1*
G1X39714Y19612D1*
G1X39733Y19545D1*
G1X39739Y19470D1*
G1X39733Y19395D1*
G1X39714Y19328D1*
G1X39689Y19278D1*
G1X39651Y19237D1*
G1X39600Y19220D1*
G1X39549Y19237D1*
G1X39511Y19278D1*
G1X39486Y19328D1*
G1X39467Y19395D1*
G1X39461Y19470D1*
G1X39467Y19545D1*
G1X39486Y19612D1*
G1X39511Y19662D1*
G1X39549Y19703D1*
G1X39600Y19720D1*
G1X40120Y7187D2*
G1X39620Y7187D1*
G1X39620Y7028D1*
G1X39645Y6978D1*
G1X39678Y6946D1*
G1X39745Y6933D1*
G1X39812Y6946D1*
G1X39853Y6984D1*
G1X39878Y7028D1*
G1X39878Y7187D1*
G1X39878Y7028D2*
G1X40120Y6933D1*
G1X40020Y6689D2*
G1X40078Y6651D1*
G1X40112Y6601D1*
G1X40120Y6544D1*
G1X40112Y6493D1*
G1X40070Y6442D1*
G1X40020Y6411D1*
G1X39970Y6404D1*
G1X39912Y6417D1*
G1X39870Y6461D1*
G1X39853Y6506D1*
G1X39853Y6563D1*
G1X39853Y6506D2*
G1X39828Y6468D1*
G1X39787Y6436D1*
G1X39737Y6423D1*
G1X39687Y6436D1*
G1X39645Y6468D1*
G1X39620Y6525D1*
G1X39628Y6582D1*
G1X39662Y6639D1*
G1X40062Y6148D2*
G1X40103Y6103D1*
G1X40120Y6053D1*
G1X40103Y6002D1*
G1X40053Y5958D1*
G1X39978Y5926D1*
G1X39903Y5913D1*
G1X39812Y5913D1*
G1X39737Y5926D1*
G1X39670Y5958D1*
G1X39637Y5996D1*
G1X39620Y6040D1*
G1X39637Y6091D1*
G1X39670Y6129D1*
G1X39720Y6154D1*
G1X39787Y6167D1*
G1X39845Y6154D1*
G1X39903Y6122D1*
G1X39937Y6084D1*
G1X39945Y6040D1*
G1X39928Y5989D1*
G1X39887Y5951D1*
G1X39812Y5913D1*
G1X41490Y5437D2*
G1X40990Y5437D1*
G1X40990Y5278D1*
G1X41015Y5228D1*
G1X41048Y5196D1*
G1X41115Y5183D1*
G1X41182Y5196D1*
G1X41223Y5234D1*
G1X41248Y5278D1*
G1X41248Y5437D1*
G1X41248Y5278D2*
G1X41490Y5183D1*
G1X41490Y4724D2*
G1X40990Y4724D1*
G1X41348Y4958D1*
G1X41348Y4642D1*
G1X40990Y4290D2*
G1X41007Y4341D1*
G1X41048Y4379D1*
G1X41098Y4404D1*
G1X41165Y4423D1*
G1X41240Y4429D1*
G1X41315Y4423D1*
G1X41382Y4404D1*
G1X41432Y4379D1*
G1X41473Y4341D1*
G1X41490Y4290D1*
G1X41473Y4239D1*
G1X41432Y4201D1*
G1X41382Y4176D1*
G1X41315Y4157D1*
G1X41240Y4151D1*
G1X41165Y4157D1*
G1X41098Y4176D1*
G1X41048Y4201D1*
G1X41007Y4239D1*
G1X40990Y4290D1*
G1X43630Y7677D2*
G1X43130Y7677D1*
G1X43130Y7518D1*
G1X43155Y7468D1*
G1X43188Y7436D1*
G1X43255Y7423D1*
G1X43322Y7436D1*
G1X43363Y7474D1*
G1X43388Y7518D1*
G1X43388Y7677D1*
G1X43388Y7518D2*
G1X43630Y7423D1*
G1X43630Y6964D2*
G1X43130Y6964D1*
G1X43488Y7198D1*
G1X43488Y6882D1*
G1X43630Y6454D2*
G1X43130Y6454D1*
G1X43488Y6688D1*
G1X43488Y6372D1*
G1X44217Y22510D2*
G1X44217Y23010D1*
G1X44058Y23010D1*
G1X44008Y22985D1*
G1X43976Y22952D1*
G1X43963Y22885D1*
G1X43976Y22818D1*
G1X44014Y22777D1*
G1X44058Y22752D1*
G1X44217Y22752D1*
G1X44058Y22752D2*
G1X43963Y22510D1*
G1X43719Y22610D2*
G1X43681Y22552D1*
G1X43631Y22518D1*
G1X43574Y22510D1*
G1X43523Y22518D1*
G1X43472Y22560D1*
G1X43441Y22610D1*
G1X43434Y22660D1*
G1X43447Y22718D1*
G1X43491Y22760D1*
G1X43536Y22777D1*
G1X43593Y22777D1*
G1X43536Y22777D2*
G1X43498Y22802D1*
G1X43466Y22843D1*
G1X43453Y22893D1*
G1X43466Y22943D1*
G1X43498Y22985D1*
G1X43555Y23010D1*
G1X43612Y23002D1*
G1X43669Y22968D1*
G1X44218Y24009D2*
G1X44243Y23971D1*
G1X44260Y23927D1*
G1X44260Y23876D1*
G1X44235Y23819D1*
G1X44193Y23775D1*
G1X44143Y23743D1*
G1X44060Y23718D1*
G1X43985Y23712D1*
G1X43910Y23724D1*
G1X43860Y23743D1*
G1X43810Y23781D1*
G1X43777Y23826D1*
G1X43760Y23870D1*
G1X43760Y23914D1*
G1X43777Y23959D1*
G1X43802Y23997D1*
G1X43835Y24028D1*
G1X43760Y24380D2*
G1X44260Y24380D1*
G1X44160Y24304D1*
G1X43760Y24304D2*
G1X43760Y24456D1*
G1X43168Y31769D2*
G1X43193Y31731D1*
G1X43210Y31687D1*
G1X43210Y31636D1*
G1X43185Y31579D1*
G1X43143Y31535D1*
G1X43093Y31503D1*
G1X43010Y31478D1*
G1X42935Y31472D1*
G1X42860Y31484D1*
G1X42810Y31503D1*
G1X42760Y31541D1*
G1X42727Y31586D1*
G1X42710Y31630D1*
G1X42710Y31674D1*
G1X42727Y31719D1*
G1X42752Y31757D1*
G1X42785Y31788D1*
G1X42710Y32140D2*
G1X43210Y32140D1*
G1X43110Y32064D1*
G1X42710Y32064D2*
G1X42710Y32216D1*
G1X42710Y32650D2*
G1X43210Y32650D1*
G1X43110Y32574D1*
G1X42710Y32574D2*
G1X42710Y32726D1*
G1X44640Y7687D2*
G1X44140Y7687D1*
G1X44140Y7528D1*
G1X44165Y7478D1*
G1X44198Y7446D1*
G1X44265Y7433D1*
G1X44332Y7446D1*
G1X44373Y7484D1*
G1X44398Y7528D1*
G1X44398Y7687D1*
G1X44398Y7528D2*
G1X44640Y7433D1*
G1X44640Y6974D2*
G1X44140Y6974D1*
G1X44498Y7208D1*
G1X44498Y6892D1*
G1X44432Y6660D2*
G1X44373Y6616D1*
G1X44340Y6578D1*
G1X44323Y6527D1*
G1X44340Y6483D1*
G1X44373Y6451D1*
G1X44423Y6426D1*
G1X44482Y6420D1*
G1X44532Y6426D1*
G1X44582Y6451D1*
G1X44623Y6489D1*
G1X44640Y6534D1*
G1X44623Y6584D1*
G1X44573Y6629D1*
G1X44498Y6654D1*
G1X44415Y6660D1*
G1X44307Y6648D1*
G1X44248Y6629D1*
G1X44190Y6597D1*
G1X44148Y6553D1*
G1X44140Y6508D1*
G1X44157Y6464D1*
G1X44198Y6432D1*
G1X45650Y7687D2*
G1X45150Y7687D1*
G1X45150Y7528D1*
G1X45175Y7478D1*
G1X45208Y7446D1*
G1X45275Y7433D1*
G1X45342Y7446D1*
G1X45383Y7484D1*
G1X45408Y7528D1*
G1X45408Y7687D1*
G1X45408Y7528D2*
G1X45650Y7433D1*
G1X45650Y6974D2*
G1X45150Y6974D1*
G1X45508Y7208D1*
G1X45508Y6892D1*
G1X45650Y6553D2*
G1X45542Y6540D1*
G1X45450Y6521D1*
G1X45367Y6496D1*
G1X45275Y6464D1*
G1X45150Y6413D1*
G1X45150Y6667D1*
G1X46557Y33380D2*
G1X46557Y33880D1*
G1X46398Y33880D1*
G1X46348Y33855D1*
G1X46316Y33822D1*
G1X46303Y33755D1*
G1X46316Y33688D1*
G1X46354Y33647D1*
G1X46398Y33622D1*
G1X46557Y33622D1*
G1X46398Y33622D2*
G1X46303Y33380D1*
G1X45920Y33380D2*
G1X45920Y33880D1*
G1X45996Y33780D1*
G1X45996Y33380D2*
G1X45844Y33380D1*
G1X45334Y33380D2*
G1X45334Y33880D1*
G1X45568Y33522D1*
G1X45252Y33522D1*
G1X48997Y20340D2*
G1X48997Y20840D1*
G1X48838Y20840D1*
G1X48788Y20815D1*
G1X48756Y20782D1*
G1X48743Y20715D1*
G1X48756Y20648D1*
G1X48794Y20607D1*
G1X48838Y20582D1*
G1X48997Y20582D1*
G1X48838Y20582D2*
G1X48743Y20340D1*
G1X48480Y20548D2*
G1X48436Y20607D1*
G1X48398Y20640D1*
G1X48347Y20657D1*
G1X48303Y20640D1*
G1X48271Y20607D1*
G1X48246Y20557D1*
G1X48240Y20498D1*
G1X48246Y20448D1*
G1X48271Y20398D1*
G1X48309Y20357D1*
G1X48354Y20340D1*
G1X48404Y20357D1*
G1X48449Y20407D1*
G1X48474Y20482D1*
G1X48480Y20565D1*
G1X48468Y20673D1*
G1X48449Y20732D1*
G1X48417Y20790D1*
G1X48373Y20832D1*
G1X48328Y20840D1*
G1X48284Y20823D1*
G1X48252Y20782D1*
G1X47970Y20757D2*
G1X47932Y20807D1*
G1X47888Y20832D1*
G1X47837Y20840D1*
G1X47774Y20823D1*
G1X47730Y20782D1*
G1X47717Y20732D1*
G1X47723Y20682D1*
G1X47749Y20640D1*
G1X47875Y20557D1*
G1X47932Y20498D1*
G1X47970Y20415D1*
G1X47983Y20340D1*
G1X47717Y20340D1*
G1X48001Y24588D2*
G1X48039Y24613D1*
G1X48083Y24630D1*
G1X48134Y24630D1*
G1X48191Y24605D1*
G1X48235Y24563D1*
G1X48267Y24513D1*
G1X48292Y24430D1*
G1X48298Y24355D1*
G1X48286Y24280D1*
G1X48267Y24230D1*
G1X48229Y24180D1*
G1X48184Y24147D1*
G1X48140Y24130D1*
G1X48096Y24130D1*
G1X48051Y24147D1*
G1X48013Y24172D1*
G1X47982Y24205D1*
G1X47769Y24205D2*
G1X47731Y24163D1*
G1X47687Y24138D1*
G1X47630Y24130D1*
G1X47573Y24147D1*
G1X47529Y24180D1*
G1X47497Y24238D1*
G1X47491Y24305D1*
G1X47503Y24372D1*
G1X47535Y24413D1*
G1X47579Y24447D1*
G1X47624Y24455D1*
G1X47668Y24447D1*
G1X47725Y24413D1*
G1X47706Y24630D1*
G1X47535Y24630D1*
G1X49187Y26900D2*
G1X49187Y27400D1*
G1X49028Y27400D1*
G1X48978Y27375D1*
G1X48946Y27342D1*
G1X48933Y27275D1*
G1X48946Y27208D1*
G1X48984Y27167D1*
G1X49028Y27142D1*
G1X49187Y27142D1*
G1X49028Y27142D2*
G1X48933Y26900D1*
G1X48670Y27108D2*
G1X48626Y27167D1*
G1X48588Y27200D1*
G1X48537Y27217D1*
G1X48493Y27200D1*
G1X48461Y27167D1*
G1X48436Y27117D1*
G1X48430Y27058D1*
G1X48436Y27008D1*
G1X48461Y26958D1*
G1X48499Y26917D1*
G1X48544Y26900D1*
G1X48594Y26917D1*
G1X48639Y26967D1*
G1X48664Y27042D1*
G1X48670Y27125D1*
G1X48658Y27233D1*
G1X48639Y27292D1*
G1X48607Y27350D1*
G1X48563Y27392D1*
G1X48518Y27400D1*
G1X48474Y27383D1*
G1X48442Y27342D1*
G1X48040Y26900D2*
G1X48040Y27400D1*
G1X48116Y27300D1*
G1X48116Y26900D2*
G1X47964Y26900D1*
G1X49851Y23208D2*
G1X49889Y23233D1*
G1X49933Y23250D1*
G1X49984Y23250D1*
G1X50041Y23225D1*
G1X50085Y23183D1*
G1X50117Y23133D1*
G1X50142Y23050D1*
G1X50148Y22975D1*
G1X50136Y22900D1*
G1X50117Y22850D1*
G1X50079Y22800D1*
G1X50034Y22767D1*
G1X49990Y22750D1*
G1X49946Y22750D1*
G1X49901Y22767D1*
G1X49863Y22792D1*
G1X49832Y22825D1*
G1X49600Y23167D2*
G1X49562Y23217D1*
G1X49518Y23242D1*
G1X49467Y23250D1*
G1X49404Y23233D1*
G1X49360Y23192D1*
G1X49347Y23142D1*
G1X49353Y23092D1*
G1X49379Y23050D1*
G1X49505Y22967D1*
G1X49562Y22908D1*
G1X49600Y22825D1*
G1X49613Y22750D1*
G1X49347Y22750D1*
G1X50852Y24991D2*
G1X50827Y25029D1*
G1X50810Y25073D1*
G1X50810Y25124D1*
G1X50835Y25181D1*
G1X50877Y25225D1*
G1X50927Y25257D1*
G1X51010Y25282D1*
G1X51085Y25288D1*
G1X51160Y25276D1*
G1X51210Y25257D1*
G1X51260Y25219D1*
G1X51293Y25174D1*
G1X51310Y25130D1*
G1X51310Y25086D1*
G1X51293Y25041D1*
G1X51268Y25003D1*
G1X51235Y24972D1*
G1X51210Y24759D2*
G1X51268Y24721D1*
G1X51302Y24671D1*
G1X51310Y24614D1*
G1X51302Y24563D1*
G1X51260Y24512D1*
G1X51210Y24481D1*
G1X51160Y24474D1*
G1X51102Y24487D1*
G1X51060Y24531D1*
G1X51043Y24576D1*
G1X51043Y24633D1*
G1X51043Y24576D2*
G1X51018Y24538D1*
G1X50977Y24506D1*
G1X50927Y24493D1*
G1X50877Y24506D1*
G1X50835Y24538D1*
G1X50810Y24595D1*
G1X50818Y24652D1*
G1X50852Y24709D1*
G1X51310Y24034D2*
G1X50810Y24034D1*
G1X51168Y24268D1*
G1X51168Y23952D1*
G1X54537Y3900D2*
G1X54537Y4400D1*
G1X54378Y4400D1*
G1X54328Y4375D1*
G1X54296Y4342D1*
G1X54283Y4275D1*
G1X54296Y4208D1*
G1X54334Y4167D1*
G1X54378Y4142D1*
G1X54537Y4142D1*
G1X54378Y4142D2*
G1X54283Y3900D1*
G1X54039Y3975D2*
G1X54001Y3933D1*
G1X53957Y3908D1*
G1X53900Y3900D1*
G1X53843Y3917D1*
G1X53799Y3950D1*
G1X53767Y4008D1*
G1X53761Y4075D1*
G1X53773Y4142D1*
G1X53805Y4183D1*
G1X53849Y4217D1*
G1X53894Y4225D1*
G1X53938Y4217D1*
G1X53995Y4183D1*
G1X53976Y4400D1*
G1X53805Y4400D1*
G1X53390Y4400D2*
G1X53441Y4383D1*
G1X53479Y4342D1*
G1X53504Y4292D1*
G1X53523Y4225D1*
G1X53529Y4150D1*
G1X53523Y4075D1*
G1X53504Y4008D1*
G1X53479Y3958D1*
G1X53441Y3917D1*
G1X53390Y3900D1*
G1X53339Y3917D1*
G1X53301Y3958D1*
G1X53276Y4008D1*
G1X53257Y4075D1*
G1X53251Y4150D1*
G1X53257Y4225D1*
G1X53276Y4292D1*
G1X53301Y4342D1*
G1X53339Y4383D1*
G1X53390Y4400D1*
G1X54537Y5900D2*
G1X54537Y6400D1*
G1X54378Y6400D1*
G1X54328Y6375D1*
G1X54296Y6342D1*
G1X54283Y6275D1*
G1X54296Y6208D1*
G1X54334Y6167D1*
G1X54378Y6142D1*
G1X54537Y6142D1*
G1X54378Y6142D2*
G1X54283Y5900D1*
G1X53824Y5900D2*
G1X53824Y6400D1*
G1X54058Y6042D1*
G1X53742Y6042D1*
G1X53510Y6317D2*
G1X53472Y6367D1*
G1X53428Y6392D1*
G1X53377Y6400D1*
G1X53314Y6383D1*
G1X53270Y6342D1*
G1X53257Y6292D1*
G1X53263Y6242D1*
G1X53289Y6200D1*
G1X53415Y6117D1*
G1X53472Y6058D1*
G1X53510Y5975D1*
G1X53523Y5900D1*
G1X53257Y5900D1*
G1X54537Y7900D2*
G1X54537Y8400D1*
G1X54378Y8400D1*
G1X54328Y8375D1*
G1X54296Y8342D1*
G1X54283Y8275D1*
G1X54296Y8208D1*
G1X54334Y8167D1*
G1X54378Y8142D1*
G1X54537Y8142D1*
G1X54378Y8142D2*
G1X54283Y7900D1*
G1X53824Y7900D2*
G1X53824Y8400D1*
G1X54058Y8042D1*
G1X53742Y8042D1*
G1X53498Y7958D2*
G1X53453Y7917D1*
G1X53403Y7900D1*
G1X53352Y7917D1*
G1X53308Y7967D1*
G1X53276Y8042D1*
G1X53263Y8117D1*
G1X53263Y8208D1*
G1X53276Y8283D1*
G1X53308Y8350D1*
G1X53346Y8383D1*
G1X53390Y8400D1*
G1X53441Y8383D1*
G1X53479Y8350D1*
G1X53504Y8300D1*
G1X53517Y8233D1*
G1X53504Y8175D1*
G1X53472Y8117D1*
G1X53434Y8083D1*
G1X53390Y8075D1*
G1X53339Y8092D1*
G1X53301Y8133D1*
G1X53263Y8208D1*
G1X55179Y23642D2*
G1X55141Y23617D1*
G1X55097Y23600D1*
G1X55046Y23600D1*
G1X54989Y23625D1*
G1X54945Y23667D1*
G1X54913Y23717D1*
G1X54888Y23800D1*
G1X54882Y23875D1*
G1X54894Y23950D1*
G1X54913Y24000D1*
G1X54951Y24050D1*
G1X54996Y24083D1*
G1X55040Y24100D1*
G1X55084Y24100D1*
G1X55129Y24083D1*
G1X55167Y24058D1*
G1X55198Y24025D1*
G1X55537Y24100D2*
G1X55550Y23992D1*
G1X55569Y23900D1*
G1X55594Y23817D1*
G1X55626Y23725D1*
G1X55677Y23600D1*
G1X55423Y23600D1*
G1X57146Y16601D2*
G1X57171Y16563D1*
G1X57188Y16519D1*
G1X57188Y16468D1*
G1X57163Y16411D1*
G1X57121Y16367D1*
G1X57071Y16335D1*
G1X56988Y16310D1*
G1X56913Y16304D1*
G1X56838Y16316D1*
G1X56788Y16335D1*
G1X56738Y16373D1*
G1X56705Y16418D1*
G1X56688Y16462D1*
G1X56688Y16506D1*
G1X56705Y16551D1*
G1X56730Y16589D1*
G1X56763Y16620D1*
G1X56688Y16972D2*
G1X56696Y17016D1*
G1X56721Y17067D1*
G1X56763Y17099D1*
G1X56821Y17111D1*
G1X56880Y17099D1*
G1X56930Y17061D1*
G1X56955Y17004D1*
G1X56955Y16940D1*
G1X56971Y16902D1*
G1X57013Y16871D1*
G1X57071Y16858D1*
G1X57130Y16877D1*
G1X57171Y16921D1*
G1X57188Y16972D1*
G1X57171Y17023D1*
G1X57130Y17067D1*
G1X57071Y17086D1*
G1X57013Y17073D1*
G1X56971Y17042D1*
G1X56955Y17004D1*
G1X56955Y16940D1*
G1X56930Y16883D1*
G1X56880Y16845D1*
G1X56821Y16833D1*
G1X56763Y16845D1*
G1X56721Y16877D1*
G1X56696Y16928D1*
G1X56688Y16972D1*
G1X58013Y19400D2*
G1X58013Y18900D1*
G1X58172Y18900D1*
G1X58222Y18925D1*
G1X58254Y18958D1*
G1X58267Y19025D1*
G1X58254Y19092D1*
G1X58216Y19133D1*
G1X58172Y19158D1*
G1X58013Y19158D1*
G1X58172Y19158D2*
G1X58267Y19400D1*
G1X58726Y19400D2*
G1X58726Y18900D1*
G1X58492Y19258D1*
G1X58808Y19258D1*
G1X59160Y19400D2*
G1X59160Y18900D1*
G1X59084Y19000D1*
G1X59084Y19400D2*
G1X59236Y19400D1*
G1X60337Y1060D2*
G1X60337Y1560D1*
G1X60178Y1560D1*
G1X60128Y1535D1*
G1X60096Y1502D1*
G1X60083Y1435D1*
G1X60096Y1368D1*
G1X60134Y1327D1*
G1X60178Y1302D1*
G1X60337Y1302D1*
G1X60178Y1302D2*
G1X60083Y1060D1*
G1X59624Y1060D2*
G1X59624Y1560D1*
G1X59858Y1202D1*
G1X59542Y1202D1*
G1X59329Y1160D2*
G1X59291Y1102D1*
G1X59241Y1068D1*
G1X59184Y1060D1*
G1X59133Y1068D1*
G1X59082Y1110D1*
G1X59051Y1160D1*
G1X59044Y1210D1*
G1X59057Y1268D1*
G1X59101Y1310D1*
G1X59146Y1327D1*
G1X59203Y1327D1*
G1X59146Y1327D2*
G1X59108Y1352D1*
G1X59076Y1393D1*
G1X59063Y1443D1*
G1X59076Y1493D1*
G1X59108Y1535D1*
G1X59165Y1560D1*
G1X59222Y1552D1*
G1X59279Y1518D1*
G1X62397Y4010D2*
G1X62397Y4510D1*
G1X62238Y4510D1*
G1X62188Y4485D1*
G1X62156Y4452D1*
G1X62143Y4385D1*
G1X62156Y4318D1*
G1X62194Y4277D1*
G1X62238Y4252D1*
G1X62397Y4252D1*
G1X62238Y4252D2*
G1X62143Y4010D1*
G1X61899Y4085D2*
G1X61861Y4043D1*
G1X61817Y4018D1*
G1X61760Y4010D1*
G1X61703Y4027D1*
G1X61659Y4060D1*
G1X61627Y4118D1*
G1X61621Y4185D1*
G1X61633Y4252D1*
G1X61665Y4293D1*
G1X61709Y4327D1*
G1X61754Y4335D1*
G1X61798Y4327D1*
G1X61855Y4293D1*
G1X61836Y4510D1*
G1X61665Y4510D1*
G1X61370Y4427D2*
G1X61332Y4477D1*
G1X61288Y4502D1*
G1X61237Y4510D1*
G1X61174Y4493D1*
G1X61130Y4452D1*
G1X61117Y4402D1*
G1X61123Y4352D1*
G1X61149Y4310D1*
G1X61275Y4227D1*
G1X61332Y4168D1*
G1X61370Y4085D1*
G1X61383Y4010D1*
G1X61117Y4010D1*
G1X62407Y4970D2*
G1X62407Y5470D1*
G1X62248Y5470D1*
G1X62198Y5445D1*
G1X62166Y5412D1*
G1X62153Y5345D1*
G1X62166Y5278D1*
G1X62204Y5237D1*
G1X62248Y5212D1*
G1X62407Y5212D1*
G1X62248Y5212D2*
G1X62153Y4970D1*
G1X61909Y5045D2*
G1X61871Y5003D1*
G1X61827Y4978D1*
G1X61770Y4970D1*
G1X61713Y4987D1*
G1X61669Y5020D1*
G1X61637Y5078D1*
G1X61631Y5145D1*
G1X61643Y5212D1*
G1X61675Y5253D1*
G1X61719Y5287D1*
G1X61764Y5295D1*
G1X61808Y5287D1*
G1X61865Y5253D1*
G1X61846Y5470D1*
G1X61675Y5470D1*
G1X61260Y4970D2*
G1X61260Y5470D1*
G1X61336Y5370D1*
G1X61336Y4970D2*
G1X61184Y4970D1*
G1X62387Y5990D2*
G1X62387Y6490D1*
G1X62228Y6490D1*
G1X62178Y6465D1*
G1X62146Y6432D1*
G1X62133Y6365D1*
G1X62146Y6298D1*
G1X62184Y6257D1*
G1X62228Y6232D1*
G1X62387Y6232D1*
G1X62228Y6232D2*
G1X62133Y5990D1*
G1X61889Y6065D2*
G1X61851Y6023D1*
G1X61807Y5998D1*
G1X61750Y5990D1*
G1X61693Y6007D1*
G1X61649Y6040D1*
G1X61617Y6098D1*
G1X61611Y6165D1*
G1X61623Y6232D1*
G1X61655Y6273D1*
G1X61699Y6307D1*
G1X61744Y6315D1*
G1X61788Y6307D1*
G1X61845Y6273D1*
G1X61826Y6490D1*
G1X61655Y6490D1*
G1X61164Y5990D2*
G1X61164Y6490D1*
G1X61398Y6132D1*
G1X61082Y6132D1*
G1X1060Y12800D2*
G54D78*
G1X1060Y12325D1*
G1X1060Y11600D2*
G1X3560Y11600D1*
G1X1060Y12075D2*
G1X1060Y11600D1*
G1X935Y12200D2*
G1X1060Y12075D1*
G1X1060Y12325D2*
G1X935Y12200D1*
G1X3560Y12800D2*
G1X1060Y12800D1*
G1X380Y32225D2*
G1X380Y31475D1*
G1X1980Y32225D2*
G1X380Y32225D1*
G1X380Y31475D2*
G1X1980Y31475D1*
G1X1980Y32225D1*
G1X3560Y11600D2*
G1X3560Y12800D1*
G1X4575Y13330D2*
G1X5325Y13330D1*
G1X4575Y14930D2*
G1X4575Y13330D1*
G1X5325Y13330D2*
G1X5325Y14930D1*
G1X4575Y14930D1*
G1X5220Y26785D2*
G1X5220Y26035D1*
G1X6820Y26035D1*
G1X6820Y26785D2*
G1X5220Y26785D1*
G1X6820Y26035D2*
G1X6820Y26785D1*
G1X5720Y28475D2*
G1X7320Y28475D1*
G1X5720Y29225D2*
G1X5720Y28475D1*
G1X7320Y29225D2*
G1X5720Y29225D1*
G1X7320Y28475D2*
G1X7320Y29225D1*
G1X10875Y9420D2*
G1X11625Y9420D1*
G1X10875Y11020D2*
G1X10875Y9420D1*
G1X11625Y11020D2*
G1X10875Y11020D1*
G1X11625Y9420D2*
G1X11625Y11020D1*
G1X14210Y16800D2*
G1X14210Y16325D1*
G1X14210Y15600D2*
G1X16710Y15600D1*
G1X14210Y16075D2*
G1X14210Y15600D1*
G1X14085Y16200D2*
G1X14210Y16075D1*
G1X14210Y16325D2*
G1X14085Y16200D1*
G1X16710Y16800D2*
G1X14210Y16800D1*
G1X15085Y18700D2*
G1X15210Y18575D1*
G1X15210Y18825D2*
G1X15085Y18700D1*
G1X15210Y19300D2*
G1X15210Y18825D1*
G1X15210Y18100D2*
G1X17710Y18100D1*
G1X15210Y18575D2*
G1X15210Y18100D1*
G1X17710Y19300D2*
G1X15210Y19300D1*
G1X15430Y21375D2*
G1X15430Y20625D1*
G1X17030Y21375D2*
G1X15430Y21375D1*
G1X15430Y20625D2*
G1X17030Y20625D1*
G1X16710Y15600D2*
G1X16710Y16800D1*
G1X17710Y18100D2*
G1X17710Y19300D1*
G1X17030Y20625D2*
G1X17030Y21375D1*
G1X19125Y15170D2*
G1X19875Y15170D1*
G1X19125Y16770D2*
G1X19125Y15170D1*
G1X19875Y16770D2*
G1X19125Y16770D1*
G1X18020Y19825D2*
G1X19620Y19825D1*
G1X18020Y20575D2*
G1X18020Y19825D1*
G1X19620Y20575D2*
G1X18020Y20575D1*
G1X19875Y15170D2*
G1X19875Y16770D1*
G1X19780Y20575D2*
G1X19780Y19825D1*
G1X21380Y20575D2*
G1X19780Y20575D1*
G1X19780Y19825D2*
G1X21380Y19825D1*
G1X19620Y19825D2*
G1X19620Y20575D1*
G1X19475Y27480D2*
G1X20225Y27480D1*
G1X19475Y29080D2*
G1X19475Y27480D1*
G1X20225Y27480D2*
G1X20225Y29080D1*
G1X19475Y29080D1*
G1X20730Y1925D2*
G1X20730Y1175D1*
G1X22330Y1175D1*
G1X20720Y2175D2*
G1X22320Y2175D1*
G1X20720Y2925D2*
G1X20720Y2175D1*
G1X22320Y2925D2*
G1X20720Y2925D1*
G1X22330Y1925D2*
G1X20730Y1925D1*
G1X21380Y19825D2*
G1X21380Y20575D1*
G1X22330Y1175D2*
G1X22330Y1925D1*
G1X22320Y2175D2*
G1X22320Y2925D1*
G1X26780Y5175D2*
G1X26780Y4425D1*
G1X28380Y5175D2*
G1X26780Y5175D1*
G1X26780Y4425D2*
G1X28380Y4425D1*
G1X26780Y7175D2*
G1X26780Y6425D1*
G1X28380Y6425D1*
G1X26780Y9175D2*
G1X26780Y8425D1*
G1X28380Y8425D1*
G1X28380Y7175D2*
G1X26780Y7175D1*
G1X28380Y9175D2*
G1X26780Y9175D1*
G1X26725Y26980D2*
G1X27475Y26980D1*
G1X26725Y28580D2*
G1X26725Y26980D1*
G1X27475Y28580D2*
G1X26725Y28580D1*
G1X28380Y4425D2*
G1X28380Y5175D1*
G1X28380Y6425D2*
G1X28380Y7175D1*
G1X28380Y8425D2*
G1X28380Y9175D1*
G1X27475Y26980D2*
G1X27475Y28580D1*
G1X29520Y2425D2*
G1X31120Y2425D1*
G1X29520Y3175D2*
G1X29520Y2425D1*
G1X31120Y3175D2*
G1X29520Y3175D1*
G1X29130Y15205D2*
G1X30730Y15205D1*
G1X29130Y15955D2*
G1X29130Y15205D1*
G1X30730Y15955D2*
G1X29130Y15955D1*
G1X29900Y17810D2*
G1X30375Y17810D1*
G1X29900Y20310D2*
G1X29900Y17810D1*
G1X31100Y20310D2*
G1X29900Y20310D1*
G1X31120Y2425D2*
G1X31120Y3175D1*
G1X30425Y3280D2*
G1X31175Y3280D1*
G1X30425Y4880D2*
G1X30425Y3280D1*
G1X31175Y3280D2*
G1X31175Y4880D1*
G1X30425Y4880D1*
G1X30730Y15205D2*
G1X30730Y15955D1*
G1X31100Y17810D2*
G1X31100Y20310D1*
G1X30625Y17810D2*
G1X31100Y17810D1*
G1X30500Y17685D2*
G1X30625Y17810D1*
G1X30375Y17810D2*
G1X30500Y17685D1*
G1X31730Y15175D2*
G1X33330Y15175D1*
G1X31730Y15925D2*
G1X31730Y15175D1*
G1X33330Y15925D2*
G1X31730Y15925D1*
G1X32550Y17810D2*
G1X33025Y17810D1*
G1X32550Y20310D2*
G1X32550Y17810D1*
G1X33750Y20310D2*
G1X32550Y20310D1*
G1X32220Y32325D2*
G1X32220Y31575D1*
G1X33820Y32325D2*
G1X32220Y32325D1*
G1X32220Y31575D2*
G1X33820Y31575D1*
G1X33330Y15175D2*
G1X33330Y15925D1*
G1X33750Y17810D2*
G1X33750Y20310D1*
G1X33275Y17810D2*
G1X33750Y17810D1*
G1X33150Y17685D2*
G1X33275Y17810D1*
G1X33025Y17810D2*
G1X33150Y17685D1*
G1X33820Y31575D2*
G1X33820Y32325D1*
G1X36525Y16180D2*
G1X37275Y16180D1*
G1X36525Y17780D2*
G1X36525Y16180D1*
G1X37275Y17780D2*
G1X36525Y17780D1*
G1X36520Y18025D2*
G1X38120Y18025D1*
G1X36520Y18775D2*
G1X36520Y18025D1*
G1X38120Y18775D2*
G1X36520Y18775D1*
G1X36520Y19025D2*
G1X38120Y19025D1*
G1X36520Y19775D2*
G1X36520Y19025D1*
G1X36520Y20025D2*
G1X38120Y20025D1*
G1X36520Y20775D2*
G1X36520Y20025D1*
G1X38120Y19775D2*
G1X36520Y19775D1*
G1X38120Y20775D2*
G1X36520Y20775D1*
G1X36525Y20920D2*
G1X37275Y20920D1*
G1X36525Y22520D2*
G1X36525Y20920D1*
G1X37275Y22520D2*
G1X36525Y22520D1*
G1X37025Y3980D2*
G1X37775Y3980D1*
G1X37025Y5580D2*
G1X37025Y3980D1*
G1X37775Y3980D2*
G1X37775Y5580D1*
G1X38025Y3980D2*
G1X38775Y3980D1*
G1X38025Y5580D2*
G1X38025Y3980D1*
G1X37775Y5580D2*
G1X37025Y5580D1*
G1X38775Y5580D2*
G1X38025Y5580D1*
G1X37275Y16180D2*
G1X37275Y17780D1*
G1X37375Y16180D2*
G1X38125Y16180D1*
G1X37375Y17780D2*
G1X37375Y16180D1*
G1X38125Y16180D2*
G1X38125Y17780D1*
G1X37375Y17780D1*
G1X38120Y18025D2*
G1X38120Y18775D1*
G1X38120Y19025D2*
G1X38120Y19775D1*
G1X38120Y20025D2*
G1X38120Y20775D1*
G1X38125Y20920D2*
G1X38125Y22520D1*
G1X37375Y20920D2*
G1X38125Y20920D1*
G1X37375Y22520D2*
G1X37375Y20920D1*
G1X37275Y20920D2*
G1X37275Y22520D1*
G1X38125Y22520D2*
G1X37375Y22520D1*
G1X36990Y27750D2*
G1X39490Y27750D1*
G1X36990Y28950D2*
G1X36990Y27750D1*
G1X39490Y28950D2*
G1X36990Y28950D1*
G1X37830Y33065D2*
G1X39430Y33065D1*
G1X37830Y33815D2*
G1X37830Y33065D1*
G1X39430Y33815D2*
G1X37830Y33815D1*
G1X38775Y3980D2*
G1X38775Y5580D1*
G1X39025Y3980D2*
G1X39775Y3980D1*
G1X39025Y5580D2*
G1X39025Y3980D1*
G1X39775Y5580D2*
G1X39025Y5580D1*
G1X39490Y27750D2*
G1X39490Y28225D1*
G1X39490Y28475D2*
G1X39490Y28950D1*
G1X39615Y28350D2*
G1X39490Y28475D1*
G1X39490Y28225D2*
G1X39615Y28350D1*
G1X39430Y33065D2*
G1X39430Y33815D1*
G1X39775Y3980D2*
G1X39775Y5580D1*
G1X40025Y3980D2*
G1X40775Y3980D1*
G1X40025Y5580D2*
G1X40025Y3980D1*
G1X40775Y3980D2*
G1X40775Y5580D1*
G1X40025Y5580D1*
G1X40470Y32910D2*
G1X42970Y32910D1*
G1X40470Y34110D2*
G1X40470Y32910D1*
G1X42970Y34110D2*
G1X40470Y34110D1*
G1X43025Y3980D2*
G1X43775Y3980D1*
G1X43025Y5580D2*
G1X43025Y3980D1*
G1X43775Y5580D2*
G1X43025Y5580D1*
G1X43320Y33125D2*
G1X44920Y33125D1*
G1X43320Y33875D2*
G1X43320Y33125D1*
G1X44920Y33875D2*
G1X43320Y33875D1*
G1X42970Y32910D2*
G1X42970Y33385D1*
G1X42970Y33635D2*
G1X42970Y34110D1*
G1X43095Y33510D2*
G1X42970Y33635D1*
G1X42970Y33385D2*
G1X43095Y33510D1*
G1X43775Y3980D2*
G1X43775Y5580D1*
G1X44025Y3980D2*
G1X44775Y3980D1*
G1X44025Y5580D2*
G1X44025Y3980D1*
G1X44775Y3980D2*
G1X44775Y5580D1*
G1X44025Y5580D1*
G1X44525Y23070D2*
G1X45275Y23070D1*
G1X44525Y24670D2*
G1X44525Y23070D1*
G1X45275Y24670D2*
G1X44525Y24670D1*
G1X44920Y33125D2*
G1X44920Y33875D1*
G1X45025Y3980D2*
G1X45775Y3980D1*
G1X45025Y5580D2*
G1X45025Y3980D1*
G1X45775Y3980D2*
G1X45775Y5580D1*
G1X45025Y5580D1*
G1X45780Y23725D2*
G1X45780Y22975D1*
G1X47380Y22975D1*
G1X45275Y23070D2*
G1X45275Y24670D1*
G1X47380Y23725D2*
G1X45780Y23725D1*
G1X45780Y23975D2*
G1X47380Y23975D1*
G1X45780Y24725D2*
G1X45780Y23975D1*
G1X47380Y24725D2*
G1X45780Y24725D1*
G1X47630Y21825D2*
G1X47630Y21075D1*
G1X49230Y21825D2*
G1X47630Y21825D1*
G1X47630Y21075D2*
G1X49230Y21075D1*
G1X47380Y22975D2*
G1X47380Y23725D1*
G1X47620Y22975D2*
G1X49220Y22975D1*
G1X47620Y23725D2*
G1X47620Y22975D1*
G1X49220Y23725D2*
G1X47620Y23725D1*
G1X47380Y23975D2*
G1X47380Y24725D1*
G1X47780Y26525D2*
G1X47780Y25775D1*
G1X49380Y25775D1*
G1X49380Y26525D2*
G1X47780Y26525D1*
G1X49230Y21075D2*
G1X49230Y21825D1*
G1X49220Y22975D2*
G1X49220Y23725D1*
G1X49450Y23440D2*
G1X50650Y23440D1*
G1X49450Y25940D2*
G1X49450Y23440D1*
G1X49380Y25775D2*
G1X49380Y26525D1*
G1X50650Y25940D2*
G1X50175Y25940D1*
G1X49925Y25940D2*
G1X49450Y25940D1*
G1X50050Y26065D2*
G1X49925Y25940D1*
G1X50175Y25940D2*
G1X50050Y26065D1*
G1X50650Y23440D2*
G1X50650Y25940D1*
G1X53130Y3525D2*
G1X53130Y2775D1*
G1X54730Y2775D1*
G1X54730Y3525D2*
G1X53130Y3525D1*
G1X53130Y5525D2*
G1X53130Y4775D1*
G1X54730Y5525D2*
G1X53130Y5525D1*
G1X53130Y4775D2*
G1X54730Y4775D1*
G1X53130Y7525D2*
G1X53130Y6775D1*
G1X54730Y6775D1*
G1X54730Y7525D2*
G1X53130Y7525D1*
G1X52620Y23125D2*
G1X54220Y23125D1*
G1X52620Y23875D2*
G1X52620Y23125D1*
G1X54220Y23875D2*
G1X52620Y23875D1*
G1X54220Y23125D2*
G1X54220Y23875D1*
G1X54730Y2775D2*
G1X54730Y3525D1*
G1X54730Y4775D2*
G1X54730Y5525D1*
G1X54730Y6775D2*
G1X54730Y7525D1*
G1X56980Y1675D2*
G1X56980Y925D1*
G1X58580Y925D1*
G1X58580Y1675D2*
G1X56980Y1675D1*
G1X57930Y17525D2*
G1X57930Y16775D1*
G1X59530Y17525D2*
G1X57930Y17525D1*
G1X57930Y16775D2*
G1X59530Y16775D1*
G1X57820Y19775D2*
G1X59420Y19775D1*
G1X57820Y20525D2*
G1X57820Y19775D1*
G1X59420Y20525D2*
G1X57820Y20525D1*
G1X58580Y925D2*
G1X58580Y1675D1*
G1X58720Y3775D2*
G1X60320Y3775D1*
G1X58720Y4525D2*
G1X58720Y3775D1*
G1X58720Y4775D2*
G1X60320Y4775D1*
G1X58720Y5525D2*
G1X58720Y4775D1*
G1X60320Y5525D2*
G1X58720Y5525D1*
G1X60320Y4525D2*
G1X58720Y4525D1*
G1X58720Y5775D2*
G1X60320Y5775D1*
G1X58720Y6525D2*
G1X58720Y5775D1*
G1X60320Y6525D2*
G1X58720Y6525D1*
G1X59530Y16775D2*
G1X59530Y17525D1*
G1X59420Y19775D2*
G1X59420Y20525D1*
G1X60320Y3775D2*
G1X60320Y4525D1*
G1X60320Y4775D2*
G1X60320Y5525D1*
G1X60320Y5775D2*
G1X60320Y6525D1*
G1X76637Y1145D2*
G54D26*
G1X76637Y1895D1*
G1X76451Y1895D1*
G1X76376Y1857D1*
G1X76320Y1807D1*
G1X76273Y1733D1*
G1X76236Y1645D1*
G1X76227Y1520D1*
G1X76236Y1395D1*
G1X76273Y1307D1*
G1X76320Y1232D1*
G1X76376Y1182D1*
G1X76451Y1145D1*
G1X76637Y1145D1*
G1X75682Y1145D2*
G1X75682Y1895D1*
G1X75794Y1745D1*
G1X75794Y1145D2*
G1X75570Y1145D1*
G1X78495Y7528D2*
G1X78457Y7584D1*
G1X78432Y7649D1*
G1X78432Y7724D1*
G1X78470Y7808D1*
G1X78532Y7873D1*
G1X78607Y7920D1*
G1X78732Y7957D1*
G1X78845Y7966D1*
G1X78957Y7948D1*
G1X79032Y7920D1*
G1X79107Y7864D1*
G1X79157Y7798D1*
G1X79182Y7733D1*
G1X79182Y7668D1*
G1X79157Y7602D1*
G1X79120Y7546D1*
G1X79070Y7500D1*
G1X79182Y6983D2*
G1X78432Y6983D1*
G1X78582Y7095D1*
G1X79182Y7095D2*
G1X79182Y6871D1*
G1X74686Y10207D2*
G1X74663Y10191D1*
G1X74637Y10181D1*
G1X74606Y10181D1*
G1X74571Y10197D1*
G1X74545Y10222D1*
G1X74525Y10253D1*
G1X74510Y10305D1*
G1X74506Y10352D1*
G1X74514Y10398D1*
G1X74525Y10429D1*
G1X74548Y10460D1*
G1X74575Y10481D1*
G1X74602Y10491D1*
G1X74629Y10491D1*
G1X74656Y10481D1*
G1X74679Y10465D1*
G1X74698Y10445D1*
G1X74912Y10491D2*
G1X74912Y10181D1*
G1X74866Y10243D1*
G1X74866Y10491D2*
G1X74958Y10491D1*
G1X75149Y10233D2*
G1X75172Y10202D1*
G1X75199Y10186D1*
G1X75230Y10181D1*
G1X75268Y10191D1*
G1X75295Y10217D1*
G1X75303Y10248D1*
G1X75299Y10279D1*
G1X75283Y10305D1*
G1X75207Y10357D1*
G1X75172Y10393D1*
G1X75149Y10445D1*
G1X75141Y10491D1*
G1X75303Y10491D1*
G1X76322Y12976D2*
G1X76338Y12953D1*
G1X76348Y12927D1*
G1X76348Y12896D1*
G1X76332Y12861D1*
G1X76307Y12835D1*
G1X76276Y12815D1*
G1X76224Y12800D1*
G1X76177Y12796D1*
G1X76131Y12804D1*
G1X76100Y12815D1*
G1X76069Y12838D1*
G1X76048Y12865D1*
G1X76038Y12892D1*
G1X76038Y12919D1*
G1X76048Y12946D1*
G1X76064Y12969D1*
G1X76084Y12988D1*
G1X76038Y13202D2*
G1X76348Y13202D1*
G1X76286Y13156D1*
G1X76038Y13156D2*
G1X76038Y13248D1*
G1X76038Y13512D2*
G1X76348Y13512D1*
G1X76286Y13466D1*
G1X76038Y13466D2*
G1X76038Y13558D1*
G1X74035Y11952D2*
G1X74091Y11990D1*
G1X74156Y12015D1*
G1X74231Y12015D1*
G1X74315Y11977D1*
G1X74380Y11915D1*
G1X74427Y11840D1*
G1X74464Y11715D1*
G1X74473Y11602D1*
G1X74455Y11490D1*
G1X74427Y11415D1*
G1X74371Y11340D1*
G1X74305Y11290D1*
G1X74240Y11265D1*
G1X74175Y11265D1*
G1X74109Y11290D1*
G1X74053Y11327D1*
G1X74007Y11377D1*
G1X73490Y11265D2*
G1X73490Y12015D1*
G1X73602Y11865D1*
G1X73602Y11265D2*
G1X73378Y11265D1*
G1X72740Y12015D2*
G1X72815Y11990D1*
G1X72871Y11927D1*
G1X72908Y11853D1*
G1X72936Y11752D1*
G1X72945Y11640D1*
G1X72936Y11527D1*
G1X72908Y11427D1*
G1X72871Y11352D1*
G1X72815Y11290D1*
G1X72740Y11265D1*
G1X72665Y11290D1*
G1X72609Y11352D1*
G1X72572Y11427D1*
G1X72544Y11527D1*
G1X72535Y11640D1*
G1X72544Y11752D1*
G1X72572Y11853D1*
G1X72609Y11927D1*
G1X72665Y11990D1*
G1X72740Y12015D1*
G1X77323Y14590D2*
G1X76931Y15340D1*
G1X77323Y15340D2*
G1X76931Y14590D1*
G1X76377Y14590D2*
G1X76377Y15340D1*
G1X76489Y15190D1*
G1X76489Y14590D2*
G1X76265Y14590D1*
G1X74385Y16052D2*
G1X74441Y16090D1*
G1X74506Y16115D1*
G1X74581Y16115D1*
G1X74665Y16077D1*
G1X74730Y16015D1*
G1X74777Y15940D1*
G1X74814Y15815D1*
G1X74823Y15702D1*
G1X74805Y15590D1*
G1X74777Y15515D1*
G1X74721Y15440D1*
G1X74655Y15390D1*
G1X74590Y15365D1*
G1X74525Y15365D1*
G1X74459Y15390D1*
G1X74403Y15427D1*
G1X74357Y15477D1*
G1X74045Y15477D2*
G1X73989Y15415D1*
G1X73924Y15377D1*
G1X73840Y15365D1*
G1X73756Y15390D1*
G1X73691Y15440D1*
G1X73644Y15527D1*
G1X73635Y15627D1*
G1X73653Y15727D1*
G1X73700Y15790D1*
G1X73765Y15840D1*
G1X73831Y15852D1*
G1X73896Y15840D1*
G1X73980Y15790D1*
G1X73952Y16115D1*
G1X73700Y16115D1*
G1X71636Y13907D2*
G1X71613Y13891D1*
G1X71587Y13881D1*
G1X71556Y13881D1*
G1X71521Y13897D1*
G1X71495Y13922D1*
G1X71475Y13953D1*
G1X71460Y14005D1*
G1X71456Y14052D1*
G1X71464Y14098D1*
G1X71475Y14129D1*
G1X71498Y14160D1*
G1X71525Y14181D1*
G1X71552Y14191D1*
G1X71579Y14191D1*
G1X71606Y14181D1*
G1X71629Y14165D1*
G1X71648Y14145D1*
G1X71854Y14191D2*
G1X71862Y14124D1*
G1X71874Y14067D1*
G1X71889Y14015D1*
G1X71908Y13959D1*
G1X71939Y13881D1*
G1X71785Y13881D1*
G1X78052Y19796D2*
G1X78552Y19796D1*
G1X78552Y19922D1*
G1X78527Y19973D1*
G1X78494Y20011D1*
G1X78444Y20043D1*
G1X78385Y20068D1*
G1X78302Y20074D1*
G1X78219Y20068D1*
G1X78160Y20043D1*
G1X78110Y20011D1*
G1X78077Y19973D1*
G1X78052Y19922D1*
G1X78052Y19796D1*
G1X78127Y20306D2*
G1X78085Y20344D1*
G1X78060Y20388D1*
G1X78052Y20445D1*
G1X78069Y20502D1*
G1X78102Y20546D1*
G1X78160Y20578D1*
G1X78227Y20584D1*
G1X78294Y20572D1*
G1X78335Y20540D1*
G1X78369Y20496D1*
G1X78377Y20451D1*
G1X78369Y20407D1*
G1X78335Y20350D1*
G1X78552Y20369D1*
G1X78552Y20540D1*
G1X79102Y19446D2*
G1X79602Y19446D1*
G1X79602Y19572D1*
G1X79577Y19623D1*
G1X79544Y19661D1*
G1X79494Y19693D1*
G1X79435Y19718D1*
G1X79352Y19724D1*
G1X79269Y19718D1*
G1X79210Y19693D1*
G1X79160Y19661D1*
G1X79127Y19623D1*
G1X79102Y19572D1*
G1X79102Y19446D1*
G1X79102Y20171D2*
G1X79602Y20171D1*
G1X79244Y19937D1*
G1X79244Y20253D1*
G1X76702Y19796D2*
G1X77202Y19796D1*
G1X77202Y19922D1*
G1X77177Y19973D1*
G1X77144Y20011D1*
G1X77094Y20043D1*
G1X77035Y20068D1*
G1X76952Y20074D1*
G1X76869Y20068D1*
G1X76810Y20043D1*
G1X76760Y20011D1*
G1X76727Y19973D1*
G1X76702Y19922D1*
G1X76702Y19796D1*
G1X76802Y20306D2*
G1X76744Y20344D1*
G1X76710Y20394D1*
G1X76702Y20451D1*
G1X76710Y20502D1*
G1X76752Y20553D1*
G1X76802Y20584D1*
G1X76852Y20591D1*
G1X76910Y20578D1*
G1X76952Y20534D1*
G1X76969Y20489D1*
G1X76969Y20432D1*
G1X76969Y20489D2*
G1X76994Y20527D1*
G1X77035Y20559D1*
G1X77085Y20572D1*
G1X77135Y20559D1*
G1X77177Y20527D1*
G1X77202Y20470D1*
G1X77194Y20413D1*
G1X77160Y20356D1*
G1X75402Y19796D2*
G1X75902Y19796D1*
G1X75902Y19922D1*
G1X75877Y19973D1*
G1X75844Y20011D1*
G1X75794Y20043D1*
G1X75735Y20068D1*
G1X75652Y20074D1*
G1X75569Y20068D1*
G1X75510Y20043D1*
G1X75460Y20011D1*
G1X75427Y19973D1*
G1X75402Y19922D1*
G1X75402Y19796D1*
G1X75819Y20325D2*
G1X75869Y20363D1*
G1X75894Y20407D1*
G1X75902Y20458D1*
G1X75885Y20521D1*
G1X75844Y20565D1*
G1X75794Y20578D1*
G1X75744Y20572D1*
G1X75702Y20546D1*
G1X75619Y20420D1*
G1X75560Y20363D1*
G1X75477Y20325D1*
G1X75402Y20312D1*
G1X75402Y20578D1*
G1X78936Y23844D2*
G1X78952Y23821D1*
G1X78962Y23795D1*
G1X78962Y23764D1*
G1X78946Y23729D1*
G1X78921Y23703D1*
G1X78890Y23683D1*
G1X78838Y23668D1*
G1X78791Y23664D1*
G1X78745Y23672D1*
G1X78714Y23683D1*
G1X78683Y23706D1*
G1X78662Y23733D1*
G1X78652Y23760D1*
G1X78652Y23787D1*
G1X78662Y23814D1*
G1X78678Y23837D1*
G1X78698Y23856D1*
G1X78652Y24070D2*
G1X78962Y24070D1*
G1X78900Y24024D1*
G1X78652Y24024D2*
G1X78652Y24116D1*
G1X78652Y24380D2*
G1X78657Y24407D1*
G1X78673Y24437D1*
G1X78698Y24457D1*
G1X78735Y24464D1*
G1X78771Y24457D1*
G1X78802Y24434D1*
G1X78817Y24399D1*
G1X78817Y24361D1*
G1X78828Y24338D1*
G1X78853Y24319D1*
G1X78890Y24311D1*
G1X78926Y24323D1*
G1X78952Y24349D1*
G1X78962Y24380D1*
G1X78952Y24411D1*
G1X78926Y24437D1*
G1X78890Y24449D1*
G1X78853Y24441D1*
G1X78828Y24422D1*
G1X78817Y24399D1*
G1X78817Y24361D1*
G1X78802Y24326D1*
G1X78771Y24303D1*
G1X78735Y24296D1*
G1X78698Y24303D1*
G1X78673Y24323D1*
G1X78657Y24353D1*
G1X78652Y24380D1*
G1X77486Y23844D2*
G1X77502Y23821D1*
G1X77512Y23795D1*
G1X77512Y23764D1*
G1X77496Y23729D1*
G1X77471Y23703D1*
G1X77440Y23683D1*
G1X77388Y23668D1*
G1X77341Y23664D1*
G1X77295Y23672D1*
G1X77264Y23683D1*
G1X77233Y23706D1*
G1X77212Y23733D1*
G1X77202Y23760D1*
G1X77202Y23787D1*
G1X77212Y23814D1*
G1X77228Y23837D1*
G1X77248Y23856D1*
G1X77202Y24070D2*
G1X77512Y24070D1*
G1X77450Y24024D1*
G1X77202Y24024D2*
G1X77202Y24116D1*
G1X77331Y24307D2*
G1X77367Y24334D1*
G1X77388Y24357D1*
G1X77398Y24388D1*
G1X77388Y24415D1*
G1X77367Y24434D1*
G1X77336Y24449D1*
G1X77300Y24453D1*
G1X77269Y24449D1*
G1X77238Y24434D1*
G1X77212Y24411D1*
G1X77202Y24384D1*
G1X77212Y24353D1*
G1X77243Y24326D1*
G1X77290Y24311D1*
G1X77341Y24307D1*
G1X77409Y24315D1*
G1X77445Y24326D1*
G1X77481Y24345D1*
G1X77507Y24372D1*
G1X77512Y24399D1*
G1X77502Y24426D1*
G1X77476Y24445D1*
G1X76839Y29145D2*
G1X76807Y29095D1*
G1X76769Y29062D1*
G1X76725Y29045D1*
G1X76674Y29062D1*
G1X76636Y29095D1*
G1X76598Y29145D1*
G1X76585Y29212D1*
G1X76585Y29545D1*
G1X76322Y29462D2*
G1X76284Y29512D1*
G1X76240Y29537D1*
G1X76189Y29545D1*
G1X76126Y29528D1*
G1X76082Y29487D1*
G1X76069Y29437D1*
G1X76075Y29387D1*
G1X76101Y29345D1*
G1X76227Y29262D1*
G1X76284Y29203D1*
G1X76322Y29120D1*
G1X76335Y29045D1*
G1X76069Y29045D1*
G1X75082Y2025D2*
G54D78*
G1X76607Y2025D1*
G1X76682Y2100D2*
G1X76682Y3725D1*
G1X76607Y2025D2*
G1X76682Y2100D1*
G1X75082Y3725D2*
G1X75082Y2025D1*
G1X78302Y5135D2*
G1X78302Y7635D1*
G1X77102Y5135D2*
G1X78302Y5135D1*
G1X76682Y3725D2*
G1X75082Y3725D1*
G1X77102Y7635D2*
G1X77102Y5135D1*
G1X78302Y7635D2*
G1X77827Y7635D1*
G1X77702Y7760D1*
G1X77577Y7635D2*
G1X77102Y7635D1*
G1X77702Y7760D2*
G1X77577Y7635D1*
G1X75432Y11970D2*
G1X77032Y11970D1*
G1X77032Y12720D1*
G1X75432Y12720D1*
G1X75432Y11970D1*
G1X76322Y11620D2*
G1X74722Y11620D1*
G1X74722Y10870D2*
G1X76322Y10870D1*
G1X76322Y11620D1*
G1X74722Y11620D2*
G1X74722Y10870D1*
G1X74142Y12145D2*
G1X74142Y12620D1*
G1X71642Y12145D2*
G1X74142Y12145D1*
G1X74142Y13345D2*
G1X71642Y13345D1*
G1X74142Y12870D2*
G1X74142Y13345D1*
G1X74267Y12745D2*
G1X74142Y12870D1*
G1X74142Y12620D2*
G1X74267Y12745D1*
G1X71642Y13345D2*
G1X71642Y12145D1*
G1X73622Y14270D2*
G1X72022Y14270D1*
G1X72022Y13520D2*
G1X73622Y13520D1*
G1X73622Y14270D1*
G1X72022Y14270D2*
G1X72022Y13520D1*
G1X74492Y16245D2*
G1X74492Y16720D1*
G1X71992Y16245D2*
G1X74492Y16245D1*
G1X74492Y17445D2*
G1X72041Y17445D1*
G1X74492Y16970D2*
G1X74492Y17445D1*
G1X74617Y16845D2*
G1X74492Y16970D1*
G1X74492Y16720D2*
G1X74617Y16845D1*
G1X71992Y17387D2*
G1X71992Y16245D1*
G1X77727Y23265D2*
G1X78477Y23265D1*
G1X78477Y24865D1*
G1X76327Y24865D2*
G1X76327Y23265D1*
G1X77077Y23265D1*
G1X77077Y24865D1*
G1X77727Y24865D2*
G1X77727Y23265D1*
G1X74977Y23265D2*
G1X75727Y23265D1*
G1X75727Y24865D1*
G1X74977Y24865D2*
G1X74977Y23265D1*
G1X73677Y24865D2*
G1X73677Y23265D1*
G1X74427Y23265D1*
G1X74427Y24865D1*
G1X78477Y24865D2*
G1X77727Y24865D1*
G1X77077Y24865D2*
G1X76327Y24865D1*
G1X75727Y24865D2*
G1X74977Y24865D1*
G1X74427Y24865D2*
G1X73677Y24865D1*
G1X78602Y19520D2*
G54D27*
G1X77602Y19520D1*
G1X78602Y21618D2*
G1X78602Y19520D1*
G1X78102Y19145D2*
G1X78102Y19520D1*
G1X76202Y19520D2*
G1X76202Y21770D1*
G1X77202Y19520D2*
G1X76202Y19520D1*
G1X77202Y21770D2*
G1X77202Y19520D1*
G1X76702Y19145D2*
G1X76702Y19520D1*
G1X77602Y19520D2*
G1X77602Y21770D1*
G1X75852Y19520D2*
G1X74852Y19520D1*
G1X75852Y21770D2*
G1X75852Y19520D1*
G1X75352Y19145D2*
G1X75352Y19520D1*
G1X74852Y19520D2*
G1X74852Y19561D1*
G1X74852Y19979D2*
G1X74852Y21770D1*
G1X73552Y19520D2*
G1X73552Y21770D1*
G1X74507Y19520D2*
G1X73552Y19520D1*
G1X74552Y21770D2*
G1X74552Y20041D1*
G1X74052Y19145D2*
G1X74052Y19520D1*
G1X78102Y21877D2*
G1X78102Y22145D1*
G1X77602Y21770D2*
G1X78095Y21770D1*
G1X76702Y22091D2*
G1X76702Y22145D1*
G1X76202Y21770D2*
G1X76455Y21770D1*
G1X77029Y21770D2*
G1X77202Y21770D1*
G1X75352Y22104D2*
G1X75352Y22145D1*
G1X75647Y21770D2*
G1X75852Y21770D1*
G1X74852Y21770D2*
G1X75077Y21770D1*
G1X74052Y22086D2*
G1X74052Y22145D1*
G1X73552Y21770D2*
G1X73667Y21770D1*
G1X74237Y21770D2*
G1X74552Y21770D1*
G1X78152Y26545D2*
G1X73152Y26545D1*
G1X78152Y28545D2*
G1X78152Y26545D1*
G1X73152Y26545D2*
G1X73152Y28545D1*
G1X78152Y28545D1*
G1X75652Y10896D2*
G54D79*
G1X75652Y10245D1*
G1X77652Y10245D1*
G1X77652Y14245D1*
G1X75652Y14245D2*
G1X75652Y12694D1*
G1X75652Y11996D2*
G1X75652Y11594D1*
G1X77652Y14245D2*
G1X75652Y14245D1*
M2*
