M48
INCH,TZ
FMAT,2
ICI,OFF
T01C.02
T02C.028
T03C.035
T04C.038
T05C.042
T06C.07
T07C.086
T08C.125
T09C.125
%
T01
G05
X1400Y7000
X1400Y7600
X1400Y8200
X1400Y8800
X2000Y8800
X1400Y9400
X2600Y8800
X2000Y9400
X2600Y9400
X3800Y8200
X3800Y7600
X3800Y7000
X3200Y8800
X3800Y8800
X3200Y9400
X3800Y9400
X7300Y26650
X6440Y27100
X8800Y14650
X8800Y12450
X10000Y18800
X10000Y21200
X11200Y21200
X11200Y20600
X11200Y20000
X11200Y19400
X11200Y18800
X17000Y16200
X18550Y14650
X18550Y11430
X23800Y18000
X24150Y20950
X24150Y22150
X25300Y20450
X25300Y18000
X24850Y22150
X26050Y26700
X27800Y4000
X27800Y2800
X27150Y5400
X27150Y7400
X27150Y9400
X27100Y11520
X27700Y11520
X27100Y14480
X27700Y14480
X26750Y17050
X27700Y18880
X27700Y19950
X27100Y26700
X27700Y29300
X26700Y31950
X27700Y31950
X29550Y8800
X28850Y17050
X29350Y20400
X30800Y8600
X31100Y9950
X30500Y9950
X30150Y28850
X31100Y29200
X32600Y26350
X33300Y7950
X34150Y3800
X33800Y9950
X32950Y28850
X34150Y4650
X35400Y600
X35400Y2000
X35400Y3950
X35400Y6100
X34500Y9950
X34150Y11400
X33600Y11520
X34150Y14550
X33600Y15050
X36200Y7900
X36200Y3900
X37400Y8300
X36900Y15050
X38400Y6100
X37590Y24100
X38300Y24400
X38300Y25200
X37580Y29150
X38210Y32900
X40400Y5800
X39400Y7450
X40550Y28650
X40550Y30350
X41750Y16750
X41750Y14550
X41300Y28350
X41050Y30500
X43400Y5850
X43000Y15450
X43150Y20650
X43250Y26750
X43250Y28750
X44400Y5850
X45400Y5850
X43850Y21350
X45000Y11500
X44450Y21950
X45150Y22650
X45210Y27960
X45200Y30350
X44530Y31940
X46900Y1700
X46950Y3900
X46950Y6200
X46950Y7000
X46950Y7600
X46400Y11500
X46400Y15350
X48100Y7600
X48100Y7000
X48100Y6200
X47400Y15700
X47900Y18500
X47100Y18500
X47100Y19200
X47100Y19800
X46510Y25710
X47350Y28700
X48900Y3900
X48400Y11500
X48400Y14850
X48500Y19200
X48500Y19800
X47500Y25650
X50100Y4350
X49550Y20500
X49550Y21100
X49550Y28750
X49550Y30150
X50600Y21850
X50600Y21100
X50650Y28750
X50100Y28750
X50650Y29750
X50100Y29950
X52700Y3150
X52650Y5200
X52750Y7150
X52600Y29500
X54450Y14500
X54450Y11500
X53800Y15150
X53800Y15850
X52800Y21150
X52800Y21850
X55850Y5650
X56650Y5650
X55800Y7300
X55800Y8000
X54850Y9700
X55550Y11500
X55000Y14500
X56100Y14500
X56100Y12900
X55550Y14500
X55500Y24000
X55500Y24600
X57300Y10900
X57300Y8650
X57300Y5950
X56600Y15150
X56600Y15850
X55650Y20650
X55650Y21300
X56800Y25500
X57750Y15300
X57750Y12450
X57750Y9700
X59050Y19600
X60750Y6150
X60750Y5150
X60750Y4150
X66752Y18345
X66752Y23945
X69952Y22095
X70757Y16340
X70757Y14780
X72302Y8155
X72312Y10245
X71852Y17555
X70972Y26815
X72242Y12725
X73542Y12735
X72947Y14590
X74707Y7290
X73892Y16065
X74352Y26045
X75902Y26045
X76295Y7045
X77262Y9285
X78412Y13365
X78412Y13955
X78412Y14565
X78412Y15175
X79512Y13365
X79842Y13955
X80172Y14565
X79842Y15175
X79802Y17355
X80177Y18545
X79802Y19545
X82022Y17395
X81562Y18960
X82022Y20205
X81552Y20705
X83062Y5055
X84102Y20495
X83552Y21205
T02
X14200Y1450
X13200Y2450
X13200Y5050
X15200Y2450
X14200Y4050
X15200Y5050
X20600Y32400
X19600Y33400
X21600Y33400
X22000Y23200
X23000Y24200
X22000Y25200
X25650Y14580
X25650Y11300
X25650Y9540
X25650Y2150
X28390Y12570
X28390Y14750
X28400Y18800
X28400Y20030
X28400Y29260
X28400Y30700
X44900Y25350
X43900Y25350
X47400Y11420
X47400Y13750
X63800Y13700
X62100Y13700
X74782Y2435
X74652Y17795
X74652Y19770
X73952Y21815
X75362Y21815
X77142Y3305
X76652Y11245
X76652Y13245
X76742Y21805
X78382Y21805
X82002Y21895
T03
X950Y15350
X4950Y15350
X6150Y17000
X6150Y21000
X5610Y27310
X5610Y31310
X6950Y32050
X6950Y28050
X9200Y2800
X9200Y3800
X9200Y4800
X9200Y5800
X9200Y6800
X9200Y7800
X9200Y8800
X9200Y9800
X9400Y28300
X9400Y30800
X11950Y31050
X12200Y9800
X12200Y8800
X12200Y7800
X12200Y6800
X12200Y5800
X12200Y4800
X12200Y3800
X12200Y2800
X14600Y7800
X14600Y10300
X13800Y17200
X14800Y17200
X15800Y17200
X14800Y20200
X13800Y20200
X16800Y20200
X16800Y17200
X15800Y20200
X15950Y31050
X20000Y8550
X20000Y7550
X20000Y6550
X20000Y5550
X20000Y4550
X20000Y3550
X20000Y2550
X20950Y26100
X20950Y30100
X23000Y8550
X23000Y7550
X23000Y6550
X23000Y5550
X23000Y4550
X23000Y3550
X23000Y2550
X23200Y27800
X24200Y30800
X23200Y32800
X26200Y27800
X27200Y30800
X26200Y32800
X28800Y8800
X28800Y7800
X28800Y6800
X28800Y5800
X28800Y4800
X28800Y3800
X28800Y2800
X28800Y1500
X30350Y16400
X29350Y18400
X30350Y21400
X32800Y1500
X31800Y2800
X31800Y3800
X31800Y4800
X31800Y5800
X31800Y6800
X31800Y7800
X31800Y8800
X33300Y8800
X33300Y4800
X32950Y16400
X31950Y18400
X32950Y21400
X35800Y22400
X35800Y21400
X35800Y20400
X35800Y19400
X35800Y18400
X35800Y17400
X35800Y16400
X38800Y16400
X38800Y17400
X38800Y18400
X38800Y19400
X38800Y20400
X38800Y21400
X38800Y22400
X40250Y25350
X41250Y27350
X43000Y16700
X42350Y20700
X42250Y25350
X43350Y30900
X43700Y32260
X44850Y20700
X45000Y17700
X45000Y15700
X46400Y4500
X46400Y8500
X47000Y22350
X46000Y22350
X46000Y25350
X47000Y25350
X49000Y22350
X48000Y22350
X49000Y25350
X48000Y25350
X47350Y30900
X47700Y32260
X51850Y23500
X51850Y22500
X51850Y21500
X51850Y20500
X51850Y19500
X51850Y18500
X51850Y17500
X55200Y2150
X55200Y3150
X55200Y4150
X55200Y5150
X55200Y6150
X55200Y7150
X55200Y8150
X54850Y17500
X54850Y18500
X54850Y19500
X54850Y20500
X54850Y21500
X54850Y22500
X54850Y23500
X58200Y8150
X58200Y7150
X58200Y6150
X58200Y5150
X58200Y4150
X58200Y3150
X58200Y2150
X57300Y17150
X57300Y18150
X57300Y19150
X57300Y20150
X57300Y21150
X57300Y22150
X57300Y23150
X60300Y23150
X60300Y22150
X60300Y21150
X60300Y20150
X60300Y19150
X60300Y18150
X60300Y17150
X74052Y18645
X74052Y22645
X75352Y22645
X75352Y18645
X76702Y18645
X76702Y22645
X78102Y22645
X78102Y18645
T04
X1650Y13700
X1600Y30800
X3650Y13700
X2650Y13700
X2600Y30800
X3600Y30800
X16550Y5600
X16550Y2600
X18550Y2600
X18550Y5600
X18650Y27100
X18650Y28100
X18650Y29100
X38400Y2200
X37400Y2200
X37400Y3200
X40400Y2200
X39400Y2200
X38400Y3200
X41400Y2200
X39400Y3200
X40400Y3200
X41400Y3200
X43400Y2200
X42400Y2200
X43400Y3200
X42400Y3200
X45400Y2200
X44400Y2200
X45400Y3200
X44400Y3200
X46400Y2200
X47400Y2200
X46400Y3200
X47400Y3200
X49400Y2200
X48400Y2200
X49400Y3200
X48400Y3200
X69452Y4845
X69452Y1845
X71452Y1845
X71452Y4845
X76502Y5095
X75502Y5095
X76486Y6079
X75502Y6079
T05
X1960Y19220
X3960Y19220
X7000Y1200
X14800Y15000
X16800Y15000
X15800Y15000
X18500Y15400
X18500Y16400
X21600Y31200
X20600Y31200
X23600Y20200
X23600Y17200
X29600Y29700
X30600Y29700
X29600Y30700
X32600Y29700
X31600Y29700
X31600Y30700
X30600Y30700
X32600Y30700
X34590Y17410
X34570Y22390
X33600Y29700
X33600Y30700
X36250Y24350
X35250Y24350
X35250Y25350
X36250Y25350
X36250Y26350
X35250Y26350
X35250Y27350
X36250Y27350
X35250Y28350
X36250Y28350
X39900Y18400
X39050Y31300
X38050Y31300
X38050Y32300
X39050Y32300
X40900Y20400
X40900Y18400
X39900Y20400
X40050Y31300
X41050Y31300
X40050Y32300
X41050Y32300
X42050Y32300
X42050Y31300
X54800Y29050
X53800Y29050
X55800Y29050
X55800Y30050
X54800Y30050
X53800Y30050
X56800Y29050
X57800Y29050
X57800Y30050
X56800Y30050
X63370Y30070
X74652Y27045
X73652Y27045
X73652Y28045
X74652Y28045
X75652Y27045
X76652Y27045
X76652Y28045
X75652Y28045
X77652Y28045
X77652Y27045
X81842Y5065
X80842Y5065
X80842Y6065
X81842Y6065
X80842Y7065
X81842Y7065
X80842Y8065
X81842Y8065
X80842Y9065
X81842Y9065
X82502Y23995
X81502Y23995
X83502Y23995
T06
X3250Y33000
X4810Y33000
X11950Y33000
X13510Y33000
T07
X6050Y23500
X9050Y23500
X16850Y23500
X19850Y23500
X75902Y8575
X73626Y4027
X78370Y4007
T08
X1000Y1000
X1000Y34000
X2650Y7700
X2600Y24800
X12650Y28100
X64000Y34000
X64000Y1000
X67002Y995
X67002Y28995
X85002Y28995
X85002Y995
M30
