*
%LPD*%
%LNBOTTOM*%
%FSLAX24Y24*%
%MOIN*%
%AD*%
%ADD10C,0.025*%
%ADD13C,0.05*%
%ADD14C,0.06*%
%ADD15C,0.038*%
%ADD16C,0.062*%
%ADD17C,0.086*%
%ADD18R,0.086X0.086*%
%ADD19C,0.1*%
%ADD20R,0.062X0.062*%
%ADD21R,0.05X0.05*%
%ADD22C,0.052*%
%ADD23C,0.03*%
%ADD24C,0.055*%
%ADD25C,0.04*%
%ADD26C,0.005*%
%ADD27C,0.008*%
%ADD28C,0.012*%
%ADD29C,0.015*%
%ADD30C,0.0784*%
%ADD31R,0.0782X0.0782*%
%ADD32R,0.0662X0.0662*%
%ADD33C,0.0564*%
%ADD34R,0.1022X0.1022*%
%ADD35C,0.0714*%
%ADD36C,0.0764*%
%ADD37C,0.1024*%
%ADD85C,0.075*%
%ADD86C,0.147*%
%ADD87R,0.063X0.063*%
%ADD88R,0.1X0.1*%
%ADD89R,0.075X0.075*%
%ADD90C,0.063*%
%ADD91C,0.109*%
%ADD92C,0.058*%
%ADD93R,0.058X0.058*%
%ADD94R,0.052X0.052*%
%ADD95C,0.056*%
%ADD96R,0.06X0.06*%
%ADD97C,0.0744*%
%ADD98R,0.0742X0.0742*%
%ADD99R,0.0762X0.0762*%
%ADD100R,0.0682X0.0682*%
%ADD101C,0.0664*%
%ADD102C,0.0724*%
%ADD103R,0.0792X0.0792*%
%ADD104C,0.0794*%
%ADD105C,0.0914*%
%ADD106C,0.1164*%
%ADD107R,0.1162X0.1162*%
%ADD108C,0.1634*%
%ADD109R,0.0912X0.0912*%
%ADD110R,0.4562X0.2962*%
%ADD137R,0.0642X0.0722*%
%ADD138R,0.048X0.056*%
%ADD139R,0.04X0.056*%
G54D10*
%SRX1Y1I0.0J0.0*%
G36*
G1X35253Y421D2*
G75*
G2X35227Y350I-26J-31D1*
G1X2001Y350D1*
G1X2001Y2001D1*
G1X350Y2001D1*
G1X350Y32999D1*
G1X2001Y32999D1*
G1X2001Y34700D1*
G1X62999Y34700D1*
G1X62999Y32999D1*
G1X64750Y32999D1*
G1X64750Y2001D1*
G1X62999Y2001D1*
G1X62999Y350D1*
G1X35573Y350D1*
G2X35547Y421I0J40D1*
G3X35541Y784I-147J179D1*
G1X35541Y1816D1*
G3X35259Y1816I-141J184D1*
G1X35259Y784D1*
G3X35253Y421I141J-184D1*
G37*
%LPC*%
G36*
G1X63562Y13469D2*
G1X62338Y13469D1*
G2X62338Y13931I-238J231D1*
G1X63562Y13931D1*
G2X63562Y13469I238J-231D1*
G37*
G36*
G1X25856Y9280D2*
G1X25856Y2410D1*
G2X25444Y2410I-206J-260D1*
G1X25444Y9280D1*
G2X25856Y9280I206J260D1*
G37*
G36*
G1X27841Y19766D2*
G1X27841Y19064D1*
G2X27559Y19064I-141J-184D1*
G1X27559Y19766D1*
G2X27841Y19766I141J184D1*
G37*
G36*
G1X28631Y19792D2*
G1X28631Y19038D1*
G2X28169Y19038I-231J-238D1*
G1X28169Y19792D1*
G2X28631Y19792I231J238D1*
G37*
G36*
G1X27679Y29069D2*
G1X27669Y29070D1*
G1X27241Y28642D1*
G1X27241Y28531D1*
G1X27431Y28531D1*
G1X27431Y27869D1*
G1X26769Y27869D1*
G1X26769Y28531D1*
G1X26959Y28531D1*
G1X26959Y28758D1*
G1X27470Y29269D1*
G1X27469Y29279D1*
G2X27559Y29484I231J21D1*
G1X27559Y30555D1*
G3X27487Y30580I-40J1D1*
G2X27487Y31020I-287J220D1*
G3X27559Y31045I32J24D1*
G1X27559Y31744D1*
G1X26807Y31744D1*
G2X26807Y32156I-107J206D1*
G1X27593Y32156D1*
G2X27841Y31766I107J-206D1*
G1X27841Y29484D1*
G2X27679Y29069I-141J-184D1*
G37*
G36*
G1X55570Y7110D2*
G2X54856Y7009I-370J40D1*
G1X54681Y7009D1*
G1X54681Y6819D1*
G1X54019Y6819D1*
G1X54019Y7481D1*
G1X54681Y7481D1*
G1X54681Y7291D1*
G1X54856Y7291D1*
G2X55508Y7359I344J-141D1*
G3X55579Y7370I33J23D1*
G2X55659Y7484I221J-70D1*
G1X55659Y7816D1*
G2X55639Y7833I140J185D1*
G3X55571Y7804I-28J-29D1*
G1X55571Y7779D1*
G1X54829Y7779D1*
G1X54829Y8521D1*
G1X55571Y8521D1*
G1X55571Y8196D1*
G3X55639Y8167I40J0D1*
G2X55941Y7816I161J-167D1*
G1X55941Y7484D1*
G2X55638Y7134I-141J-184D1*
G3X55570Y7110I-28J-28D1*
G37*
G36*
G1X40291Y20009D2*
G1X39509Y20009D1*
G1X39509Y20259D1*
G1X39144Y20259D1*
G2X38456Y20259I-344J141D1*
G1X38071Y20259D1*
G1X38071Y20069D1*
G1X37409Y20069D1*
G1X37409Y20731D1*
G1X37599Y20731D1*
G1X37599Y20848D1*
G1X37609Y20858D1*
G1X37609Y20969D1*
G1X37419Y20969D1*
G1X37419Y21159D1*
G1X37231Y21159D1*
G1X37231Y20969D1*
G1X36627Y20969D1*
G3X36599Y20901I0J-40D1*
G1X36768Y20731D1*
G1X37231Y20731D1*
G1X37231Y20069D1*
G1X36569Y20069D1*
G1X36569Y20532D1*
G1X36442Y20659D1*
G1X36342Y20659D1*
G1X35944Y21057D1*
G1X35932Y21052D1*
G2X36148Y21268I-132J348D1*
G1X36143Y21256D1*
G1X36458Y20941D1*
G1X36569Y20941D1*
G1X36569Y21631D1*
G1X37231Y21631D1*
G1X37231Y21441D1*
G1X37419Y21441D1*
G1X37419Y21631D1*
G1X38081Y21631D1*
G1X38081Y20969D1*
G1X37891Y20969D1*
G1X37891Y20731D1*
G1X38071Y20731D1*
G1X38071Y20541D1*
G1X38456Y20541D1*
G2X39144Y20541I344J-141D1*
G1X39509Y20541D1*
G1X39509Y20791D1*
G1X40291Y20791D1*
G1X40291Y20009D1*
G37*
G36*
G1X55142Y23269D2*
G2X54506Y23359I-292J231D1*
G1X54171Y23359D1*
G1X54171Y23169D1*
G1X53509Y23169D1*
G1X53509Y23831D1*
G1X54171Y23831D1*
G1X54171Y23641D1*
G1X54506Y23641D1*
G2X55142Y23731I344J-141D1*
G1X55353Y23731D1*
G3X55375Y23805I1J40D1*
G2X55359Y24184I125J195D1*
G1X55359Y24416D1*
G2X55641Y24416I141J184D1*
G1X55641Y24184D1*
G2X55625Y23805I-141J-184D1*
G3X55647Y23731I21J-34D1*
G1X55854Y23731D1*
G1X56569Y24446D1*
G1X56569Y25500D1*
G2X57031Y25500I231J0D1*
G1X57031Y24254D1*
G1X56046Y23269D1*
G1X55142Y23269D1*
G37*
G36*
G1X54107Y29294D2*
G2X53493Y29294I-307J-244D1*
G3X53462Y29359I-31J25D1*
G1X52784Y29359D1*
G2X52784Y29641I-184J141D1*
G1X53575Y29641D1*
G3X53596Y29715I0J40D1*
G2X54004Y29715I204J335D1*
G3X54025Y29641I21J-34D1*
G1X54408Y29641D1*
G1X54641Y29409D1*
G1X54653Y29413D1*
G2X54437Y29197I147J-363D1*
G1X54441Y29209D1*
G1X54292Y29359D1*
G1X54138Y29359D1*
G3X54107Y29294I0J-40D1*
G37*
G36*
G1X47247Y1552D2*
G1X47247Y1542D1*
G1X47348Y1441D1*
G1X57029Y1441D1*
G1X57029Y1631D1*
G1X57691Y1631D1*
G1X57691Y969D1*
G1X57029Y969D1*
G1X57029Y1159D1*
G1X47232Y1159D1*
G1X46965Y1426D1*
G1X46965Y1436D1*
G1X46931Y1470D1*
G1X46921Y1469D1*
G2X47131Y1679I-21J231D1*
G1X47130Y1669D1*
G1X47247Y1552D1*
G37*
G36*
G1X58531Y1631D2*
G1X58531Y969D1*
G1X57869Y969D1*
G1X57869Y1631D1*
G1X58059Y1631D1*
G1X58059Y1806D1*
G2X58341Y1806I141J344D1*
G1X58341Y1631D1*
G1X58531Y1631D1*
G37*
G36*
G1X28941Y2456D2*
G1X28941Y1828D1*
G2X28659Y1828I-141J-328D1*
G1X28659Y2456D1*
G2X29144Y2941I141J344D1*
G1X29569Y2941D1*
G1X29569Y3131D1*
G1X30231Y3131D1*
G1X30231Y2469D1*
G1X29569Y2469D1*
G1X29569Y2659D1*
G1X29144Y2659D1*
G2X28941Y2456I-344J141D1*
G37*
G36*
G1X32142Y1359D2*
G1X31659Y1842D1*
G1X31659Y2429D1*
G1X31429Y2429D1*
G1X31429Y2972D1*
G1X31231Y3170D1*
G1X31091Y3170D1*
G1X30932Y3329D1*
G1X30469Y3329D1*
G1X30469Y3991D1*
G1X31131Y3991D1*
G1X31131Y3528D1*
G1X31207Y3452D1*
G1X31347Y3452D1*
G1X31628Y3171D1*
G1X32171Y3171D1*
G1X32171Y2429D1*
G1X31941Y2429D1*
G1X31941Y1958D1*
G1X32258Y1641D1*
G1X32472Y1641D1*
G2X32472Y1359I328J-141D1*
G1X32142Y1359D1*
G37*
G36*
G1X22281Y1881D2*
G1X22281Y1219D1*
G1X21619Y1219D1*
G1X21619Y1881D1*
G1X21799Y1881D1*
G1X21799Y2219D1*
G1X21609Y2219D1*
G1X21609Y2881D1*
G1X22271Y2881D1*
G1X22271Y2691D1*
G1X22629Y2691D1*
G1X22629Y2921D1*
G1X23371Y2921D1*
G1X23371Y2179D1*
G1X22629Y2179D1*
G1X22629Y2409D1*
G1X22271Y2409D1*
G1X22271Y2219D1*
G1X22081Y2219D1*
G1X22081Y2008D1*
G1X22091Y1998D1*
G1X22091Y1881D1*
G1X22281Y1881D1*
G37*
G36*
G1X20769Y2409D2*
G1X20344Y2409D1*
G2X20344Y2691I-344J141D1*
G1X20769Y2691D1*
G1X20769Y2881D1*
G1X21431Y2881D1*
G1X21431Y2219D1*
G1X20769Y2219D1*
G1X20769Y2409D1*
G37*
G36*
G1X27941Y3816D2*
G1X27941Y2984D1*
G2X27659Y2984I-141J-184D1*
G1X27659Y3816D1*
G2X27941Y3816I141J184D1*
G37*
G36*
G1X54681Y3291D2*
G1X54856Y3291D1*
G2X54856Y3009I344J-141D1*
G1X54681Y3009D1*
G1X54681Y2819D1*
G1X54019Y2819D1*
G1X54019Y3481D1*
G1X54681Y3481D1*
G1X54681Y3291D1*
G37*
G36*
G1X37541Y4029D2*
G1X37541Y3555D1*
G2X37259Y3555I-141J-355D1*
G1X37259Y4029D1*
G1X37069Y4029D1*
G1X37069Y4691D1*
G1X37731Y4691D1*
G1X37731Y4029D1*
G1X37541Y4029D1*
G37*
G36*
G1X38541Y4029D2*
G1X38541Y3555D1*
G2X38259Y3555I-141J-355D1*
G1X38259Y4029D1*
G1X38069Y4029D1*
G1X38069Y4691D1*
G1X38731Y4691D1*
G1X38731Y4029D1*
G1X38541Y4029D1*
G37*
G36*
G1X39541Y4029D2*
G1X39541Y3555D1*
G2X39259Y3555I-141J-355D1*
G1X39259Y4029D1*
G1X39069Y4029D1*
G1X39069Y4691D1*
G1X39731Y4691D1*
G1X39731Y4029D1*
G1X39541Y4029D1*
G37*
G36*
G1X43541Y4029D2*
G1X43541Y3555D1*
G2X43259Y3555I-141J-355D1*
G1X43259Y4029D1*
G1X43069Y4029D1*
G1X43069Y4691D1*
G1X43731Y4691D1*
G1X43731Y4029D1*
G1X43541Y4029D1*
G37*
G36*
G1X44541Y4029D2*
G1X44541Y3555D1*
G2X44259Y3555I-141J-355D1*
G1X44259Y4029D1*
G1X44069Y4029D1*
G1X44069Y4691D1*
G1X44731Y4691D1*
G1X44731Y4029D1*
G1X44541Y4029D1*
G37*
G36*
G1X45541Y4029D2*
G1X45541Y3555D1*
G2X45259Y3555I-141J-355D1*
G1X45259Y4029D1*
G1X45069Y4029D1*
G1X45069Y4691D1*
G1X45731Y4691D1*
G1X45731Y4029D1*
G1X45541Y4029D1*
G37*
G36*
G1X46541Y4172D2*
G1X46541Y3555D1*
G2X46259Y3555I-141J-355D1*
G1X46259Y4172D1*
G2X46541Y4172I141J328D1*
G37*
G36*
G1X40781Y3581D2*
G1X40781Y2819D1*
G1X40019Y2819D1*
G1X40019Y3581D1*
G1X40259Y3581D1*
G1X40259Y4029D1*
G1X40069Y4029D1*
G1X40069Y4691D1*
G1X40731Y4691D1*
G1X40731Y4029D1*
G1X40541Y4029D1*
G1X40541Y3581D1*
G1X40781Y3581D1*
G37*
G36*
G1X53841Y3481D2*
G1X53841Y2819D1*
G1X53179Y2819D1*
G1X53179Y3009D1*
G1X52884Y3009D1*
G2X52884Y3291I-184J141D1*
G1X53179Y3291D1*
G1X53179Y3481D1*
G1X53841Y3481D1*
G37*
G36*
G1X34291Y4466D2*
G1X34291Y3984D1*
G2X34009Y3984I-141J-184D1*
G1X34009Y4466D1*
G2X34291Y4466I141J184D1*
G37*
G36*
G1X36341Y7716D2*
G1X36341Y4084D1*
G2X36059Y4084I-141J-184D1*
G1X36059Y7716D1*
G2X36341Y7716I141J184D1*
G37*
G36*
G1X48716Y3759D2*
G1X47134Y3759D1*
G2X47134Y4041I-184J141D1*
G1X48716Y4041D1*
G2X48716Y3759I184J-141D1*
G37*
G36*
G1X35541Y5916D2*
G1X35541Y4134D1*
G2X35259Y4134I-141J-184D1*
G1X35259Y5916D1*
G2X35541Y5916I141J184D1*
G37*
G36*
G1X58769Y4009D2*
G1X58544Y4009D1*
G2X58544Y4291I-344J141D1*
G1X58769Y4291D1*
G1X58769Y4481D1*
G1X59431Y4481D1*
G1X59431Y3819D1*
G1X58769Y3819D1*
G1X58769Y4009D1*
G37*
G36*
G1X60271Y4009D2*
G1X60271Y3819D1*
G1X59609Y3819D1*
G1X59609Y4481D1*
G1X60271Y4481D1*
G1X60271Y4291D1*
G1X60566Y4291D1*
G2X60566Y4009I184J-141D1*
G1X60271Y4009D1*
G37*
G36*
G1X31131Y4831D2*
G1X31131Y4169D1*
G1X30469Y4169D1*
G1X30469Y4831D1*
G1X30659Y4831D1*
G1X30659Y8416D1*
G2X30941Y8416I141J184D1*
G1X30941Y4831D1*
G1X31131Y4831D1*
G37*
G36*
G1X28331Y4941D2*
G1X28456Y4941D1*
G2X28456Y4659I344J-141D1*
G1X28331Y4659D1*
G1X28331Y4469D1*
G1X27669Y4469D1*
G1X27669Y5131D1*
G1X28331Y5131D1*
G1X28331Y4941D1*
G37*
G36*
G1X33441Y7766D2*
G1X33441Y5128D1*
G2X33159Y5128I-141J-328D1*
G1X33159Y7766D1*
G2X33441Y7766I141J184D1*
G37*
G36*
G1X27491Y5131D2*
G1X27491Y4469D1*
G1X26829Y4469D1*
G1X26829Y5131D1*
G1X27009Y5131D1*
G1X27009Y5216D1*
G2X27291Y5216I141J184D1*
G1X27291Y5131D1*
G1X27491Y5131D1*
G37*
G36*
G1X54681Y5291D2*
G1X54856Y5291D1*
G2X54856Y5009I344J-141D1*
G1X54681Y5009D1*
G1X54681Y4819D1*
G1X54019Y4819D1*
G1X54019Y5481D1*
G1X54681Y5481D1*
G1X54681Y5291D1*
G37*
G36*
G1X58769Y5009D2*
G1X58544Y5009D1*
G2X58544Y5291I-344J141D1*
G1X58769Y5291D1*
G1X58769Y5481D1*
G1X59431Y5481D1*
G1X59431Y4819D1*
G1X58769Y4819D1*
G1X58769Y5009D1*
G37*
G36*
G1X53841Y5481D2*
G1X53841Y4819D1*
G1X53179Y4819D1*
G1X53179Y5009D1*
G1X52782Y5009D1*
G2X52863Y5291I-132J191D1*
G1X53179Y5291D1*
G1X53179Y5481D1*
G1X53841Y5481D1*
G37*
G36*
G1X60271Y5009D2*
G1X60271Y4819D1*
G1X59609Y4819D1*
G1X59609Y5481D1*
G1X60271Y5481D1*
G1X60271Y5291D1*
G1X60566Y5291D1*
G2X60566Y5009I184J-141D1*
G1X60271Y5009D1*
G37*
G36*
G1X37731Y5531D2*
G1X37731Y4869D1*
G1X37069Y4869D1*
G1X37069Y5531D1*
G1X37259Y5531D1*
G1X37259Y8116D1*
G2X37541Y8116I141J184D1*
G1X37541Y5531D1*
G1X37731Y5531D1*
G37*
G36*
G1X38731Y5531D2*
G1X38731Y4869D1*
G1X38069Y4869D1*
G1X38069Y5531D1*
G1X38259Y5531D1*
G1X38259Y5916D1*
G2X38541Y5916I141J184D1*
G1X38541Y5531D1*
G1X38731Y5531D1*
G37*
G36*
G1X39731Y5531D2*
G1X39731Y4869D1*
G1X39069Y4869D1*
G1X39069Y5531D1*
G1X39259Y5531D1*
G1X39259Y7266D1*
G2X39541Y7266I141J184D1*
G1X39541Y5531D1*
G1X39731Y5531D1*
G37*
G36*
G1X40731Y5531D2*
G1X40731Y4869D1*
G1X40069Y4869D1*
G1X40069Y5531D1*
G1X40259Y5531D1*
G1X40259Y5616D1*
G2X40541Y5616I141J184D1*
G1X40541Y5531D1*
G1X40731Y5531D1*
G37*
G36*
G1X43731Y5531D2*
G1X43731Y4869D1*
G1X43069Y4869D1*
G1X43069Y5531D1*
G1X43259Y5531D1*
G1X43259Y5666D1*
G2X43541Y5666I141J184D1*
G1X43541Y5531D1*
G1X43731Y5531D1*
G37*
G36*
G1X44731Y5531D2*
G1X44731Y4869D1*
G1X44069Y4869D1*
G1X44069Y5531D1*
G1X44259Y5531D1*
G1X44259Y5666D1*
G2X44541Y5666I141J184D1*
G1X44541Y5531D1*
G1X44731Y5531D1*
G37*
G36*
G1X45731Y5531D2*
G1X45731Y4869D1*
G1X45069Y4869D1*
G1X45069Y5531D1*
G1X45259Y5531D1*
G1X45259Y5666D1*
G2X45541Y5666I141J184D1*
G1X45541Y5531D1*
G1X45731Y5531D1*
G37*
G36*
G1X56466Y5509D2*
G1X56034Y5509D1*
G2X56034Y5791I-184J141D1*
G1X56466Y5791D1*
G2X56466Y5509I184J-141D1*
G37*
G36*
G1X28932Y6148D2*
G1X28944Y6143D1*
G1X29409Y6608D1*
G1X29409Y8616D1*
G2X29691Y8616I141J184D1*
G1X29691Y6492D1*
G1X29143Y5944D1*
G1X29148Y5932D1*
G2X28932Y6148I-348J-132D1*
G37*
G36*
G1X57441Y8466D2*
G1X57441Y6134D1*
G2X57159Y6134I-141J-184D1*
G1X57159Y8466D1*
G2X57441Y8466I141J184D1*
G37*
G36*
G1X58769Y6009D2*
G1X58544Y6009D1*
G2X58544Y6291I-344J141D1*
G1X58769Y6291D1*
G1X58769Y6481D1*
G1X59431Y6481D1*
G1X59431Y5819D1*
G1X58769Y5819D1*
G1X58769Y6009D1*
G37*
G36*
G1X60271Y6009D2*
G1X60271Y5819D1*
G1X59609Y5819D1*
G1X59609Y6481D1*
G1X60271Y6481D1*
G1X60271Y6291D1*
G1X60566Y6291D1*
G2X60566Y6009I184J-141D1*
G1X60271Y6009D1*
G37*
G36*
G1X47916Y6059D2*
G1X47134Y6059D1*
G2X47134Y6341I-184J141D1*
G1X47916Y6341D1*
G2X47916Y6059I184J-141D1*
G37*
G36*
G1X28331Y6941D2*
G1X28456Y6941D1*
G2X28456Y6659I344J-141D1*
G1X28331Y6659D1*
G1X28331Y6469D1*
G1X27669Y6469D1*
G1X27669Y7131D1*
G1X28331Y7131D1*
G1X28331Y6941D1*
G37*
G36*
G1X27491Y7131D2*
G1X27491Y6469D1*
G1X26829Y6469D1*
G1X26829Y7131D1*
G1X27009Y7131D1*
G1X27009Y7216D1*
G2X27291Y7216I141J184D1*
G1X27291Y7131D1*
G1X27491Y7131D1*
G37*
G36*
G1X47916Y6859D2*
G1X47134Y6859D1*
G2X47134Y7141I-184J141D1*
G1X47916Y7141D1*
G2X47916Y6859I184J-141D1*
G37*
G36*
G1X53841Y7481D2*
G1X53841Y6819D1*
G1X53179Y6819D1*
G1X53179Y7009D1*
G1X52934Y7009D1*
G2X52934Y7291I-184J141D1*
G1X53179Y7291D1*
G1X53179Y7481D1*
G1X53841Y7481D1*
G37*
G36*
G1X47916Y7459D2*
G1X47134Y7459D1*
G2X47134Y7741I-184J141D1*
G1X47916Y7741D1*
G2X47916Y7459I184J-141D1*
G37*
G36*
G1X28331Y8941D2*
G1X28456Y8941D1*
G2X28456Y8659I344J-141D1*
G1X28331Y8659D1*
G1X28331Y8469D1*
G1X27669Y8469D1*
G1X27669Y9131D1*
G1X28331Y9131D1*
G1X28331Y8941D1*
G37*
G36*
G1X27491Y9131D2*
G1X27491Y8469D1*
G1X26829Y8469D1*
G1X26829Y9131D1*
G1X27009Y9131D1*
G1X27009Y9216D1*
G2X27291Y9216I141J184D1*
G1X27291Y9131D1*
G1X27491Y9131D1*
G37*
G36*
G1X11581Y9941D2*
G1X11856Y9941D1*
G2X11856Y9659I344J-141D1*
G1X11581Y9659D1*
G1X11581Y9469D1*
G1X10919Y9469D1*
G1X10919Y10131D1*
G1X11581Y10131D1*
G1X11581Y9941D1*
G37*
G36*
G1X57566Y9559D2*
G1X55034Y9559D1*
G2X55034Y9841I-184J141D1*
G1X57566Y9841D1*
G2X57566Y9559I184J-141D1*
G37*
G36*
G1X30916Y9809D2*
G1X30684Y9809D1*
G2X30684Y10091I-184J141D1*
G1X30916Y10091D1*
G2X30916Y9809I184J-141D1*
G37*
G36*
G1X34316Y9809D2*
G1X33984Y9809D1*
G2X33984Y10091I-184J141D1*
G1X34316Y10091D1*
G2X34316Y9809I184J-141D1*
G37*
G36*
G1X55141Y14316D2*
G1X55141Y11158D1*
G1X55258Y11041D1*
G1X57116Y11041D1*
G2X57116Y10759I184J-141D1*
G1X55142Y10759D1*
G1X54859Y11042D1*
G1X54859Y14316D1*
G2X55141Y14316I141J184D1*
G37*
G36*
G1X25856Y14320D2*
G1X25856Y11560D1*
G2X25444Y11560I-206J-260D1*
G1X25444Y14320D1*
G2X25856Y14320I206J260D1*
G37*
G36*
G1X47681Y13573D2*
G1X47681Y11597D1*
G2X47119Y11597I-281J-177D1*
G1X47119Y13573D1*
G2X47169Y13988I281J177D1*
G1X47169Y15700D1*
G2X47631Y15700I231J0D1*
G1X47631Y13988D1*
G2X47681Y13573I-231J-238D1*
G37*
G36*
G1X34291Y14366D2*
G1X34291Y11584D1*
G2X34009Y11584I-141J-184D1*
G1X34009Y14366D1*
G2X34291Y14366I141J184D1*
G37*
G36*
G1X45141Y15367D2*
G1X45141Y11684D1*
G2X44859Y11684I-141J-184D1*
G1X44859Y15367D1*
G2X45141Y15367I141J333D1*
G37*
G36*
G1X46541Y15166D2*
G1X46541Y11684D1*
G2X46259Y11684I-141J-184D1*
G1X46259Y15166D1*
G2X46541Y15166I141J184D1*
G37*
G36*
G1X48541Y14666D2*
G1X48541Y11684D1*
G2X48259Y11684I-141J-184D1*
G1X48259Y14666D1*
G2X48541Y14666I141J184D1*
G37*
G36*
G1X54591Y14316D2*
G1X54591Y11684D1*
G2X54309Y11684I-141J-184D1*
G1X54309Y14316D1*
G2X54591Y14316I141J184D1*
G37*
G36*
G1X55691Y14316D2*
G1X55691Y11684D1*
G2X55409Y11684I-141J-184D1*
G1X55409Y14316D1*
G2X55691Y14316I141J184D1*
G37*
G36*
G1X27241Y14296D2*
G1X27241Y11704D1*
G2X26959Y11704I-141J-184D1*
G1X26959Y14296D1*
G2X27241Y14296I141J184D1*
G37*
G36*
G1X33741Y14866D2*
G1X33741Y11704D1*
G2X33459Y11704I-141J-184D1*
G1X33459Y14866D1*
G2X33741Y14866I141J184D1*
G37*
G36*
G1X1319Y12711D2*
G1X1319Y13385D1*
G2X1981Y13385I331J315D1*
G1X1981Y12711D1*
G1X2161Y12711D1*
G1X2161Y11689D1*
G1X1139Y11689D1*
G1X1139Y12711D1*
G1X1319Y12711D1*
G37*
G36*
G1X8941Y14466D2*
G1X8941Y12634D1*
G2X8659Y12634I-141J-184D1*
G1X8659Y14466D1*
G2X8941Y14466I141J184D1*
G37*
G36*
G1X57891Y15116D2*
G1X57891Y12634D1*
G2X57609Y12634I-141J-184D1*
G1X57609Y15116D1*
G2X57891Y15116I141J184D1*
G37*
G36*
G1X56256Y14328D2*
G1X56256Y13072D1*
G2X55944Y13072I-156J-172D1*
G1X55944Y14328D1*
G2X56256Y14328I156J172D1*
G37*
G36*
G1X5281Y14881D2*
G1X5281Y14219D1*
G1X4619Y14219D1*
G1X4619Y14881D1*
G1X4744Y14881D1*
G1X4744Y15058D1*
G2X5156Y15058I206J292D1*
G1X5156Y14881D1*
G1X5281Y14881D1*
G37*
G36*
G1X41891Y16566D2*
G1X41891Y14734D1*
G2X41609Y14734I-141J-184D1*
G1X41609Y16566D1*
G2X41891Y16566I141J184D1*
G37*
G36*
G1X15191Y15391D2*
G1X15191Y14609D1*
G1X14409Y14609D1*
G1X14409Y15391D1*
G1X14659Y15391D1*
G1X14659Y15689D1*
G1X14289Y15689D1*
G1X14289Y16711D1*
G1X15311Y16711D1*
G1X15311Y15689D1*
G1X14941Y15689D1*
G1X14941Y15391D1*
G1X15191Y15391D1*
G37*
G36*
G1X37041Y16229D2*
G1X37041Y15234D1*
G2X36759Y15234I-141J-184D1*
G1X36759Y16229D1*
G1X36569Y16229D1*
G1X36569Y16891D1*
G1X37231Y16891D1*
G1X37231Y16701D1*
G1X37419Y16701D1*
G1X37419Y16891D1*
G1X38081Y16891D1*
G1X38081Y16701D1*
G1X38268Y16701D1*
G1X38428Y16541D1*
G1X38456Y16541D1*
G1X38461Y16553D1*
G2X38456Y16259I339J-153D1*
G1X38312Y16259D1*
G1X38152Y16419D1*
G1X38081Y16419D1*
G1X38081Y16229D1*
G1X37419Y16229D1*
G1X37419Y16419D1*
G1X37231Y16419D1*
G1X37231Y16229D1*
G1X37041Y16229D1*
G37*
G36*
G1X56416Y15009D2*
G1X53984Y15009D1*
G2X53984Y15291I-184J141D1*
G1X56416Y15291D1*
G2X56416Y15009I184J-141D1*
G37*
G36*
G1X43141Y16367D2*
G1X43141Y15634D1*
G2X42859Y15634I-141J-184D1*
G1X42859Y16367D1*
G2X43141Y16367I141J333D1*
G37*
G36*
G1X32619Y15881D2*
G1X32809Y15881D1*
G1X32809Y16067D1*
G2X33091Y16067I141J333D1*
G1X33091Y15881D1*
G1X33281Y15881D1*
G1X33281Y15219D1*
G1X32619Y15219D1*
G1X32619Y15881D1*
G37*
G36*
G1X30681Y15911D2*
G1X30681Y15249D1*
G1X30019Y15249D1*
G1X30019Y15911D1*
G1X30209Y15911D1*
G1X30209Y16067D1*
G2X30491Y16067I141J333D1*
G1X30491Y15911D1*
G1X30681Y15911D1*
G37*
G36*
G1X56416Y15709D2*
G1X53984Y15709D1*
G2X53984Y15991I-184J141D1*
G1X56416Y15991D1*
G2X56416Y15709I184J-141D1*
G37*
G36*
G1X16631Y16059D2*
G1X16631Y15689D1*
G1X15609Y15689D1*
G1X15609Y16711D1*
G1X16631Y16711D1*
G1X16631Y16341D1*
G1X16816Y16341D1*
G2X16816Y16059I184J-141D1*
G1X16631Y16059D1*
G37*
G36*
G1X19042Y16259D2*
G1X18866Y16259D1*
G2X18866Y16541I-366J141D1*
G1X19169Y16541D1*
G1X19169Y16721D1*
G1X19831Y16721D1*
G1X19831Y16059D1*
G1X19169Y16059D1*
G1X19169Y16249D1*
G1X19052Y16249D1*
G1X19042Y16259D1*
G37*
G36*
G1X57979Y17009D2*
G1X57644Y17009D1*
G2X57644Y17291I-344J141D1*
G1X57979Y17291D1*
G1X57979Y17481D1*
G1X58641Y17481D1*
G1X58641Y16819D1*
G1X57979Y16819D1*
G1X57979Y17009D1*
G37*
G36*
G1X28666Y16909D2*
G1X26934Y16909D1*
G2X26934Y17191I-184J141D1*
G1X28666Y17191D1*
G2X28666Y16909I184J-141D1*
G37*
G36*
G1X35932Y17748D2*
G1X35944Y17743D1*
G1X36393Y18192D1*
G1X36493Y18192D1*
G1X36569Y18268D1*
G1X36569Y18731D1*
G1X37231Y18731D1*
G1X37231Y18069D1*
G1X36768Y18069D1*
G1X36609Y17910D1*
G1X36509Y17910D1*
G1X36143Y17544D1*
G1X36148Y17532D1*
G2X35932Y17748I-348J-132D1*
G37*
G36*
G1X37231Y17259D2*
G1X37231Y17069D1*
G1X36569Y17069D1*
G1X36569Y17731D1*
G1X37231Y17731D1*
G1X37231Y17541D1*
G1X37419Y17541D1*
G1X37419Y17731D1*
G1X37599Y17731D1*
G1X37599Y18069D1*
G1X37409Y18069D1*
G1X37409Y18731D1*
G1X38071Y18731D1*
G1X38071Y18541D1*
G1X38456Y18541D1*
G2X39144Y18541I344J-141D1*
G1X39509Y18541D1*
G1X39509Y18791D1*
G1X40291Y18791D1*
G1X40291Y18009D1*
G1X39509Y18009D1*
G1X39509Y18259D1*
G1X39144Y18259D1*
G2X38456Y18259I-344J141D1*
G1X38071Y18259D1*
G1X38071Y18069D1*
G1X37881Y18069D1*
G1X37881Y17858D1*
G1X37891Y17848D1*
G1X37891Y17731D1*
G1X38081Y17731D1*
G1X38081Y17069D1*
G1X37419Y17069D1*
G1X37419Y17259D1*
G1X37231Y17259D1*
G37*
G36*
G1X54502Y17632D2*
G1X54507Y17644D1*
G1X54209Y17942D1*
G1X54209Y21058D1*
G1X54507Y21356D1*
G1X54502Y21368D1*
G2X54709Y21844I348J132D1*
G1X54709Y22156D1*
G2X54991Y22156I141J344D1*
G1X54991Y21844D1*
G2X54706Y21157I-141J-344D1*
G1X54491Y20942D1*
G1X54491Y20761D1*
G3X54562Y20735I40J0D1*
G2X54562Y20265I288J-235D1*
G3X54491Y20239I-31J-26D1*
G1X54491Y19761D1*
G3X54562Y19735I40J0D1*
G2X54562Y19265I288J-235D1*
G3X54491Y19239I-31J-26D1*
G1X54491Y18761D1*
G3X54562Y18735I40J0D1*
G2X54562Y18265I288J-235D1*
G3X54491Y18239I-31J-26D1*
G1X54491Y18058D1*
G1X54706Y17843D1*
G2X54502Y17632I144J-343D1*
G37*
G36*
G1X25116Y17859D2*
G1X23984Y17859D1*
G2X23984Y18141I-184J141D1*
G1X25116Y18141D1*
G2X25116Y17859I184J-141D1*
G37*
G36*
G1X57441Y18806D2*
G1X57441Y18494D1*
G2X57159Y18494I-141J-344D1*
G1X57159Y18806D1*
G2X57441Y18806I141J344D1*
G37*
G36*
G1X31011Y18911D2*
G1X31011Y17889D1*
G1X29989Y17889D1*
G1X29989Y18259D1*
G1X29683Y18259D1*
G2X29209Y18733I-333J141D1*
G1X29209Y20216D1*
G2X29491Y20216I141J184D1*
G1X29491Y18733D1*
G2X29683Y18541I-141J-333D1*
G1X29989Y18541D1*
G1X29989Y18911D1*
G1X31011Y18911D1*
G37*
G36*
G1X33661Y18911D2*
G1X33661Y17889D1*
G1X32639Y17889D1*
G1X32639Y18259D1*
G1X32283Y18259D1*
G2X32283Y18541I-333J141D1*
G1X32639Y18541D1*
G1X32639Y18911D1*
G1X33661Y18911D1*
G37*
G36*
G1X52198Y18632D2*
G2X51994Y18843I-348J-132D1*
G1X52209Y19058D1*
G1X52209Y19239D1*
G3X52138Y19265I-40J0D1*
G2X52138Y19735I-288J235D1*
G3X52209Y19761I31J26D1*
G1X52209Y20239D1*
G3X52138Y20265I-40J0D1*
G2X52138Y20735I-288J235D1*
G3X52209Y20761I31J26D1*
G1X52209Y21239D1*
G3X52138Y21265I-40J0D1*
G2X52138Y21735I-288J235D1*
G3X52209Y21761I31J26D1*
G1X52209Y21942D1*
G1X51994Y22157D1*
G2X52198Y22368I-144J343D1*
G1X52193Y22356D1*
G1X52491Y22058D1*
G1X52491Y18942D1*
G1X52193Y18644D1*
G1X52198Y18632D1*
G37*
G36*
G1X15594Y19211D2*
G1X15594Y19890D1*
G2X15594Y20510I206J310D1*
G1X15594Y20669D1*
G1X15479Y20669D1*
G1X15479Y21331D1*
G1X16141Y21331D1*
G1X16141Y20669D1*
G1X16006Y20669D1*
G1X16006Y20510D1*
G2X16006Y19890I-206J-310D1*
G1X16006Y19211D1*
G1X16311Y19211D1*
G1X16311Y18189D1*
G1X15289Y18189D1*
G1X15289Y19211D1*
G1X15594Y19211D1*
G37*
G36*
G1X47716Y18359D2*
G1X47284Y18359D1*
G2X47284Y18641I-184J141D1*
G1X47716Y18641D1*
G2X47716Y18359I184J-141D1*
G37*
G36*
G1X60441Y19806D2*
G1X60441Y19494D1*
G2X60159Y19494I-141J-344D1*
G1X60159Y19806D1*
G2X60159Y20494I141J344D1*
G1X60159Y20806D1*
G2X60441Y20806I141J344D1*
G1X60441Y20494D1*
G2X60441Y19806I-141J-344D1*
G37*
G36*
G1X48316Y19059D2*
G1X47284Y19059D1*
G2X47284Y19341I-184J141D1*
G1X48316Y19341D1*
G2X48316Y19059I184J-141D1*
G37*
G36*
G1X36569Y19259D2*
G1X36144Y19259D1*
G2X36144Y19541I-344J141D1*
G1X36569Y19541D1*
G1X36569Y19731D1*
G1X37231Y19731D1*
G1X37231Y19069D1*
G1X36569Y19069D1*
G1X36569Y19259D1*
G37*
G36*
G1X59255Y19819D2*
G3X59225Y19753I0J-40D1*
G2X58893Y19770I-174J-153D1*
G1X58899Y19776D1*
G1X58899Y19819D1*
G1X58709Y19819D1*
G1X58709Y20481D1*
G1X59371Y20481D1*
G1X59371Y19819D1*
G1X59255Y19819D1*
G37*
G36*
G1X48316Y19659D2*
G1X47284Y19659D1*
G2X47284Y19941I-184J141D1*
G1X48316Y19941D1*
G2X48316Y19659I184J-141D1*
G37*
G36*
G1X57869Y20009D2*
G1X57644Y20009D1*
G2X57644Y20291I-344J141D1*
G1X57869Y20291D1*
G1X57869Y20481D1*
G1X58531Y20481D1*
G1X58531Y19819D1*
G1X57869Y19819D1*
G1X57869Y20009D1*
G37*
G36*
G1X18069Y20059D2*
G1X17144Y20059D1*
G2X17144Y20341I-344J141D1*
G1X18069Y20341D1*
G1X18069Y20531D1*
G1X18731Y20531D1*
G1X18731Y19869D1*
G1X18069Y19869D1*
G1X18069Y20059D1*
G37*
G36*
G1X19571Y20059D2*
G1X19571Y19869D1*
G1X18909Y19869D1*
G1X18909Y20531D1*
G1X19571Y20531D1*
G1X19571Y20341D1*
G1X19829Y20341D1*
G1X19829Y20531D1*
G1X20491Y20531D1*
G1X20491Y19869D1*
G1X19829Y19869D1*
G1X19829Y20059D1*
G1X19571Y20059D1*
G37*
G36*
G1X25069Y20471D2*
G1X25070Y20481D1*
G1X24709Y20842D1*
G1X24709Y21966D1*
G2X24991Y21966I141J184D1*
G1X24991Y20958D1*
G1X25269Y20680D1*
G1X25279Y20681D1*
G2X25069Y20471I21J-231D1*
G37*
G36*
G1X49691Y20916D2*
G1X49691Y20684D1*
G2X49409Y20684I-141J-184D1*
G1X49409Y20916D1*
G2X49691Y20916I141J184D1*
G37*
G36*
G1X44709Y21041D2*
G1X44709Y21258D1*
G1X45629Y22178D1*
G1X45629Y22721D1*
G1X45859Y22721D1*
G1X45859Y22838D1*
G1X45971Y22951D1*
G3X45943Y23019I-28J28D1*
G1X45829Y23019D1*
G1X45829Y23681D1*
G1X46019Y23681D1*
G1X46019Y24019D1*
G1X45829Y24019D1*
G1X45829Y24681D1*
G1X46373Y24681D1*
G3X46401Y24749I0J40D1*
G1X46369Y24782D1*
G1X46369Y25102D1*
G3X46297Y25126I-40J0D1*
G2X45656Y25209I-297J224D1*
G1X45231Y25209D1*
G1X45231Y25019D1*
G1X45041Y25019D1*
G1X45041Y24621D1*
G1X45231Y24621D1*
G1X45231Y23959D1*
G1X44569Y23959D1*
G1X44569Y24621D1*
G1X44759Y24621D1*
G1X44759Y25019D1*
G1X44569Y25019D1*
G1X44569Y25681D1*
G1X45231Y25681D1*
G1X45231Y25491D1*
G1X45656Y25491D1*
G2X46216Y25653I344J-141D1*
G3X46279Y25689I23J33D1*
G2X46742Y25701I231J21D1*
G3X46803Y25666I40J-1D1*
G2X47209Y25658I197J-316D1*
G3X47271Y25685I22J33D1*
G2X47359Y25834I229J-35D1*
G1X47359Y25938D1*
G1X47712Y26291D1*
G1X47829Y26291D1*
G1X47829Y26481D1*
G1X48491Y26481D1*
G1X48491Y25819D1*
G1X47829Y25819D1*
G1X47829Y25913D1*
G3X47761Y25941I-40J0D1*
G1X47649Y25829D1*
G1X47663Y25815D1*
G2X47729Y25685I-163J-165D1*
G3X47791Y25658I40J6D1*
G2X47630Y25389I209J-308D1*
G3X47577Y25431I-40J4D1*
G2X47423Y25431I-77J219D1*
G3X47370Y25389I-13J-38D1*
G2X46721Y25104I-370J-39D1*
G3X46651Y25077I-30J-26D1*
G1X46651Y24898D1*
G1X46868Y24681D1*
G1X47331Y24681D1*
G1X47331Y24019D1*
G1X47141Y24019D1*
G1X47141Y23681D1*
G1X47331Y23681D1*
G1X47331Y23019D1*
G1X47141Y23019D1*
G1X47141Y22694D1*
G2X46859Y22694I-141J-344D1*
G1X46859Y23019D1*
G1X46669Y23019D1*
G1X46669Y23681D1*
G1X46859Y23681D1*
G1X46859Y24019D1*
G1X46669Y24019D1*
G1X46669Y24482D1*
G1X46559Y24591D1*
G3X46491Y24563I-28J-28D1*
G1X46491Y24019D1*
G1X46301Y24019D1*
G1X46301Y23681D1*
G1X46491Y23681D1*
G1X46491Y23019D1*
G1X46301Y23019D1*
G1X46301Y22882D1*
G1X46209Y22789D1*
G3X46237Y22721I28J-28D1*
G1X46371Y22721D1*
G1X46371Y21979D1*
G1X45828Y21979D1*
G1X44991Y21142D1*
G1X44991Y21041D1*
G1X45191Y21041D1*
G1X45191Y20359D1*
G1X44509Y20359D1*
G1X44509Y21041D1*
G1X44709Y21041D1*
G37*
G36*
G1X43171Y20881D2*
G1X43181Y20880D1*
G1X43620Y21319D1*
G1X43619Y21329D1*
G2X43829Y21119I231J21D1*
G1X43819Y21120D1*
G1X43380Y20681D1*
G1X43381Y20671D1*
G2X43171Y20881I-231J-21D1*
G37*
G36*
G1X55791Y21116D2*
G1X55791Y20834D1*
G2X55509Y20834I-141J-184D1*
G1X55509Y21116D1*
G2X55791Y21116I141J184D1*
G37*
G36*
G1X24291Y21966D2*
G1X24291Y21134D1*
G2X24009Y21134I-141J-184D1*
G1X24009Y21966D1*
G2X24291Y21966I141J184D1*
G37*
G36*
G1X50741Y21666D2*
G1X50741Y21284D1*
G2X50459Y21284I-141J-184D1*
G1X50459Y21666D1*
G2X50741Y21666I141J184D1*
G37*
G36*
G1X52941Y21666D2*
G1X52941Y21334D1*
G2X52659Y21334I-141J-184D1*
G1X52659Y21666D1*
G2X52941Y21666I141J184D1*
G37*
G36*
G1X48341Y21781D2*
G1X48341Y21119D1*
G1X47679Y21119D1*
G1X47679Y21781D1*
G1X47869Y21781D1*
G1X47869Y21852D1*
G1X47859Y21862D1*
G1X47859Y22006D1*
G2X47859Y22694I141J344D1*
G1X47859Y23019D1*
G1X47669Y23019D1*
G1X47669Y23681D1*
G1X48331Y23681D1*
G1X48331Y23019D1*
G1X48141Y23019D1*
G1X48141Y22694D1*
G2X48153Y22011I-141J-344D1*
G1X48141Y22006D1*
G1X48141Y21978D1*
G1X48151Y21968D1*
G1X48151Y21781D1*
G1X48341Y21781D1*
G37*
G36*
G1X44471Y22181D2*
G1X44481Y22180D1*
G1X44920Y22619D1*
G1X44919Y22629D1*
G2X45129Y22419I231J21D1*
G1X45119Y22420D1*
G1X44680Y21981D1*
G1X44681Y21971D1*
G2X44471Y22181I-231J-21D1*
G37*
G36*
G1X38668Y22052D2*
G1X38656Y22057D1*
G1X38598Y21999D1*
G1X38081Y21999D1*
G1X38081Y21809D1*
G1X37419Y21809D1*
G1X37419Y21999D1*
G1X37231Y21999D1*
G1X37231Y21809D1*
G1X36569Y21809D1*
G1X36569Y22471D1*
G1X37231Y22471D1*
G1X37231Y22281D1*
G1X37419Y22281D1*
G1X37419Y22471D1*
G1X38081Y22471D1*
G1X38081Y22281D1*
G1X38396Y22281D1*
G3X38435Y22329I0J40D1*
G2X38668Y22052I365J71D1*
G37*
G36*
G1X37449Y24952D2*
G1X36409Y25992D1*
G2X36613Y26203I-159J358D1*
G1X36609Y26191D1*
G1X37731Y25068D1*
G1X37731Y24284D1*
G2X37449Y24284I-141J-184D1*
G1X37449Y24952D1*
G37*
G36*
G1X38441Y25016D2*
G1X38441Y24584D1*
G2X38159Y24584I-141J-184D1*
G1X38159Y25016D1*
G2X38441Y25016I141J184D1*
G37*
G36*
G1X50561Y25861D2*
G1X50561Y24839D1*
G1X49539Y24839D1*
G1X49539Y25209D1*
G1X49344Y25209D1*
G2X48859Y25694I-344J141D1*
G1X48859Y25819D1*
G1X48669Y25819D1*
G1X48669Y26481D1*
G1X49331Y26481D1*
G1X49331Y25819D1*
G1X49141Y25819D1*
G1X49141Y25694D1*
G2X49344Y25491I-141J-344D1*
G1X49539Y25491D1*
G1X49539Y25861D1*
G1X50561Y25861D1*
G37*
G36*
G1X19519Y27719D2*
G1X19468Y27719D1*
G1X19106Y27357D1*
G1X19106Y26644D1*
G1X18194Y26644D1*
G1X18194Y27556D1*
G1X18907Y27556D1*
G1X19352Y28001D1*
G1X19519Y28001D1*
G1X19519Y28191D1*
G1X20181Y28191D1*
G1X20181Y28001D1*
G1X20448Y28001D1*
G1X21091Y27358D1*
G1X21091Y26428D1*
G2X20809Y26428I-141J-328D1*
G1X20809Y27242D1*
G1X20332Y27719D1*
G1X20181Y27719D1*
G1X20181Y27529D1*
G1X19519Y27529D1*
G1X19519Y27719D1*
G37*
G36*
G1X32784Y26491D2*
G1X34884Y26491D1*
G2X34884Y26209I366J-141D1*
G1X32784Y26209D1*
G2X32784Y26491I-184J141D1*
G37*
G36*
G1X5469Y26952D2*
G1X5469Y26982D1*
G1X5457Y26987D1*
G2X5751Y26982I153J323D1*
G1X5751Y26836D1*
G1X5741Y26826D1*
G1X5741Y26741D1*
G1X5931Y26741D1*
G1X5931Y26079D1*
G1X5269Y26079D1*
G1X5269Y26741D1*
G1X5459Y26741D1*
G1X5459Y26942D1*
G1X5469Y26952D1*
G37*
G36*
G1X6771Y26741D2*
G1X6771Y26079D1*
G1X6109Y26079D1*
G1X6109Y26741D1*
G1X6299Y26741D1*
G1X6299Y26916D1*
G2X6581Y26916I141J184D1*
G1X6581Y26741D1*
G1X6771Y26741D1*
G37*
G36*
G1X27241Y27029D2*
G1X27241Y26884D1*
G2X26959Y26884I-141J-184D1*
G1X26959Y27029D1*
G1X26769Y27029D1*
G1X26769Y27691D1*
G1X27431Y27691D1*
G1X27431Y27029D1*
G1X27241Y27029D1*
G37*
G36*
G1X43391Y28566D2*
G1X43391Y26934D1*
G2X43109Y26934I-141J-184D1*
G1X43109Y28566D1*
G2X43391Y28566I141J184D1*
G37*
G36*
G1X7081Y28382D2*
G2X6799Y28373I-131J-332D1*
G1X6799Y28519D1*
G1X6609Y28519D1*
G1X6609Y29181D1*
G1X7271Y29181D1*
G1X7271Y28519D1*
G1X7081Y28519D1*
G1X7081Y28382D1*
G37*
G36*
G1X45351Y28388D2*
G1X45351Y28144D1*
G2X45069Y28144I-141J-184D1*
G1X45069Y28272D1*
G1X45059Y28282D1*
G1X45059Y30166D1*
G2X45341Y30166I141J184D1*
G1X45341Y28398D1*
G1X45351Y28388D1*
G37*
G36*
G1X38091Y28861D2*
G1X38091Y27839D1*
G1X37069Y27839D1*
G1X37069Y28209D1*
G1X36616Y28209D1*
G2X36616Y28491I-366J141D1*
G1X37069Y28491D1*
G1X37069Y28861D1*
G1X37439Y28861D1*
G1X37439Y28966D1*
G2X37721Y28966I141J184D1*
G1X37721Y28861D1*
G1X38091Y28861D1*
G37*
G36*
G1X40491Y30574D2*
G3X40509Y30641I-10J39D1*
G1X40209Y30941D1*
G1X40197Y30937D1*
G2X40413Y31153I-147J363D1*
G1X40409Y31141D1*
G1X40885Y30664D1*
G1X40899Y30676D1*
G2X40878Y30344I151J-176D1*
G1X40783Y30344D1*
G1X40781Y30326D1*
G2X40691Y30166I-231J24D1*
G1X40691Y28834D1*
G2X40759Y28549I-141J-184D1*
G3X40795Y28491I36J-18D1*
G1X41116Y28491D1*
G2X41116Y28209I184J-141D1*
G1X39411Y28209D1*
G1X39411Y27839D1*
G1X38389Y27839D1*
G1X38389Y28861D1*
G1X39411Y28861D1*
G1X39411Y28491D1*
G1X40305Y28491D1*
G3X40341Y28549I0J40D1*
G2X40409Y28834I209J101D1*
G1X40409Y30166D1*
G2X40491Y30574I141J184D1*
G37*
G36*
G1X20809Y29258D2*
G1X20809Y29772D1*
G2X21091Y29772I141J328D1*
G1X21091Y29142D1*
G1X20508Y28559D1*
G1X20181Y28559D1*
G1X20181Y28369D1*
G1X19519Y28369D1*
G1X19519Y28559D1*
G1X18992Y28559D1*
G1X18858Y28693D1*
G2X19057Y28892I-208J407D1*
G1X19108Y28841D1*
G1X19519Y28841D1*
G1X19519Y29031D1*
G1X20181Y29031D1*
G1X20181Y28841D1*
G1X20392Y28841D1*
G1X20809Y29258D1*
G37*
G36*
G1X47491Y30572D2*
G1X47491Y28884D1*
G2X47209Y28884I-141J-184D1*
G1X47209Y30572D1*
G2X47491Y30572I141J328D1*
G37*
G36*
G1X49691Y29966D2*
G1X49691Y28934D1*
G2X49409Y28934I-141J-184D1*
G1X49409Y29966D1*
G2X49691Y29966I141J184D1*
G37*
G36*
G1X50241Y29766D2*
G1X50241Y28934D1*
G2X49959Y28934I-141J-184D1*
G1X49959Y29766D1*
G2X50241Y29766I141J184D1*
G37*
G36*
G1X50791Y29566D2*
G1X50791Y28934D1*
G2X50509Y28934I-141J-184D1*
G1X50509Y29566D1*
G2X50791Y29566I141J184D1*
G37*
G36*
G1X30959Y29991D2*
G1X30959Y30258D1*
G1X31241Y30541D1*
G1X31237Y30553D1*
G2X31441Y30342I363J147D1*
G1X31241Y30142D1*
G1X31241Y29991D1*
G3X31311Y29964I40J0D1*
G2X31311Y29436I289J-264D1*
G3X31241Y29409I-30J-27D1*
G1X31241Y29384D1*
G1X31248Y29378D1*
G2X31282Y29056I-148J-178D1*
G3X31313Y28991I31J-25D1*
G1X32766Y28991D1*
G2X32766Y28709I184J-141D1*
G1X30334Y28709D1*
G2X30334Y28991I-184J141D1*
G1X30887Y28991D1*
G3X30918Y29056I0J40D1*
G2X30952Y29378I182J144D1*
G1X30959Y29384D1*
G1X30959Y29409D1*
G3X30889Y29436I-40J0D1*
G2X30889Y29964I-289J264D1*
G3X30959Y29991I30J27D1*
G37*
G36*
G1X32741Y31619D2*
G1X32741Y31066D1*
G2X32459Y31066I-141J-366D1*
G1X32459Y31619D1*
G1X32269Y31619D1*
G1X32269Y32281D1*
G1X32931Y32281D1*
G1X32931Y31619D1*
G1X32741Y31619D1*
G37*
G36*
G1X1741Y31235D2*
G2X1459Y31235I-141J-435D1*
G1X1459Y31519D1*
G1X1269Y31519D1*
G1X1269Y32181D1*
G1X1931Y32181D1*
G1X1931Y31519D1*
G1X1741Y31519D1*
G1X1741Y31235D1*
G37*
G36*
G1X44681Y33169D2*
G1X44681Y32116D1*
G2X44399Y32131I-151J-176D1*
G1X44399Y33169D1*
G1X44209Y33169D1*
G1X44209Y33831D1*
G1X44871Y33831D1*
G1X44871Y33169D1*
G1X44681Y33169D1*
G37*
G36*
G1X38294Y32684D2*
G3X38284Y32614I14J-38D1*
G2X38003Y32689I-234J-314D1*
G3X38030Y32754I-4J40D1*
G2X38028Y33044I180J146D1*
G3X37997Y33109I-31J25D1*
G1X37879Y33109D1*
G1X37879Y33771D1*
G1X38541Y33771D1*
G1X38541Y33109D1*
G1X38423Y33109D1*
G3X38392Y33044I0J-40D1*
G2X38294Y32684I-182J-144D1*
G37*
G36*
G1X39191Y32666D2*
G2X38909Y32666I-141J-366D1*
G1X38909Y33109D1*
G1X38719Y33109D1*
G1X38719Y33771D1*
G1X39381Y33771D1*
G1X39381Y33109D1*
G1X39191Y33109D1*
G1X39191Y32666D1*
G37*
G36*
G1X41203Y32661D2*
G2X40909Y32666I-153J-361D1*
G1X40909Y32808D1*
G1X40919Y32818D1*
G1X40919Y32999D1*
G1X40549Y32999D1*
G1X40549Y34021D1*
G1X41571Y34021D1*
G1X41571Y32999D1*
G1X41201Y32999D1*
G1X41201Y32702D1*
G1X41191Y32692D1*
G1X41191Y32666D1*
G1X41203Y32661D1*
G37*
G36*
G1X42891Y33369D2*
G1X42891Y32999D1*
G1X41869Y32999D1*
G1X41869Y34021D1*
G1X42891Y34021D1*
G1X42891Y33651D1*
G1X43369Y33651D1*
G1X43369Y33831D1*
G1X44031Y33831D1*
G1X44031Y33169D1*
G1X43369Y33169D1*
G1X43369Y33359D1*
G1X43252Y33359D1*
G1X43242Y33369D1*
G1X42891Y33369D1*
G37*
G36*
G1X28541Y29561D2*
G2X28259Y29561I-141J-301D1*
G1X28259Y30399D1*
G2X28541Y30399I141J301D1*
G1X28541Y29561D1*
G37*
G36*
G1X31978Y15219D2*
G1X31368Y14609D1*
G1X28691Y14609D1*
G2X28621Y14512I-300J143D1*
G1X28621Y12808D1*
G2X28159Y12808I-231J-238D1*
G1X28159Y14512D1*
G2X28691Y14891I231J238D1*
G1X29369Y14891D1*
G1X29369Y15249D1*
G1X29179Y15249D1*
G1X29179Y15911D1*
G1X29841Y15911D1*
G1X29841Y15249D1*
G1X29651Y15249D1*
G1X29651Y14891D1*
G1X31252Y14891D1*
G1X31779Y15418D1*
G1X31779Y15881D1*
G1X32441Y15881D1*
G1X32441Y15219D1*
G1X31978Y15219D1*
G37*
G36*
G1X27841Y14296D2*
G1X27841Y11704D1*
G2X27559Y11704I-141J-184D1*
G1X27559Y14296D1*
G2X27841Y14296I141J184D1*
G37*
G36*
G1X18691Y14466D2*
G1X18691Y11614D1*
G2X18409Y11614I-141J-184D1*
G1X18409Y14466D1*
G2X18691Y14466I141J184D1*
G37*
G74*
G54D106*
G1X13510Y33000D3*
G1X4810Y33000D3*
G54D108*
G1X12650Y28100D3*
G1X2600Y24800D3*
G1X2650Y7700D3*
G54D34*
G1X50050Y24030D3*
G1X33150Y19720D3*
G1X30500Y19720D3*
G1X17120Y18700D3*
G1X2970Y12200D3*
G54D107*
G1X11950Y33000D3*
G1X3250Y33000D3*
G54D35*
G1X47700Y32260D3*
G1X46400Y8500D3*
G1X43700Y32260D3*
G1X43350Y30900D3*
G1X33300Y8800D3*
G1X15950Y31050D3*
G1X11950Y31050D3*
G1X6950Y32050D3*
G1X6150Y21000D3*
G1X6150Y17000D3*
G1X5610Y31310D3*
G1X950Y15350D3*
G54D102*
G1X41250Y27350D3*
G1X42350Y20700D3*
G1X40250Y25350D3*
G1X26200Y32800D3*
G1X24200Y30800D3*
G1X23200Y32800D3*
G1X14600Y7800D3*
G1X9400Y30800D3*
G54D105*
G1X18650Y28100D3*
G1X2600Y30800D3*
G1X2650Y13700D3*
G54D97*
G1X60300Y23150D3*
G1X60300Y22150D3*
G1X60300Y18150D3*
G1X58200Y8150D3*
G1X58200Y7150D3*
G1X58200Y3150D3*
G1X57300Y23150D3*
G1X57300Y21150D3*
G1X57300Y22150D3*
G1X55200Y6150D3*
G1X55200Y4150D3*
G1X55200Y2150D3*
G1X51850Y17500D3*
G1X49000Y22350D3*
G1X38800Y21400D3*
G1X38800Y19400D3*
G1X38800Y17400D3*
G1X35800Y20400D3*
G1X35800Y18400D3*
G1X35800Y16400D3*
G1X31800Y8800D3*
G1X31800Y7800D3*
G1X31800Y6800D3*
G1X31800Y5800D3*
G1X31800Y4800D3*
G1X31800Y3800D3*
G1X28800Y7800D3*
G1X28800Y3800D3*
G1X23000Y8550D3*
G1X23000Y7550D3*
G1X23000Y6550D3*
G1X23000Y5550D3*
G1X23000Y4550D3*
G1X23000Y3550D3*
G1X20000Y7550D3*
G1X20000Y8550D3*
G1X20000Y6550D3*
G1X20000Y5550D3*
G1X20000Y3550D3*
G1X20000Y4550D3*
G1X16800Y17200D3*
G1X15800Y17200D3*
G1X14800Y20200D3*
G1X14800Y17200D3*
G1X13800Y20200D3*
G1X12200Y8800D3*
G1X12200Y7800D3*
G1X12200Y6800D3*
G1X12200Y5800D3*
G1X12200Y4800D3*
G1X12200Y3800D3*
G1X12200Y2800D3*
G1X9200Y8800D3*
G1X9200Y7800D3*
G1X9200Y6800D3*
G1X9200Y4800D3*
G1X9200Y5800D3*
G1X9200Y3800D3*
G1X9200Y2800D3*
G54D109*
G1X3600Y30800D3*
G1X3650Y13700D3*
G54D101*
G1X43900Y25350D3*
G1X23000Y24200D3*
G1X21600Y33400D3*
G1X22000Y25200D3*
G1X20600Y32400D3*
G1X15200Y5050D3*
G1X14200Y4050D3*
G1X15200Y2450D3*
G1X14200Y1450D3*
G54D36*
G1X49400Y2200D3*
G1X48400Y2200D3*
G1X48400Y3200D3*
G1X47400Y2200D3*
G1X47400Y3200D3*
G1X45400Y2200D3*
G1X46400Y2200D3*
G1X44400Y2200D3*
G1X41400Y2200D3*
G1X42400Y2200D3*
G1X41400Y3200D3*
G1X42400Y3200D3*
G1X40400Y2200D3*
G1X39400Y2200D3*
G1X38400Y2200D3*
G1X37400Y2200D3*
G1X18550Y5600D3*
G1X18550Y2600D3*
G1X16550Y5600D3*
G1X16550Y2600D3*
G54D98*
G1X60300Y17150D3*
G1X51850Y23500D3*
G1X35800Y22400D3*
G1X13800Y17200D3*
G1X9200Y9800D3*
G54D30*
G1X57800Y29050D3*
G1X56800Y30050D3*
G1X56800Y29050D3*
G1X55800Y30050D3*
G1X55800Y29050D3*
G1X54800Y30050D3*
G1X42050Y31300D3*
G1X40050Y32300D3*
G1X41050Y31300D3*
G1X40900Y20400D3*
G1X40900Y18400D3*
G1X39050Y31300D3*
G1X38050Y31300D3*
G1X36250Y27350D3*
G1X36250Y25350D3*
G1X35250Y28350D3*
G1X35250Y27350D3*
G1X35250Y25350D3*
G1X35250Y24350D3*
G1X33600Y29700D3*
G1X32600Y29700D3*
G1X30600Y30700D3*
G1X29600Y30700D3*
G1X29600Y29700D3*
G1X21600Y31200D3*
G1X16800Y15000D3*
G1X15800Y15000D3*
G54D104*
G1X23600Y17200D3*
G1X3960Y19220D3*
G54D32*
G1X59150Y17150D3*
G1X53000Y23500D3*
G1X48840Y23350D3*
G1X48850Y21450D3*
G1X44900Y23450D3*
G1X37740Y19400D3*
G1X33440Y31950D3*
G1X22000Y23200D3*
G1X21000Y20200D3*
G1X21110Y1550D3*
G1X19600Y33400D3*
G1X19500Y15550D3*
G1X16650Y21000D3*
G1X13200Y5050D3*
G1X13200Y2450D3*
G1X11250Y10640D3*
G1X6100Y28850D3*
G1X4950Y13710D3*
G1X760Y31850D3*
G1X30740Y2800D3*
G54D99*
G1X49400Y3200D3*
G1X43400Y2200D3*
G54D110*
G1X18250Y23500D3*
G1X7650Y23500D3*
G54D100*
G1X45000Y17700D3*
G1X42250Y25350D3*
G1X32950Y21400D3*
G1X30350Y21400D3*
G1X26200Y27800D3*
G1X23200Y27800D3*
G1X14600Y10300D3*
G1X9400Y28300D3*
G54D31*
G1X63370Y30070D3*
G1X57800Y30050D3*
G1X42050Y32300D3*
G1X36250Y24350D3*
G1X34570Y22390D3*
G1X34590Y17410D3*
G1X33600Y30700D3*
G1X20600Y31200D3*
G1X18500Y15400D3*
G1X7000Y1200D3*
G54D103*
G1X23600Y20200D3*
G1X1960Y19220D3*
%LPD*%
G36*
G1X9850Y22100D2*
G1X9850Y24900D1*
G1X5450Y24900D1*
G1X5450Y22100D1*
G1X9850Y22100D1*
G37*
G36*
G1X20450Y22100D2*
G1X20450Y24900D1*
G1X16050Y24900D1*
G1X16050Y22100D1*
G1X20450Y22100D1*
G37*
G1X4950Y14550D2*
G54D10*
G1X4950Y15350D1*
G1X15800Y18700D2*
G1X15800Y20200D1*
G1X15800Y20990D1*
G1X25650Y2150D2*
G1X25650Y9540D1*
G1X25650Y14580D2*
G1X25650Y11300D1*
G1X26700Y31950D2*
G1X27700Y31950D1*
G1X1000Y1000D3*
G1X1000Y34000D3*
G1X64000Y1000D3*
G1X64000Y34000D3*
G54D90*
G1X3960Y19220D3*
G1X23600Y17200D3*
G1X28390Y12570D2*
G54D23*
G1X28390Y14750D1*
G1X28400Y20030D2*
G1X28400Y18800D1*
G1X47400Y13750D2*
G1X47400Y15700D1*
G1X56800Y25500D2*
G1X56800Y24350D1*
G1X55950Y23500D1*
G1X54850Y23500D1*
G1X63800Y13700D2*
G1X62100Y13700D1*
G1X1400Y7000D3*
G1X1400Y7600D3*
G1X1400Y8200D3*
G1X1400Y8800D3*
G1X1400Y9400D3*
G1X3200Y9400D3*
G1X3200Y8800D3*
G1X2600Y9400D3*
G1X2600Y8800D3*
G1X2000Y9400D3*
G1X2000Y8800D3*
G1X3800Y7000D3*
G1X3800Y7600D3*
G1X3800Y8200D3*
G1X3800Y8800D3*
G1X3800Y9400D3*
G1X7300Y26650D3*
G1X6440Y27100D3*
G1X8800Y12450D3*
G1X8800Y14650D3*
G1X10000Y18800D3*
G1X10000Y21200D3*
G1X11200Y18800D3*
G1X11200Y19400D3*
G1X11200Y20600D3*
G1X11200Y20000D3*
G1X11200Y21200D3*
G1X17000Y16200D3*
G1X18550Y11430D3*
G1X18550Y14650D3*
G1X23800Y18000D3*
G1X24150Y20950D3*
G1X24150Y22150D3*
G1X24850Y22150D3*
G1X25300Y18000D3*
G1X25300Y20450D3*
G1X26050Y26700D3*
G1X27150Y5400D3*
G1X27150Y7400D3*
G1X27150Y9400D3*
G1X27100Y11520D3*
G1X27100Y14480D3*
G1X26750Y17050D3*
G1X27100Y26700D3*
G1X26700Y31950D3*
G1X27800Y2800D3*
G1X27800Y4000D3*
G1X27700Y11520D3*
G1X27700Y14480D3*
G1X28850Y17050D3*
G1X27700Y18880D3*
G1X27700Y19950D3*
G1X27700Y29300D3*
G1X27700Y31950D3*
G1X29550Y8800D3*
G1X29350Y20400D3*
G1X30150Y28850D3*
G1X30800Y8600D3*
G1X31100Y9950D3*
G1X30500Y9950D3*
G1X31100Y29200D3*
G1X32600Y26350D3*
G1X32950Y28850D3*
G1X34150Y3800D3*
G1X34150Y4650D3*
G1X33300Y7950D3*
G1X33800Y9950D3*
G1X34150Y11400D3*
G1X33600Y11520D3*
G1X34150Y14550D3*
G1X33600Y15050D3*
G1X35400Y600D3*
G1X35400Y2000D3*
G1X35400Y3950D3*
G1X35400Y6100D3*
G1X34500Y9950D3*
G1X36200Y3900D3*
G1X36200Y7900D3*
G1X36900Y15050D3*
G1X38400Y6100D3*
G1X37400Y8300D3*
G1X37590Y24100D3*
G1X38300Y24400D3*
G1X38300Y25200D3*
G1X37580Y29150D3*
G1X38210Y32900D3*
G1X39400Y7450D3*
G1X40400Y5800D3*
G1X40550Y28650D3*
G1X40550Y30350D3*
G1X41050Y30500D3*
G1X41750Y14550D3*
G1X41750Y16750D3*
G1X41300Y28350D3*
G1X43400Y5850D3*
G1X43000Y15450D3*
G1X43150Y20650D3*
G1X43850Y21350D3*
G1X43250Y26750D3*
G1X43250Y28750D3*
G1X44400Y5850D3*
G1X45000Y11500D3*
G1X44450Y21950D3*
G1X45150Y22650D3*
G1X45210Y27960D3*
G1X45200Y30350D3*
G1X44530Y31940D3*
G1X45400Y5850D3*
G1X46400Y11500D3*
G1X46400Y15350D3*
G1X46510Y25710D3*
G1X46900Y1700D3*
G1X46950Y3900D3*
G1X46950Y7000D3*
G1X46950Y6200D3*
G1X46950Y7600D3*
G1X47400Y15700D3*
G1X47100Y19200D3*
G1X47900Y18500D3*
G1X47100Y18500D3*
G1X47100Y19800D3*
G1X47500Y25650D3*
G1X47350Y28700D3*
G1X48900Y3900D3*
G1X48100Y7000D3*
G1X48100Y6200D3*
G1X48100Y7600D3*
G1X48400Y11500D3*
G1X48400Y14850D3*
G1X48500Y19200D3*
G1X48500Y19800D3*
G1X50100Y4350D3*
G1X49550Y20500D3*
G1X50600Y21850D3*
G1X50600Y21100D3*
G1X49550Y21100D3*
G1X50650Y28750D3*
G1X50100Y28750D3*
G1X49550Y28750D3*
G1X50650Y29750D3*
G1X50100Y29950D3*
G1X49550Y30150D3*
G1X52700Y3150D3*
G1X52650Y5200D3*
G1X52750Y7150D3*
G1X52800Y21850D3*
G1X52800Y21150D3*
G1X52600Y29500D3*
G1X54450Y11500D3*
G1X54450Y14500D3*
G1X53800Y15150D3*
G1X53800Y15850D3*
G1X55850Y5650D3*
G1X55800Y7300D3*
G1X55800Y8000D3*
G1X54850Y9700D3*
G1X55550Y11500D3*
G1X56100Y12900D3*
G1X55550Y14500D3*
G1X55000Y14500D3*
G1X56100Y14500D3*
G1X55650Y20650D3*
G1X55650Y21300D3*
G1X55500Y24000D3*
G1X55500Y24600D3*
G1X56650Y5650D3*
G1X57300Y5950D3*
G1X57300Y8650D3*
G1X57300Y10900D3*
G1X56600Y15150D3*
G1X56600Y15850D3*
G1X56800Y25500D3*
G1X57750Y9700D3*
G1X57750Y12450D3*
G1X57750Y15300D3*
G1X59050Y19600D3*
G1X60750Y4150D3*
G1X60750Y5150D3*
G1X60750Y6150D3*
G54D18*
G1X1650Y12200D3*
G1X2970Y12200D3*
G1X14800Y16200D3*
G1X16120Y16200D3*
G1X15800Y18700D3*
G1X17120Y18700D3*
G1X30500Y18400D3*
G1X30500Y19720D3*
G1X33150Y18400D3*
G1X33150Y19720D3*
G1X37580Y28350D3*
G1X38900Y28350D3*
G1X41060Y33510D3*
G1X42380Y33510D3*
G1X50050Y24030D3*
G1X50050Y25350D3*
G54D16*
G1X15800Y15000D3*
G1X16800Y15000D3*
G1X18500Y16400D3*
G1X21600Y31200D3*
G1X29600Y29700D3*
G1X29600Y30700D3*
G1X31600Y29700D3*
G1X30600Y29700D3*
G1X31600Y30700D3*
G1X30600Y30700D3*
G1X32600Y29700D3*
G1X32600Y30700D3*
G1X33600Y29700D3*
G1X35250Y24350D3*
G1X35250Y25350D3*
G1X35250Y26350D3*
G1X35250Y27350D3*
G1X35250Y28350D3*
G1X36250Y25350D3*
G1X36250Y26350D3*
G1X36250Y27350D3*
G1X36250Y28350D3*
G1X38050Y31300D3*
G1X38050Y32300D3*
G1X39050Y31300D3*
G1X39050Y32300D3*
G1X40900Y18400D3*
G1X40900Y20400D3*
G1X41050Y31300D3*
G1X40050Y31300D3*
G1X41050Y32300D3*
G1X40050Y32300D3*
G1X42050Y31300D3*
G1X53800Y29050D3*
G1X54800Y29050D3*
G1X54800Y30050D3*
G1X53800Y30050D3*
G1X55800Y29050D3*
G1X55800Y30050D3*
G1X56800Y29050D3*
G1X56800Y30050D3*
G1X57800Y29050D3*
G54D19*
G1X4810Y33000D3*
G1X13510Y33000D3*
G54D96*
G1X40400Y3200D3*
G1X43400Y2200D3*
G1X49400Y3200D3*
G54D85*
G1X1650Y13700D3*
G1X1600Y30800D3*
G1X2650Y13700D3*
G1X2600Y30800D3*
G1X18650Y28100D3*
G1X18650Y29100D3*
G54D91*
G1X6050Y23500D3*
G1X9050Y23500D3*
G1X16850Y23500D3*
G1X19850Y23500D3*
G1X-9845Y650D2*
G54D26*
G1X-9808Y687D1*
G1X-9780Y750D1*
G1X-9761Y838D1*
G1X-9780Y912D1*
G1X-9817Y962D1*
G1X-9883Y1000D1*
G1X-10135Y1000D1*
G1X-10135Y250D1*
G1X-9827Y250D1*
G1X-9761Y300D1*
G1X-9724Y375D1*
G1X-9705Y463D1*
G1X-9724Y550D1*
G1X-9780Y625D1*
G1X-9845Y650D1*
G1X-10135Y650D1*
G1X-9170Y250D2*
G1X-9245Y262D1*
G1X-9310Y312D1*
G1X-9366Y387D1*
G1X-9403Y475D1*
G1X-9422Y575D1*
G1X-9422Y675D1*
G1X-9403Y775D1*
G1X-9366Y863D1*
G1X-9310Y937D1*
G1X-9245Y988D1*
G1X-9170Y1000D1*
G1X-9095Y988D1*
G1X-9030Y937D1*
G1X-8974Y863D1*
G1X-8937Y775D1*
G1X-8918Y675D1*
G1X-8918Y575D1*
G1X-8937Y475D1*
G1X-8974Y387D1*
G1X-9030Y312D1*
G1X-9095Y262D1*
G1X-9170Y250D1*
G1X-8420Y1000D2*
G1X-8420Y250D1*
G1X-8635Y1000D2*
G1X-8205Y1000D1*
G1X-7670Y1000D2*
G1X-7670Y250D1*
G1X-7885Y1000D2*
G1X-7455Y1000D1*
G1X-6920Y250D2*
G1X-6995Y262D1*
G1X-7060Y312D1*
G1X-7116Y387D1*
G1X-7153Y475D1*
G1X-7172Y575D1*
G1X-7172Y675D1*
G1X-7153Y775D1*
G1X-7116Y863D1*
G1X-7060Y937D1*
G1X-6995Y988D1*
G1X-6920Y1000D1*
G1X-6845Y988D1*
G1X-6780Y937D1*
G1X-6724Y863D1*
G1X-6687Y775D1*
G1X-6668Y675D1*
G1X-6668Y575D1*
G1X-6687Y475D1*
G1X-6724Y387D1*
G1X-6780Y312D1*
G1X-6845Y262D1*
G1X-6920Y250D1*
G1X-6413Y250D2*
G1X-6413Y1000D1*
G1X-6170Y375D1*
G1X-5927Y1000D1*
G1X-5927Y250D1*
G54D20*
G1X7000Y1200D3*
G1X14800Y15000D3*
G1X18500Y15400D3*
G1X20600Y31200D3*
G1X33600Y30700D3*
G1X34590Y17410D3*
G1X34570Y22390D3*
G1X36250Y24350D3*
G1X39900Y18400D3*
G1X39900Y20400D3*
G1X42050Y32300D3*
G1X57800Y30050D3*
G1X63370Y30070D3*
G54D24*
G1X950Y15350D3*
G1X4950Y15350D3*
G1X5610Y27310D3*
G1X5610Y31310D3*
G1X6150Y17000D3*
G1X6150Y21000D3*
G1X6950Y28050D3*
G1X6950Y32050D3*
G1X11950Y31050D3*
G1X15950Y31050D3*
G1X20950Y26100D3*
G1X20950Y30100D3*
G1X28800Y1500D3*
G1X32800Y1500D3*
G1X33300Y4800D3*
G1X33300Y8800D3*
G1X43350Y30900D3*
G1X43700Y32260D3*
G1X46400Y4500D3*
G1X46400Y8500D3*
G1X47350Y30900D3*
G1X47700Y32260D3*
G1X1600Y31850D2*
G54D28*
G1X1600Y30800D1*
G1X760Y31499D2*
G1X760Y31850D1*
G1X760Y32201D1*
G1X409Y31850D2*
G1X760Y31850D1*
G1X1111Y31850D1*
G1X2650Y6864D2*
G1X2650Y7700D1*
G1X2650Y8536D1*
G1X1814Y7700D2*
G1X2650Y7700D1*
G1X3486Y7700D1*
G1X2970Y11669D2*
G1X2970Y12200D1*
G1X2970Y12731D1*
G1X2439Y12200D2*
G1X2970Y12200D1*
G1X3501Y12200D1*
G1X2650Y13224D2*
G1X2650Y13700D1*
G1X2650Y14176D1*
G1X2174Y13700D2*
G1X2650Y13700D1*
G1X3126Y13700D1*
G1X3960Y18804D2*
G1X3960Y19220D1*
G1X3960Y19636D1*
G1X3544Y19220D2*
G1X3960Y19220D1*
G1X4376Y19220D1*
G1X4209Y33000D2*
G1X4810Y33000D1*
G1X4950Y13359D2*
G1X4950Y13710D1*
G1X4950Y14061D1*
G1X4599Y13710D2*
G1X4950Y13710D1*
G1X5301Y13710D1*
G1X5600Y26410D2*
G1X5600Y26884D1*
G1X5610Y26894D1*
G1X5610Y27310D1*
G1X5749Y28850D2*
G1X6100Y28850D1*
G1X4810Y32399D2*
G1X4810Y33000D1*
G1X4810Y33601D1*
G1X4810Y33000D2*
G1X5411Y33000D1*
G1X7000Y789D2*
G1X7000Y1200D1*
G1X7000Y1611D1*
G1X6589Y1200D2*
G1X7000Y1200D1*
G1X7411Y1200D1*
G1X6440Y27100D2*
G1X6440Y26410D1*
G1X6100Y28499D2*
G1X6100Y28850D1*
G1X6940Y28850D2*
G1X6940Y28060D1*
G1X6950Y28050D1*
G1X6100Y28850D2*
G1X6100Y29201D1*
G1X6100Y28850D2*
G1X6451Y28850D1*
G1X9200Y2409D2*
G1X9200Y2800D1*
G1X9200Y3191D1*
G1X8809Y2800D2*
G1X9200Y2800D1*
G1X9591Y2800D1*
G1X8800Y14650D2*
G1X8800Y12450D1*
G1X10899Y10640D2*
G1X11250Y10640D1*
G1X12200Y2409D2*
G1X12200Y2800D1*
G1X12200Y3191D1*
G1X11809Y2800D2*
G1X12200Y2800D1*
G1X12591Y2800D1*
G1X12200Y3409D2*
G1X12200Y3800D1*
G1X12200Y4191D1*
G1X11809Y3800D2*
G1X12200Y3800D1*
G1X12591Y3800D1*
G1X12200Y4409D2*
G1X12200Y4800D1*
G1X12200Y5191D1*
G1X11809Y4800D2*
G1X12200Y4800D1*
G1X12591Y4800D1*
G1X12200Y9800D2*
G1X11250Y9800D1*
G1X11250Y10289D2*
G1X11250Y10640D1*
G1X11250Y10991D1*
G1X11250Y10640D2*
G1X11601Y10640D1*
G1X13200Y2099D2*
G1X13200Y2450D1*
G1X13200Y2801D1*
G1X12849Y2450D2*
G1X13200Y2450D1*
G1X13551Y2450D1*
G1X13200Y4699D2*
G1X13200Y5050D1*
G1X13200Y5401D1*
G1X12849Y5050D2*
G1X13200Y5050D1*
G1X13551Y5050D1*
G1X13510Y32399D2*
G1X13510Y33000D1*
G1X13510Y33601D1*
G1X12909Y33000D2*
G1X13510Y33000D1*
G1X14111Y33000D1*
G1X14800Y15000D2*
G1X14800Y16200D1*
G1X14800Y16809D2*
G1X14800Y17200D1*
G1X14800Y17591D1*
G1X14409Y17200D2*
G1X14800Y17200D1*
G1X15191Y17200D1*
G1X16389Y15000D2*
G1X16800Y15000D1*
G1X17000Y16200D2*
G1X16120Y16200D1*
G1X16409Y17200D2*
G1X16800Y17200D1*
G1X16589Y18700D2*
G1X17120Y18700D1*
G1X15800Y20990D2*
G1X15810Y21000D1*
G1X16299Y21000D2*
G1X16650Y21000D1*
G1X15950Y30674D2*
G1X15950Y31050D1*
G1X15950Y31426D1*
G1X15574Y31050D2*
G1X15950Y31050D1*
G1X16326Y31050D1*
G1X16800Y14589D2*
G1X16800Y15000D1*
G1X16800Y15411D1*
G1X16800Y15000D2*
G1X17211Y15000D1*
G1X16800Y16809D2*
G1X16800Y17200D1*
G1X16800Y17591D1*
G1X16800Y17200D2*
G1X17191Y17200D1*
G1X17120Y18169D2*
G1X17120Y18700D1*
G1X17120Y19231D1*
G1X17120Y18700D2*
G1X17651Y18700D1*
G1X16650Y20649D2*
G1X16650Y21000D1*
G1X18400Y20200D2*
G1X16800Y20200D1*
G1X16650Y21000D2*
G1X16650Y21351D1*
G1X16650Y21000D2*
G1X17001Y21000D1*
G1X18550Y5199D2*
G1X18550Y5600D1*
G1X18550Y6001D1*
G1X18149Y5600D2*
G1X18550Y5600D1*
G1X18951Y5600D1*
G1X18550Y14650D2*
G1X18550Y11430D1*
G1X18500Y14989D2*
G1X18500Y15400D1*
G1X19149Y15550D2*
G1X19500Y15550D1*
G1X18500Y15400D2*
G1X18500Y15811D1*
G1X18089Y15400D2*
G1X18500Y15400D1*
G1X18911Y15400D1*
G1X18500Y16400D2*
G1X19100Y16400D1*
G1X19110Y16390D1*
G1X19500Y16390D1*
G1X19240Y20200D2*
G1X20160Y20200D1*
G1X18650Y27100D2*
G1X19410Y27860D1*
G1X19850Y27860D1*
G1X19850Y28700D2*
G1X19050Y28700D1*
G1X18650Y29100D1*
G1X20000Y2550D2*
G1X21100Y2550D1*
G1X20000Y4159D2*
G1X20000Y4550D1*
G1X20000Y5159D2*
G1X20000Y5550D1*
G1X20000Y5941D1*
G1X19609Y5550D2*
G1X20000Y5550D1*
G1X20391Y5550D1*
G1X20000Y4550D2*
G1X20000Y4941D1*
G1X19609Y4550D2*
G1X20000Y4550D1*
G1X20391Y4550D1*
G1X19500Y15199D2*
G1X19500Y15550D1*
G1X19500Y15901D1*
G1X19500Y15550D2*
G1X19851Y15550D1*
G1X20649Y20200D2*
G1X21000Y20200D1*
G1X20950Y30100D2*
G1X20950Y29200D1*
G1X20450Y28700D1*
G1X19850Y28700D1*
G1X20950Y26100D2*
G1X20950Y27300D1*
G1X20390Y27860D1*
G1X19850Y27860D1*
G1X21110Y1199D2*
G1X21110Y1550D1*
G1X21110Y1901D1*
G1X20759Y1550D2*
G1X21110Y1550D1*
G1X21461Y1550D1*
G1X21940Y2550D2*
G1X21940Y1950D1*
G1X21950Y1940D1*
G1X21950Y1550D1*
G1X23000Y2550D2*
G1X21940Y2550D1*
G1X21000Y19849D2*
G1X21000Y20200D1*
G1X21000Y20551D1*
G1X21000Y20200D2*
G1X21351Y20200D1*
G1X22000Y22849D2*
G1X22000Y23200D1*
G1X22000Y23551D1*
G1X21649Y23200D2*
G1X22000Y23200D1*
G1X22351Y23200D1*
G1X21600Y30789D2*
G1X21600Y31200D1*
G1X21600Y31611D1*
G1X21189Y31200D2*
G1X21600Y31200D1*
G1X22011Y31200D1*
G1X23000Y8159D2*
G1X23000Y8550D1*
G1X23000Y8941D1*
G1X22609Y8550D2*
G1X23000Y8550D1*
G1X23391Y8550D1*
G1X23200Y27439D2*
G1X23200Y27800D1*
G1X23200Y28161D1*
G1X22839Y27800D2*
G1X23200Y27800D1*
G1X23561Y27800D1*
G1X23800Y18000D2*
G1X25300Y18000D1*
G1X24150Y22150D2*
G1X24150Y20950D1*
G1X24200Y30419D2*
G1X24200Y30800D1*
G1X24200Y31181D1*
G1X23819Y30800D2*
G1X24200Y30800D1*
G1X24581Y30800D1*
G1X24850Y22150D2*
G1X24850Y20900D1*
G1X25300Y20450D1*
G1X27150Y5400D2*
G1X27150Y4810D1*
G1X27160Y4800D1*
G1X27150Y7400D2*
G1X27150Y6810D1*
G1X27160Y6800D1*
G1X27150Y9400D2*
G1X27150Y8810D1*
G1X27160Y8800D1*
G1X27100Y14480D2*
G1X27100Y11520D1*
G1X28850Y17050D2*
G1X26750Y17050D1*
G1X27100Y27360D2*
G1X27100Y26700D1*
G1X27700Y29300D2*
G1X27100Y28700D1*
G1X27100Y28200D1*
G1X27800Y4000D2*
G1X27800Y2800D1*
G1X28000Y4800D2*
G1X28800Y4800D1*
G1X28000Y6800D2*
G1X28800Y6800D1*
G1X29550Y8800D2*
G1X29550Y6550D1*
G1X28800Y5800D1*
G1X28000Y8800D2*
G1X28800Y8800D1*
G1X27700Y14480D2*
G1X27700Y11520D1*
G1X29510Y14750D2*
G1X28390Y14750D1*
G1X27700Y18880D2*
G1X27700Y19950D1*
G1X27700Y31950D2*
G1X27700Y29300D1*
G1X28400Y30700D2*
G1X28400Y29260D1*
G1X28800Y1500D2*
G1X28800Y2800D1*
G1X29900Y2800D2*
G1X28800Y2800D1*
G1X32110Y15550D2*
G1X31310Y14750D1*
G1X29510Y14750D1*
G1X29510Y15580D1*
G1X29350Y18400D2*
G1X30500Y18400D1*
G1X29350Y20400D2*
G1X29350Y18400D1*
G1X29969Y19720D2*
G1X30500Y19720D1*
G1X29989Y21400D2*
G1X30350Y21400D1*
G1X30740Y2449D2*
G1X30740Y2800D1*
G1X30740Y3151D1*
G1X30389Y2800D2*
G1X30740Y2800D1*
G1X31091Y2800D1*
G1X30800Y3660D2*
G1X31149Y3311D1*
G1X31289Y3311D1*
G1X31800Y2800D1*
G1X30800Y4500D2*
G1X30800Y8600D1*
G1X31409Y8800D2*
G1X31800Y8800D1*
G1X30500Y9950D2*
G1X31100Y9950D1*
G1X30350Y16400D2*
G1X30350Y15580D1*
G1X30500Y19189D2*
G1X30500Y19720D1*
G1X30500Y20251D1*
G1X30500Y19720D2*
G1X31031Y19720D1*
G1X30350Y21039D2*
G1X30350Y21400D1*
G1X30350Y21761D1*
G1X30350Y21400D2*
G1X30711Y21400D1*
G1X31100Y29200D2*
G1X31100Y30200D1*
G1X31600Y30700D1*
G1X32950Y28850D2*
G1X30150Y28850D1*
G1X30600Y30289D2*
G1X30600Y30700D1*
G1X30600Y31111D1*
G1X30189Y30700D2*
G1X30600Y30700D1*
G1X31011Y30700D1*
G1X31800Y2800D2*
G1X31800Y1900D1*
G1X32200Y1500D1*
G1X32800Y1500D1*
G1X31800Y8409D2*
G1X31800Y8800D1*
G1X31800Y9191D1*
G1X31800Y8800D2*
G1X32191Y8800D1*
G1X31950Y18400D2*
G1X33150Y18400D1*
G1X32619Y19720D2*
G1X33150Y19720D1*
G1X32589Y21400D2*
G1X32950Y21400D1*
G1X32600Y26350D2*
G1X35250Y26350D1*
G1X32600Y31950D2*
G1X32600Y30700D1*
G1X34150Y3800D2*
G1X34150Y4650D1*
G1X33300Y4800D2*
G1X33300Y7950D1*
G1X33800Y9950D2*
G1X34500Y9950D1*
G1X34150Y11400D2*
G1X34150Y14550D1*
G1X33600Y15050D2*
G1X33600Y11520D1*
G1X32950Y16400D2*
G1X32950Y15550D1*
G1X33150Y19189D2*
G1X33150Y19720D1*
G1X33150Y20251D1*
G1X33150Y19720D2*
G1X33681Y19720D1*
G1X32950Y21039D2*
G1X32950Y21400D1*
G1X32950Y21761D1*
G1X32950Y21400D2*
G1X33311Y21400D1*
G1X33600Y30289D2*
G1X33600Y30700D1*
G1X33600Y31111D1*
G1X33189Y30700D2*
G1X33600Y30700D1*
G1X34011Y30700D1*
G1X33440Y31599D2*
G1X33440Y31950D1*
G1X33440Y32301D1*
G1X33089Y31950D2*
G1X33440Y31950D1*
G1X33791Y31950D1*
G1X35400Y600D2*
G1X35400Y2000D1*
G1X35400Y3950D2*
G1X35400Y6100D1*
G1X35250Y24939D2*
G1X35250Y25350D1*
G1X35250Y25761D1*
G1X34839Y25350D2*
G1X35250Y25350D1*
G1X35661Y25350D1*
G1X36200Y3900D2*
G1X36200Y7900D1*
G1X36900Y16560D2*
G1X36900Y15050D1*
G1X37750Y16560D2*
G1X36900Y16560D1*
G1X37750Y17400D2*
G1X36900Y17400D1*
G1X36900Y18400D2*
G1X36551Y18051D1*
G1X36451Y18051D1*
G1X35800Y17400D1*
G1X35800Y21400D2*
G1X36400Y20800D1*
G1X36500Y20800D1*
G1X36900Y20400D1*
G1X36900Y19400D2*
G1X35800Y19400D1*
G1X36900Y21300D2*
G1X37750Y21300D1*
G1X36900Y22140D2*
G1X37750Y22140D1*
G1X36250Y23939D2*
G1X36250Y24350D1*
G1X36250Y24761D1*
G1X35839Y24350D2*
G1X36250Y24350D1*
G1X36661Y24350D1*
G1X37590Y24100D2*
G1X37590Y25010D1*
G1X36250Y26350D1*
G1X36250Y28350D2*
G1X37580Y28350D1*
G1X37400Y3200D2*
G1X37400Y4360D1*
G1X37400Y5200D2*
G1X37400Y8300D1*
G1X37750Y16560D2*
G1X38210Y16560D1*
G1X38370Y16400D1*
G1X38800Y16400D1*
G1X37740Y18400D2*
G1X37740Y17800D1*
G1X37750Y17790D1*
G1X37750Y17400D1*
G1X37740Y19049D2*
G1X37740Y19400D1*
G1X37740Y18400D2*
G1X38800Y18400D1*
G1X37740Y19400D2*
G1X37740Y19751D1*
G1X37389Y19400D2*
G1X37740Y19400D1*
G1X38091Y19400D1*
G1X37740Y20400D2*
G1X38800Y20400D1*
G1X37750Y21300D2*
G1X37750Y20800D1*
G1X37740Y20790D1*
G1X37740Y20400D1*
G1X37750Y22140D2*
G1X38540Y22140D1*
G1X38800Y22400D1*
G1X37580Y28350D2*
G1X37580Y29150D1*
G1X38210Y33440D2*
G1X38210Y32900D1*
G1X39400Y1799D2*
G1X39400Y2200D1*
G1X39400Y2601D1*
G1X38999Y2200D2*
G1X39400Y2200D1*
G1X39801Y2200D1*
G1X38400Y3200D2*
G1X38400Y4360D1*
G1X39400Y3200D2*
G1X39400Y4360D1*
G1X38400Y6100D2*
G1X38400Y5200D1*
G1X39400Y5200D2*
G1X39400Y7450D1*
G1X38800Y19009D2*
G1X38800Y19400D1*
G1X38800Y18400D2*
G1X39900Y18400D1*
G1X38800Y19400D2*
G1X38800Y19791D1*
G1X38409Y19400D2*
G1X38800Y19400D1*
G1X39191Y19400D1*
G1X38800Y20400D2*
G1X39900Y20400D1*
G1X38300Y25200D2*
G1X38300Y24400D1*
G1X38900Y28350D2*
G1X41300Y28350D1*
G1X39050Y32300D2*
G1X39050Y33440D1*
G1X40400Y1799D2*
G1X40400Y2200D1*
G1X40400Y2601D1*
G1X39999Y2200D2*
G1X40400Y2200D1*
G1X40801Y2200D1*
G1X40400Y3200D2*
G1X40400Y4360D1*
G1X40400Y5200D2*
G1X40400Y5800D1*
G1X40900Y17989D2*
G1X40900Y18400D1*
G1X40900Y18811D1*
G1X40489Y18400D2*
G1X40900Y18400D1*
G1X41311Y18400D1*
G1X40900Y19989D2*
G1X40900Y20400D1*
G1X40900Y20811D1*
G1X40489Y20400D2*
G1X40900Y20400D1*
G1X41311Y20400D1*
G1X40550Y30350D2*
G1X40550Y28650D1*
G1X40639Y31300D2*
G1X41050Y31300D1*
G1X40050Y31300D2*
G1X40865Y30485D1*
G1X41035Y30485D1*
G1X41050Y30500D1*
G1X41400Y1799D2*
G1X41400Y2200D1*
G1X41400Y2601D1*
G1X40999Y2200D2*
G1X41400Y2200D1*
G1X41801Y2200D1*
G1X41999Y2200D2*
G1X42400Y2200D1*
G1X41750Y14550D2*
G1X41750Y16750D1*
G1X42250Y24989D2*
G1X42250Y25350D1*
G1X42250Y25711D1*
G1X41889Y25350D2*
G1X42250Y25350D1*
G1X42611Y25350D1*
G1X42050Y30889D2*
G1X42050Y31300D1*
G1X42050Y31711D1*
G1X41639Y31300D2*
G1X42050Y31300D1*
G1X42461Y31300D1*
G1X41050Y30889D2*
G1X41050Y31300D1*
G1X41050Y31711D1*
G1X41050Y31300D2*
G1X41461Y31300D1*
G1X42050Y31889D2*
G1X42050Y32300D1*
G1X42050Y32711D1*
G1X41639Y32300D2*
G1X42050Y32300D1*
G1X42461Y32300D1*
G1X41060Y33510D2*
G1X41060Y32760D1*
G1X41050Y32750D1*
G1X41050Y32300D1*
G1X43400Y1799D2*
G1X43400Y2200D1*
G1X43400Y2601D1*
G1X42999Y2200D2*
G1X43400Y2200D1*
G1X43801Y2200D1*
G1X42400Y1799D2*
G1X42400Y2200D1*
G1X42400Y2601D1*
G1X42400Y2200D2*
G1X42801Y2200D1*
G1X43400Y3200D2*
G1X43400Y4360D1*
G1X43400Y5200D2*
G1X43400Y5850D1*
G1X43000Y15450D2*
G1X43000Y16700D1*
G1X43850Y21350D2*
G1X43150Y20650D1*
G1X43549Y25350D2*
G1X43900Y25350D1*
G1X43250Y28750D2*
G1X43250Y26750D1*
G1X42380Y33510D2*
G1X43300Y33510D1*
G1X43310Y33500D1*
G1X43700Y33500D1*
G1X44999Y2200D2*
G1X45400Y2200D1*
G1X44400Y1799D2*
G1X44400Y2200D1*
G1X44400Y2601D1*
G1X43999Y2200D2*
G1X44400Y2200D1*
G1X44801Y2200D1*
G1X44400Y3200D2*
G1X44400Y4360D1*
G1X44400Y5200D2*
G1X44400Y5850D1*
G1X45000Y15700D2*
G1X45000Y11500D1*
G1X45000Y17339D2*
G1X45000Y17700D1*
G1X45000Y18061D1*
G1X44639Y17700D2*
G1X45000Y17700D1*
G1X45361Y17700D1*
G1X44850Y20700D2*
G1X44850Y21200D1*
G1X46000Y22350D1*
G1X45150Y22650D2*
G1X44450Y21950D1*
G1X44900Y23099D2*
G1X44900Y23450D1*
G1X44900Y23801D1*
G1X44549Y23450D2*
G1X44900Y23450D1*
G1X45251Y23450D1*
G1X44900Y25350D2*
G1X44900Y24290D1*
G1X43900Y24999D2*
G1X43900Y25350D1*
G1X43900Y25701D1*
G1X43900Y25350D2*
G1X44251Y25350D1*
G1X44900Y25350D2*
G1X46000Y25350D1*
G1X44540Y33500D2*
G1X44540Y31950D1*
G1X44530Y31940D1*
G1X45400Y1799D2*
G1X45400Y2200D1*
G1X45400Y2601D1*
G1X45400Y2200D2*
G1X45801Y2200D1*
G1X45400Y3200D2*
G1X45400Y4360D1*
G1X45400Y5200D2*
G1X45400Y5850D1*
G1X46160Y23350D2*
G1X46160Y24350D1*
G1X46160Y23350D2*
G1X46160Y22940D1*
G1X46000Y22780D1*
G1X46000Y22350D1*
G1X45200Y30350D2*
G1X45200Y28340D1*
G1X45210Y28330D1*
G1X45210Y27960D1*
G1X46900Y1700D2*
G1X47106Y1494D1*
G1X47106Y1484D1*
G1X47290Y1300D1*
G1X57360Y1300D1*
G1X46400Y3200D2*
G1X46400Y4500D1*
G1X48900Y3900D2*
G1X46950Y3900D1*
G1X48100Y7000D2*
G1X46950Y7000D1*
G1X48100Y6200D2*
G1X46950Y6200D1*
G1X48100Y7600D2*
G1X46950Y7600D1*
G1X46400Y15350D2*
G1X46400Y11500D1*
G1X47100Y19200D2*
G1X48500Y19200D1*
G1X47100Y18500D2*
G1X47900Y18500D1*
G1X48500Y19800D2*
G1X47100Y19800D1*
G1X47000Y24350D2*
G1X47000Y23350D1*
G1X47000Y22350D2*
G1X47000Y23350D1*
G1X46510Y25710D2*
G1X46510Y24840D1*
G1X47000Y24350D1*
G1X47500Y25650D2*
G1X47500Y25880D1*
G1X47770Y26150D1*
G1X48160Y26150D1*
G1X47350Y30900D2*
G1X47350Y28700D1*
G1X48400Y1799D2*
G1X48400Y2200D1*
G1X48400Y2601D1*
G1X47999Y2200D2*
G1X48400Y2200D1*
G1X48801Y2200D1*
G1X48999Y3200D2*
G1X49400Y3200D1*
G1X48400Y11500D2*
G1X48400Y14850D1*
G1X49000Y21959D2*
G1X49000Y22350D1*
G1X48850Y21099D2*
G1X48850Y21450D1*
G1X48850Y21801D1*
G1X48499Y21450D2*
G1X48850Y21450D1*
G1X49201Y21450D1*
G1X48010Y21450D2*
G1X48010Y21910D1*
G1X48000Y21920D1*
G1X48000Y22350D1*
G1X49000Y22350D2*
G1X49000Y22741D1*
G1X48609Y22350D2*
G1X49000Y22350D1*
G1X49391Y22350D1*
G1X48840Y22999D2*
G1X48840Y23350D1*
G1X48840Y23701D1*
G1X48489Y23350D2*
G1X48840Y23350D1*
G1X49191Y23350D1*
G1X48000Y22350D2*
G1X48000Y23350D1*
G1X49000Y25350D2*
G1X49000Y26150D1*
G1X50050Y25350D2*
G1X49000Y25350D1*
G1X49400Y2799D2*
G1X49400Y3200D1*
G1X49400Y3601D1*
G1X49400Y3200D2*
G1X49801Y3200D1*
G1X49550Y20500D2*
G1X49550Y21100D1*
G1X50050Y23499D2*
G1X50050Y24030D1*
G1X50050Y24561D1*
G1X49519Y24030D2*
G1X50050Y24030D1*
G1X50581Y24030D1*
G1X50100Y29950D2*
G1X50100Y28750D1*
G1X49550Y28750D2*
G1X49550Y30150D1*
G1X51459Y17500D2*
G1X51850Y17500D1*
G1X50600Y21100D2*
G1X50600Y21850D1*
G1X50650Y28750D2*
G1X50650Y29750D1*
G1X53510Y3150D2*
G1X52700Y3150D1*
G1X53510Y5150D2*
G1X52700Y5150D1*
G1X52650Y5200D1*
G1X53510Y7150D2*
G1X52750Y7150D1*
G1X51850Y17109D2*
G1X51850Y17500D1*
G1X51850Y17891D1*
G1X51850Y17500D2*
G1X52241Y17500D1*
G1X51850Y22500D2*
G1X52350Y22000D1*
G1X52350Y19000D1*
G1X51850Y18500D1*
G1X52800Y21150D2*
G1X52800Y21850D1*
G1X53000Y23149D2*
G1X53000Y23500D1*
G1X53000Y23851D1*
G1X52649Y23500D2*
G1X53000Y23500D1*
G1X53351Y23500D1*
G1X52600Y29500D2*
G1X54350Y29500D1*
G1X54800Y29050D1*
G1X55200Y3150D2*
G1X54350Y3150D1*
G1X54350Y5150D2*
G1X55200Y5150D1*
G1X55200Y7150D2*
G1X54350Y7150D1*
G1X54450Y11500D2*
G1X54450Y14500D1*
G1X56600Y15150D2*
G1X53800Y15150D1*
G1X53800Y15850D2*
G1X56600Y15850D1*
G1X54850Y17500D2*
G1X54350Y18000D1*
G1X54350Y21000D1*
G1X54850Y21500D1*
G1X54850Y23500D2*
G1X53840Y23500D1*
G1X55200Y1759D2*
G1X55200Y2150D1*
G1X55200Y2541D1*
G1X54809Y2150D2*
G1X55200Y2150D1*
G1X55591Y2150D1*
G1X56650Y5650D2*
G1X55850Y5650D1*
G1X55800Y8000D2*
G1X55800Y7300D1*
G1X54850Y9700D2*
G1X57750Y9700D1*
G1X57300Y10900D2*
G1X55200Y10900D1*
G1X55000Y11100D1*
G1X55000Y14500D1*
G1X55550Y11500D2*
G1X55550Y14500D1*
G1X55650Y21300D2*
G1X55650Y20650D1*
G1X54850Y22500D2*
G1X54850Y21500D1*
G1X55500Y24600D2*
G1X55500Y24000D1*
G1X58200Y1300D2*
G1X58200Y2150D1*
G1X58200Y4150D2*
G1X59100Y4150D1*
G1X58200Y5150D2*
G1X59100Y5150D1*
G1X58200Y6150D2*
G1X59100Y6150D1*
G1X57300Y5950D2*
G1X57300Y8650D1*
G1X57750Y15300D2*
G1X57750Y12450D1*
G1X58310Y17150D2*
G1X57300Y17150D1*
G1X57300Y18150D2*
G1X57300Y19150D1*
G1X57300Y20150D2*
G1X58200Y20150D1*
G1X57800Y28639D2*
G1X57800Y29050D1*
G1X57800Y29639D2*
G1X57800Y30050D1*
G1X57800Y30461D1*
G1X57389Y30050D2*
G1X57800Y30050D1*
G1X58211Y30050D1*
G1X57800Y29050D2*
G1X57800Y29461D1*
G1X57389Y29050D2*
G1X57800Y29050D1*
G1X58211Y29050D1*
G1X60750Y4150D2*
G1X59940Y4150D1*
G1X59940Y5150D2*
G1X60750Y5150D1*
G1X60750Y6150D2*
G1X59940Y6150D1*
G1X59150Y16799D2*
G1X59150Y17150D1*
G1X59150Y17501D1*
G1X58799Y17150D2*
G1X59150Y17150D1*
G1X59501Y17150D1*
G1X59040Y20150D2*
G1X59040Y19610D1*
G1X59050Y19600D1*
G1X59909Y23150D2*
G1X60300Y23150D1*
G1X60300Y19150D2*
G1X60300Y20150D1*
G1X60300Y21150D2*
G1X60300Y20150D1*
G1X60300Y22759D2*
G1X60300Y23150D1*
G1X60300Y23541D1*
G1X60300Y23150D2*
G1X60691Y23150D1*
G1X63370Y29659D2*
G1X63370Y30070D1*
G1X63370Y30481D1*
G1X62959Y30070D2*
G1X63370Y30070D1*
G1X63781Y30070D1*
G54D92*
G1X9200Y2800D3*
G1X9200Y3800D3*
G1X9200Y5800D3*
G1X9200Y4800D3*
G1X9200Y6800D3*
G1X9200Y7800D3*
G1X9200Y8800D3*
G1X12200Y2800D3*
G1X12200Y3800D3*
G1X12200Y4800D3*
G1X12200Y5800D3*
G1X12200Y6800D3*
G1X12200Y7800D3*
G1X12200Y8800D3*
G1X12200Y9800D3*
G1X13800Y20200D3*
G1X14800Y17200D3*
G1X14800Y20200D3*
G1X15800Y17200D3*
G1X16800Y17200D3*
G1X16800Y20200D3*
G1X15800Y20200D3*
G1X20000Y2550D3*
G1X20000Y4550D3*
G1X20000Y3550D3*
G1X20000Y5550D3*
G1X20000Y6550D3*
G1X20000Y8550D3*
G1X20000Y7550D3*
G1X23000Y3550D3*
G1X23000Y4550D3*
G1X23000Y5550D3*
G1X23000Y6550D3*
G1X23000Y7550D3*
G1X23000Y8550D3*
G1X28800Y2800D3*
G1X28800Y3800D3*
G1X28800Y5800D3*
G1X28800Y4800D3*
G1X28800Y6800D3*
G1X28800Y7800D3*
G1X28800Y8800D3*
G1X31800Y3800D3*
G1X31800Y4800D3*
G1X31800Y5800D3*
G1X31800Y6800D3*
G1X31800Y7800D3*
G1X31800Y8800D3*
G1X35800Y16400D3*
G1X35800Y17400D3*
G1X35800Y19400D3*
G1X35800Y18400D3*
G1X35800Y20400D3*
G1X35800Y21400D3*
G1X38800Y16400D3*
G1X38800Y17400D3*
G1X38800Y18400D3*
G1X38800Y19400D3*
G1X38800Y20400D3*
G1X38800Y21400D3*
G1X38800Y22400D3*
G1X46000Y25350D3*
G1X47000Y22350D3*
G1X47000Y25350D3*
G1X48000Y22350D3*
G1X49000Y22350D3*
G1X49000Y25350D3*
G1X48000Y25350D3*
G1X51850Y17500D3*
G1X51850Y19500D3*
G1X51850Y18500D3*
G1X51850Y20500D3*
G1X51850Y21500D3*
G1X51850Y22500D3*
G1X55200Y3150D3*
G1X55200Y2150D3*
G1X55200Y4150D3*
G1X55200Y5150D3*
G1X55200Y7150D3*
G1X55200Y6150D3*
G1X54850Y17500D3*
G1X54850Y18500D3*
G1X54850Y19500D3*
G1X54850Y20500D3*
G1X54850Y21500D3*
G1X54850Y22500D3*
G1X54850Y23500D3*
G1X57300Y18150D3*
G1X57300Y17150D3*
G1X57300Y19150D3*
G1X57300Y20150D3*
G1X57300Y22150D3*
G1X57300Y21150D3*
G1X57300Y23150D3*
G1X58200Y2150D3*
G1X58200Y3150D3*
G1X58200Y4150D3*
G1X58200Y5150D3*
G1X58200Y6150D3*
G1X58200Y7150D3*
G1X58200Y8150D3*
G1X60300Y18150D3*
G1X60300Y19150D3*
G1X60300Y20150D3*
G1X60300Y21150D3*
G1X60300Y22150D3*
G1X60300Y23150D3*
G54D21*
G1X1600Y31850D3*
G1X760Y31850D3*
G1X4950Y13710D3*
G1X4950Y14550D3*
G1X5600Y26410D3*
G1X6440Y26410D3*
G1X6100Y28850D3*
G1X6940Y28850D3*
G1X11250Y9800D3*
G1X11250Y10640D3*
G1X13200Y2450D3*
G1X13200Y5050D3*
G1X16650Y21000D3*
G1X15810Y21000D3*
G1X18400Y20200D3*
G1X19240Y20200D3*
G1X19500Y15550D3*
G1X19500Y16390D3*
G1X20160Y20200D3*
G1X19850Y28700D3*
G1X19850Y27860D3*
G1X19600Y33400D3*
G1X21950Y1550D3*
G1X21110Y1550D3*
G1X21100Y2550D3*
G1X21940Y2550D3*
G1X21000Y20200D3*
G1X22000Y23200D3*
G1X27160Y4800D3*
G1X27160Y6800D3*
G1X27160Y8800D3*
G1X27100Y27360D3*
G1X27100Y28200D3*
G1X28000Y4800D3*
G1X28000Y6800D3*
G1X28000Y8800D3*
G1X29900Y2800D3*
G1X29510Y15580D3*
G1X30740Y2800D3*
G1X30800Y4500D3*
G1X30800Y3660D3*
G1X30350Y15580D3*
G1X32110Y15550D3*
G1X32950Y15550D3*
G1X32600Y31950D3*
G1X33440Y31950D3*
G1X36900Y16560D3*
G1X36900Y17400D3*
G1X36900Y18400D3*
G1X36900Y19400D3*
G1X36900Y20400D3*
G1X36900Y21300D3*
G1X36900Y22140D3*
G1X37400Y4360D3*
G1X38400Y4360D3*
G1X37400Y5200D3*
G1X38400Y5200D3*
G1X37750Y16560D3*
G1X37750Y17400D3*
G1X37740Y18400D3*
G1X37740Y19400D3*
G1X37740Y20400D3*
G1X37750Y21300D3*
G1X37750Y22140D3*
G1X38210Y33440D3*
G1X39400Y4360D3*
G1X39400Y5200D3*
G1X39050Y33440D3*
G1X40400Y4360D3*
G1X40400Y5200D3*
G1X43400Y4360D3*
G1X43400Y5200D3*
G1X43700Y33500D3*
G1X44400Y4360D3*
G1X44400Y5200D3*
G1X44900Y23450D3*
G1X44900Y24290D3*
G1X44900Y25350D3*
G1X44540Y33500D3*
G1X45400Y4360D3*
G1X45400Y5200D3*
G1X46160Y23350D3*
G1X46160Y24350D3*
G1X47000Y23350D3*
G1X47000Y24350D3*
G1X48850Y21450D3*
G1X48010Y21450D3*
G1X48000Y23350D3*
G1X48840Y23350D3*
G1X49000Y26150D3*
G1X48160Y26150D3*
G1X53000Y23500D3*
G1X54350Y3150D3*
G1X53510Y3150D3*
G1X54350Y5150D3*
G1X53510Y5150D3*
G1X54350Y7150D3*
G1X53510Y7150D3*
G1X53840Y23500D3*
G1X57360Y1300D3*
G1X58200Y1300D3*
G1X58310Y17150D3*
G1X58200Y20150D3*
G1X59100Y4150D3*
G1X59940Y4150D3*
G1X59100Y5150D3*
G1X59940Y5150D3*
G1X59100Y6150D3*
G1X59940Y6150D3*
G1X59150Y17150D3*
G1X59040Y20150D3*
G1X47400Y11420D2*
G54D25*
G1X47400Y13750D1*
G54D93*
G1X9200Y9800D3*
G1X13800Y17200D3*
G1X23000Y2550D3*
G1X31800Y2800D3*
G1X35800Y22400D3*
G1X46000Y22350D3*
G1X51850Y23500D3*
G1X55200Y8150D3*
G1X60300Y17150D3*
G54D86*
G1X2650Y7700D3*
G1X2600Y24800D3*
G1X12650Y28100D3*
G1X56100Y14500D2*
G54D29*
G1X56100Y12900D1*
G54D87*
G1X1960Y19220D3*
G1X23600Y20200D3*
G54D94*
G1X9400Y28300D3*
G1X14600Y10300D3*
G1X23200Y27800D3*
G1X26200Y27800D3*
G1X30350Y21400D3*
G1X32950Y21400D3*
G1X42250Y25350D3*
G1X45000Y17700D3*
G1X44850Y20700D3*
G54D95*
G1X9400Y30800D3*
G1X14600Y7800D3*
G1X23200Y32800D3*
G1X24200Y30800D3*
G1X26200Y32800D3*
G1X27200Y30800D3*
G1X30350Y16400D3*
G1X29350Y18400D3*
G1X32950Y16400D3*
G1X31950Y18400D3*
G1X40250Y25350D3*
G1X42350Y20700D3*
G1X41250Y27350D3*
G1X43000Y16700D3*
G1X45000Y15700D3*
G54D88*
G1X3250Y33000D3*
G1X11950Y33000D3*
G54D89*
G1X3650Y13700D3*
G1X3600Y30800D3*
G1X18650Y27100D3*
G1X1650Y13700D2*
G54D13*
G1X1650Y12200D1*
G1X14200Y1450D3*
G1X15200Y2450D3*
G1X14200Y4050D3*
G1X15200Y5050D3*
G1X20600Y32400D3*
G1X22000Y25200D3*
G1X21600Y33400D3*
G1X23000Y24200D3*
G1X25650Y2150D3*
G1X25650Y9540D3*
G1X25650Y11300D3*
G1X25650Y14580D3*
G1X28390Y12570D3*
G1X28390Y14750D3*
G1X28400Y18800D3*
G1X28400Y20030D3*
G1X28400Y29260D3*
G1X28400Y30700D3*
G1X43900Y25350D3*
G1X47400Y11420D3*
G1X47400Y13750D3*
G1X62100Y13700D3*
G1X63800Y13700D3*
G54D14*
G1X16550Y2600D3*
G1X16550Y5600D3*
G1X18550Y2600D3*
G1X18550Y5600D3*
G1X37400Y2200D3*
G1X38400Y3200D3*
G1X37400Y3200D3*
G1X38400Y2200D3*
G1X39400Y3200D3*
G1X39400Y2200D3*
G1X40400Y2200D3*
G1X42400Y3200D3*
G1X41400Y3200D3*
G1X42400Y2200D3*
G1X41400Y2200D3*
G1X43400Y3200D3*
G1X44400Y3200D3*
G1X44400Y2200D3*
G1X46400Y3200D3*
G1X45400Y3200D3*
G1X46400Y2200D3*
G1X45400Y2200D3*
G1X47400Y3200D3*
G1X47400Y2200D3*
G1X48400Y3200D3*
G1X48400Y2200D3*
G1X49400Y2200D3*
G54D10*
G36*
G1X86002Y1996D2*
G1X84001Y1996D1*
G1X84001Y-5D1*
G1X68003Y-5D1*
G1X68003Y1996D1*
G1X66002Y1996D1*
G1X66002Y27994D1*
G1X68003Y27994D1*
G1X68003Y29995D1*
G1X84001Y29995D1*
G1X84001Y27994D1*
G1X86002Y27994D1*
G1X86002Y1996D1*
G37*
%LPC*%
G36*
G1X83961Y20728D2*
G1X83961Y23337D1*
G1X83694Y23604D1*
G1X83111Y23604D1*
G1X83111Y24386D1*
G1X83893Y24386D1*
G1X83893Y23803D1*
G1X84243Y23453D1*
G1X84243Y20728D1*
G75*
G2X83961Y20728I-141J-233D1*
G37*
G36*
G1X82175Y5271D2*
G1X82897Y5271D1*
G2X82873Y4859I165J-216D1*
G1X82175Y4859D1*
G2X82175Y5271I-333J206D1*
G37*
G36*
G1X82143Y19961D2*
G1X82143Y17639D1*
G2X81901Y17639I-121J-244D1*
G1X81901Y19961D1*
G2X82143Y19961I121J244D1*
G37*
G36*
G1X81683Y20467D2*
G1X81683Y19204D1*
G2X81441Y19204I-121J-244D1*
G1X81441Y20457D1*
G2X81683Y20467I111J248D1*
G37*
G36*
G1X78213Y7251D2*
G1X80497Y7251D1*
G2X80522Y6839I345J-186D1*
G1X78213Y6839D1*
G1X78213Y6534D1*
G1X77191Y6534D1*
G1X77191Y6839D1*
G1X76473Y6839D1*
G2X76473Y7251I-178J206D1*
G1X77191Y7251D1*
G1X77191Y7556D1*
G1X78213Y7556D1*
G1X78213Y7251D1*
G37*
G36*
G1X78645Y14706D2*
G1X79939Y14706D1*
G2X79939Y14424I233J-141D1*
G1X78645Y14424D1*
G2X78645Y14706I-233J141D1*
G37*
G36*
G1X78645Y14096D2*
G1X79609Y14096D1*
G2X79609Y13814I233J-141D1*
G1X78645Y13814D1*
G2X78645Y14096I-233J141D1*
G37*
G36*
G1X78645Y15316D2*
G1X79609Y15316D1*
G2X79609Y15034I233J-141D1*
G1X78645Y15034D1*
G2X78645Y15316I-233J141D1*
G37*
G36*
G1X79943Y19312D2*
G1X79943Y17588D1*
G2X79661Y17588I-141J-233D1*
G1X79661Y19312D1*
G2X79943Y19312I141J233D1*
G37*
G36*
G1X78656Y13486D2*
G1X79268Y13486D1*
G2X79268Y13244I244J-121D1*
G1X78656Y13244D1*
G2X78656Y13486I-244J121D1*
G37*
G36*
G1X78223Y23314D2*
G1X78223Y22981D1*
G2X77981Y22981I-121J-336D1*
G1X77981Y23314D1*
G1X77771Y23314D1*
G1X77771Y23976D1*
G1X78433Y23976D1*
G1X78433Y23314D1*
G1X78223Y23314D1*
G37*
G36*
G1X76543Y3461D2*
G1X76849Y3461D1*
G2X76849Y3149I293J-156D1*
G1X76543Y3149D1*
G1X76543Y2944D1*
G1X75981Y2944D1*
G1X75981Y3666D1*
G1X76543Y3666D1*
G1X76543Y3461D1*
G37*
G36*
G1X76823Y23314D2*
G1X76823Y22981D1*
G2X76581Y22981I-121J-336D1*
G1X76581Y23314D1*
G1X76371Y23314D1*
G1X76371Y23976D1*
G1X77033Y23976D1*
G1X77033Y23314D1*
G1X76823Y23314D1*
G37*
G36*
G1X76340Y11386D2*
G2X76340Y11104I312J-141D1*
G1X76283Y11104D1*
G1X76283Y10914D1*
G1X75621Y10914D1*
G1X75621Y11576D1*
G1X76283Y11576D1*
G1X76283Y11386D1*
G1X76340Y11386D1*
G37*
G36*
G1X76511Y12676D2*
G1X76511Y12933D1*
G2X76793Y12933I141J312D1*
G1X76793Y12676D1*
G1X76983Y12676D1*
G1X76983Y12014D1*
G1X76321Y12014D1*
G1X76321Y12676D1*
G1X76511Y12676D1*
G37*
G36*
G1X74536Y26186D2*
G1X75718Y26186D1*
G2X75718Y25904I184J-141D1*
G1X74536Y25904D1*
G2X74536Y26186I-184J141D1*
G37*
G36*
G1X75346Y3666D2*
G1X75346Y4735D1*
G2X75658Y4735I156J360D1*
G1X75658Y3666D1*
G1X75783Y3666D1*
G1X75783Y2944D1*
G1X75221Y2944D1*
G1X75221Y3666D1*
G1X75346Y3666D1*
G37*
G36*
G1X75221Y2294D2*
G1X75083Y2294D1*
G2X75083Y2576I-301J141D1*
G1X75221Y2576D1*
G1X75221Y2796D1*
G1X75783Y2796D1*
G1X75783Y2074D1*
G1X75221Y2074D1*
G1X75221Y2294D1*
G37*
G36*
G1X75473Y23314D2*
G1X75473Y22981D1*
G2X75231Y22981I-121J-336D1*
G1X75231Y23314D1*
G1X75021Y23314D1*
G1X75021Y23976D1*
G1X75683Y23976D1*
G1X75683Y23314D1*
G1X75473Y23314D1*
G37*
G36*
G1X74773Y19461D2*
G1X74773Y18104D1*
G2X74531Y18104I-121J-309D1*
G1X74531Y19461D1*
G2X74773Y19461I121J309D1*
G37*
G36*
G1X73391Y17356D2*
G1X74413Y17356D1*
G1X74413Y16334D1*
G1X74013Y16334D1*
G1X74013Y16263D1*
G2X73771Y16263I-121J-198D1*
G1X73771Y16334D1*
G1X73391Y16334D1*
G1X73391Y17356D1*
G37*
G36*
G1X74173Y23314D2*
G1X74173Y22981D1*
G2X73931Y22981I-121J-336D1*
G1X73931Y23314D1*
G1X73721Y23314D1*
G1X73721Y23976D1*
G1X74383Y23976D1*
G1X74383Y23314D1*
G1X74173Y23314D1*
G37*
G36*
G1X73548Y13256D2*
G1X74063Y13256D1*
G1X74063Y12234D1*
G1X73041Y12234D1*
G1X73041Y13256D1*
G1X73236Y13256D1*
G1X73236Y13564D1*
G1X72921Y13564D1*
G1X72921Y14226D1*
G1X73583Y14226D1*
G1X73583Y13564D1*
G1X73548Y13564D1*
G1X73548Y13256D1*
G37*
G36*
G1X72146Y8378D2*
G1X72146Y10030D1*
G2X72458Y10016I166J215D1*
G1X72458Y8378D1*
G2X72146Y8378I-156J-223D1*
G37*
G36*
G1X70898Y16107D2*
G1X70898Y15013D1*
G2X70616Y15013I-141J-233D1*
G1X70616Y16107D1*
G2X70898Y16107I141J233D1*
G37*
G36*
G1X83411Y21438D2*
G1X83411Y22037D1*
G1X82361Y23087D1*
G1X82361Y23629D1*
G2X82643Y23629I141J366D1*
G1X82643Y23203D1*
G1X83693Y22153D1*
G1X83693Y21438D1*
G2X83411Y21438I-141J-233D1*
G37*
G74*
G54D37*
G1X73626Y4027D3*
G1X78370Y4007D3*
G54D34*
G1X72582Y16845D3*
G1X72232Y12745D3*
G1X77702Y5725D3*
G54D35*
G1X74052Y18645D3*
G1X75352Y18645D3*
G1X76702Y18645D3*
G1X78102Y18645D3*
G54D137*
G1X76222Y2435D3*
G54D33*
G1X66752Y23945D3*
G1X66752Y18345D3*
G54D36*
G1X69452Y4845D3*
G1X71452Y4845D3*
G1X69452Y1845D3*
G1X71452Y1845D3*
G54D30*
G1X73652Y28045D3*
G1X73652Y27045D3*
G1X74652Y28045D3*
G1X74652Y27045D3*
G1X75652Y28045D3*
G1X75652Y27045D3*
G1X76652Y28045D3*
G1X76652Y27045D3*
G1X77652Y28045D3*
G1X81502Y23995D3*
G1X81842Y9065D3*
G1X75502Y6079D3*
G1X76486Y6079D3*
G1X81842Y6065D3*
G1X80842Y6065D3*
G1X81842Y7065D3*
G1X81842Y8065D3*
G1X80842Y8065D3*
G1X76502Y5095D3*
G1X80842Y5065D3*
G54D32*
G1X74052Y24495D3*
G1X75352Y24495D3*
G1X76702Y24495D3*
G1X78102Y24495D3*
G1X72402Y13895D3*
G1X75102Y11245D3*
G1X75802Y12345D3*
G54D31*
G1X77652Y27045D3*
G1X80842Y9065D3*
%LPD*%
G1X81842Y5065D2*
G54D10*
G1X83052Y5065D1*
G1X83062Y5055D1*
G1X77702Y7045D2*
G1X80822Y7045D1*
G1X76295Y7045D2*
G1X77702Y7045D1*
G1X85002Y995D3*
G1X67002Y995D3*
G1X85002Y28995D3*
G1X67002Y28995D3*
G54D20*
G1X80842Y9065D3*
G1X83502Y23995D3*
G1X77652Y27045D3*
G54D138*
G1X76222Y2435D3*
G54D21*
G1X75802Y12345D3*
G1X76652Y12345D3*
G1X75952Y11245D3*
G1X75102Y11245D3*
G1X73252Y13895D3*
G1X72402Y13895D3*
G1X78102Y23645D3*
G1X76702Y23645D3*
G1X75352Y23645D3*
G1X74052Y23645D3*
G1X78102Y24495D3*
G1X76702Y24495D3*
G1X75352Y24495D3*
G1X74052Y24495D3*
G54D139*
G1X75502Y2435D3*
G1X75502Y3305D3*
G1X76262Y3305D3*
G54D22*
G1X76652Y11245D3*
G1X76652Y13245D3*
G54D13*
G1X74782Y2435D3*
G1X77142Y3305D3*
G1X74652Y17795D3*
G1X74652Y19770D3*
G1X82002Y21895D3*
G1X78382Y21805D3*
G1X75362Y21815D3*
G1X76742Y21805D3*
G1X73952Y21815D3*
G54D14*
G1X71452Y1845D3*
G1X69452Y1845D3*
G1X71452Y4845D3*
G1X69452Y4845D3*
G54D23*
G1X73892Y16065D3*
G1X75902Y26045D3*
G1X74352Y26045D3*
G54D15*
G1X83062Y5055D3*
G1X76295Y7045D3*
G1X74707Y7290D3*
G1X72302Y8155D3*
G1X77262Y9285D3*
G1X72312Y10245D3*
G1X79512Y13365D3*
G1X78412Y13365D3*
G1X73542Y12735D3*
G1X72242Y12725D3*
G1X79842Y15175D3*
G1X78412Y15175D3*
G1X78412Y13955D3*
G1X79842Y13955D3*
G1X80172Y14565D3*
G1X78412Y14565D3*
G1X72947Y14590D3*
G1X70757Y14780D3*
G1X82022Y17395D3*
G1X80177Y18545D3*
G1X79802Y17355D3*
G1X70757Y16340D3*
G1X71852Y17555D3*
G1X84102Y20495D3*
G1X83552Y21205D3*
G1X81552Y20705D3*
G1X81562Y18960D3*
G1X82022Y20205D3*
G1X79802Y19545D3*
G1X69952Y22095D3*
G1X70972Y26815D3*
G54D24*
G1X78102Y18645D3*
G1X76702Y18645D3*
G1X75352Y18645D3*
G1X74052Y18645D3*
G1X78102Y22645D3*
G1X76702Y22645D3*
G1X75352Y22645D3*
G1X74052Y22645D3*
G54D16*
G1X80842Y5065D3*
G1X81842Y5065D3*
G1X76502Y5095D3*
G1X75502Y5095D3*
G1X80842Y8065D3*
G1X81842Y8065D3*
G1X80842Y7065D3*
G1X81842Y7065D3*
G1X80842Y6065D3*
G1X81842Y6065D3*
G1X76486Y6079D3*
G1X75502Y6079D3*
G1X81842Y9065D3*
G1X82502Y23995D3*
G1X81502Y23995D3*
G1X77652Y28045D3*
G1X76652Y27045D3*
G1X76652Y28045D3*
G1X75652Y27045D3*
G1X75652Y28045D3*
G1X74652Y27045D3*
G1X74652Y28045D3*
G1X73652Y27045D3*
G1X73652Y28045D3*
G54D25*
G1X66752Y18345D3*
G1X66752Y23945D3*
G54D17*
G1X78370Y4007D3*
G1X73626Y4027D3*
G1X76563Y2435D2*
G54D27*
G1X76222Y2435D1*
G1X75881Y2435D1*
G1X76222Y2054D2*
G1X76222Y2435D1*
G1X76222Y2816D1*
G1X81253Y5065D2*
G1X80842Y5065D1*
G1X80431Y5065D1*
G1X80842Y4654D2*
G1X80842Y5065D1*
G1X80842Y5476D1*
G1X78901Y4007D2*
G1X78370Y4007D1*
G1X77839Y4007D1*
G1X78370Y3476D2*
G1X78370Y4007D1*
G1X78370Y4538D1*
G1X76913Y5095D2*
G1X76502Y5095D1*
G1X76091Y5095D1*
G1X76502Y4684D2*
G1X76502Y5095D1*
G1X76502Y5506D1*
G1X77702Y5194D2*
G1X77702Y5725D1*
G1X74157Y4027D2*
G1X73626Y4027D1*
G1X73095Y4027D1*
G1X73626Y3496D2*
G1X73626Y4027D1*
G1X73626Y4558D1*
G1X69853Y4845D2*
G1X69452Y4845D1*
G1X69051Y4845D1*
G1X69452Y4444D2*
G1X69452Y4845D1*
G1X69452Y5246D1*
G1X80822Y7045D2*
G1X80842Y7065D1*
G1X82253Y6065D2*
G1X81842Y6065D1*
G1X81431Y6065D1*
G1X81842Y5654D2*
G1X81842Y6065D1*
G1X81842Y6476D1*
G1X81253Y6065D2*
G1X80842Y6065D1*
G1X80431Y6065D1*
G1X80842Y5654D2*
G1X80842Y6065D1*
G1X80842Y6476D1*
G1X82253Y7065D2*
G1X81842Y7065D1*
G1X81431Y7065D1*
G1X81842Y6654D2*
G1X81842Y7065D1*
G1X81842Y7476D1*
G1X78233Y5725D2*
G1X77702Y5725D1*
G1X77171Y5725D1*
G1X77702Y5725D2*
G1X77702Y6256D1*
G1X78412Y13365D2*
G1X79512Y13365D1*
G1X75453Y11245D2*
G1X75102Y11245D1*
G1X76153Y12345D2*
G1X75802Y12345D1*
G1X75451Y12345D1*
G1X75802Y11994D2*
G1X75802Y12345D1*
G1X75802Y12696D1*
G1X72763Y12745D2*
G1X72232Y12745D1*
G1X75102Y11245D2*
G1X74751Y11245D1*
G1X75102Y10894D2*
G1X75102Y11245D1*
G1X75102Y11596D1*
G1X72232Y12745D2*
G1X71701Y12745D1*
G1X72232Y12214D2*
G1X72232Y12745D1*
G1X72232Y13276D1*
G1X72753Y13895D2*
G1X72402Y13895D1*
G1X73892Y16065D2*
G1X73892Y16835D1*
G1X73902Y16845D1*
G1X72402Y13895D2*
G1X72051Y13895D1*
G1X72402Y13544D2*
G1X72402Y13895D1*
G1X72402Y14246D1*
G1X82022Y20205D2*
G1X82022Y17395D1*
G1X78478Y18645D2*
G1X78102Y18645D1*
G1X77726Y18645D1*
G1X78102Y18269D2*
G1X78102Y18645D1*
G1X78102Y19021D1*
G1X75728Y18645D2*
G1X75352Y18645D1*
G1X74976Y18645D1*
G1X75352Y18269D2*
G1X75352Y18645D1*
G1X75352Y19021D1*
G1X77078Y18645D2*
G1X76702Y18645D1*
G1X76326Y18645D1*
G1X76702Y18269D2*
G1X76702Y18645D1*
G1X76702Y19021D1*
G1X73113Y16845D2*
G1X72582Y16845D1*
G1X72051Y16845D1*
G1X72582Y16314D2*
G1X72582Y16845D1*
G1X72582Y17376D1*
G1X74428Y18645D2*
G1X74052Y18645D1*
G1X73676Y18645D1*
G1X74052Y18269D2*
G1X74052Y18645D1*
G1X74052Y19021D1*
G1X74652Y17795D2*
G1X74652Y19770D1*
G1X81552Y20705D2*
G1X81562Y20695D1*
G1X81562Y18960D1*
G1X81913Y23995D2*
G1X81502Y23995D1*
G1X81091Y23995D1*
G1X81502Y23584D2*
G1X81502Y23995D1*
G1X81502Y24406D1*
G1X78102Y23645D2*
G1X78102Y22645D1*
G1X76702Y23645D2*
G1X76702Y22645D1*
G1X75352Y23645D2*
G1X75352Y22645D1*
G1X74052Y23645D2*
G1X74052Y22645D1*
G1X78453Y24495D2*
G1X78102Y24495D1*
G1X77751Y24495D1*
G1X78102Y24144D2*
G1X78102Y24495D1*
G1X78102Y24846D1*
G1X75703Y24495D2*
G1X75352Y24495D1*
G1X75001Y24495D1*
G1X75352Y24144D2*
G1X75352Y24495D1*
G1X75352Y24846D1*
G1X77053Y24495D2*
G1X76702Y24495D1*
G1X76351Y24495D1*
G1X76702Y24144D2*
G1X76702Y24495D1*
G1X76702Y24846D1*
G1X73652Y26634D2*
G1X73652Y27045D1*
G1X74403Y24495D2*
G1X74052Y24495D1*
G1X73701Y24495D1*
G1X74052Y24144D2*
G1X74052Y24495D1*
G1X74052Y24846D1*
G1X74063Y28045D2*
G1X73652Y28045D1*
G1X73241Y28045D1*
G1X73652Y27634D2*
G1X73652Y28045D1*
G1X73652Y28456D1*
G1X74063Y27045D2*
G1X73652Y27045D1*
G1X73241Y27045D1*
G1X73652Y27045D2*
G1X73652Y27456D1*
G1X75063Y28045D2*
G1X74652Y28045D1*
G1X74241Y28045D1*
G1X74652Y27634D2*
G1X74652Y28045D1*
G1X74652Y28456D1*
G54D18*
G1X77702Y5725D3*
G1X77702Y7045D3*
G1X73552Y12745D3*
G1X72232Y12745D3*
G1X73902Y16845D3*
G1X72582Y16845D3*
G1X75502Y2435D2*
G54D28*
G1X74782Y2435D1*
G1X76652Y11245D2*
G1X75952Y11245D1*
G1X76652Y12345D2*
G1X76652Y13245D1*
G1X78412Y15175D2*
G1X79842Y15175D1*
G1X79842Y13955D2*
G1X78412Y13955D1*
G1X78412Y14565D2*
G1X80172Y14565D1*
G1X70757Y14780D2*
G1X70757Y16340D1*
G1X79802Y19545D2*
G1X79802Y17355D1*
G1X84102Y20495D2*
G1X84102Y23395D1*
G1X83502Y23995D1*
G1X83552Y21205D2*
G1X83552Y22095D1*
G1X82502Y23145D1*
G1X82502Y23995D1*
G1X74352Y26045D2*
G1X75902Y26045D1*
G54D19*
G1X75902Y8575D3*
G1X77142Y3305D2*
G54D29*
G1X76262Y3305D1*
G1X75502Y3305D2*
G1X75502Y5095D1*
G1X72312Y10245D2*
G1X72302Y10255D1*
G1X72302Y8155D1*
G1X73392Y12745D2*
G1X73392Y13755D1*
G1X73252Y13895D1*
G1X73392Y12745D2*
G1X73392Y12735D1*
G1X73542Y12735D1*
G1X73392Y12745D2*
G1X73552Y12745D1*
G1X65000Y34750D2*
G54D13*
G1X65000Y33250D1*
G1X65000Y250D2*
G1X65000Y1750D1*
M2*
