G04 ================== begin FILE IDENTIFICATION RECORD ==================*
G04 Layout Name:  controller.brd*
G04 Film Name:    BOTTOM*
G04 File Format:  Gerber RS274X*
G04 File Origin:  Cadence Allegro 16.3-S021*
G04 Origin Date:  Fri Apr 29 12:38:41 2011*
G04 *
G04 Layer:  ETCH/BOTTOM*
G04 Layer:  PIN/BOTTOM*
G04 Layer:  VIA CLASS/BOTTOM*
G04 *
G04 Offset:    (0.0 0.0)*
G04 Mirror:    No*
G04 Mode:      Positive*
G04 Rotation:  0*
G04 FullContactRelief:  No*
G04 UndefLineWidth:     0.0*
G04 ================== end FILE IDENTIFICATION RECORD ====================*
%FSLAX25Y25*MOIN*%
%IR0*IPPOS*OFA0.00000B0.00000*MIA0B0*SFA1.00000B1.00000*%
%ADD21C,.1*%
%ADD18R,.1X.1*%
%ADD22C,.109*%
%ADD16C,.147*%
%ADD11C,.03*%
%ADD28C,.05*%
%ADD29C,.06*%
%ADD10C,.025*%
%ADD30C,.062*%
%ADD20C,.063*%
%ADD14C,.055*%
%ADD27C,.056*%
%ADD15R,.05X.05*%
%ADD13C,.075*%
%ADD31R,.06X.06*%
%ADD24C,.058*%
%ADD26R,.052X.052*%
%ADD23R,.062X.062*%
%ADD17R,.063X.063*%
%ADD19R,.075X.075*%
%ADD25R,.058X.058*%
%ADD12R,.086X.086*%
%ADD32C,.005*%
%ADD33C,.012*%
%ADD34C,.04*%
%ADD35C,.015*%
%ADD50C,.1164*%
%ADD37O,.2162X.0462*%
%ADD52C,.1634*%
%ADD55O,.0462X.1762*%
%ADD38R,.1022X.1022*%
%ADD51R,.1162X.1162*%
%ADD45C,.0714*%
%ADD48C,.0724*%
%ADD49C,.0914*%
%ADD39C,.0744*%
%ADD53R,.0912X.0912*%
%ADD47C,.0664*%
%ADD44C,.0764*%
%ADD40R,.0742X.0742*%
%ADD42C,.0784*%
%ADD56C,.0794*%
%ADD36R,.0662X.0662*%
%ADD43R,.0762X.0762*%
%ADD54R,.4562X.2962*%
%ADD46R,.0682X.0682*%
%ADD41R,.0782X.0782*%
%ADD57R,.0792X.0792*%
G75*
%LPD*%
G75*
G36*
G01X352530Y4210D02*
G02X352270Y3500I-255J-309D01*
G01X20010D01*
Y20010D01*
X3500D01*
Y329990D01*
X20010D01*
Y347000D01*
X629990D01*
Y329990D01*
X647500D01*
Y20010D01*
X629990D01*
Y3500D01*
X355730D01*
G02X355470Y4210I-5J401D01*
G03X355410Y7840I-1472J1791D01*
G01Y18160D01*
G03X352590I-1410J1840D01*
G01Y7840D01*
G03X352530Y4210I1412J-1839D01*
G37*
%LPC*%
G75*
G36*
G01X437310Y55310D02*
Y48690D01*
X430690D01*
Y55310D01*
X432590D01*
Y56660D01*
G02X435410I1410J1840D01*
G01Y55310D01*
X437310D01*
G37*
G36*
G01X319780Y152190D02*
X313680Y146090D01*
X285310D01*
Y126000D01*
G02X280690I-2310J0D01*
G01Y147500D01*
G02X284830Y148910I2310J0D01*
G01X293690D01*
Y152490D01*
X291790D01*
Y159110D01*
X298410D01*
Y152490D01*
X296510D01*
Y148910D01*
X312520D01*
X317790Y154180D01*
Y158810D01*
X324410D01*
Y152190D01*
X319780D01*
G37*
G36*
G01X310110Y189110D02*
Y178890D01*
X299890D01*
Y182590D01*
X296830D01*
G02X292090Y187330I-3330J1410D01*
G01Y202160D01*
G02X294910I1410J1840D01*
G01Y187330D01*
G02X296830Y185410I-1410J-3330D01*
G01X299890D01*
Y189110D01*
X310110D01*
G37*
G36*
G01X222810Y18810D02*
Y12190D01*
X216190D01*
Y18810D01*
X217990D01*
Y22190D01*
X216090D01*
Y28810D01*
X222710D01*
Y26910D01*
X226290D01*
Y29210D01*
X233710D01*
Y21790D01*
X226290D01*
Y24090D01*
X222710D01*
Y22190D01*
X220810D01*
Y20080D01*
X220910Y19980D01*
Y18810D01*
X222810D01*
G37*
G36*
G01X575660Y95590D02*
X550340D01*
G02Y98410I-1840J1410D01*
G01X575660D01*
G02Y95590I1840J-1410D01*
G37*
G36*
G01X465410Y151660D02*
Y116840D01*
G02X462590I-1410J-1840D01*
G01Y151660D01*
G02X465410I1410J1840D01*
G37*
G36*
G01X444710Y221810D02*
X444800Y221800D01*
X449200Y226190D01*
X449190Y226290D01*
G02X451290Y224190I2310J210D01*
G01X451190Y224200D01*
X446800Y219800D01*
X446810Y219710D01*
G02X444710Y221810I-2310J-210D01*
G37*
G36*
G01X433910Y285660D02*
Y269340D01*
G02X431090I-1410J-1840D01*
G01Y285660D01*
G02X433910I1410J1840D01*
G37*
G36*
G01X557910Y211160D02*
Y208340D01*
G02X555090I-1410J-1840D01*
G01Y211160D01*
G02X557910I1410J1840D01*
G37*
G36*
G01X479160Y68590D02*
X471340D01*
G02Y71410I-1840J1410D01*
G01X479160D01*
G02Y68590I1840J-1410D01*
G37*
G36*
G01Y74590D02*
X471340D01*
G02Y77410I-1840J1410D01*
G01X479160D01*
G02Y74590I1840J-1410D01*
G37*
G36*
G01X451410Y153670D02*
Y116840D01*
G02X448590I-1410J-1840D01*
G01Y153670D01*
G02X451410I1410J3330D01*
G37*
G36*
G01X546810Y52910D02*
X548560D01*
G02Y50090I3440J-1410D01*
G01X546810D01*
Y48190D01*
X540190D01*
Y54810D01*
X546810D01*
Y52910D01*
G37*
G36*
G01X564660Y55090D02*
X560340D01*
G02Y57910I-1840J1410D01*
G01X564660D01*
G02Y55090I1840J-1410D01*
G37*
G36*
G01X556910Y143160D02*
Y116840D01*
G02X554090I-1410J-1840D01*
G01Y143160D01*
G02X556910I1410J1840D01*
G37*
G36*
G01X574410Y84660D02*
Y61340D01*
G02X571590I-1410J-1840D01*
G01Y84660D01*
G02X574410I1410J1840D01*
G37*
G36*
G01X402910Y200090D02*
X395090D01*
Y202590D01*
X391440D01*
G02X384560I-3440J1410D01*
G01X380710D01*
Y200690D01*
X374090D01*
Y207310D01*
X375990D01*
Y208480D01*
X376090Y208580D01*
Y209690D01*
X374190D01*
Y211590D01*
X372310D01*
Y209690D01*
X366270D01*
G03X365990Y209010I2J-399D01*
G01X367680Y207310D01*
X372310D01*
Y200690D01*
X365690D01*
Y205320D01*
X364420Y206590D01*
X363420D01*
X359440Y210570D01*
X359320Y210520D01*
G02X361480Y212680I-1320J3480D01*
G01X361430Y212560D01*
X364580Y209410D01*
X365690D01*
Y216310D01*
X372310D01*
Y214410D01*
X374190D01*
Y216310D01*
X380810D01*
Y209690D01*
X378910D01*
Y207310D01*
X380710D01*
Y205410D01*
X384560D01*
G02X391440I3440J-1410D01*
G01X395090D01*
Y207910D01*
X402910D01*
Y200090D01*
G37*
G36*
G01X541070Y292940D02*
G02X534930I-3070J-2440D01*
G03X534620Y293590I-311J251D01*
G01X527840D01*
G02Y296410I-1840J1410D01*
G01X535750D01*
G03X535960Y297150I2J399D01*
G02X540040I2040J3350D01*
G03X540250Y296410I208J-341D01*
G01X544080D01*
X546410Y294090D01*
X546530Y294130D01*
G02X544420Y292090I1470J-3632D01*
G01X542920Y293590D01*
X541380D01*
G03X541070Y292940I1J-399D01*
G37*
G36*
G01X472470Y15520D02*
Y15420D01*
X473480Y14410D01*
X570290D01*
Y16310D01*
X576910D01*
Y9690D01*
X570290D01*
Y11590D01*
X472320D01*
X469650Y14260D01*
Y14360D01*
X469310Y14700D01*
X469210Y14690D01*
G02X471310Y16790I-210J2310D01*
G01X471300Y16690D01*
X472470Y15520D01*
G37*
G36*
G01X585310Y16310D02*
Y9690D01*
X578690D01*
Y16310D01*
X580590D01*
Y18060D01*
G02X583410I1410J3440D01*
G01Y16310D01*
X585310D01*
G37*
G36*
G01X321420Y13590D02*
X316590Y18420D01*
Y24290D01*
X314290D01*
Y29720D01*
X312310Y31700D01*
X310910D01*
X309320Y33290D01*
X304690D01*
Y39910D01*
X311310D01*
Y35280D01*
X312070Y34520D01*
X313470D01*
X316280Y31710D01*
X321710D01*
Y24290D01*
X319410D01*
Y19580D01*
X322580Y16410D01*
X324720D01*
G02Y13590I3280J-1410D01*
G01X321420D01*
G37*
G36*
G01X258560Y96930D02*
Y22570D01*
G02X254440I-2060J-1070D01*
G01Y96930D01*
G02X258560I2060J1070D01*
G37*
G36*
G01X207690Y24090D02*
X203440D01*
G02Y26910I-3440J1410D01*
G01X207690D01*
Y28810D01*
X214310D01*
Y22190D01*
X207690D01*
Y24090D01*
G37*
G36*
G01X279410Y38160D02*
Y29840D01*
G02X276590I-1410J-1840D01*
G01Y38160D01*
G02X279410I1410J1840D01*
G37*
G36*
G01X546810Y32910D02*
X548560D01*
G02Y30090I3440J-1410D01*
G01X546810D01*
Y28190D01*
X540190D01*
Y34810D01*
X546810D01*
Y32910D01*
G37*
G36*
G01X375410Y40290D02*
Y35550D01*
G02X372590I-1410J-3550D01*
G01Y40290D01*
X370690D01*
Y46910D01*
X377310D01*
Y40290D01*
X375410D01*
G37*
G36*
G01X385410D02*
Y35550D01*
G02X382590I-1410J-3550D01*
G01Y40290D01*
X380690D01*
Y46910D01*
X387310D01*
Y40290D01*
X385410D01*
G37*
G36*
G01X395410D02*
Y35550D01*
G02X392590I-1410J-3550D01*
G01Y40290D01*
X390690D01*
Y46910D01*
X397310D01*
Y40290D01*
X395410D01*
G37*
G36*
G01X435410D02*
Y35550D01*
G02X432590I-1410J-3550D01*
G01Y40290D01*
X430690D01*
Y46910D01*
X437310D01*
Y40290D01*
X435410D01*
G37*
G36*
G01X445410D02*
Y35550D01*
G02X442590I-1410J-3550D01*
G01Y40290D01*
X440690D01*
Y46910D01*
X447310D01*
Y40290D01*
X445410D01*
G37*
G36*
G01X455410D02*
Y35550D01*
G02X452590I-1410J-3550D01*
G01Y40290D01*
X450690D01*
Y46910D01*
X457310D01*
Y40290D01*
X455410D01*
G37*
G36*
G01X465410Y41720D02*
Y35550D01*
G02X462590I-1410J-3550D01*
G01Y41720D01*
G02X465410I1410J3280D01*
G37*
G36*
G01X407810Y35810D02*
Y28190D01*
X400190D01*
Y35810D01*
X402590D01*
Y40290D01*
X400690D01*
Y46910D01*
X407310D01*
Y40290D01*
X405410D01*
Y35810D01*
X407810D01*
G37*
G36*
G01X538410Y34810D02*
Y28190D01*
X531790D01*
Y30090D01*
X528840D01*
G02Y32910I-1840J1410D01*
G01X531790D01*
Y34810D01*
X538410D01*
G37*
G36*
G01X342910Y44660D02*
Y39840D01*
G02X340090I-1410J-1840D01*
G01Y44660D01*
G02X342910I1410J1840D01*
G37*
G36*
G01X363410Y77160D02*
Y40840D01*
G02X360590I-1410J-1840D01*
G01Y77160D01*
G02X363410I1410J1840D01*
G37*
G36*
G01X487160Y37590D02*
X471340D01*
G02Y40410I-1840J1410D01*
G01X487160D01*
G02Y37590I1840J-1410D01*
G37*
G36*
G01X355410Y59160D02*
Y41340D01*
G02X352590I-1410J-1840D01*
G01Y59160D01*
G02X355410I1410J1840D01*
G37*
G36*
G01X587690Y40090D02*
X585440D01*
G02Y42910I-3440J1410D01*
G01X587690D01*
Y44810D01*
X594310D01*
Y38190D01*
X587690D01*
Y40090D01*
G37*
G36*
G01X602710D02*
Y38190D01*
X596090D01*
Y44810D01*
X602710D01*
Y42910D01*
X605660D01*
G02Y40090I1840J-1410D01*
G01X602710D01*
G37*
G36*
G01X311310Y48310D02*
Y41690D01*
X304690D01*
Y48310D01*
X306590D01*
Y84160D01*
G02X309410I1410J1840D01*
G01Y48310D01*
X311310D01*
G37*
G36*
G01X283310Y49410D02*
X284560D01*
G02Y46590I3440J-1410D01*
G01X283310D01*
Y44690D01*
X276690D01*
Y51310D01*
X283310D01*
Y49410D01*
G37*
G36*
G01X334410Y77660D02*
Y51280D01*
G02X331590I-1410J-3280D01*
G01Y77660D01*
G02X334410I1410J1840D01*
G37*
G36*
G01X274910Y51310D02*
Y44690D01*
X268290D01*
Y51310D01*
X270090D01*
Y52160D01*
G02X272910I1410J1840D01*
G01Y51310D01*
X274910D01*
G37*
G36*
G01X587690Y50090D02*
X585440D01*
G02Y52910I-3440J1410D01*
G01X587690D01*
Y54810D01*
X594310D01*
Y48190D01*
X587690D01*
Y50090D01*
G37*
G36*
G01X538410Y54810D02*
Y48190D01*
X531790D01*
Y50090D01*
X527820D01*
G02X528630Y52910I-1322J1906D01*
G01X531790D01*
Y54810D01*
X538410D01*
G37*
G36*
G01X602710Y50090D02*
Y48190D01*
X596090D01*
Y54810D01*
X602710D01*
Y52910D01*
X605660D01*
G02Y50090I1840J-1410D01*
G01X602710D01*
G37*
G36*
G01X377310Y55310D02*
Y48690D01*
X370690D01*
Y55310D01*
X372590D01*
Y81160D01*
G02X375410I1410J1840D01*
G01Y55310D01*
X377310D01*
G37*
G36*
G01X387310D02*
Y48690D01*
X380690D01*
Y55310D01*
X382590D01*
Y59160D01*
G02X385410I1410J1840D01*
G01Y55310D01*
X387310D01*
G37*
G36*
G01X397310D02*
Y48690D01*
X390690D01*
Y55310D01*
X392590D01*
Y72660D01*
G02X395410I1410J1840D01*
G01Y55310D01*
X397310D01*
G37*
G36*
G01X407310D02*
Y48690D01*
X400690D01*
Y55310D01*
X402590D01*
Y56160D01*
G02X405410I1410J1840D01*
G01Y55310D01*
X407310D01*
G37*
G36*
G01X447310D02*
Y48690D01*
X440690D01*
Y55310D01*
X442590D01*
Y56660D01*
G02X445410I1410J1840D01*
G01Y55310D01*
X447310D01*
G37*
G36*
G01X457310D02*
Y48690D01*
X450690D01*
Y55310D01*
X452590D01*
Y56660D01*
G02X455410I1410J1840D01*
G01Y55310D01*
X457310D01*
G37*
G36*
G01X289320Y61480D02*
X289440Y61430D01*
X294090Y66080D01*
Y86160D01*
G02X296910I1410J1840D01*
G01Y64920D01*
X291430Y59440D01*
X291480Y59320D01*
G02X289320Y61480I-3480J-1320D01*
G37*
G36*
G01X587690Y60090D02*
X585440D01*
G02Y62910I-3440J1410D01*
G01X587690D01*
Y64810D01*
X594310D01*
Y58190D01*
X587690D01*
Y60090D01*
G37*
G36*
G01X602710D02*
Y58190D01*
X596090D01*
Y64810D01*
X602710D01*
Y62910D01*
X605660D01*
G02Y60090I1840J-1410D01*
G01X602710D01*
G37*
G36*
G01X283310Y69410D02*
X284560D01*
G02Y66590I3440J-1410D01*
G01X283310D01*
Y64690D01*
X276690D01*
Y71310D01*
X283310D01*
Y69410D01*
G37*
G36*
G01X274910Y71310D02*
Y64690D01*
X268290D01*
Y71310D01*
X270090D01*
Y72160D01*
G02X272910I1410J1840D01*
G01Y71310D01*
X274910D01*
G37*
G36*
G01X538410Y74810D02*
Y68190D01*
X531790D01*
Y70090D01*
X529340D01*
G02Y72910I-1840J1410D01*
G01X531790D01*
Y74810D01*
X538410D01*
G37*
G36*
G01X283310Y89410D02*
X284560D01*
G02Y86590I3440J-1410D01*
G01X283310D01*
Y84690D01*
X276690D01*
Y91310D01*
X283310D01*
Y89410D01*
G37*
G36*
G01X274910Y91310D02*
Y84690D01*
X268290D01*
Y91310D01*
X270090D01*
Y92160D01*
G02X272910I1410J1840D01*
G01Y91310D01*
X274910D01*
G37*
G36*
G01X115810Y99410D02*
X118560D01*
G02Y96590I3440J-1410D01*
G01X115810D01*
Y94690D01*
X109190D01*
Y101310D01*
X115810D01*
Y99410D01*
G37*
G36*
G01X309160Y98090D02*
X306840D01*
G02Y100910I-1840J1410D01*
G01X309160D01*
G02Y98090I1840J-1410D01*
G37*
G36*
G01X343160D02*
X339840D01*
G02Y100910I-1840J1410D01*
G01X343160D01*
G02Y98090I1840J-1410D01*
G37*
G36*
G01X272410Y145660D02*
Y114340D01*
G02X269590I-1410J-1840D01*
G01Y145660D01*
G02X272410I1410J1840D01*
G37*
G36*
G01X278410D02*
Y114340D01*
G02X275590I-1410J-1840D01*
G01Y145660D01*
G02X278410I1410J1840D01*
G37*
G36*
G01X258560Y146370D02*
Y114070D01*
G02X254440I-2060J-1070D01*
G01Y146370D01*
G02X258560I2060J1070D01*
G37*
G36*
G01X337410Y148660D02*
Y115840D01*
G02X334590I-1410J-1840D01*
G01Y148660D01*
G02X337410I1410J1840D01*
G37*
G36*
G01X342910Y143660D02*
Y115840D01*
G02X340090I-1410J-1840D01*
G01Y143660D01*
G02X342910I1410J1840D01*
G37*
G36*
G01X186910Y115820D02*
G02X184090Y116630I-1906J-1322D01*
G01Y144660D01*
G02X186910I1410J1840D01*
G01Y115820D01*
G37*
G36*
G01X13190Y127110D02*
Y133850D01*
G02X19810I3310J3150D01*
G01Y127110D01*
X21610D01*
Y116890D01*
X11390D01*
Y127110D01*
X13190D01*
G37*
G36*
G01X89410Y144660D02*
Y126340D01*
G02X86590I-1410J-1840D01*
G01Y144660D01*
G02X89410I1410J1840D01*
G37*
G36*
G01X562560Y143280D02*
Y130720D01*
G02X559440I-1560J-1720D01*
G01Y143280D01*
G02X562560I1560J1720D01*
G37*
G36*
G01X52810Y148810D02*
Y142190D01*
X46190D01*
Y148810D01*
X47440D01*
Y150580D01*
G02X51560I2060J2920D01*
G01Y148810D01*
X52810D01*
G37*
G36*
G01X418910Y165660D02*
Y147340D01*
G02X416090I-1410J-1840D01*
G01Y165660D01*
G02X418910I1410J1840D01*
G37*
G36*
G01X151910Y153910D02*
Y146090D01*
X144090D01*
Y153910D01*
X146590D01*
Y156890D01*
X142890D01*
Y167110D01*
X153110D01*
Y156890D01*
X149410D01*
Y153910D01*
X151910D01*
G37*
G36*
G01X370410Y162290D02*
Y152340D01*
G02X367590I-1410J-1840D01*
G01Y162290D01*
X365690D01*
Y168910D01*
X372310D01*
Y167010D01*
X374190D01*
Y168910D01*
X380810D01*
Y167010D01*
X382680D01*
X384280Y165410D01*
X384560D01*
X384610Y165530D01*
G02X384560Y162590I3391J-1528D01*
G01X383120D01*
X381520Y164190D01*
X380810D01*
Y162290D01*
X374190D01*
Y164190D01*
X372310D01*
Y162290D01*
X370410D01*
G37*
G36*
G01X431410Y163670D02*
Y156340D01*
G02X428590I-1410J-1840D01*
G01Y163670D01*
G02X431410I1410J3330D01*
G37*
G36*
G01X306810Y159110D02*
Y152490D01*
X300190D01*
Y159110D01*
X302090D01*
Y160670D01*
G02X304910I1410J3330D01*
G01Y159110D01*
X306810D01*
G37*
G36*
G01X564160Y157090D02*
X539840D01*
G02Y159910I-1840J1410D01*
G01X564160D01*
G02Y157090I1840J-1410D01*
G37*
G36*
G01X166310Y160590D02*
Y156890D01*
X156090D01*
Y167110D01*
X166310D01*
Y163410D01*
X168160D01*
G02Y160590I1840J-1410D01*
G01X166310D01*
G37*
G36*
G01X190420Y162590D02*
X188660D01*
G02Y165410I-3660J1410D01*
G01X191690D01*
Y167210D01*
X198310D01*
Y160590D01*
X191690D01*
Y162490D01*
X190520D01*
X190420Y162590D01*
G37*
G36*
G01X579790Y170090D02*
X576440D01*
G02Y172910I-3440J1410D01*
G01X579790D01*
Y174810D01*
X586410D01*
Y168190D01*
X579790D01*
Y170090D01*
G37*
G36*
G01X286660Y169090D02*
X269340D01*
G02Y171910I-1840J1410D01*
G01X286660D01*
G02Y169090I1840J-1410D01*
G37*
G36*
G01X359320Y177480D02*
X359440Y177430D01*
X363930Y181920D01*
X364930D01*
X365690Y182680D01*
Y187310D01*
X372310D01*
Y180690D01*
X367680D01*
X366090Y179100D01*
X365090D01*
X361430Y175440D01*
X361480Y175320D01*
G02X359320Y177480I-3480J-1320D01*
G37*
G36*
G01X372310Y172590D02*
Y170690D01*
X365690D01*
Y177310D01*
X372310D01*
Y175410D01*
X374190D01*
Y177310D01*
X375990D01*
Y180690D01*
X374090D01*
Y187310D01*
X380710D01*
Y185410D01*
X384560D01*
G02X391440I3440J-1410D01*
G01X395090D01*
Y187910D01*
X402910D01*
Y180090D01*
X395090D01*
Y182590D01*
X391440D01*
G02X384560I-3440J1410D01*
G01X380710D01*
Y180690D01*
X378810D01*
Y178580D01*
X378910Y178480D01*
Y177310D01*
X380810D01*
Y170690D01*
X374190D01*
Y172590D01*
X372310D01*
G37*
G36*
G01X545020Y176320D02*
X545070Y176440D01*
X542090Y179420D01*
Y210580D01*
X545070Y213560D01*
X545020Y213680D01*
G02X547090Y218440I3479J1317D01*
G01Y221560D01*
G02X549910I1410J3440D01*
G01Y218440D01*
G02X547060Y211570I-1410J-3441D01*
G01X544910Y209420D01*
Y207610D01*
G03X545620Y207350I401J-5D01*
G02Y202650I2880J-2350D01*
G03X544910Y202390I-309J-255D01*
G01Y197610D01*
G03X545620Y197350I401J-5D01*
G02Y192650I2880J-2350D01*
G03X544910Y192390I-309J-255D01*
G01Y187610D01*
G03X545620Y187350I401J-5D01*
G02Y182650I2880J-2350D01*
G03X544910Y182390I-309J-255D01*
G01Y180580D01*
X547060Y178430D01*
G02X545020Y176320I1438J-3432D01*
G37*
G36*
G01X251160Y178590D02*
X239840D01*
G02Y181410I-1840J1410D01*
G01X251160D01*
G02Y178590I1840J-1410D01*
G37*
G36*
G01X574410Y188060D02*
Y184940D01*
G02X571590I-1410J-3440D01*
G01Y188060D01*
G02X574410I1410J3440D01*
G37*
G36*
G01X336610Y189110D02*
Y178890D01*
X326390D01*
Y182590D01*
X322830D01*
G02Y185410I-3330J1410D01*
G01X326390D01*
Y189110D01*
X336610D01*
G37*
G36*
G01X155940Y192110D02*
Y198900D01*
G02Y205100I2060J3100D01*
G01Y206690D01*
X154790D01*
Y213310D01*
X161410D01*
Y206690D01*
X160060D01*
Y205100D01*
G02Y198900I-2060J-3100D01*
G01Y192110D01*
X163110D01*
Y181890D01*
X152890D01*
Y192110D01*
X155940D01*
G37*
G36*
G01X477160Y183590D02*
X472840D01*
G02Y186410I-1840J1410D01*
G01X477160D01*
G02Y183590I1840J-1410D01*
G37*
G36*
G01X278410Y198660D02*
Y189340D01*
G02X275590I-1410J-1840D01*
G01Y198660D01*
G02X278410I1410J1840D01*
G37*
G36*
G01X604410Y198060D02*
Y194940D01*
G02X601590I-1410J-3440D01*
G01Y198060D01*
G02Y204940I1410J3440D01*
G01Y208060D01*
G02X604410I1410J3440D01*
G01Y204940D01*
G02Y198060I-1410J-3440D01*
G37*
G36*
G01X483160Y190590D02*
X472840D01*
G02Y193410I-1840J1410D01*
G01X483160D01*
G02Y190590I1840J-1410D01*
G37*
G36*
G01X365690Y192590D02*
X361440D01*
G02Y195410I-3440J1410D01*
G01X365690D01*
Y197310D01*
X372310D01*
Y190690D01*
X365690D01*
Y192590D01*
G37*
G36*
G01X592550Y198190D02*
G03X592250Y197530I0J-398D01*
G02X588930Y197700I-1743J-1531D01*
G01X588990Y197760D01*
Y198190D01*
X587090D01*
Y204810D01*
X593710D01*
Y198190D01*
X592550D01*
G37*
G36*
G01X483160Y196590D02*
X472840D01*
G02Y199410I-1840J1410D01*
G01X483160D01*
G02Y196590I1840J-1410D01*
G37*
G36*
G01X578690Y200090D02*
X576440D01*
G02Y202910I-3440J1410D01*
G01X578690D01*
Y204810D01*
X585310D01*
Y198190D01*
X578690D01*
Y200090D01*
G37*
G36*
G01X180690Y200590D02*
X171440D01*
G02Y203410I-3440J1410D01*
G01X180690D01*
Y205310D01*
X187310D01*
Y198690D01*
X180690D01*
Y200590D01*
G37*
G36*
G01X195710D02*
Y198690D01*
X189090D01*
Y205310D01*
X195710D01*
Y203410D01*
X198290D01*
Y205310D01*
X204910D01*
Y198690D01*
X198290D01*
Y200590D01*
X195710D01*
G37*
G36*
G01X250690Y204710D02*
X250700Y204810D01*
X247090Y208420D01*
Y219660D01*
G02X249910I1410J1840D01*
G01Y209580D01*
X252690Y206800D01*
X252790Y206810D01*
G02X250690Y204710I210J-2310D01*
G37*
G36*
G01X242910Y219660D02*
Y211340D01*
G02X240090I-1410J-1840D01*
G01Y219660D01*
G02X242910I1410J1840D01*
G37*
G36*
G01X483410Y217810D02*
Y211190D01*
X476790D01*
Y217810D01*
X478690D01*
Y218520D01*
X478590Y218620D01*
Y220060D01*
G02Y226940I1410J3440D01*
G01Y230190D01*
X476690D01*
Y236810D01*
X483310D01*
Y230190D01*
X481410D01*
Y226940D01*
G02X481530Y220110I-1411J-3441D01*
G01X481410Y220060D01*
Y219780D01*
X481510Y219680D01*
Y217810D01*
X483410D01*
G37*
G36*
G01X386680Y220520D02*
X386560Y220570D01*
X385980Y219990D01*
X380810D01*
Y218090D01*
X374190D01*
Y219990D01*
X372310D01*
Y218090D01*
X365690D01*
Y224710D01*
X372310D01*
Y222810D01*
X374190D01*
Y224710D01*
X380810D01*
Y222810D01*
X383960D01*
G03X384350Y223290I-2J400D01*
G02X386680Y220520I3652J707D01*
G37*
G36*
G01X374490Y249520D02*
X364090Y259920D01*
G02X366130Y262030I-1592J3580D01*
G01X366090Y261910D01*
X377310Y250680D01*
Y242840D01*
G02X374490I-1410J-1840D01*
G01Y249520D01*
G37*
G36*
G01X384410Y250160D02*
Y245840D01*
G02X381590I-1410J-1840D01*
G01Y250160D01*
G02X384410I1410J1840D01*
G37*
G36*
G01X195190Y277190D02*
X194680D01*
X191060Y273570D01*
Y266440D01*
X181940D01*
Y275560D01*
X189070D01*
X193520Y280010D01*
X195190D01*
Y281910D01*
X201810D01*
Y280010D01*
X204480D01*
X210910Y273580D01*
Y264280D01*
G02X208090I-1410J-3280D01*
G01Y272420D01*
X203320Y277190D01*
X201810D01*
Y275290D01*
X195190D01*
Y277190D01*
G37*
G36*
G01X327840Y264910D02*
X348840D01*
G02Y262090I3660J-1410D01*
G01X327840D01*
G02Y264910I-1840J1410D01*
G37*
G36*
G01X272410Y270290D02*
Y268840D01*
G02X269590I-1410J-1840D01*
G01Y270290D01*
X267690D01*
Y276910D01*
X274310D01*
Y270290D01*
X272410D01*
G37*
G36*
G01X70810Y283820D02*
G02X67990Y283730I-1305J-3321D01*
G01Y285190D01*
X66090D01*
Y291810D01*
X72710D01*
Y285190D01*
X70810D01*
Y283820D01*
G37*
G36*
G01X453510Y283880D02*
Y281440D01*
G02X450690I-1410J-1840D01*
G01Y282720D01*
X450590Y282820D01*
Y301660D01*
G02X453410I1410J1840D01*
G01Y283980D01*
X453510Y283880D01*
G37*
G36*
G01X380910Y288610D02*
Y278390D01*
X370690D01*
Y282090D01*
X366160D01*
G02Y284910I-3660J1410D01*
G01X370690D01*
Y288610D01*
X374390D01*
Y289660D01*
G02X377210I1410J1840D01*
G01Y288610D01*
X380910D01*
G37*
G36*
G01X404910Y305740D02*
G03X405090Y306410I-102J386D01*
G01X402090Y309420D01*
G02X404130Y311530I-1592J3580D01*
G01X404090Y311410D01*
X408850Y306640D01*
X408990Y306760D01*
G02X408780Y303440I1510J-1762D01*
G01X407830D01*
X407810Y303260D01*
G02X406910Y301660I-2307J245D01*
G01Y288340D01*
G02X407590Y285490I-1410J-1842D01*
G03X407950Y284910I356J-181D01*
G01X411160D01*
G02Y282090I1840J-1410D01*
G01X394110D01*
Y278390D01*
X383890D01*
Y288610D01*
X394110D01*
Y284910D01*
X403050D01*
G03X403410Y285490I4J399D01*
G02X404090Y288340I2090J1008D01*
G01Y301660D01*
G02X404910Y305740I1412J1839D01*
G37*
G36*
G01X276790Y290690D02*
X276690Y290700D01*
X272410Y286420D01*
Y285310D01*
X274310D01*
Y278690D01*
X267690D01*
Y285310D01*
X269590D01*
Y287580D01*
X274700Y292690D01*
X274690Y292790D01*
G02X275590Y294840I2310J208D01*
G01Y305550D01*
G03X274870Y305800I-401J7D01*
G02Y310200I-2870J2200D01*
G03X275590Y310450I319J243D01*
G01Y317440D01*
X268070D01*
G02Y321560I-1070J2060D01*
G01X275930D01*
G02X278410Y317660I1068J-2059D01*
G01Y294840D01*
G02X276790Y290690I-1412J-1840D01*
G37*
G36*
G01X208090Y292580D02*
Y297720D01*
G02X210910I1410J3280D01*
G01Y291420D01*
X205080Y285590D01*
X201810D01*
Y283690D01*
X195190D01*
Y285590D01*
X189920D01*
X188580Y286930D01*
G02X190570Y288920I-2080J4070D01*
G01X191080Y288410D01*
X195190D01*
Y290310D01*
X201810D01*
Y288410D01*
X203920D01*
X208090Y292580D01*
G37*
G36*
G01X309590Y299910D02*
Y302580D01*
X312410Y305410D01*
X312370Y305530D01*
G02X314410Y303420I3632J1470D01*
G01X312410Y301420D01*
Y299910D01*
G03X313110Y299640I402J-1D01*
G02Y294360I2890J-2640D01*
G03X312410Y294090I-298J-269D01*
G01Y293840D01*
X312480Y293780D01*
G02X312820Y290560I-1481J-1784D01*
G03X313130Y289910I311J-250D01*
G01X327660D01*
G02Y287090I1840J-1410D01*
G01X303340D01*
G02Y289910I-1840J1410D01*
G01X308870D01*
G03X309180Y290560I-1J400D01*
G02X309520Y293780I1821J1436D01*
G01X309590Y293840D01*
Y294090D01*
G03X308890Y294360I-402J1D01*
G02Y299640I-2890J2640D01*
G03X309590Y299910I298J269D01*
G37*
G36*
G01X284410Y305160D02*
Y294340D01*
G02X281590I-1410J-1840D01*
G01Y305160D01*
G02X284410I1410J1840D01*
G37*
G36*
G01X327410Y316190D02*
Y310660D01*
G02X324590I-1410J-3660D01*
G01Y316190D01*
X322690D01*
Y322810D01*
X329310D01*
Y316190D01*
X327410D01*
G37*
G36*
G01X17410Y312350D02*
G02X14590I-1410J-4350D01*
G01Y315190D01*
X12690D01*
Y321810D01*
X19310D01*
Y315190D01*
X17410D01*
Y312350D01*
G37*
G36*
G01X446810Y331690D02*
Y321160D01*
G02X443990Y321310I-1508J-1761D01*
G01Y331690D01*
X442090D01*
Y338310D01*
X448710D01*
Y331690D01*
X446810D01*
G37*
G36*
G01X382940Y326840D02*
G03X382840Y326140I139J-377D01*
G02X380030Y326890I-2343J-3140D01*
G03X380300Y327540I-43J399D01*
G02X380280Y330440I1800J1462D01*
G03X379970Y331090I-311J250D01*
G01X378790D01*
Y337710D01*
X385410D01*
Y331090D01*
X384230D01*
G03X383920Y330440I1J-400D01*
G02X382940Y326840I-1820J-1438D01*
G37*
G36*
G01X391910Y326660D02*
G02X389090I-1410J-3660D01*
G01Y331090D01*
X387190D01*
Y337710D01*
X393810D01*
Y331090D01*
X391910D01*
Y326660D01*
G37*
G36*
G01X412030Y326610D02*
G02X409090Y326660I-1532J-3609D01*
G01Y328080D01*
X409190Y328180D01*
Y329990D01*
X405490D01*
Y340210D01*
X415710D01*
Y329990D01*
X412010D01*
Y327020D01*
X411910Y326920D01*
Y326660D01*
X412030Y326610D01*
G37*
G36*
G01X428910Y333690D02*
Y329990D01*
X418690D01*
Y340210D01*
X428910D01*
Y336510D01*
X433690D01*
Y338310D01*
X440310D01*
Y331690D01*
X433690D01*
Y333590D01*
X432520D01*
X432420Y333690D01*
X428910D01*
G37*
G36*
G01X564160Y150090D02*
X539840D01*
G02Y152910I-1840J1410D01*
G01X564160D01*
G02Y150090I1840J-1410D01*
G37*
G36*
G01X545910Y143160D02*
Y116840D01*
G02X543090I-1410J-1840D01*
G01Y143160D01*
G02X545910I1410J1840D01*
G37*
G36*
G01X551410D02*
Y111580D01*
X552580Y110410D01*
X571160D01*
G02Y107590I1840J-1410D01*
G01X551420D01*
X548590Y110420D01*
Y143160D01*
G02X551410I1410J1840D01*
G37*
G36*
G01X555700Y71100D02*
G02X548560Y70090I-3698J401D01*
G01X546810D01*
Y68190D01*
X540190D01*
Y74810D01*
X546810D01*
Y72910D01*
X548560D01*
G02X555080Y73590I3442J-1410D01*
G03X555790Y73700I328J228D01*
G02X556590Y74840I2210J-700D01*
G01Y78160D01*
G02X556390Y78330I1400J1849D01*
G03X555710Y78040I-280J-286D01*
G01Y77790D01*
X548290D01*
Y85210D01*
X555710D01*
Y81960D01*
G03X556390Y81670I400J-4D01*
G02X559410Y78160I1614J-1665D01*
G01Y74840D01*
G02X556380Y71340I-1406J-1845D01*
G03X555700Y71100I-283J-282D01*
G37*
G36*
G01X476810Y137500D02*
Y114500D01*
G02X471190I-2810J0D01*
G01Y137500D01*
G02X471690Y139100I2810J0D01*
G01Y157000D01*
G02X476310I2310J0D01*
G01Y139100D01*
G02X476810Y137500I-2310J-1600D01*
G37*
G36*
G01X479160Y60590D02*
X471340D01*
G02Y63410I-1840J1410D01*
G01X479160D01*
G02Y60590I1840J-1410D01*
G37*
G36*
G01X493440Y252090D02*
G02X488590Y256940I-3440J1410D01*
G01Y258190D01*
X486690D01*
Y264810D01*
X493310D01*
Y258190D01*
X491410D01*
Y256940D01*
G02X493440Y254910I-1410J-3440D01*
G01X495390D01*
Y258610D01*
X505610D01*
Y248390D01*
X495390D01*
Y252090D01*
X493440D01*
G37*
G36*
G01X496910Y209160D02*
Y206840D01*
G02X494090I-1410J-1840D01*
G01Y209160D01*
G02X496910I1410J1840D01*
G37*
G36*
G01X507410Y216660D02*
Y212840D01*
G02X504590I-1410J-1840D01*
G01Y216660D01*
G02X507410I1410J1840D01*
G37*
G36*
G01X522090Y217610D02*
Y219420D01*
X519940Y221570D01*
G02X521930Y223560I-1440J3430D01*
G01X524910Y220580D01*
Y189420D01*
X521930Y186440D01*
G02X519940Y188430I-3430J-1440D01*
G01X522090Y190580D01*
Y192390D01*
G03X521380Y192650I-401J5D01*
G02Y197350I-2880J2350D01*
G03X522090Y197610I309J255D01*
G01Y202390D01*
G03X521380Y202650I-401J5D01*
G02Y207350I-2880J2350D01*
G03X522090Y207610I309J255D01*
G01Y212390D01*
G03X521380Y212650I-401J5D01*
G02Y217350I-2880J2350D01*
G03X522090Y217610I309J255D01*
G37*
G36*
G01X529410Y216660D02*
Y213340D01*
G02X526590I-1410J-1840D01*
G01Y216660D01*
G02X529410I1410J1840D01*
G37*
G36*
G01X496910Y299660D02*
Y289340D01*
G02X494090I-1410J-1840D01*
G01Y299660D01*
G02X496910I1410J1840D01*
G37*
G36*
G01X502410Y297660D02*
Y289340D01*
G02X499590I-1410J-1840D01*
G01Y297660D01*
G02X502410I1410J1840D01*
G37*
G36*
G01X507910Y295660D02*
Y289340D01*
G02X505090I-1410J-1840D01*
G01Y295660D01*
G02X507910I1410J1840D01*
G37*
G36*
G01X474910Y305720D02*
Y288840D01*
G02X472090I-1410J-1840D01*
G01Y305720D01*
G02X474910I1410J3280D01*
G37*
G36*
G01X431710Y208810D02*
X431810Y208800D01*
X436200Y213190D01*
X436190Y213290D01*
G02X438290Y211190I2310J210D01*
G01X438190Y211200D01*
X433800Y206810D01*
X433810Y206710D01*
G02X431710Y208810I-2310J-210D01*
G37*
G36*
G01X485410Y146660D02*
Y116840D01*
G02X482590I-1410J-1840D01*
G01Y146660D01*
G02X485410I1410J1840D01*
G37*
G36*
G01X541710Y233590D02*
Y231690D01*
X535090D01*
Y238310D01*
X541710D01*
Y236410D01*
X545060D01*
G02X551420Y237310I3443J-1409D01*
G01X553530D01*
G03X553750Y238050I5J401D01*
G02X553590Y241840I1252J1951D01*
G01Y244160D01*
G02X556410I1410J1840D01*
G01Y241840D01*
G02X556250Y238050I-1412J-1839D01*
G03X556470Y237310I215J-339D01*
G01X558540D01*
X565690Y244460D01*
Y255000D01*
G02X570310I2310J0D01*
G01Y242540D01*
X560460Y232690D01*
X551420D01*
G02X545060Y233590I-2917J2309D01*
G01X541710D01*
G37*
G36*
G01X578910Y151160D02*
Y126340D01*
G02X576090I-1410J-1840D01*
G01Y151160D01*
G02X578910I1410J1840D01*
G37*
G36*
G01X466690Y240190D02*
Y244820D01*
X465590Y245910D01*
G03X464910Y245630I-281J-282D01*
G01Y240190D01*
X463010D01*
Y236810D01*
X464910D01*
Y230190D01*
X463010D01*
Y228820D01*
X462090Y227890D01*
G03X462370Y227210I282J-281D01*
G01X463710D01*
Y219790D01*
X458280D01*
X449910Y211420D01*
Y210410D01*
X451910D01*
Y203590D01*
X445090D01*
Y210410D01*
X447090D01*
Y212580D01*
X456290Y221780D01*
Y227210D01*
X458590D01*
Y228380D01*
X459710Y229510D01*
G03X459430Y230190I-282J281D01*
G01X458290D01*
Y236810D01*
X460190D01*
Y240190D01*
X458290D01*
Y246810D01*
X463730D01*
G03X464010Y247490I-2J399D01*
G01X463690Y247820D01*
Y251020D01*
G03X462970Y251260I-400J0D01*
G02X456560Y252090I-2969J2241D01*
G01X452310D01*
Y250190D01*
X450410D01*
Y246210D01*
X452310D01*
Y239590D01*
X445690D01*
Y246210D01*
X447590D01*
Y250190D01*
X445690D01*
Y256810D01*
X452310D01*
Y254910D01*
X456560D01*
G02X462160Y256530I3442J-1410D01*
G03X462790Y256890I232J325D01*
G02X467420Y257010I2311J207D01*
G03X468030Y256660I398J-14D01*
G02X472090Y256580I1969J-3157D01*
G03X472710Y256850I224J333D01*
G02X473520Y258280I2290J-353D01*
G01X473590Y258340D01*
Y258710D01*
G02Y258890I1410J90D01*
G01Y259380D01*
X473930Y259720D01*
Y259730D01*
G02X474000Y259800I1035J-965D01*
G01X475640Y261430D01*
X477120Y262910D01*
X478290D01*
Y264810D01*
X484910D01*
Y258190D01*
X478290D01*
Y259130D01*
G03X477610Y259410I-398J-2D01*
G01X476490Y258290D01*
X476630Y258150D01*
G02X477290Y256850I-1633J-1646D01*
G03X477910Y256580I395J61D01*
G02X476300Y253890I2091J-3078D01*
G03X475770Y254310I-397J44D01*
G02X474230I-770J2190D01*
G03X473700Y253890I-133J-377D01*
G02X467210Y251040I-3701J-387D01*
G03X466510Y250780I-300J-265D01*
G01Y248980D01*
X468680Y246810D01*
X473310D01*
Y240190D01*
X471410D01*
Y236810D01*
X473310D01*
Y230190D01*
X471410D01*
Y226940D01*
G02X468590I-1410J-3440D01*
G01Y230190D01*
X466690D01*
Y236810D01*
X468590D01*
Y240190D01*
X466690D01*
G37*
G36*
G01X332810Y158810D02*
Y152190D01*
X326190D01*
Y158810D01*
X328090D01*
Y160670D01*
G02X330910I1410J3330D01*
G01Y158810D01*
X332810D01*
G37*
G36*
G01X289410Y24560D02*
Y18280D01*
G02X286590I-1410J-3280D01*
G01Y24560D01*
G02X291440Y29410I1410J3440D01*
G01X295690D01*
Y31310D01*
X302310D01*
Y24690D01*
X295690D01*
Y26590D01*
X291440D01*
G02X289410Y24560I-3440J1410D01*
G37*
G36*
G01X54690Y269520D02*
Y269820D01*
X54580Y269870D01*
G02X57510Y269820I1521J3230D01*
G01Y268360D01*
X57410Y268260D01*
Y267410D01*
X59310D01*
Y260790D01*
X52690D01*
Y267410D01*
X54590D01*
Y269420D01*
X54690Y269520D01*
G37*
G36*
G01X67710Y267410D02*
Y260790D01*
X61090D01*
Y267410D01*
X62990D01*
Y269160D01*
G02X65810I1410J1840D01*
G01Y267410D01*
X67710D01*
G37*
G54D50*
X135100Y330000D03*
X48100D03*
G54D37*
X629500Y137000D03*
G54D52*
X126500Y281000D03*
X26000Y248000D03*
X26500Y77000D03*
G54D55*
X283000Y194000D03*
G54D38*
X500500Y240300D03*
X331500Y197200D03*
X305000D03*
X171200Y187000D03*
X29700Y122000D03*
G54D51*
X119500Y330000D03*
X32500D03*
G54D45*
X464000Y85000D03*
X433500Y309000D03*
X333000Y88000D03*
X159500Y310500D03*
X119500D03*
X69500Y320500D03*
X61500Y210000D03*
Y170000D03*
X9500Y153500D03*
X56100Y313100D03*
X477000Y322600D03*
X437000D03*
G54D48*
X412500Y273500D03*
X423500Y207000D03*
X402500Y253500D03*
X262000Y328000D03*
X242000Y308000D03*
X232000Y328000D03*
X146000Y78000D03*
X94000Y308000D03*
G54D49*
X186500Y281000D03*
X26000Y308000D03*
X26500Y137000D03*
G54D39*
X552000Y61500D03*
X603000Y231500D03*
Y221500D03*
Y181500D03*
X582000Y81500D03*
Y71500D03*
Y31500D03*
X573000Y231500D03*
Y211500D03*
Y221500D03*
X552000Y41500D03*
Y21500D03*
X518500Y175000D03*
X490000Y223500D03*
X388000Y214000D03*
Y194000D03*
Y174000D03*
X358000Y204000D03*
Y184000D03*
Y164000D03*
X318000Y88000D03*
Y78000D03*
Y68000D03*
Y48000D03*
Y58000D03*
Y38000D03*
X288000Y78000D03*
Y38000D03*
X230000Y85500D03*
Y75500D03*
Y65500D03*
Y55500D03*
Y45500D03*
Y35500D03*
X200000Y75500D03*
Y85500D03*
Y65500D03*
Y55500D03*
Y35500D03*
Y45500D03*
X168000Y172000D03*
X158000D03*
X148000Y202000D03*
Y172000D03*
X138000Y202000D03*
X122000Y88000D03*
Y78000D03*
Y68000D03*
Y58000D03*
Y48000D03*
Y38000D03*
Y28000D03*
X92000Y88000D03*
Y78000D03*
Y68000D03*
Y48000D03*
Y58000D03*
Y38000D03*
Y28000D03*
G54D53*
X36000Y308000D03*
X36500Y137000D03*
G54D47*
X439000Y253500D03*
X230000Y242000D03*
X216000Y334000D03*
X220000Y252000D03*
X206000Y324000D03*
X152000Y50500D03*
X142000Y40500D03*
X152000Y24500D03*
X142000Y14500D03*
G54D44*
X494000Y22000D03*
X484000Y32000D03*
Y22000D03*
X474000Y32000D03*
Y22000D03*
X464000D03*
X454000D03*
X444000D03*
X424000Y32000D03*
X414000D03*
X424000Y22000D03*
X414000D03*
X404000D03*
X394000D03*
X374000D03*
X384000D03*
X185500Y56000D03*
Y26000D03*
X165500Y56000D03*
Y26000D03*
G54D40*
X603000Y171500D03*
X518500Y235000D03*
X358000Y224000D03*
X138000Y172000D03*
X92000Y98000D03*
G54D42*
X578000Y290500D03*
X568000Y300500D03*
Y290500D03*
X558000Y300500D03*
Y290500D03*
X548000Y300500D03*
X420500Y313000D03*
X400500Y323000D03*
X410500Y313000D03*
X409000Y204000D03*
Y184000D03*
X390500Y313000D03*
X380500D03*
X362500Y273500D03*
Y253500D03*
X352500Y283500D03*
Y273500D03*
Y253500D03*
Y243500D03*
X336000Y297000D03*
X326000D03*
X306000Y307000D03*
X296000D03*
Y297000D03*
X216000Y312000D03*
X168000Y150000D03*
X158000D03*
G54D56*
X236000Y172000D03*
X39600Y192200D03*
G54D36*
X210000Y202000D03*
X591500Y171500D03*
X530000Y235000D03*
X488400Y233500D03*
X449000Y234500D03*
X377400Y194000D03*
X334400Y319500D03*
X220000Y232000D03*
X211100Y15500D03*
X196000Y334000D03*
X195000Y155500D03*
X166500Y210000D03*
X132000Y50500D03*
Y24500D03*
X112500Y106400D03*
X61000Y288500D03*
X49500Y137100D03*
X7600Y318500D03*
X307400Y28000D03*
X488500Y214500D03*
G54D43*
X494000Y32000D03*
X434000Y22000D03*
G54D54*
X182500Y235000D03*
X76500D03*
G54D46*
X450000Y177000D03*
X422500Y253500D03*
X329500Y214000D03*
X303500D03*
X262000Y278000D03*
X232000D03*
X146000Y103000D03*
X94000Y283000D03*
G54D41*
X578000Y300500D03*
X420500Y323000D03*
X362500Y243500D03*
X336000Y307000D03*
X206000Y312000D03*
X185000Y154000D03*
X70000Y12000D03*
X345900Y174100D03*
X345700Y223900D03*
X633700Y300700D03*
G54D57*
X236000Y202000D03*
X19600Y192200D03*
%LPD*%
G75*
G36*
G01X98500Y221000D02*
Y249000D01*
X54500D01*
Y221000D01*
X98500D01*
G37*
G36*
G01X204500D02*
Y249000D01*
X160500D01*
Y221000D01*
X204500D01*
G37*
G54D10*
G01X49500Y145500D02*
Y153500D01*
G01X158000Y187000D02*
Y202000D01*
G01D02*
Y209900D01*
G01X256500Y21500D02*
Y98000D01*
G01Y147440D02*
Y113000D01*
G01X267000Y319500D02*
X277000D01*
X10000Y10000D03*
Y340000D03*
X640000Y10000D03*
Y340000D03*
G54D20*
X39600Y192200D03*
X236000Y172000D03*
G54D11*
G01X283000Y147500D02*
Y126000D01*
G01Y200500D02*
Y187500D01*
G01X474000Y137500D02*
Y157000D01*
G01X568000Y255000D02*
Y243500D01*
X559500Y235000D01*
X548500D01*
G01X638000Y137000D02*
X621000D01*
X14000Y70000D03*
Y76000D03*
Y82000D03*
Y88000D03*
Y94000D03*
X32000D03*
Y88000D03*
X26000Y94000D03*
Y88000D03*
X20000Y94000D03*
Y88000D03*
X38000Y70000D03*
Y76000D03*
Y82000D03*
Y88000D03*
Y94000D03*
X73000Y266500D03*
X64400Y271000D03*
X88000Y124500D03*
Y146500D03*
X100000Y188000D03*
Y212000D03*
X112000Y188000D03*
Y194000D03*
Y206000D03*
Y200000D03*
Y212000D03*
X170000Y162000D03*
X185000Y114500D03*
X185500Y146500D03*
X238000Y180000D03*
X241500Y209500D03*
Y221500D03*
X248500D03*
X256500Y21500D03*
Y98000D03*
Y113000D03*
Y147440D03*
X253000Y180000D03*
Y204500D03*
X260500Y267000D03*
X271500Y54000D03*
Y74000D03*
Y94000D03*
X271000Y112500D03*
Y147500D03*
X267500Y170500D03*
X271000Y267000D03*
X267000Y319500D03*
X278000Y28000D03*
Y40000D03*
X277000Y112500D03*
X283000Y126000D03*
X277000Y147500D03*
X283000D03*
X288500Y170500D03*
X277000Y187500D03*
X283000D03*
X277000Y200500D03*
X283000D03*
X277000Y293000D03*
X283000Y292500D03*
Y307000D03*
X277000Y319500D03*
X295500Y88000D03*
X293500Y204000D03*
X301500Y288500D03*
X308000Y86000D03*
X311000Y99500D03*
X305000D03*
X311000Y292000D03*
X326000Y263500D03*
X329500Y288500D03*
X341500Y38000D03*
Y46500D03*
X333000Y79500D03*
X338000Y99500D03*
X341500Y114000D03*
X336000D03*
X341500Y145500D03*
X336000Y150500D03*
X354000Y6000D03*
Y20000D03*
Y39500D03*
Y61000D03*
X345000Y99500D03*
X362000Y39000D03*
Y79000D03*
X369000Y150500D03*
X384000Y61000D03*
X374000Y83000D03*
X375900Y241000D03*
X383000Y244000D03*
Y252000D03*
X375800Y291500D03*
X382100Y329000D03*
X394000Y74500D03*
X404000Y58000D03*
X405500Y286500D03*
Y303500D03*
X410500Y305000D03*
X417500Y145500D03*
Y167500D03*
X413000Y283500D03*
X434000Y58500D03*
X430000Y154500D03*
X431500Y206500D03*
X438500Y213500D03*
X432500Y267500D03*
Y287500D03*
X444000Y58500D03*
X450000Y115000D03*
X444500Y219500D03*
X451500Y226500D03*
X452100Y279600D03*
X452000Y303500D03*
X445300Y319400D03*
X454000Y58500D03*
X464000Y115000D03*
Y153500D03*
X465100Y257100D03*
X469000Y17000D03*
X469500Y39000D03*
Y70000D03*
Y62000D03*
Y76000D03*
X474000Y114500D03*
Y137500D03*
Y157000D03*
X471000Y192000D03*
X479000Y185000D03*
X471000D03*
Y198000D03*
X475000Y256500D03*
X473500Y287000D03*
X489000Y39000D03*
X481000Y70000D03*
Y62000D03*
Y76000D03*
X484000Y115000D03*
Y148500D03*
X485000Y192000D03*
Y198000D03*
X501000Y43500D03*
X495500Y205000D03*
X506000Y218500D03*
Y211000D03*
X495500D03*
X506500Y287500D03*
X501000D03*
X495500D03*
X506500Y297500D03*
X501000Y299500D03*
X495500Y301500D03*
X527000Y31500D03*
X526500Y52000D03*
X527500Y71500D03*
X528000Y218500D03*
Y211500D03*
X526000Y295000D03*
X544500Y115000D03*
Y145000D03*
X538000Y151500D03*
Y158500D03*
X558500Y56500D03*
X558000Y73000D03*
Y80000D03*
X548500Y97000D03*
X555500Y115000D03*
X561000Y129000D03*
X555500Y145000D03*
X550000D03*
X561000D03*
X556500Y206500D03*
Y213000D03*
X555000Y240000D03*
Y246000D03*
X566500Y56500D03*
X573000Y59500D03*
Y86500D03*
Y109000D03*
X566000Y151500D03*
Y158500D03*
X568000Y255000D03*
X577500Y97000D03*
Y124500D03*
Y153000D03*
X590500Y196000D03*
X607500Y41500D03*
Y51500D03*
Y61500D03*
X621000Y137000D03*
X638000D03*
G54D12*
X16500Y122000D03*
X29700D03*
X148000Y162000D03*
X161200D03*
X158000Y187000D03*
X171200D03*
X305000Y184000D03*
Y197200D03*
X331500Y184000D03*
Y197200D03*
X375800Y283500D03*
X389000D03*
X410600Y335100D03*
X423800D03*
X500500Y240300D03*
Y253500D03*
G54D30*
X158000Y150000D03*
X168000D03*
X185000Y164000D03*
X216000Y312000D03*
X296000Y297000D03*
Y307000D03*
X316000Y297000D03*
X306000D03*
X316000Y307000D03*
X306000D03*
X326000Y297000D03*
Y307000D03*
X336000Y297000D03*
X352500Y243500D03*
Y253500D03*
Y263500D03*
Y273500D03*
Y283500D03*
X362500Y253500D03*
Y263500D03*
Y273500D03*
Y283500D03*
X380500Y313000D03*
Y323000D03*
X390500Y313000D03*
Y323000D03*
X409000Y184000D03*
Y204000D03*
X410500Y313000D03*
X400500D03*
X410500Y323000D03*
X400500D03*
X420500Y313000D03*
X538000Y290500D03*
X548000D03*
Y300500D03*
X538000D03*
X558000Y290500D03*
Y300500D03*
X568000Y290500D03*
Y300500D03*
X578000Y290500D03*
G54D21*
X48100Y330000D03*
X135100D03*
G54D31*
X404000Y32000D03*
X434000Y22000D03*
X494000Y32000D03*
G54D13*
X16500Y137000D03*
X16000Y308000D03*
X26500Y137000D03*
X26000Y308000D03*
X186500Y281000D03*
Y291000D03*
G54D22*
X60500Y235000D03*
X90500D03*
X168500D03*
X198500D03*
G54D32*
G01X-98450Y6500D02*
X-98080Y6870D01*
X-97800Y7500D01*
X-97610Y8380D01*
X-97800Y9120D01*
X-98170Y9620D01*
X-98830Y10000D01*
X-101350D01*
Y2500D01*
X-98270D01*
X-97610Y3000D01*
X-97240Y3750D01*
X-97050Y4630D01*
X-97240Y5500D01*
X-97800Y6250D01*
X-98450Y6500D01*
X-101350D01*
G01X-91700Y2500D02*
X-92450Y2620D01*
X-93100Y3120D01*
X-93660Y3870D01*
X-94030Y4750D01*
X-94220Y5750D01*
Y6750D01*
X-94030Y7750D01*
X-93660Y8630D01*
X-93100Y9370D01*
X-92450Y9880D01*
X-91700Y10000D01*
X-90950Y9880D01*
X-90300Y9370D01*
X-89740Y8630D01*
X-89370Y7750D01*
X-89180Y6750D01*
Y5750D01*
X-89370Y4750D01*
X-89740Y3870D01*
X-90300Y3120D01*
X-90950Y2620D01*
X-91700Y2500D01*
G01X-84200Y10000D02*
Y2500D01*
G01X-86350Y10000D02*
X-82050D01*
G01X-76700D02*
Y2500D01*
G01X-78850Y10000D02*
X-74550D01*
G01X-69200Y2500D02*
X-69950Y2620D01*
X-70600Y3120D01*
X-71160Y3870D01*
X-71530Y4750D01*
X-71720Y5750D01*
Y6750D01*
X-71530Y7750D01*
X-71160Y8630D01*
X-70600Y9370D01*
X-69950Y9880D01*
X-69200Y10000D01*
X-68450Y9880D01*
X-67800Y9370D01*
X-67240Y8630D01*
X-66870Y7750D01*
X-66680Y6750D01*
Y5750D01*
X-66870Y4750D01*
X-67240Y3870D01*
X-67800Y3120D01*
X-68450Y2620D01*
X-69200Y2500D01*
G01X-64130D02*
Y10000D01*
X-61700Y3750D01*
X-59270Y10000D01*
Y2500D01*
G54D23*
X70000Y12000D03*
X148000Y150000D03*
X185000Y154000D03*
X206000Y312000D03*
X336000Y307000D03*
X345900Y174100D03*
X345700Y223900D03*
X362500Y243500D03*
X399000Y184000D03*
Y204000D03*
X420500Y323000D03*
X578000Y300500D03*
X633700Y300700D03*
G54D14*
X9500Y153500D03*
X49500D03*
X56100Y273100D03*
Y313100D03*
X61500Y170000D03*
Y210000D03*
X69500Y280500D03*
Y320500D03*
X119500Y310500D03*
X159500D03*
X209500Y261000D03*
Y301000D03*
X288000Y15000D03*
X328000D03*
X333000Y48000D03*
Y88000D03*
X433500Y309000D03*
X437000Y322600D03*
X464000Y45000D03*
Y85000D03*
X473500Y309000D03*
X477000Y322600D03*
G54D33*
G01X16000Y318500D02*
Y308000D01*
G01X7600Y314990D02*
Y318500D01*
G01D02*
Y322010D01*
G01X4090Y318500D02*
X7600D01*
G01D02*
X11110D01*
G01X26500Y68640D02*
Y77000D01*
G01D02*
Y85360D01*
G01X18140Y77000D02*
X26500D01*
G01D02*
X34860D01*
G01X29700Y116690D02*
Y122000D01*
G01D02*
Y127310D01*
G01X24390Y122000D02*
X29700D01*
G01D02*
X35010D01*
G01X26500Y132240D02*
Y137000D01*
G01D02*
Y141760D01*
G01X21740Y137000D02*
X26500D01*
G01D02*
X31260D01*
G01X39600Y188040D02*
Y192200D01*
G01D02*
Y196360D01*
G01X35440Y192200D02*
X39600D01*
G01D02*
X43760D01*
G01X42090Y330000D02*
X48100D01*
G01X49500Y133590D02*
Y137100D01*
G01D02*
Y140610D01*
G01X45990Y137100D02*
X49500D01*
G01D02*
X53010D01*
G01X56000Y264100D02*
Y268840D01*
X56100Y268940D01*
Y273100D01*
G01X57490Y288500D02*
X61000D01*
G01X48100Y323990D02*
Y330000D01*
G01D02*
Y336010D01*
G01Y330000D02*
X54110D01*
G01X70000Y7890D02*
Y12000D01*
G01D02*
Y16110D01*
G01X65890Y12000D02*
X70000D01*
G01D02*
X74110D01*
G01X64400Y271000D02*
Y264100D01*
G01X61000Y284990D02*
Y288500D01*
G01X69400D02*
Y280600D01*
X69500Y280500D01*
G01X61000Y288500D02*
Y292010D01*
G01Y288500D02*
X64510D01*
G01X92000Y24090D02*
Y28000D01*
G01D02*
Y31910D01*
G01X88090Y28000D02*
X92000D01*
G01D02*
X95910D01*
G01X88000Y146500D02*
Y124500D01*
G01X108990Y106400D02*
X112500D01*
G01X122000Y24090D02*
Y28000D01*
G01D02*
Y31910D01*
G01X118090Y28000D02*
X122000D01*
G01D02*
X125910D01*
G01X122000Y34090D02*
Y38000D01*
G01D02*
Y41910D01*
G01X118090Y38000D02*
X122000D01*
G01D02*
X125910D01*
G01X122000Y44090D02*
Y48000D01*
G01D02*
Y51910D01*
G01X118090Y48000D02*
X122000D01*
G01D02*
X125910D01*
G01X122000Y98000D02*
X112500D01*
G01Y102890D02*
Y106400D01*
G01D02*
Y109910D01*
G01Y106400D02*
X116010D01*
G01X132000Y20990D02*
Y24500D01*
G01D02*
Y28010D01*
G01X128490Y24500D02*
X132000D01*
G01D02*
X135510D01*
G01X132000Y46990D02*
Y50500D01*
G01D02*
Y54010D01*
G01X128490Y50500D02*
X132000D01*
G01D02*
X135510D01*
G01X135100Y323990D02*
Y330000D01*
G01D02*
Y336010D01*
G01X129090Y330000D02*
X135100D01*
G01D02*
X141110D01*
G01X148000Y150000D02*
Y162000D01*
G01Y168090D02*
Y172000D01*
G01D02*
Y175910D01*
G01X144090Y172000D02*
X148000D01*
G01D02*
X151910D01*
G01X163890Y150000D02*
X168000D01*
G01X170000Y162000D02*
X161200D01*
G01X164090Y172000D02*
X168000D01*
G01X165890Y187000D02*
X171200D01*
G01X158000Y209900D02*
X158100Y210000D01*
G01X162990D02*
X166500D01*
G01X159500Y306740D02*
Y310500D01*
G01D02*
Y314260D01*
G01X155740Y310500D02*
X159500D01*
G01D02*
X163260D01*
G01X168000Y145890D02*
Y150000D01*
G01D02*
Y154110D01*
G01Y150000D02*
X172110D01*
G01X168000Y168090D02*
Y172000D01*
G01D02*
Y175910D01*
G01Y172000D02*
X171910D01*
G01X171200Y181690D02*
Y187000D01*
G01D02*
Y192310D01*
G01Y187000D02*
X176510D01*
G01X166500Y206490D02*
Y210000D01*
G01X184000Y202000D02*
X168000D01*
G01X166500Y210000D02*
Y213510D01*
G01Y210000D02*
X170010D01*
G01X185500Y51990D02*
Y56000D01*
G01D02*
Y60010D01*
G01X181490Y56000D02*
X185500D01*
G01D02*
X189510D01*
G01X185500Y146500D02*
Y115000D01*
X185000Y114500D01*
G01Y149890D02*
Y154000D01*
G01X191490Y155500D02*
X195000D01*
G01X185000Y154000D02*
Y158110D01*
G01X180890Y154000D02*
X185000D01*
G01D02*
X189110D01*
G01X185000Y164000D02*
X191000D01*
X191100Y163900D01*
X195000D01*
G01X192400Y202000D02*
X201600D01*
G01X186500Y271000D02*
X194100Y278600D01*
X198500D01*
G01Y287000D02*
X190500D01*
X186500Y291000D01*
G01X200000Y25500D02*
X211000D01*
G01X200000Y41590D02*
Y45500D01*
G01Y51590D02*
Y55500D01*
G01D02*
Y59410D01*
G01X196090Y55500D02*
X200000D01*
G01D02*
X203910D01*
G01X200000Y45500D02*
Y49410D01*
G01X196090Y45500D02*
X200000D01*
G01D02*
X203910D01*
G01X195000Y151990D02*
Y155500D01*
G01D02*
Y159010D01*
G01Y155500D02*
X198510D01*
G01X206490Y202000D02*
X210000D01*
G01X209500Y301000D02*
Y292000D01*
X204500Y287000D01*
X198500D01*
G01X209500Y261000D02*
Y273000D01*
X203900Y278600D01*
X198500D01*
G01X211100Y11990D02*
Y15500D01*
G01D02*
Y19010D01*
G01X207590Y15500D02*
X211100D01*
G01D02*
X214610D01*
G01X219400Y25500D02*
Y19500D01*
X219500Y19400D01*
Y15500D01*
G01X230000Y25500D02*
X219400D01*
G01X210000Y198490D02*
Y202000D01*
G01D02*
Y205510D01*
G01Y202000D02*
X213510D01*
G01X220000Y228490D02*
Y232000D01*
G01D02*
Y235510D01*
G01X216490Y232000D02*
X220000D01*
G01D02*
X223510D01*
G01X216000Y307890D02*
Y312000D01*
G01D02*
Y316110D01*
G01X211890Y312000D02*
X216000D01*
G01D02*
X220110D01*
G01X230000Y81590D02*
Y85500D01*
G01D02*
Y89410D01*
G01X226090Y85500D02*
X230000D01*
G01D02*
X233910D01*
G01X232000Y274390D02*
Y278000D01*
G01D02*
Y281610D01*
G01X228390Y278000D02*
X232000D01*
G01D02*
X235610D01*
G01X238000Y180000D02*
X253000D01*
G01X241500Y221500D02*
Y209500D01*
G01X242000Y304190D02*
Y308000D01*
G01D02*
Y311810D01*
G01X238190Y308000D02*
X242000D01*
G01D02*
X245810D01*
G01X248500Y221500D02*
Y209000D01*
X253000Y204500D01*
G01X271500Y54000D02*
Y48100D01*
X271600Y48000D01*
G01X271500Y74000D02*
Y68100D01*
X271600Y68000D01*
G01X271500Y94000D02*
Y88100D01*
X271600Y88000D01*
G01X271000Y147500D02*
Y112500D01*
G01X288500Y170500D02*
X267500D01*
G01X271000Y273600D02*
Y267000D01*
G01Y282000D02*
Y287000D01*
X277000Y293000D01*
G01X278000Y40000D02*
Y28000D01*
G01X280000Y48000D02*
X288000D01*
G01X280000Y68000D02*
X288000D01*
G01X295500Y88000D02*
Y65500D01*
X288000Y58000D01*
G01X280000Y88000D02*
X288000D01*
G01X277000Y147500D02*
Y112500D01*
G01X295100Y147500D02*
X283000D01*
G01X277000Y200500D02*
Y187500D01*
G01Y319500D02*
Y293000D01*
G01X283000Y307000D02*
Y292500D01*
G01X288000Y15000D02*
Y28000D01*
G01X299000D02*
X288000D01*
G01X295100Y155800D02*
Y147500D01*
G01D02*
X313100D01*
X321100Y155500D01*
G01X293500Y184000D02*
X305000D01*
G01X293500Y204000D02*
Y184000D01*
G01X299690Y197200D02*
X305000D01*
G01X299890Y214000D02*
X303500D01*
G01X307400Y24490D02*
Y28000D01*
G01D02*
Y31510D01*
G01X303890Y28000D02*
X307400D01*
G01D02*
X310910D01*
G01X308000Y36600D02*
X311490Y33110D01*
X312890D01*
X318000Y28000D01*
G01X308000Y45000D02*
Y86000D01*
G01X314090Y88000D02*
X318000D01*
G01X305000Y99500D02*
X311000D01*
G01X303500Y164000D02*
Y155800D01*
G01X305000Y191890D02*
Y197200D01*
G01D02*
Y202510D01*
G01Y197200D02*
X310310D01*
G01X303500Y210390D02*
Y214000D01*
G01D02*
Y217610D01*
G01Y214000D02*
X307110D01*
G01X311000Y292000D02*
Y302000D01*
X316000Y307000D01*
G01X329500Y288500D02*
X301500D01*
G01X306000Y302890D02*
Y307000D01*
G01D02*
Y311110D01*
G01X301890Y307000D02*
X306000D01*
G01D02*
X310110D01*
G01X318000Y28000D02*
Y19000D01*
X322000Y15000D01*
X328000D01*
G01X318000Y84090D02*
Y88000D01*
G01D02*
Y91910D01*
G01Y88000D02*
X321910D01*
G01X319500Y184000D02*
X331500D01*
G01X326190Y197200D02*
X331500D01*
G01X325890Y214000D02*
X329500D01*
G01X326000Y263500D02*
X352500D01*
G01X326000Y319500D02*
Y307000D01*
G01X341500Y38000D02*
Y46500D01*
G01X333000Y48000D02*
Y79500D01*
G01X338000Y99500D02*
X345000D01*
G01X341500Y114000D02*
Y145500D01*
G01X336000Y150500D02*
Y114000D01*
G01X329500Y164000D02*
Y155500D01*
G01X331500Y191890D02*
Y197200D01*
G01D02*
Y202510D01*
G01Y197200D02*
X336810D01*
G01X329500Y210390D02*
Y214000D01*
G01D02*
Y217610D01*
G01Y214000D02*
X333110D01*
G01X336000Y302890D02*
Y307000D01*
G01D02*
Y311110D01*
G01X331890Y307000D02*
X336000D01*
G01D02*
X340110D01*
G01X334400Y315990D02*
Y319500D01*
G01D02*
Y323010D01*
G01X330890Y319500D02*
X334400D01*
G01D02*
X337910D01*
G01X354000Y6000D02*
Y20000D01*
G01Y39500D02*
Y61000D01*
G01X352500Y249390D02*
Y253500D01*
G01D02*
Y257610D01*
G01X348390Y253500D02*
X352500D01*
G01D02*
X356610D01*
G01X362000Y39000D02*
Y79000D01*
G01X369000Y165600D02*
Y150500D01*
G01X377500Y165600D02*
X369000D01*
G01X377500Y174000D02*
X369000D01*
G01Y184000D02*
X365510Y180510D01*
X364510D01*
X358000Y174000D01*
G01Y214000D02*
X364000Y208000D01*
X365000D01*
X369000Y204000D01*
G01Y194000D02*
X358000D01*
G01X369000Y213000D02*
X377500D01*
G01X369000Y221400D02*
X377500D01*
G01X362500Y239390D02*
Y243500D01*
G01D02*
Y247610D01*
G01X358390Y243500D02*
X362500D01*
G01D02*
X366610D01*
G01X375900Y241000D02*
Y250100D01*
X362500Y263500D01*
G01Y283500D02*
X375800D01*
G01X374000Y32000D02*
Y43600D01*
G01Y52000D02*
Y83000D01*
G01X377500Y165600D02*
X382100D01*
X383700Y164000D01*
X388000D01*
G01X377400Y184000D02*
Y178000D01*
X377500Y177900D01*
Y174000D01*
G01X377400Y190490D02*
Y194000D01*
G01Y184000D02*
X388000D01*
G01X377400Y194000D02*
Y197510D01*
G01X373890Y194000D02*
X377400D01*
G01D02*
X380910D01*
G01X377400Y204000D02*
X388000D01*
G01X377500Y213000D02*
Y208000D01*
X377400Y207900D01*
Y204000D01*
G01X377500Y221400D02*
X385400D01*
X388000Y224000D01*
G01X375800Y283500D02*
Y291500D01*
G01X382100Y334400D02*
Y329000D01*
G01X394000Y17990D02*
Y22000D01*
G01D02*
Y26010D01*
G01X389990Y22000D02*
X394000D01*
G01D02*
X398010D01*
G01X384000Y32000D02*
Y43600D01*
G01X394000Y32000D02*
Y43600D01*
G01X384000Y61000D02*
Y52000D01*
G01X394000D02*
Y74500D01*
G01X388000Y190090D02*
Y194000D01*
G01Y184000D02*
X399000D01*
G01X388000Y194000D02*
Y197910D01*
G01X384090Y194000D02*
X388000D01*
G01D02*
X391910D01*
G01X388000Y204000D02*
X399000D01*
G01X383000Y252000D02*
Y244000D01*
G01X389000Y283500D02*
X413000D01*
G01X390500Y323000D02*
Y334400D01*
G01X404000Y17990D02*
Y22000D01*
G01D02*
Y26010D01*
G01X399990Y22000D02*
X404000D01*
G01D02*
X408010D01*
G01X404000Y32000D02*
Y43600D01*
G01Y52000D02*
Y58000D01*
G01X409000Y179890D02*
Y184000D01*
G01D02*
Y188110D01*
G01X404890Y184000D02*
X409000D01*
G01D02*
X413110D01*
G01X409000Y199890D02*
Y204000D01*
G01D02*
Y208110D01*
G01X404890Y204000D02*
X409000D01*
G01D02*
X413110D01*
G01X405500Y303500D02*
Y286500D01*
G01X406390Y313000D02*
X410500D01*
G01X400500D02*
X408650Y304850D01*
X410350D01*
X410500Y305000D01*
G01X419990Y22000D02*
X424000D01*
G01X414000Y17990D02*
Y22000D01*
G01D02*
Y26010D01*
G01X409990Y22000D02*
X414000D01*
G01D02*
X418010D01*
G01X417500Y145500D02*
Y167500D01*
G01X422500Y249890D02*
Y253500D01*
G01D02*
Y257110D01*
G01X418890Y253500D02*
X422500D01*
G01D02*
X426110D01*
G01X420500Y308890D02*
Y313000D01*
G01D02*
Y317110D01*
G01X416390Y313000D02*
X420500D01*
G01D02*
X424610D01*
G01X410500Y308890D02*
Y313000D01*
G01D02*
Y317110D01*
G01Y313000D02*
X414610D01*
G01X420500Y318890D02*
Y323000D01*
G01D02*
Y327110D01*
G01X416390Y323000D02*
X420500D01*
G01D02*
X424610D01*
G01X410600Y335100D02*
Y327600D01*
X410500Y327500D01*
Y323000D01*
G01X434000Y17990D02*
Y22000D01*
G01D02*
Y26010D01*
G01X429990Y22000D02*
X434000D01*
G01D02*
X438010D01*
G01X424000Y17990D02*
Y22000D01*
G01D02*
Y26010D01*
G01Y22000D02*
X428010D01*
G01X434000Y32000D02*
Y43600D01*
G01Y52000D02*
Y58500D01*
G01X430000Y154500D02*
Y167000D01*
G01X438500Y213500D02*
X431500Y206500D01*
G01X435490Y253500D02*
X439000D01*
G01X432500Y287500D02*
Y267500D01*
G01X423800Y335100D02*
X433000D01*
X433100Y335000D01*
X437000D01*
G01X449990Y22000D02*
X454000D01*
G01X444000Y17990D02*
Y22000D01*
G01D02*
Y26010D01*
G01X439990Y22000D02*
X444000D01*
G01D02*
X448010D01*
G01X444000Y32000D02*
Y43600D01*
G01Y52000D02*
Y58500D01*
G01X450000Y157000D02*
Y115000D01*
G01Y173390D02*
Y177000D01*
G01D02*
Y180610D01*
G01X446390Y177000D02*
X450000D01*
G01D02*
X453610D01*
G01X448500Y207000D02*
Y212000D01*
X460000Y223500D01*
G01X451500Y226500D02*
X444500Y219500D01*
G01X449000Y230990D02*
Y234500D01*
G01D02*
Y238010D01*
G01X445490Y234500D02*
X449000D01*
G01D02*
X452510D01*
G01X449000Y253500D02*
Y242900D01*
G01X439000Y249990D02*
Y253500D01*
G01D02*
Y257010D01*
G01Y253500D02*
X442510D01*
G01X449000D02*
X460000D01*
G01X445400Y335000D02*
Y319500D01*
X445300Y319400D01*
G01X454000Y17990D02*
Y22000D01*
G01D02*
Y26010D01*
G01Y22000D02*
X458010D01*
G01X454000Y32000D02*
Y43600D01*
G01Y52000D02*
Y58500D01*
G01X461600Y233500D02*
Y243500D01*
G01Y233500D02*
Y229400D01*
X460000Y227800D01*
Y223500D01*
G01X452000Y303500D02*
Y283400D01*
X452100Y283300D01*
Y279600D01*
G01X469000Y17000D02*
X471060Y14940D01*
Y14840D01*
X472900Y13000D01*
X573600D01*
G01X464000Y32000D02*
Y45000D01*
G01X489000Y39000D02*
X469500D01*
G01X481000Y70000D02*
X469500D01*
G01X481000Y62000D02*
X469500D01*
G01X481000Y76000D02*
X469500D01*
G01X464000Y153500D02*
Y115000D01*
G01X471000Y192000D02*
X485000D01*
G01X471000Y185000D02*
X479000D01*
G01X485000Y198000D02*
X471000D01*
G01X470000Y243500D02*
Y233500D01*
G01Y223500D02*
Y233500D01*
G01X465100Y257100D02*
Y248400D01*
X470000Y243500D01*
G01X475000Y256500D02*
Y258800D01*
X477700Y261500D01*
X481600D01*
G01X473500Y309000D02*
Y287000D01*
G01X484000Y17990D02*
Y22000D01*
G01D02*
Y26010D01*
G01X479990Y22000D02*
X484000D01*
G01D02*
X488010D01*
G01X489990Y32000D02*
X494000D01*
G01X484000Y115000D02*
Y148500D01*
G01X490000Y219590D02*
Y223500D01*
G01X488500Y210990D02*
Y214500D01*
G01D02*
Y218010D01*
G01X484990Y214500D02*
X488500D01*
G01D02*
X492010D01*
G01X480100D02*
Y219100D01*
X480000Y219200D01*
Y223500D01*
G01X490000D02*
Y227410D01*
G01X486090Y223500D02*
X490000D01*
G01D02*
X493910D01*
G01X488400Y229990D02*
Y233500D01*
G01D02*
Y237010D01*
G01X484890Y233500D02*
X488400D01*
G01D02*
X491910D01*
G01X480000Y223500D02*
Y233500D01*
G01X490000Y253500D02*
Y261500D01*
G01X500500Y253500D02*
X490000D01*
G01X494000Y27990D02*
Y32000D01*
G01D02*
Y36010D01*
G01Y32000D02*
X498010D01*
G01X495500Y205000D02*
Y211000D01*
G01X500500Y234990D02*
Y240300D01*
G01D02*
Y245610D01*
G01X495190Y240300D02*
X500500D01*
G01D02*
X505810D01*
G01X501000Y299500D02*
Y287500D01*
G01X495500D02*
Y301500D01*
G01X514590Y175000D02*
X518500D01*
G01X506000Y211000D02*
Y218500D01*
G01X506500Y287500D02*
Y297500D01*
G01X535100Y31500D02*
X527000D01*
G01X535100Y51500D02*
X527000D01*
X526500Y52000D01*
G01X535100Y71500D02*
X527500D01*
G01X518500Y171090D02*
Y175000D01*
G01D02*
Y178910D01*
G01Y175000D02*
X522410D01*
G01X518500Y225000D02*
X523500Y220000D01*
Y190000D01*
X518500Y185000D01*
G01X528000Y211500D02*
Y218500D01*
G01X530000Y231490D02*
Y235000D01*
G01D02*
Y238510D01*
G01X526490Y235000D02*
X530000D01*
G01D02*
X533510D01*
G01X526000Y295000D02*
X543500D01*
X548000Y290500D01*
G01X552000Y31500D02*
X543500D01*
G01Y51500D02*
X552000D01*
G01Y71500D02*
X543500D01*
G01X544500Y115000D02*
Y145000D01*
G01X566000Y151500D02*
X538000D01*
G01Y158500D02*
X566000D01*
G01X548500Y175000D02*
X543500Y180000D01*
Y210000D01*
X548500Y215000D01*
G01Y235000D02*
X538400D01*
G01X552000Y17590D02*
Y21500D01*
G01D02*
Y25410D01*
G01X548090Y21500D02*
X552000D01*
G01D02*
X555910D01*
G01X566500Y56500D02*
X558500D01*
G01X558000Y80000D02*
Y73000D01*
G01X548500Y97000D02*
X577500D01*
G01X573000Y109000D02*
X552000D01*
X550000Y111000D01*
Y145000D01*
G01X555500Y115000D02*
Y145000D01*
G01X556500Y213000D02*
Y206500D01*
G01X548500Y225000D02*
Y215000D01*
G01X555000Y246000D02*
Y240000D01*
G01X582000Y13000D02*
Y21500D01*
G01Y41500D02*
X591000D01*
G01X582000Y51500D02*
X591000D01*
G01X582000Y61500D02*
X591000D01*
G01X573000Y59500D02*
Y86500D01*
G01X577500Y153000D02*
Y124500D01*
G01X583100Y171500D02*
X573000D01*
G01Y181500D02*
Y191500D01*
G01Y201500D02*
X582000D01*
G01X578000Y286390D02*
Y290500D01*
G01Y296390D02*
Y300500D01*
G01D02*
Y304610D01*
G01X573890Y300500D02*
X578000D01*
G01D02*
X582110D01*
G01X578000Y290500D02*
Y294610D01*
G01X573890Y290500D02*
X578000D01*
G01D02*
X582110D01*
G01X607500Y41500D02*
X599400D01*
G01Y51500D02*
X607500D01*
G01Y61500D02*
X599400D01*
G01X591500Y167990D02*
Y171500D01*
G01D02*
Y175010D01*
G01X587990Y171500D02*
X591500D01*
G01D02*
X595010D01*
G01X590400Y201500D02*
Y196100D01*
X590500Y196000D01*
G01X599090Y231500D02*
X603000D01*
G01Y191500D02*
Y201500D01*
G01Y211500D02*
Y201500D01*
G01Y227590D02*
Y231500D01*
G01D02*
Y235410D01*
G01Y231500D02*
X606910D01*
G01X633700Y296590D02*
Y300700D01*
G01D02*
Y304810D01*
G01X629590Y300700D02*
X633700D01*
G01D02*
X637810D01*
G54D24*
X92000Y28000D03*
Y38000D03*
Y58000D03*
Y48000D03*
Y68000D03*
Y78000D03*
Y88000D03*
X122000Y28000D03*
Y38000D03*
Y48000D03*
Y58000D03*
Y68000D03*
Y78000D03*
Y88000D03*
Y98000D03*
X138000Y202000D03*
X148000Y172000D03*
Y202000D03*
X158000Y172000D03*
X168000D03*
Y202000D03*
X158000D03*
X200000Y25500D03*
Y45500D03*
Y35500D03*
Y55500D03*
Y65500D03*
Y85500D03*
Y75500D03*
X230000Y35500D03*
Y45500D03*
Y55500D03*
Y65500D03*
Y75500D03*
Y85500D03*
X288000Y28000D03*
Y38000D03*
Y58000D03*
Y48000D03*
Y68000D03*
Y78000D03*
Y88000D03*
X318000Y38000D03*
Y48000D03*
Y58000D03*
Y68000D03*
Y78000D03*
Y88000D03*
X358000Y164000D03*
Y174000D03*
Y194000D03*
Y184000D03*
Y204000D03*
Y214000D03*
X388000Y164000D03*
Y174000D03*
Y184000D03*
Y194000D03*
Y204000D03*
Y214000D03*
Y224000D03*
X460000Y253500D03*
X470000Y223500D03*
Y253500D03*
X480000Y223500D03*
X490000D03*
Y253500D03*
X480000D03*
X518500Y175000D03*
Y195000D03*
Y185000D03*
Y205000D03*
Y215000D03*
Y225000D03*
X552000Y31500D03*
Y21500D03*
Y41500D03*
Y51500D03*
Y71500D03*
Y61500D03*
X548500Y175000D03*
Y185000D03*
Y195000D03*
Y205000D03*
Y215000D03*
Y225000D03*
Y235000D03*
X573000Y181500D03*
Y171500D03*
Y191500D03*
Y201500D03*
Y221500D03*
Y211500D03*
Y231500D03*
X582000Y21500D03*
Y31500D03*
Y41500D03*
Y51500D03*
Y61500D03*
Y71500D03*
Y81500D03*
X603000Y181500D03*
Y191500D03*
Y201500D03*
Y211500D03*
Y221500D03*
Y231500D03*
G54D15*
X16000Y318500D03*
X7600D03*
X49500Y137100D03*
Y145500D03*
X56000Y264100D03*
X64400D03*
X61000Y288500D03*
X69400D03*
X112500Y98000D03*
Y106400D03*
X132000Y24500D03*
Y50500D03*
X166500Y210000D03*
X158100D03*
X184000Y202000D03*
X192400D03*
X195000Y155500D03*
Y163900D03*
X201600Y202000D03*
X198500Y287000D03*
Y278600D03*
X196000Y334000D03*
X219500Y15500D03*
X211100D03*
X211000Y25500D03*
X219400D03*
X210000Y202000D03*
X220000Y232000D03*
X271600Y48000D03*
Y68000D03*
Y88000D03*
X271000Y273600D03*
Y282000D03*
X280000Y48000D03*
Y68000D03*
Y88000D03*
X299000Y28000D03*
X295100Y155800D03*
X307400Y28000D03*
X308000Y45000D03*
Y36600D03*
X303500Y155800D03*
X321100Y155500D03*
X329500D03*
X326000Y319500D03*
X334400D03*
X369000Y165600D03*
Y174000D03*
Y184000D03*
Y194000D03*
Y204000D03*
Y213000D03*
Y221400D03*
X374000Y43600D03*
X384000D03*
X374000Y52000D03*
X384000D03*
X377500Y165600D03*
Y174000D03*
X377400Y184000D03*
Y194000D03*
Y204000D03*
X377500Y213000D03*
Y221400D03*
X382100Y334400D03*
X394000Y43600D03*
Y52000D03*
X390500Y334400D03*
X404000Y43600D03*
Y52000D03*
X434000Y43600D03*
Y52000D03*
X437000Y335000D03*
X444000Y43600D03*
Y52000D03*
X449000Y234500D03*
Y242900D03*
Y253500D03*
X445400Y335000D03*
X454000Y43600D03*
Y52000D03*
X461600Y233500D03*
Y243500D03*
X470000Y233500D03*
Y243500D03*
X488500Y214500D03*
X480100D03*
X480000Y233500D03*
X488400D03*
X490000Y261500D03*
X481600D03*
X530000Y235000D03*
X543500Y31500D03*
X535100D03*
X543500Y51500D03*
X535100D03*
X543500Y71500D03*
X535100D03*
X538400Y235000D03*
X573600Y13000D03*
X582000D03*
X583100Y171500D03*
X582000Y201500D03*
X591000Y41500D03*
X599400D03*
X591000Y51500D03*
X599400D03*
X591000Y61500D03*
X599400D03*
X591500Y171500D03*
X590400Y201500D03*
G54D34*
G01X474000Y114500D02*
Y137500D01*
G54D25*
X92000Y98000D03*
X138000Y172000D03*
X230000Y25500D03*
X318000Y28000D03*
X358000Y224000D03*
X460000Y223500D03*
X518500Y235000D03*
X552000Y81500D03*
X603000Y171500D03*
G54D16*
X26500Y77000D03*
X26000Y248000D03*
X126500Y281000D03*
G54D35*
G01X561000Y145000D02*
Y129000D01*
G54D17*
X19600Y192200D03*
X236000Y202000D03*
G54D26*
X94000Y283000D03*
X146000Y103000D03*
X232000Y278000D03*
X262000D03*
X303500Y214000D03*
X329500D03*
X422500Y253500D03*
X450000Y177000D03*
X448500Y207000D03*
G54D27*
X94000Y308000D03*
X146000Y78000D03*
X232000Y328000D03*
X242000Y308000D03*
X262000Y328000D03*
X272000Y308000D03*
X303500Y164000D03*
X293500Y184000D03*
X329500Y164000D03*
X319500Y184000D03*
X402500Y253500D03*
X423500Y207000D03*
X412500Y273500D03*
X430000Y167000D03*
X450000Y157000D03*
G54D18*
X32500Y330000D03*
X119500D03*
G54D19*
X36500Y137000D03*
X36000Y308000D03*
X186500Y271000D03*
G54D28*
G01X16500Y137000D02*
Y122000D01*
X142000Y14500D03*
X152000Y24500D03*
X142000Y40500D03*
X152000Y50500D03*
X206000Y324000D03*
X220000Y252000D03*
X216000Y334000D03*
X230000Y242000D03*
X439000Y253500D03*
G54D29*
X165500Y26000D03*
Y56000D03*
X185500Y26000D03*
Y56000D03*
X374000Y22000D03*
X384000Y32000D03*
X374000D03*
X384000Y22000D03*
X394000Y32000D03*
Y22000D03*
X404000D03*
X424000Y32000D03*
X414000D03*
X424000Y22000D03*
X414000D03*
X434000Y32000D03*
X444000D03*
Y22000D03*
X464000Y32000D03*
X454000D03*
X464000Y22000D03*
X454000D03*
X474000Y32000D03*
Y22000D03*
X484000Y32000D03*
Y22000D03*
X494000D03*
M02*
