M48
INCH,LZ
T01C.02
T02C.028
T03C.035
T04C.038
T05C.042
T06C.07
T07C.086
T08C.125
T09C.125
;LEADER: 12 
;HEADER: 
;CODE  : EIA 
;FILE  : controller-1-2.drl for board controller.brd ... layers TOP and BOTTOM
;T01 Holesize 1. = 20.000000 Tolerance = +0.000000/-0.000000 PLATED MILS Quantity = 179
;T02 Holesize 2. = 28.000000 Tolerance = +0.000000/-0.000000 PLATED MILS Quantity = 28
;T03 Holesize 3. = 35.000000 Tolerance = +0.000000/-0.000000 PLATED MILS Quantity = 162
;T04 Holesize 4. = 38.000000 Tolerance = +0.000000/-0.000000 PLATED MILS Quantity = 39
;T05 Holesize 5. = 42.000000 Tolerance = +0.000000/-0.000000 PLATED MILS Quantity = 59
;T06 Holesize 6. = 70.000000 Tolerance = +0.000000/-0.000000 PLATED MILS Quantity = 4
;T07 Holesize 7. = 86.000000 Tolerance = +0.000000/-0.000000 PLATED MILS Quantity = 4
;T08 Holesize 8. = 125.000000 Tolerance = +0.000000/-0.000000 PLATED MILS Quantity = 3
;T09 Holesize 9. = 125.000000 Tolerance = +0.000000/-0.000000 NON_PLATED MILS Quantity = 4
%
G90
T01
X0568Y0255
X0561Y0145
X03295Y02885
X03821Y0329
X03015Y02885
X0278Y004
X0278Y0028
X0088Y01465
X0088Y01245
X06075Y00515
X0561Y0129
X04735Y0287
X04325Y02875
X04325Y02675
X04515Y02265
X04445Y02195
X04385Y02135
X04315Y02065
X0538Y01585
X0566Y01585
X0464Y01535
X0464Y0115
X0271Y0267
X055Y0145
X0573Y0109
X0573Y00595
X0573Y00865
X04955Y0205
X04955Y0211
X04955Y02875
X04955Y03015
X0501Y02995
X05555Y0145
X05555Y0115
X0558Y008
X0558Y0073
X0506Y0211
X0506Y02185
X0501Y02875
X0308Y0086
X0369Y01505
X0336Y01505
X0336Y01152
X0538Y01515
X0566Y01515
X04105Y0305
X0394Y00745
X0528Y02115
X0528Y02185
X05065Y02875
X05065Y02975
X0471Y0185
X0479Y0185
X0555Y0246
X0555Y024
X05565Y0213
X05565Y02065
X04055Y03035
X04055Y02865
X03415Y0038
X03415Y00465
X0444Y00585
X04695Y0062
X0481Y0062
X05585Y00565
X05665Y00565
X02485Y02215
X0253Y02045
X0271Y01448
X0271Y01152
X02955Y0088
X0434Y00585
X0526Y0295
X03758Y02915
X0333Y00795
X03415Y0114
X03415Y01455
X04175Y01455
X04175Y01675
X0354Y0006
X0354Y002
X0354Y00395
X0354Y0061
X0384Y0061
X04695Y0076
X0481Y0076
X05485Y0097
X05775Y0097
X05775Y0153
X05775Y01245
X0413Y02835
X0454Y00585
X02415Y02215
X02415Y02095
X01855Y01465
X01855Y01143
X0383Y0252
X0383Y0244
X04453Y03194
X04651Y02571
X04521Y02796
X0452Y03035
X0475Y02565
X0474Y0157
X00644Y0271
X043Y01545
X017Y0162
X0238Y018
X0253Y018
X02885Y01705
X02675Y01705
X0311Y0292
X0362Y0039
X0362Y0079
X045Y0115
X02715Y0094
X0469Y0017
X05265Y0052
X04695Y0039
X0489Y0039
X0326Y02635
X02715Y0054
X06075Y00615
X0471Y0192
X0485Y0192
X0404Y0058
X04695Y007
X0481Y007
X05445Y0115
X05445Y0145
X0484Y01485
X0484Y0115
X02935Y0204
X02715Y0074
X0267Y03195
X0277Y03195
X0277Y0293
X0277Y01995
X0277Y01888
X0277Y01448
X0277Y01152
X0305Y00995
X0311Y00995
X0338Y00995
X0345Y00995
X0374Y0083
X0501Y00435
X0073Y02665
X0112Y02
X0112Y0206
X0112Y0194
X01Y0188
X01Y0212
X0112Y0212
X0038Y007
X0038Y0082
X0038Y0076
X0038Y0094
X0038Y0088
X0014Y007
X0014Y0082
X0014Y0076
X0014Y0094
X0014Y0088
X002Y0088
X002Y0094
X0026Y0088
X0026Y0094
X0032Y0088
X0032Y0094
X0112Y0188
X02605Y0267
X06075Y00415
X03759Y0241
X0471Y0198
X0485Y0198
X0527Y00315
X05275Y00715
X05905Y0196
T02
X02839Y01257
X02839Y01475
X0284Y0188
X0284Y02003
X0284Y02926
X0284Y0307
X02565Y00215
X02565Y00954
X02565Y0113
X02565Y01458
X0474Y01142
X0474Y01375
X0621Y0137
X0638Y0137
X0132Y00245
X0142Y00145
X0152Y00245
X0132Y00505
X0142Y00405
X0152Y00505
X022Y0232
X023Y0242
X022Y0252
X0196Y0334
X0206Y0324
X0216Y0334
X0449Y02535
X0439Y02535
T03
X00095Y01535
X00495Y01535
X0094Y0283
X0094Y0308
X00561Y02731
X00561Y03131
X00695Y02805
X00695Y03205
X00615Y017
X00615Y021
X0138Y0172
R03X001
X0168Y0202
R03X-001
X0092Y0098
R07Y-001
X0122Y0028
R07Y001
X0146Y0103
X0146Y0078
X023Y00255
R06Y001
X02Y00855
R06Y-001
X02095Y0261
X02095Y0301
X0232Y0278
X0242Y0308
X0232Y0328
X01595Y03105
X01195Y03105
X03295Y0214
X03195Y0184
X03295Y0164
X03035Y0214
X02935Y0184
X03035Y0164
X0262Y0278
X0272Y0308
X0262Y0328
X0328Y0015
X0288Y0015
X0333Y0048
X0333Y0088
X0318Y0028
R06Y001
X0288Y0088
R06Y-001
X04485Y0207
X04235Y0207
X04225Y02535
X04125Y02735
X04025Y02535
X0358Y0224
R06Y-001
X0388Y0164
R06Y001
X0437Y03226
X0477Y03226
X04735Y0309
X04335Y0309
X046Y02235
R03X001
X049Y02535
R03X-001
X05185Y0235
R06Y-001
X05485Y0175
R06Y001
X045Y0177
X043Y0167
X045Y0157
X0464Y0085
X0464Y0045
X0552Y00815
R06Y-001
X0582Y00215
R06Y001
X0603Y01715
R06Y001
X0573Y02315
R06Y-001
T04
X00365Y0137
R02X-001
X0036Y0308
R02X-001
X01655Y0026
X01655Y0056
X01855Y0026
X01855Y0056
X01865Y0271
R02Y001
X0374Y0022
X0494Y0032
R12X-001
X0494Y0022
R11X-001
T05
X00196Y01922
X00396Y01922
X007Y0012
X0236Y0202
X0236Y0172
X0148Y015
R02X001
X0185Y0154
X0185Y0164
X0206Y0312
X0216Y0312
X0296Y0297
X0336Y0307
R04X-001
X0336Y0297
R03X-001
X0399Y0184
X0409Y0184
X0399Y0204
X0409Y0204
X03459Y01741
X03525Y02835
X03625Y02435
R04Y001
X03525Y02435
R03Y001
X03457Y02239
X03805Y0313
X04205Y0323
R04X-001
X04205Y0313
R03X-001
X0538Y02905
X0578Y03005
R04X-001
X0578Y02905
R03X-001
X06337Y03007
T06
X00325Y033
X00481Y033
X01195Y033
X01351Y033
T07
X01685Y0235
X00905Y0235
X01985Y0235
X00605Y0235
T08
X00265Y0077
X0026Y0248
X01265Y0281
T09
X001Y001
X001Y034
X064Y034
X064Y001
M30
