G04 ================== begin FILE IDENTIFICATION RECORD ==================*
G04 Layout Name:  controller.brd*
G04 Film Name:    MECH*
G04 File Format:  Gerber RS274X*
G04 File Origin:  Cadence Allegro 16.3-S021*
G04 Origin Date:  Fri Apr 29 13:04:29 2011*
G04 *
G04 Layer:  MANUFACTURING/NCLEGEND-1-2*
G04 Layer:  BOARD GEOMETRY/DIMENSION*
G04 Layer:  BOARD GEOMETRY/CUT_MARKS*
G04 *
G04 Offset:    (0.0 0.0)*
G04 Mirror:    No*
G04 Mode:      Positive*
G04 Rotation:  0*
G04 FullContactRelief:  No*
G04 UndefLineWidth:     1.0*
G04 ================== end FILE IDENTIFICATION RECORD ====================*
%FSLAX25Y25*MOIN*%
%IR0*IPPOS*OFA0.00000B0.00000*MIA0B0*SFA1.00000B1.00000*%
%AMMACRO11*
1,1,.001,.01,0.0*
20,1,.001,.01,0.0,-.01,0.0,0.0*
1,1,.001,-.01,0.0*
1,1,.001,0.0,.01*
20,1,.001,0.0,.01,0.0,-.01,0.0*
1,1,.001,0.0,-.01*
%
%ADD11MACRO11*%
%AMMACRO29*
1,1,.001,.04,0.0*
20,1,.001,.04,0.0,-.04,0.0,0.0*
1,1,.001,-.04,0.0*
1,1,.001,0.0,.04*
20,1,.001,0.0,.04,0.0,-.04,0.0*
1,1,.001,0.0,-.04*
%
%ADD29MACRO29*%
%AMMACRO15*
1,1,.001,.021,0.0*
20,1,.001,.021,0.0,.020681,-.003647,0.0*
1,1,.001,.020681,-.003647*
20,1,.001,.020681,-.003647,.019734,-.007182,0.0*
1,1,.001,.019734,-.007182*
20,1,.001,.019734,-.007182,.018187,-.0105,0.0*
1,1,.001,.018187,-.0105*
20,1,.001,.018187,-.0105,.016087,-.013499,0.0*
1,1,.001,.016087,-.013499*
20,1,.001,.016087,-.013499,.013499,-.016087,0.0*
1,1,.001,.013499,-.016087*
20,1,.001,.013499,-.016087,.0105,-.018187,0.0*
1,1,.001,.0105,-.018187*
20,1,.001,.0105,-.018187,.007182,-.019734,0.0*
1,1,.001,.007182,-.019734*
20,1,.001,.007182,-.019734,.003647,-.020681,0.0*
1,1,.001,.003647,-.020681*
20,1,.001,.003647,-.020681,0.0,-.021,0.0*
1,1,.001,0.0,-.021*
20,1,.001,0.0,-.021,-.003647,-.020681,0.0*
1,1,.001,-.003647,-.020681*
20,1,.001,-.003647,-.020681,-.007182,-.019734,0.0*
1,1,.001,-.007182,-.019734*
20,1,.001,-.007182,-.019734,-.0105,-.018187,0.0*
1,1,.001,-.0105,-.018187*
20,1,.001,-.0105,-.018187,-.013499,-.016087,0.0*
1,1,.001,-.013499,-.016087*
20,1,.001,-.013499,-.016087,-.016087,-.013499,0.0*
1,1,.001,-.016087,-.013499*
20,1,.001,-.016087,-.013499,-.018187,-.0105,0.0*
1,1,.001,-.018187,-.0105*
20,1,.001,-.018187,-.0105,-.019734,-.007182,0.0*
1,1,.001,-.019734,-.007182*
20,1,.001,-.019734,-.007182,-.020681,-.003647,0.0*
1,1,.001,-.020681,-.003647*
20,1,.001,-.020681,-.003647,-.021,0.0,0.0*
1,1,.001,-.021,0.0*
20,1,.001,-.021,0.0,-.020681,.003647,0.0*
1,1,.001,-.020681,.003647*
20,1,.001,-.020681,.003647,-.019734,.007182,0.0*
1,1,.001,-.019734,.007182*
20,1,.001,-.019734,.007182,-.018187,.0105,0.0*
1,1,.001,-.018187,.0105*
20,1,.001,-.018187,.0105,-.016087,.013499,0.0*
1,1,.001,-.016087,.013499*
20,1,.001,-.016087,.013499,-.013499,.016087,0.0*
1,1,.001,-.013499,.016087*
20,1,.001,-.013499,.016087,-.0105,.018187,0.0*
1,1,.001,-.0105,.018187*
20,1,.001,-.0105,.018187,-.007182,.019734,0.0*
1,1,.001,-.007182,.019734*
20,1,.001,-.007182,.019734,-.003647,.020681,0.0*
1,1,.001,-.003647,.020681*
20,1,.001,-.003647,.020681,0.0,.021,0.0*
1,1,.001,0.0,.021*
20,1,.001,0.0,.021,.003647,.020681,0.0*
1,1,.001,.003647,.020681*
20,1,.001,.003647,.020681,.007182,.019734,0.0*
1,1,.001,.007182,.019734*
20,1,.001,.007182,.019734,.0105,.018187,0.0*
1,1,.001,.0105,.018187*
20,1,.001,.0105,.018187,.013499,.016087,0.0*
1,1,.001,.013499,.016087*
20,1,.001,.013499,.016087,.016087,.013499,0.0*
1,1,.001,.016087,.013499*
20,1,.001,.016087,.013499,.018187,.0105,0.0*
1,1,.001,.018187,.0105*
20,1,.001,.018187,.0105,.019734,.007182,0.0*
1,1,.001,.019734,.007182*
20,1,.001,.019734,.007182,.020681,.003647,0.0*
1,1,.001,.020681,.003647*
20,1,.001,.020681,.003647,.021,0.0,0.0*
1,1,.001,.021,0.0*
1,1,.001,-.0077,-.0105*
20,1,.001,-.0077,-.0105,-.0077,.0105,0.0*
1,1,.001,-.0077,.0105*
20,1,.001,-.0077,.0105,-.0007,.0105,0.0*
1,1,.001,-.0007,.0105*
20,1,.001,-.0007,.0105,.0021,.0094,0.0*
1,1,.001,.0021,.0094*
20,1,.001,.0021,.0094,.0042,.008,0.0*
1,1,.001,.0042,.008*
20,1,.001,.0042,.008,.006,.006,0.0*
1,1,.001,.006,.006*
20,1,.001,.006,.006,.0074,.0035,0.0*
1,1,.001,.0074,.0035*
20,1,.001,.0074,.0035,.0077,0.0,0.0*
1,1,.001,.0077,0.0*
20,1,.001,.0077,0.0,.0074,-.0035,0.0*
1,1,.001,.0074,-.0035*
20,1,.001,.0074,-.0035,.006,-.006,0.0*
1,1,.001,.006,-.006*
20,1,.001,.006,-.006,.0042,-.0081,0.0*
1,1,.001,.0042,-.0081*
20,1,.001,.0042,-.0081,.0021,-.0095,0.0*
1,1,.001,.0021,-.0095*
20,1,.001,.0021,-.0095,-.0007,-.0105,0.0*
1,1,.001,-.0007,-.0105*
20,1,.001,-.0007,-.0105,-.0077,-.0105,0.0*
1,1,.001,-.0077,-.0105*
%
%ADD15MACRO15*%
%AMMACRO28*
1,1,.001,.04,0.0*
20,1,.001,.04,0.0,.039392,-.006946,0.0*
1,1,.001,.039392,-.006946*
20,1,.001,.039392,-.006946,.037588,-.013681,0.0*
1,1,.001,.037588,-.013681*
20,1,.001,.037588,-.013681,.034641,-.02,0.0*
1,1,.001,.034641,-.02*
20,1,.001,.034641,-.02,.030642,-.025712,0.0*
1,1,.001,.030642,-.025712*
20,1,.001,.030642,-.025712,.025712,-.030642,0.0*
1,1,.001,.025712,-.030642*
20,1,.001,.025712,-.030642,.02,-.034641,0.0*
1,1,.001,.02,-.034641*
20,1,.001,.02,-.034641,.013681,-.037588,0.0*
1,1,.001,.013681,-.037588*
20,1,.001,.013681,-.037588,.006946,-.039392,0.0*
1,1,.001,.006946,-.039392*
20,1,.001,.006946,-.039392,0.0,-.04,0.0*
1,1,.001,0.0,-.04*
20,1,.001,0.0,-.04,-.006946,-.039392,0.0*
1,1,.001,-.006946,-.039392*
20,1,.001,-.006946,-.039392,-.013681,-.037588,0.0*
1,1,.001,-.013681,-.037588*
20,1,.001,-.013681,-.037588,-.02,-.034641,0.0*
1,1,.001,-.02,-.034641*
20,1,.001,-.02,-.034641,-.025712,-.030642,0.0*
1,1,.001,-.025712,-.030642*
20,1,.001,-.025712,-.030642,-.030642,-.025712,0.0*
1,1,.001,-.030642,-.025712*
20,1,.001,-.030642,-.025712,-.034641,-.02,0.0*
1,1,.001,-.034641,-.02*
20,1,.001,-.034641,-.02,-.037588,-.013681,0.0*
1,1,.001,-.037588,-.013681*
20,1,.001,-.037588,-.013681,-.039392,-.006946,0.0*
1,1,.001,-.039392,-.006946*
20,1,.001,-.039392,-.006946,-.04,0.0,0.0*
1,1,.001,-.04,0.0*
20,1,.001,-.04,0.0,-.039392,.006946,0.0*
1,1,.001,-.039392,.006946*
20,1,.001,-.039392,.006946,-.037588,.013681,0.0*
1,1,.001,-.037588,.013681*
20,1,.001,-.037588,.013681,-.034641,.02,0.0*
1,1,.001,-.034641,.02*
20,1,.001,-.034641,.02,-.030642,.025712,0.0*
1,1,.001,-.030642,.025712*
20,1,.001,-.030642,.025712,-.025712,.030642,0.0*
1,1,.001,-.025712,.030642*
20,1,.001,-.025712,.030642,-.02,.034641,0.0*
1,1,.001,-.02,.034641*
20,1,.001,-.02,.034641,-.013681,.037588,0.0*
1,1,.001,-.013681,.037588*
20,1,.001,-.013681,.037588,-.006946,.039392,0.0*
1,1,.001,-.006946,.039392*
20,1,.001,-.006946,.039392,0.0,.04,0.0*
1,1,.001,0.0,.04*
20,1,.001,0.0,.04,.006946,.039392,0.0*
1,1,.001,.006946,.039392*
20,1,.001,.006946,.039392,.013681,.037588,0.0*
1,1,.001,.013681,.037588*
20,1,.001,.013681,.037588,.02,.034641,0.0*
1,1,.001,.02,.034641*
20,1,.001,.02,.034641,.025712,.030642,0.0*
1,1,.001,.025712,.030642*
20,1,.001,.025712,.030642,.030642,.025712,0.0*
1,1,.001,.030642,.025712*
20,1,.001,.030642,.025712,.034641,.02,0.0*
1,1,.001,.034641,.02*
20,1,.001,.034641,.02,.037588,.013681,0.0*
1,1,.001,.037588,.013681*
20,1,.001,.037588,.013681,.039392,.006946,0.0*
1,1,.001,.039392,.006946*
20,1,.001,.039392,.006946,.04,0.0,0.0*
1,1,.001,.04,0.0*
1,1,.001,-.0167,-.02*
20,1,.001,-.0167,-.02,0.0,.02,0.0*
1,1,.001,0.0,.02*
20,1,.001,0.0,.02,.0167,-.02,0.0*
1,1,.001,.0167,-.02*
1,1,.001,.0107,-.006*
20,1,.001,.0107,-.006,-.0107,-.006,0.0*
1,1,.001,-.0107,-.006*
%
%ADD28MACRO28*%
%AMMACRO26*
1,1,.001,.04,0.0*
20,1,.001,.04,0.0,.039392,-.006946,0.0*
1,1,.001,.039392,-.006946*
20,1,.001,.039392,-.006946,.037588,-.013681,0.0*
1,1,.001,.037588,-.013681*
20,1,.001,.037588,-.013681,.034641,-.02,0.0*
1,1,.001,.034641,-.02*
20,1,.001,.034641,-.02,.030642,-.025712,0.0*
1,1,.001,.030642,-.025712*
20,1,.001,.030642,-.025712,.025712,-.030642,0.0*
1,1,.001,.025712,-.030642*
20,1,.001,.025712,-.030642,.02,-.034641,0.0*
1,1,.001,.02,-.034641*
20,1,.001,.02,-.034641,.013681,-.037588,0.0*
1,1,.001,.013681,-.037588*
20,1,.001,.013681,-.037588,.006946,-.039392,0.0*
1,1,.001,.006946,-.039392*
20,1,.001,.006946,-.039392,0.0,-.04,0.0*
1,1,.001,0.0,-.04*
20,1,.001,0.0,-.04,-.006946,-.039392,0.0*
1,1,.001,-.006946,-.039392*
20,1,.001,-.006946,-.039392,-.013681,-.037588,0.0*
1,1,.001,-.013681,-.037588*
20,1,.001,-.013681,-.037588,-.02,-.034641,0.0*
1,1,.001,-.02,-.034641*
20,1,.001,-.02,-.034641,-.025712,-.030642,0.0*
1,1,.001,-.025712,-.030642*
20,1,.001,-.025712,-.030642,-.030642,-.025712,0.0*
1,1,.001,-.030642,-.025712*
20,1,.001,-.030642,-.025712,-.034641,-.02,0.0*
1,1,.001,-.034641,-.02*
20,1,.001,-.034641,-.02,-.037588,-.013681,0.0*
1,1,.001,-.037588,-.013681*
20,1,.001,-.037588,-.013681,-.039392,-.006946,0.0*
1,1,.001,-.039392,-.006946*
20,1,.001,-.039392,-.006946,-.04,0.0,0.0*
1,1,.001,-.04,0.0*
20,1,.001,-.04,0.0,-.039392,.006946,0.0*
1,1,.001,-.039392,.006946*
20,1,.001,-.039392,.006946,-.037588,.013681,0.0*
1,1,.001,-.037588,.013681*
20,1,.001,-.037588,.013681,-.034641,.02,0.0*
1,1,.001,-.034641,.02*
20,1,.001,-.034641,.02,-.030642,.025712,0.0*
1,1,.001,-.030642,.025712*
20,1,.001,-.030642,.025712,-.025712,.030642,0.0*
1,1,.001,-.025712,.030642*
20,1,.001,-.025712,.030642,-.02,.034641,0.0*
1,1,.001,-.02,.034641*
20,1,.001,-.02,.034641,-.013681,.037588,0.0*
1,1,.001,-.013681,.037588*
20,1,.001,-.013681,.037588,-.006946,.039392,0.0*
1,1,.001,-.006946,.039392*
20,1,.001,-.006946,.039392,0.0,.04,0.0*
1,1,.001,0.0,.04*
20,1,.001,0.0,.04,.006946,.039392,0.0*
1,1,.001,.006946,.039392*
20,1,.001,.006946,.039392,.013681,.037588,0.0*
1,1,.001,.013681,.037588*
20,1,.001,.013681,.037588,.02,.034641,0.0*
1,1,.001,.02,.034641*
20,1,.001,.02,.034641,.025712,.030642,0.0*
1,1,.001,.025712,.030642*
20,1,.001,.025712,.030642,.030642,.025712,0.0*
1,1,.001,.030642,.025712*
20,1,.001,.030642,.025712,.034641,.02,0.0*
1,1,.001,.034641,.02*
20,1,.001,.034641,.02,.037588,.013681,0.0*
1,1,.001,.037588,.013681*
20,1,.001,.037588,.013681,.039392,.006946,0.0*
1,1,.001,.039392,.006946*
20,1,.001,.039392,.006946,.04,0.0,0.0*
1,1,.001,.04,0.0*
1,1,.001,.0053,.0013*
20,1,.001,.0053,.0013,.008,.0033,0.0*
1,1,.001,.008,.0033*
20,1,.001,.008,.0033,.01,.0067,0.0*
1,1,.001,.01,.0067*
20,1,.001,.01,.0067,.0113,.0113,0.0*
1,1,.001,.0113,.0113*
20,1,.001,.0113,.0113,.01,.0153,0.0*
1,1,.001,.01,.0153*
20,1,.001,.01,.0153,.0073,.018,0.0*
1,1,.001,.0073,.018*
20,1,.001,.0073,.018,.0027,.02,0.0*
1,1,.001,.0027,.02*
20,1,.001,.0027,.02,-.0153,.02,0.0*
1,1,.001,-.0153,.02*
20,1,.001,-.0153,.02,-.0153,-.02,0.0*
1,1,.001,-.0153,-.02*
20,1,.001,-.0153,-.02,.0067,-.02,0.0*
1,1,.001,.0067,-.02*
20,1,.001,.0067,-.02,.0113,-.0173,0.0*
1,1,.001,.0113,-.0173*
20,1,.001,.0113,-.0173,.014,-.0133,0.0*
1,1,.001,.014,-.0133*
20,1,.001,.014,-.0133,.0153,-.0087,0.0*
1,1,.001,.0153,-.0087*
20,1,.001,.0153,-.0087,.014,-.004,0.0*
1,1,.001,.014,-.004*
20,1,.001,.014,-.004,.01,0.0,0.0*
1,1,.001,.01,0.0*
20,1,.001,.01,0.0,.0053,.0013,0.0*
1,1,.001,.0053,.0013*
20,1,.001,.0053,.0013,-.0153,.0013,0.0*
1,1,.001,-.0153,.0013*
%
%ADD26MACRO26*%
%AMMACRO14*
1,1,.001,.0625,0.0*
20,1,.001,.0625,0.0,.06155,-.010853,0.0*
1,1,.001,.06155,-.010853*
20,1,.001,.06155,-.010853,.058731,-.021376,0.0*
1,1,.001,.058731,-.021376*
20,1,.001,.058731,-.021376,.054127,-.03125,0.0*
1,1,.001,.054127,-.03125*
20,1,.001,.054127,-.03125,.047878,-.040174,0.0*
1,1,.001,.047878,-.040174*
20,1,.001,.047878,-.040174,.040174,-.047878,0.0*
1,1,.001,.040174,-.047878*
20,1,.001,.040174,-.047878,.03125,-.054127,0.0*
1,1,.001,.03125,-.054127*
20,1,.001,.03125,-.054127,.021376,-.058731,0.0*
1,1,.001,.021376,-.058731*
20,1,.001,.021376,-.058731,.010853,-.06155,0.0*
1,1,.001,.010853,-.06155*
20,1,.001,.010853,-.06155,0.0,-.0625,0.0*
1,1,.001,0.0,-.0625*
20,1,.001,0.0,-.0625,-.010853,-.06155,0.0*
1,1,.001,-.010853,-.06155*
20,1,.001,-.010853,-.06155,-.021376,-.058731,0.0*
1,1,.001,-.021376,-.058731*
20,1,.001,-.021376,-.058731,-.03125,-.054127,0.0*
1,1,.001,-.03125,-.054127*
20,1,.001,-.03125,-.054127,-.040174,-.047878,0.0*
1,1,.001,-.040174,-.047878*
20,1,.001,-.040174,-.047878,-.047878,-.040174,0.0*
1,1,.001,-.047878,-.040174*
20,1,.001,-.047878,-.040174,-.054127,-.03125,0.0*
1,1,.001,-.054127,-.03125*
20,1,.001,-.054127,-.03125,-.058731,-.021376,0.0*
1,1,.001,-.058731,-.021376*
20,1,.001,-.058731,-.021376,-.06155,-.010853,0.0*
1,1,.001,-.06155,-.010853*
20,1,.001,-.06155,-.010853,-.0625,0.0,0.0*
1,1,.001,-.0625,0.0*
20,1,.001,-.0625,0.0,-.06155,.010853,0.0*
1,1,.001,-.06155,.010853*
20,1,.001,-.06155,.010853,-.058731,.021376,0.0*
1,1,.001,-.058731,.021376*
20,1,.001,-.058731,.021376,-.054127,.03125,0.0*
1,1,.001,-.054127,.03125*
20,1,.001,-.054127,.03125,-.047878,.040174,0.0*
1,1,.001,-.047878,.040174*
20,1,.001,-.047878,.040174,-.040174,.047878,0.0*
1,1,.001,-.040174,.047878*
20,1,.001,-.040174,.047878,-.03125,.054127,0.0*
1,1,.001,-.03125,.054127*
20,1,.001,-.03125,.054127,-.021376,.058731,0.0*
1,1,.001,-.021376,.058731*
20,1,.001,-.021376,.058731,-.010853,.06155,0.0*
1,1,.001,-.010853,.06155*
20,1,.001,-.010853,.06155,0.0,.0625,0.0*
1,1,.001,0.0,.0625*
20,1,.001,0.0,.0625,.010853,.06155,0.0*
1,1,.001,.010853,.06155*
20,1,.001,.010853,.06155,.021376,.058731,0.0*
1,1,.001,.021376,.058731*
20,1,.001,.021376,.058731,.03125,.054127,0.0*
1,1,.001,.03125,.054127*
20,1,.001,.03125,.054127,.040174,.047878,0.0*
1,1,.001,.040174,.047878*
20,1,.001,.040174,.047878,.047878,.040174,0.0*
1,1,.001,.047878,.040174*
20,1,.001,.047878,.040174,.054127,.03125,0.0*
1,1,.001,.054127,.03125*
20,1,.001,.054127,.03125,.058731,.021376,0.0*
1,1,.001,.058731,.021376*
20,1,.001,.058731,.021376,.06155,.010853,0.0*
1,1,.001,.06155,.010853*
20,1,.001,.06155,.010853,.0625,0.0,0.0*
1,1,.001,.0625,0.0*
1,1,.001,.0063,0.0*
20,1,.001,.0063,0.0,.0271,0.0,0.0*
1,1,.001,.0271,0.0*
20,1,.001,.0271,0.0,.0271,-.0187,0.0*
1,1,.001,.0271,-.0187*
20,1,.001,.0271,-.0187,.0209,-.025,0.0*
1,1,.001,.0209,-.025*
20,1,.001,.0209,-.025,.0136,-.0291,0.0*
1,1,.001,.0136,-.0291*
20,1,.001,.0136,-.0291,.0032,-.0312,0.0*
1,1,.001,.0032,-.0312*
20,1,.001,.0032,-.0312,-.0072,-.0291,0.0*
1,1,.001,-.0072,-.0291*
20,1,.001,-.0072,-.0291,-.0145,-.025,0.0*
1,1,.001,-.0145,-.025*
20,1,.001,-.0145,-.025,-.0208,-.0187,0.0*
1,1,.001,-.0208,-.0187*
20,1,.001,-.0208,-.0187,-.025,-.0114,0.0*
1,1,.001,-.025,-.0114*
20,1,.001,-.025,-.0114,-.027,-.0031,0.0*
1,1,.001,-.027,-.0031*
20,1,.001,-.027,-.0031,-.027,.0042,0.0*
1,1,.001,-.027,.0042*
20,1,.001,-.027,.0042,-.025,.0105,0.0*
1,1,.001,-.025,.0105*
20,1,.001,-.025,.0105,-.0208,.0178,0.0*
1,1,.001,-.0208,.0178*
20,1,.001,-.0208,.0178,-.0145,.024,0.0*
1,1,.001,-.0145,.024*
20,1,.001,-.0145,.024,-.0083,.0282,0.0*
1,1,.001,-.0083,.0282*
20,1,.001,-.0083,.0282,0.0,.0313,0.0*
1,1,.001,0.0,.0313*
20,1,.001,0.0,.0313,.0073,.0313,0.0*
1,1,.001,.0073,.0313*
20,1,.001,.0073,.0313,.0157,.0292,0.0*
1,1,.001,.0157,.0292*
20,1,.001,.0157,.0292,.0219,.025,0.0*
1,1,.001,.0219,.025*
%
%ADD14MACRO14*%
%AMMACRO13*
1,1,.001,.0175,0.0*
20,1,.001,.0175,0.0,.017234,-.003039,0.0*
1,1,.001,.017234,-.003039*
20,1,.001,.017234,-.003039,.016445,-.005985,0.0*
1,1,.001,.016445,-.005985*
20,1,.001,.016445,-.005985,.015155,-.00875,0.0*
1,1,.001,.015155,-.00875*
20,1,.001,.015155,-.00875,.013406,-.011249,0.0*
1,1,.001,.013406,-.011249*
20,1,.001,.013406,-.011249,.011249,-.013406,0.0*
1,1,.001,.011249,-.013406*
20,1,.001,.011249,-.013406,.00875,-.015155,0.0*
1,1,.001,.00875,-.015155*
20,1,.001,.00875,-.015155,.005985,-.016445,0.0*
1,1,.001,.005985,-.016445*
20,1,.001,.005985,-.016445,.003039,-.017234,0.0*
1,1,.001,.003039,-.017234*
20,1,.001,.003039,-.017234,0.0,-.0175,0.0*
1,1,.001,0.0,-.0175*
20,1,.001,0.0,-.0175,-.003039,-.017234,0.0*
1,1,.001,-.003039,-.017234*
20,1,.001,-.003039,-.017234,-.005985,-.016445,0.0*
1,1,.001,-.005985,-.016445*
20,1,.001,-.005985,-.016445,-.00875,-.015155,0.0*
1,1,.001,-.00875,-.015155*
20,1,.001,-.00875,-.015155,-.011249,-.013406,0.0*
1,1,.001,-.011249,-.013406*
20,1,.001,-.011249,-.013406,-.013406,-.011249,0.0*
1,1,.001,-.013406,-.011249*
20,1,.001,-.013406,-.011249,-.015155,-.00875,0.0*
1,1,.001,-.015155,-.00875*
20,1,.001,-.015155,-.00875,-.016445,-.005985,0.0*
1,1,.001,-.016445,-.005985*
20,1,.001,-.016445,-.005985,-.017234,-.003039,0.0*
1,1,.001,-.017234,-.003039*
20,1,.001,-.017234,-.003039,-.0175,0.0,0.0*
1,1,.001,-.0175,0.0*
20,1,.001,-.0175,0.0,-.017234,.003039,0.0*
1,1,.001,-.017234,.003039*
20,1,.001,-.017234,.003039,-.016445,.005985,0.0*
1,1,.001,-.016445,.005985*
20,1,.001,-.016445,.005985,-.015155,.00875,0.0*
1,1,.001,-.015155,.00875*
20,1,.001,-.015155,.00875,-.013406,.011249,0.0*
1,1,.001,-.013406,.011249*
20,1,.001,-.013406,.011249,-.011249,.013406,0.0*
1,1,.001,-.011249,.013406*
20,1,.001,-.011249,.013406,-.00875,.015155,0.0*
1,1,.001,-.00875,.015155*
20,1,.001,-.00875,.015155,-.005985,.016445,0.0*
1,1,.001,-.005985,.016445*
20,1,.001,-.005985,.016445,-.003039,.017234,0.0*
1,1,.001,-.003039,.017234*
20,1,.001,-.003039,.017234,0.0,.0175,0.0*
1,1,.001,0.0,.0175*
20,1,.001,0.0,.0175,.003039,.017234,0.0*
1,1,.001,.003039,.017234*
20,1,.001,.003039,.017234,.005985,.016445,0.0*
1,1,.001,.005985,.016445*
20,1,.001,.005985,.016445,.00875,.015155,0.0*
1,1,.001,.00875,.015155*
20,1,.001,.00875,.015155,.011249,.013406,0.0*
1,1,.001,.011249,.013406*
20,1,.001,.011249,.013406,.013406,.011249,0.0*
1,1,.001,.013406,.011249*
20,1,.001,.013406,.011249,.015155,.00875,0.0*
1,1,.001,.015155,.00875*
20,1,.001,.015155,.00875,.016445,.005985,0.0*
1,1,.001,.016445,.005985*
20,1,.001,.016445,.005985,.017234,.003039,0.0*
1,1,.001,.017234,.003039*
20,1,.001,.017234,.003039,.0175,0.0,0.0*
1,1,.001,.0175,0.0*
1,1,.001,.0024,.0006*
20,1,.001,.0024,.0006,.0036,.0015,0.0*
1,1,.001,.0036,.0015*
20,1,.001,.0036,.0015,.0044,.003,0.0*
1,1,.001,.0044,.003*
20,1,.001,.0044,.003,.005,.005,0.0*
1,1,.001,.005,.005*
20,1,.001,.005,.005,.0044,.0068,0.0*
1,1,.001,.0044,.0068*
20,1,.001,.0044,.0068,.0033,.0079,0.0*
1,1,.001,.0033,.0079*
20,1,.001,.0033,.0079,.0012,.0088,0.0*
1,1,.001,.0012,.0088*
20,1,.001,.0012,.0088,-.0067,.0088,0.0*
1,1,.001,-.0067,.0088*
20,1,.001,-.0067,.0088,-.0067,-.0087,0.0*
1,1,.001,-.0067,-.0087*
20,1,.001,-.0067,-.0087,.003,-.0087,0.0*
1,1,.001,.003,-.0087*
20,1,.001,.003,-.0087,.005,-.0075,0.0*
1,1,.001,.005,-.0075*
20,1,.001,.005,-.0075,.0062,-.0058,0.0*
1,1,.001,.0062,-.0058*
20,1,.001,.0062,-.0058,.0068,-.0037,0.0*
1,1,.001,.0068,-.0037*
20,1,.001,.0068,-.0037,.0062,-.0017,0.0*
1,1,.001,.0062,-.0017*
20,1,.001,.0062,-.0017,.0044,0.0,0.0*
1,1,.001,.0044,0.0*
20,1,.001,.0044,0.0,.0024,.0006,0.0*
1,1,.001,.0024,.0006*
20,1,.001,.0024,.0006,-.0067,.0006,0.0*
1,1,.001,-.0067,.0006*
%
%ADD13MACRO13*%
%AMMACRO24*
1,1,.001,.04,0.0*
20,1,.001,.04,0.0,.039392,-.006946,0.0*
1,1,.001,.039392,-.006946*
20,1,.001,.039392,-.006946,.037588,-.013681,0.0*
1,1,.001,.037588,-.013681*
20,1,.001,.037588,-.013681,.034641,-.02,0.0*
1,1,.001,.034641,-.02*
20,1,.001,.034641,-.02,.030642,-.025712,0.0*
1,1,.001,.030642,-.025712*
20,1,.001,.030642,-.025712,.025712,-.030642,0.0*
1,1,.001,.025712,-.030642*
20,1,.001,.025712,-.030642,.02,-.034641,0.0*
1,1,.001,.02,-.034641*
20,1,.001,.02,-.034641,.013681,-.037588,0.0*
1,1,.001,.013681,-.037588*
20,1,.001,.013681,-.037588,.006946,-.039392,0.0*
1,1,.001,.006946,-.039392*
20,1,.001,.006946,-.039392,0.0,-.04,0.0*
1,1,.001,0.0,-.04*
20,1,.001,0.0,-.04,-.006946,-.039392,0.0*
1,1,.001,-.006946,-.039392*
20,1,.001,-.006946,-.039392,-.013681,-.037588,0.0*
1,1,.001,-.013681,-.037588*
20,1,.001,-.013681,-.037588,-.02,-.034641,0.0*
1,1,.001,-.02,-.034641*
20,1,.001,-.02,-.034641,-.025712,-.030642,0.0*
1,1,.001,-.025712,-.030642*
20,1,.001,-.025712,-.030642,-.030642,-.025712,0.0*
1,1,.001,-.030642,-.025712*
20,1,.001,-.030642,-.025712,-.034641,-.02,0.0*
1,1,.001,-.034641,-.02*
20,1,.001,-.034641,-.02,-.037588,-.013681,0.0*
1,1,.001,-.037588,-.013681*
20,1,.001,-.037588,-.013681,-.039392,-.006946,0.0*
1,1,.001,-.039392,-.006946*
20,1,.001,-.039392,-.006946,-.04,0.0,0.0*
1,1,.001,-.04,0.0*
20,1,.001,-.04,0.0,-.039392,.006946,0.0*
1,1,.001,-.039392,.006946*
20,1,.001,-.039392,.006946,-.037588,.013681,0.0*
1,1,.001,-.037588,.013681*
20,1,.001,-.037588,.013681,-.034641,.02,0.0*
1,1,.001,-.034641,.02*
20,1,.001,-.034641,.02,-.030642,.025712,0.0*
1,1,.001,-.030642,.025712*
20,1,.001,-.030642,.025712,-.025712,.030642,0.0*
1,1,.001,-.025712,.030642*
20,1,.001,-.025712,.030642,-.02,.034641,0.0*
1,1,.001,-.02,.034641*
20,1,.001,-.02,.034641,-.013681,.037588,0.0*
1,1,.001,-.013681,.037588*
20,1,.001,-.013681,.037588,-.006946,.039392,0.0*
1,1,.001,-.006946,.039392*
20,1,.001,-.006946,.039392,0.0,.04,0.0*
1,1,.001,0.0,.04*
20,1,.001,0.0,.04,.006946,.039392,0.0*
1,1,.001,.006946,.039392*
20,1,.001,.006946,.039392,.013681,.037588,0.0*
1,1,.001,.013681,.037588*
20,1,.001,.013681,.037588,.02,.034641,0.0*
1,1,.001,.02,.034641*
20,1,.001,.02,.034641,.025712,.030642,0.0*
1,1,.001,.025712,.030642*
20,1,.001,.025712,.030642,.030642,.025712,0.0*
1,1,.001,.030642,.025712*
20,1,.001,.030642,.025712,.034641,.02,0.0*
1,1,.001,.034641,.02*
20,1,.001,.034641,.02,.037588,.013681,0.0*
1,1,.001,.037588,.013681*
20,1,.001,.037588,.013681,.039392,.006946,0.0*
1,1,.001,.039392,.006946*
20,1,.001,.039392,.006946,.04,0.0,0.0*
1,1,.001,.04,0.0*
1,1,.001,.0147,.0167*
20,1,.001,.0147,.0167,.0107,.0187,0.0*
1,1,.001,.0107,.0187*
20,1,.001,.0107,.0187,.006,.02,0.0*
1,1,.001,.006,.02*
20,1,.001,.006,.02,.0007,.02,0.0*
1,1,.001,.0007,.02*
20,1,.001,.0007,.02,-.0053,.018,0.0*
1,1,.001,-.0053,.018*
20,1,.001,-.0053,.018,-.01,.0147,0.0*
1,1,.001,-.01,.0147*
20,1,.001,-.01,.0147,-.0133,.0107,0.0*
1,1,.001,-.0133,.0107*
20,1,.001,-.0133,.0107,-.016,.004,0.0*
1,1,.001,-.016,.004*
20,1,.001,-.016,.004,-.0167,-.002,0.0*
1,1,.001,-.0167,-.002*
20,1,.001,-.0167,-.002,-.0153,-.008,0.0*
1,1,.001,-.0153,-.008*
20,1,.001,-.0153,-.008,-.0133,-.012,0.0*
1,1,.001,-.0133,-.012*
20,1,.001,-.0133,-.012,-.0093,-.016,0.0*
1,1,.001,-.0093,-.016*
20,1,.001,-.0093,-.016,-.0047,-.0187,0.0*
1,1,.001,-.0047,-.0187*
20,1,.001,-.0047,-.0187,0.0,-.02,0.0*
1,1,.001,0.0,-.02*
20,1,.001,0.0,-.02,.0047,-.02,0.0*
1,1,.001,.0047,-.02*
20,1,.001,.0047,-.02,.0093,-.0187,0.0*
1,1,.001,.0093,-.0187*
20,1,.001,.0093,-.0187,.0133,-.0167,0.0*
1,1,.001,.0133,-.0167*
20,1,.001,.0133,-.0167,.0167,-.014,0.0*
1,1,.001,.0167,-.014*
%
%ADD24MACRO24*%
%AMMACRO16*
1,1,.001,.035,0.0*
20,1,.001,.035,0.0,.034468,-.006078,0.0*
1,1,.001,.034468,-.006078*
20,1,.001,.034468,-.006078,.032889,-.011971,0.0*
1,1,.001,.032889,-.011971*
20,1,.001,.032889,-.011971,.030311,-.0175,0.0*
1,1,.001,.030311,-.0175*
20,1,.001,.030311,-.0175,.026812,-.022498,0.0*
1,1,.001,.026812,-.022498*
20,1,.001,.026812,-.022498,.022498,-.026812,0.0*
1,1,.001,.022498,-.026812*
20,1,.001,.022498,-.026812,.0175,-.030311,0.0*
1,1,.001,.0175,-.030311*
20,1,.001,.0175,-.030311,.011971,-.032889,0.0*
1,1,.001,.011971,-.032889*
20,1,.001,.011971,-.032889,.006078,-.034468,0.0*
1,1,.001,.006078,-.034468*
20,1,.001,.006078,-.034468,0.0,-.035,0.0*
1,1,.001,0.0,-.035*
20,1,.001,0.0,-.035,-.006078,-.034468,0.0*
1,1,.001,-.006078,-.034468*
20,1,.001,-.006078,-.034468,-.011971,-.032889,0.0*
1,1,.001,-.011971,-.032889*
20,1,.001,-.011971,-.032889,-.0175,-.030311,0.0*
1,1,.001,-.0175,-.030311*
20,1,.001,-.0175,-.030311,-.022498,-.026812,0.0*
1,1,.001,-.022498,-.026812*
20,1,.001,-.022498,-.026812,-.026812,-.022498,0.0*
1,1,.001,-.026812,-.022498*
20,1,.001,-.026812,-.022498,-.030311,-.0175,0.0*
1,1,.001,-.030311,-.0175*
20,1,.001,-.030311,-.0175,-.032889,-.011971,0.0*
1,1,.001,-.032889,-.011971*
20,1,.001,-.032889,-.011971,-.034468,-.006078,0.0*
1,1,.001,-.034468,-.006078*
20,1,.001,-.034468,-.006078,-.035,0.0,0.0*
1,1,.001,-.035,0.0*
20,1,.001,-.035,0.0,-.034468,.006078,0.0*
1,1,.001,-.034468,.006078*
20,1,.001,-.034468,.006078,-.032889,.011971,0.0*
1,1,.001,-.032889,.011971*
20,1,.001,-.032889,.011971,-.030311,.0175,0.0*
1,1,.001,-.030311,.0175*
20,1,.001,-.030311,.0175,-.026812,.022498,0.0*
1,1,.001,-.026812,.022498*
20,1,.001,-.026812,.022498,-.022498,.026812,0.0*
1,1,.001,-.022498,.026812*
20,1,.001,-.022498,.026812,-.0175,.030311,0.0*
1,1,.001,-.0175,.030311*
20,1,.001,-.0175,.030311,-.011971,.032889,0.0*
1,1,.001,-.011971,.032889*
20,1,.001,-.011971,.032889,-.006078,.034468,0.0*
1,1,.001,-.006078,.034468*
20,1,.001,-.006078,.034468,0.0,.035,0.0*
1,1,.001,0.0,.035*
20,1,.001,0.0,.035,.006078,.034468,0.0*
1,1,.001,.006078,.034468*
20,1,.001,.006078,.034468,.011971,.032889,0.0*
1,1,.001,.011971,.032889*
20,1,.001,.011971,.032889,.0175,.030311,0.0*
1,1,.001,.0175,.030311*
20,1,.001,.0175,.030311,.022498,.026812,0.0*
1,1,.001,.022498,.026812*
20,1,.001,.022498,.026812,.026812,.022498,0.0*
1,1,.001,.026812,.022498*
20,1,.001,.026812,.022498,.030311,.0175,0.0*
1,1,.001,.030311,.0175*
20,1,.001,.030311,.0175,.032889,.011971,0.0*
1,1,.001,.032889,.011971*
20,1,.001,.032889,.011971,.034468,.006078,0.0*
1,1,.001,.034468,.006078*
20,1,.001,.034468,.006078,.035,0.0,0.0*
1,1,.001,.035,0.0*
1,1,.001,.0117,-.0175*
20,1,.001,.0117,-.0175,-.0117,-.0175,0.0*
1,1,.001,-.0117,-.0175*
20,1,.001,-.0117,-.0175,-.0117,.0175,0.0*
1,1,.001,-.0117,.0175*
20,1,.001,-.0117,.0175,.0117,.0175,0.0*
1,1,.001,.0117,.0175*
1,1,.001,.0023,.0006*
20,1,.001,.0023,.0006,-.0117,.0006,0.0*
1,1,.001,-.0117,.0006*
%
%ADD16MACRO16*%
%AMMACRO25*
1,1,.001,.04,0.0*
20,1,.001,.04,0.0,.039392,-.006946,0.0*
1,1,.001,.039392,-.006946*
20,1,.001,.039392,-.006946,.037588,-.013681,0.0*
1,1,.001,.037588,-.013681*
20,1,.001,.037588,-.013681,.034641,-.02,0.0*
1,1,.001,.034641,-.02*
20,1,.001,.034641,-.02,.030642,-.025712,0.0*
1,1,.001,.030642,-.025712*
20,1,.001,.030642,-.025712,.025712,-.030642,0.0*
1,1,.001,.025712,-.030642*
20,1,.001,.025712,-.030642,.02,-.034641,0.0*
1,1,.001,.02,-.034641*
20,1,.001,.02,-.034641,.013681,-.037588,0.0*
1,1,.001,.013681,-.037588*
20,1,.001,.013681,-.037588,.006946,-.039392,0.0*
1,1,.001,.006946,-.039392*
20,1,.001,.006946,-.039392,0.0,-.04,0.0*
1,1,.001,0.0,-.04*
20,1,.001,0.0,-.04,-.006946,-.039392,0.0*
1,1,.001,-.006946,-.039392*
20,1,.001,-.006946,-.039392,-.013681,-.037588,0.0*
1,1,.001,-.013681,-.037588*
20,1,.001,-.013681,-.037588,-.02,-.034641,0.0*
1,1,.001,-.02,-.034641*
20,1,.001,-.02,-.034641,-.025712,-.030642,0.0*
1,1,.001,-.025712,-.030642*
20,1,.001,-.025712,-.030642,-.030642,-.025712,0.0*
1,1,.001,-.030642,-.025712*
20,1,.001,-.030642,-.025712,-.034641,-.02,0.0*
1,1,.001,-.034641,-.02*
20,1,.001,-.034641,-.02,-.037588,-.013681,0.0*
1,1,.001,-.037588,-.013681*
20,1,.001,-.037588,-.013681,-.039392,-.006946,0.0*
1,1,.001,-.039392,-.006946*
20,1,.001,-.039392,-.006946,-.04,0.0,0.0*
1,1,.001,-.04,0.0*
20,1,.001,-.04,0.0,-.039392,.006946,0.0*
1,1,.001,-.039392,.006946*
20,1,.001,-.039392,.006946,-.037588,.013681,0.0*
1,1,.001,-.037588,.013681*
20,1,.001,-.037588,.013681,-.034641,.02,0.0*
1,1,.001,-.034641,.02*
20,1,.001,-.034641,.02,-.030642,.025712,0.0*
1,1,.001,-.030642,.025712*
20,1,.001,-.030642,.025712,-.025712,.030642,0.0*
1,1,.001,-.025712,.030642*
20,1,.001,-.025712,.030642,-.02,.034641,0.0*
1,1,.001,-.02,.034641*
20,1,.001,-.02,.034641,-.013681,.037588,0.0*
1,1,.001,-.013681,.037588*
20,1,.001,-.013681,.037588,-.006946,.039392,0.0*
1,1,.001,-.006946,.039392*
20,1,.001,-.006946,.039392,0.0,.04,0.0*
1,1,.001,0.0,.04*
20,1,.001,0.0,.04,.006946,.039392,0.0*
1,1,.001,.006946,.039392*
20,1,.001,.006946,.039392,.013681,.037588,0.0*
1,1,.001,.013681,.037588*
20,1,.001,.013681,.037588,.02,.034641,0.0*
1,1,.001,.02,.034641*
20,1,.001,.02,.034641,.025712,.030642,0.0*
1,1,.001,.025712,.030642*
20,1,.001,.025712,.030642,.030642,.025712,0.0*
1,1,.001,.030642,.025712*
20,1,.001,.030642,.025712,.034641,.02,0.0*
1,1,.001,.034641,.02*
20,1,.001,.034641,.02,.037588,.013681,0.0*
1,1,.001,.037588,.013681*
20,1,.001,.037588,.013681,.039392,.006946,0.0*
1,1,.001,.039392,.006946*
20,1,.001,.039392,.006946,.04,0.0,0.0*
1,1,.001,.04,0.0*
1,1,.001,-.0147,-.02*
20,1,.001,-.0147,-.02,-.0147,.02,0.0*
1,1,.001,-.0147,.02*
20,1,.001,-.0147,.02,-.0013,.02,0.0*
1,1,.001,-.0013,.02*
20,1,.001,-.0013,.02,.004,.018,0.0*
1,1,.001,.004,.018*
20,1,.001,.004,.018,.008,.0153,0.0*
1,1,.001,.008,.0153*
20,1,.001,.008,.0153,.0113,.0113,0.0*
1,1,.001,.0113,.0113*
20,1,.001,.0113,.0113,.014,.0067,0.0*
1,1,.001,.014,.0067*
20,1,.001,.014,.0067,.0147,0.0,0.0*
1,1,.001,.0147,0.0*
20,1,.001,.0147,0.0,.014,-.0067,0.0*
1,1,.001,.014,-.0067*
20,1,.001,.014,-.0067,.0113,-.0113,0.0*
1,1,.001,.0113,-.0113*
20,1,.001,.0113,-.0113,.008,-.0153,0.0*
1,1,.001,.008,-.0153*
20,1,.001,.008,-.0153,.004,-.018,0.0*
1,1,.001,.004,-.018*
20,1,.001,.004,-.018,-.0013,-.02,0.0*
1,1,.001,-.0013,-.02*
20,1,.001,-.0013,-.02,-.0147,-.02,0.0*
1,1,.001,-.0147,-.02*
%
%ADD25MACRO25*%
%AMMACRO23*
1,1,.001,.04,0.0*
20,1,.001,.04,0.0,.039392,-.006946,0.0*
1,1,.001,.039392,-.006946*
20,1,.001,.039392,-.006946,.037588,-.013681,0.0*
1,1,.001,.037588,-.013681*
20,1,.001,.037588,-.013681,.034641,-.02,0.0*
1,1,.001,.034641,-.02*
20,1,.001,.034641,-.02,.030642,-.025712,0.0*
1,1,.001,.030642,-.025712*
20,1,.001,.030642,-.025712,.025712,-.030642,0.0*
1,1,.001,.025712,-.030642*
20,1,.001,.025712,-.030642,.02,-.034641,0.0*
1,1,.001,.02,-.034641*
20,1,.001,.02,-.034641,.013681,-.037588,0.0*
1,1,.001,.013681,-.037588*
20,1,.001,.013681,-.037588,.006946,-.039392,0.0*
1,1,.001,.006946,-.039392*
20,1,.001,.006946,-.039392,0.0,-.04,0.0*
1,1,.001,0.0,-.04*
20,1,.001,0.0,-.04,-.006946,-.039392,0.0*
1,1,.001,-.006946,-.039392*
20,1,.001,-.006946,-.039392,-.013681,-.037588,0.0*
1,1,.001,-.013681,-.037588*
20,1,.001,-.013681,-.037588,-.02,-.034641,0.0*
1,1,.001,-.02,-.034641*
20,1,.001,-.02,-.034641,-.025712,-.030642,0.0*
1,1,.001,-.025712,-.030642*
20,1,.001,-.025712,-.030642,-.030642,-.025712,0.0*
1,1,.001,-.030642,-.025712*
20,1,.001,-.030642,-.025712,-.034641,-.02,0.0*
1,1,.001,-.034641,-.02*
20,1,.001,-.034641,-.02,-.037588,-.013681,0.0*
1,1,.001,-.037588,-.013681*
20,1,.001,-.037588,-.013681,-.039392,-.006946,0.0*
1,1,.001,-.039392,-.006946*
20,1,.001,-.039392,-.006946,-.04,0.0,0.0*
1,1,.001,-.04,0.0*
20,1,.001,-.04,0.0,-.039392,.006946,0.0*
1,1,.001,-.039392,.006946*
20,1,.001,-.039392,.006946,-.037588,.013681,0.0*
1,1,.001,-.037588,.013681*
20,1,.001,-.037588,.013681,-.034641,.02,0.0*
1,1,.001,-.034641,.02*
20,1,.001,-.034641,.02,-.030642,.025712,0.0*
1,1,.001,-.030642,.025712*
20,1,.001,-.030642,.025712,-.025712,.030642,0.0*
1,1,.001,-.025712,.030642*
20,1,.001,-.025712,.030642,-.02,.034641,0.0*
1,1,.001,-.02,.034641*
20,1,.001,-.02,.034641,-.013681,.037588,0.0*
1,1,.001,-.013681,.037588*
20,1,.001,-.013681,.037588,-.006946,.039392,0.0*
1,1,.001,-.006946,.039392*
20,1,.001,-.006946,.039392,0.0,.04,0.0*
1,1,.001,0.0,.04*
20,1,.001,0.0,.04,.006946,.039392,0.0*
1,1,.001,.006946,.039392*
20,1,.001,.006946,.039392,.013681,.037588,0.0*
1,1,.001,.013681,.037588*
20,1,.001,.013681,.037588,.02,.034641,0.0*
1,1,.001,.02,.034641*
20,1,.001,.02,.034641,.025712,.030642,0.0*
1,1,.001,.025712,.030642*
20,1,.001,.025712,.030642,.030642,.025712,0.0*
1,1,.001,.030642,.025712*
20,1,.001,.030642,.025712,.034641,.02,0.0*
1,1,.001,.034641,.02*
20,1,.001,.034641,.02,.037588,.013681,0.0*
1,1,.001,.037588,.013681*
20,1,.001,.037588,.013681,.039392,.006946,0.0*
1,1,.001,.039392,.006946*
20,1,.001,.039392,.006946,.04,0.0,0.0*
1,1,.001,.04,0.0*
1,1,.001,.0133,-.02*
20,1,.001,.0133,-.02,-.0133,-.02,0.0*
1,1,.001,-.0133,-.02*
20,1,.001,-.0133,-.02,-.0133,.02,0.0*
1,1,.001,-.0133,.02*
20,1,.001,-.0133,.02,.0133,.02,0.0*
1,1,.001,.0133,.02*
1,1,.001,.0027,.0007*
20,1,.001,.0027,.0007,-.0133,.0007,0.0*
1,1,.001,-.0133,.0007*
%
%ADD23MACRO23*%
%AMMACRO18*
1,1,.001,.014,0.0*
20,1,.001,.014,0.0,.013787,-.002431,0.0*
1,1,.001,.013787,-.002431*
20,1,.001,.013787,-.002431,.013156,-.004788,0.0*
1,1,.001,.013156,-.004788*
20,1,.001,.013156,-.004788,.012124,-.007,0.0*
1,1,.001,.012124,-.007*
20,1,.001,.012124,-.007,.010725,-.008999,0.0*
1,1,.001,.010725,-.008999*
20,1,.001,.010725,-.008999,.008999,-.010725,0.0*
1,1,.001,.008999,-.010725*
20,1,.001,.008999,-.010725,.007,-.012124,0.0*
1,1,.001,.007,-.012124*
20,1,.001,.007,-.012124,.004788,-.013156,0.0*
1,1,.001,.004788,-.013156*
20,1,.001,.004788,-.013156,.002431,-.013787,0.0*
1,1,.001,.002431,-.013787*
20,1,.001,.002431,-.013787,0.0,-.014,0.0*
1,1,.001,0.0,-.014*
20,1,.001,0.0,-.014,-.002431,-.013787,0.0*
1,1,.001,-.002431,-.013787*
20,1,.001,-.002431,-.013787,-.004788,-.013156,0.0*
1,1,.001,-.004788,-.013156*
20,1,.001,-.004788,-.013156,-.007,-.012124,0.0*
1,1,.001,-.007,-.012124*
20,1,.001,-.007,-.012124,-.008999,-.010725,0.0*
1,1,.001,-.008999,-.010725*
20,1,.001,-.008999,-.010725,-.010725,-.008999,0.0*
1,1,.001,-.010725,-.008999*
20,1,.001,-.010725,-.008999,-.012124,-.007,0.0*
1,1,.001,-.012124,-.007*
20,1,.001,-.012124,-.007,-.013156,-.004788,0.0*
1,1,.001,-.013156,-.004788*
20,1,.001,-.013156,-.004788,-.013787,-.002431,0.0*
1,1,.001,-.013787,-.002431*
20,1,.001,-.013787,-.002431,-.014,0.0,0.0*
1,1,.001,-.014,0.0*
20,1,.001,-.014,0.0,-.013787,.002431,0.0*
1,1,.001,-.013787,.002431*
20,1,.001,-.013787,.002431,-.013156,.004788,0.0*
1,1,.001,-.013156,.004788*
20,1,.001,-.013156,.004788,-.012124,.007,0.0*
1,1,.001,-.012124,.007*
20,1,.001,-.012124,.007,-.010725,.008999,0.0*
1,1,.001,-.010725,.008999*
20,1,.001,-.010725,.008999,-.008999,.010725,0.0*
1,1,.001,-.008999,.010725*
20,1,.001,-.008999,.010725,-.007,.012124,0.0*
1,1,.001,-.007,.012124*
20,1,.001,-.007,.012124,-.004788,.013156,0.0*
1,1,.001,-.004788,.013156*
20,1,.001,-.004788,.013156,-.002431,.013787,0.0*
1,1,.001,-.002431,.013787*
20,1,.001,-.002431,.013787,0.0,.014,0.0*
1,1,.001,0.0,.014*
20,1,.001,0.0,.014,.002431,.013787,0.0*
1,1,.001,.002431,.013787*
20,1,.001,.002431,.013787,.004788,.013156,0.0*
1,1,.001,.004788,.013156*
20,1,.001,.004788,.013156,.007,.012124,0.0*
1,1,.001,.007,.012124*
20,1,.001,.007,.012124,.008999,.010725,0.0*
1,1,.001,.008999,.010725*
20,1,.001,.008999,.010725,.010725,.008999,0.0*
1,1,.001,.010725,.008999*
20,1,.001,.010725,.008999,.012124,.007,0.0*
1,1,.001,.012124,.007*
20,1,.001,.012124,.007,.013156,.004788,0.0*
1,1,.001,.013156,.004788*
20,1,.001,.013156,.004788,.013787,.002431,0.0*
1,1,.001,.013787,.002431*
20,1,.001,.013787,.002431,.014,0.0,0.0*
1,1,.001,.014,0.0*
1,1,.001,-.0058,-.007*
20,1,.001,-.0058,-.007,0.0,.007,0.0*
1,1,.001,0.0,.007*
20,1,.001,0.0,.007,.0058,-.007,0.0*
1,1,.001,.0058,-.007*
1,1,.001,.0037,-.0021*
20,1,.001,.0037,-.0021,-.0037,-.0021,0.0*
1,1,.001,-.0037,-.0021*
%
%ADD18MACRO18*%
%AMMACRO22*
1,1,.001,.04,0.0*
20,1,.001,.04,0.0,.039392,-.006946,0.0*
1,1,.001,.039392,-.006946*
20,1,.001,.039392,-.006946,.037588,-.013681,0.0*
1,1,.001,.037588,-.013681*
20,1,.001,.037588,-.013681,.034641,-.02,0.0*
1,1,.001,.034641,-.02*
20,1,.001,.034641,-.02,.030642,-.025712,0.0*
1,1,.001,.030642,-.025712*
20,1,.001,.030642,-.025712,.025712,-.030642,0.0*
1,1,.001,.025712,-.030642*
20,1,.001,.025712,-.030642,.02,-.034641,0.0*
1,1,.001,.02,-.034641*
20,1,.001,.02,-.034641,.013681,-.037588,0.0*
1,1,.001,.013681,-.037588*
20,1,.001,.013681,-.037588,.006946,-.039392,0.0*
1,1,.001,.006946,-.039392*
20,1,.001,.006946,-.039392,0.0,-.04,0.0*
1,1,.001,0.0,-.04*
20,1,.001,0.0,-.04,-.006946,-.039392,0.0*
1,1,.001,-.006946,-.039392*
20,1,.001,-.006946,-.039392,-.013681,-.037588,0.0*
1,1,.001,-.013681,-.037588*
20,1,.001,-.013681,-.037588,-.02,-.034641,0.0*
1,1,.001,-.02,-.034641*
20,1,.001,-.02,-.034641,-.025712,-.030642,0.0*
1,1,.001,-.025712,-.030642*
20,1,.001,-.025712,-.030642,-.030642,-.025712,0.0*
1,1,.001,-.030642,-.025712*
20,1,.001,-.030642,-.025712,-.034641,-.02,0.0*
1,1,.001,-.034641,-.02*
20,1,.001,-.034641,-.02,-.037588,-.013681,0.0*
1,1,.001,-.037588,-.013681*
20,1,.001,-.037588,-.013681,-.039392,-.006946,0.0*
1,1,.001,-.039392,-.006946*
20,1,.001,-.039392,-.006946,-.04,0.0,0.0*
1,1,.001,-.04,0.0*
20,1,.001,-.04,0.0,-.039392,.006946,0.0*
1,1,.001,-.039392,.006946*
20,1,.001,-.039392,.006946,-.037588,.013681,0.0*
1,1,.001,-.037588,.013681*
20,1,.001,-.037588,.013681,-.034641,.02,0.0*
1,1,.001,-.034641,.02*
20,1,.001,-.034641,.02,-.030642,.025712,0.0*
1,1,.001,-.030642,.025712*
20,1,.001,-.030642,.025712,-.025712,.030642,0.0*
1,1,.001,-.025712,.030642*
20,1,.001,-.025712,.030642,-.02,.034641,0.0*
1,1,.001,-.02,.034641*
20,1,.001,-.02,.034641,-.013681,.037588,0.0*
1,1,.001,-.013681,.037588*
20,1,.001,-.013681,.037588,-.006946,.039392,0.0*
1,1,.001,-.006946,.039392*
20,1,.001,-.006946,.039392,0.0,.04,0.0*
1,1,.001,0.0,.04*
20,1,.001,0.0,.04,.006946,.039392,0.0*
1,1,.001,.006946,.039392*
20,1,.001,.006946,.039392,.013681,.037588,0.0*
1,1,.001,.013681,.037588*
20,1,.001,.013681,.037588,.02,.034641,0.0*
1,1,.001,.02,.034641*
20,1,.001,.02,.034641,.025712,.030642,0.0*
1,1,.001,.025712,.030642*
20,1,.001,.025712,.030642,.030642,.025712,0.0*
1,1,.001,.030642,.025712*
20,1,.001,.030642,.025712,.034641,.02,0.0*
1,1,.001,.034641,.02*
20,1,.001,.034641,.02,.037588,.013681,0.0*
1,1,.001,.037588,.013681*
20,1,.001,.037588,.013681,.039392,.006946,0.0*
1,1,.001,.039392,.006946*
20,1,.001,.039392,.006946,.04,0.0,0.0*
1,1,.001,.04,0.0*
1,1,.001,-.0127,-.02*
20,1,.001,-.0127,-.02,-.0127,.02,0.0*
1,1,.001,-.0127,.02*
20,1,.001,-.0127,.02,.0127,.02,0.0*
1,1,.001,.0127,.02*
1,1,.001,.0033,.0007*
20,1,.001,.0033,.0007,-.0127,.0007,0.0*
1,1,.001,-.0127,.0007*
%
%ADD22MACRO22*%
%AMMACRO21*
1,1,.001,.04,0.0*
20,1,.001,.04,0.0,.039392,-.006946,0.0*
1,1,.001,.039392,-.006946*
20,1,.001,.039392,-.006946,.037588,-.013681,0.0*
1,1,.001,.037588,-.013681*
20,1,.001,.037588,-.013681,.034641,-.02,0.0*
1,1,.001,.034641,-.02*
20,1,.001,.034641,-.02,.030642,-.025712,0.0*
1,1,.001,.030642,-.025712*
20,1,.001,.030642,-.025712,.025712,-.030642,0.0*
1,1,.001,.025712,-.030642*
20,1,.001,.025712,-.030642,.02,-.034641,0.0*
1,1,.001,.02,-.034641*
20,1,.001,.02,-.034641,.013681,-.037588,0.0*
1,1,.001,.013681,-.037588*
20,1,.001,.013681,-.037588,.006946,-.039392,0.0*
1,1,.001,.006946,-.039392*
20,1,.001,.006946,-.039392,0.0,-.04,0.0*
1,1,.001,0.0,-.04*
20,1,.001,0.0,-.04,-.006946,-.039392,0.0*
1,1,.001,-.006946,-.039392*
20,1,.001,-.006946,-.039392,-.013681,-.037588,0.0*
1,1,.001,-.013681,-.037588*
20,1,.001,-.013681,-.037588,-.02,-.034641,0.0*
1,1,.001,-.02,-.034641*
20,1,.001,-.02,-.034641,-.025712,-.030642,0.0*
1,1,.001,-.025712,-.030642*
20,1,.001,-.025712,-.030642,-.030642,-.025712,0.0*
1,1,.001,-.030642,-.025712*
20,1,.001,-.030642,-.025712,-.034641,-.02,0.0*
1,1,.001,-.034641,-.02*
20,1,.001,-.034641,-.02,-.037588,-.013681,0.0*
1,1,.001,-.037588,-.013681*
20,1,.001,-.037588,-.013681,-.039392,-.006946,0.0*
1,1,.001,-.039392,-.006946*
20,1,.001,-.039392,-.006946,-.04,0.0,0.0*
1,1,.001,-.04,0.0*
20,1,.001,-.04,0.0,-.039392,.006946,0.0*
1,1,.001,-.039392,.006946*
20,1,.001,-.039392,.006946,-.037588,.013681,0.0*
1,1,.001,-.037588,.013681*
20,1,.001,-.037588,.013681,-.034641,.02,0.0*
1,1,.001,-.034641,.02*
20,1,.001,-.034641,.02,-.030642,.025712,0.0*
1,1,.001,-.030642,.025712*
20,1,.001,-.030642,.025712,-.025712,.030642,0.0*
1,1,.001,-.025712,.030642*
20,1,.001,-.025712,.030642,-.02,.034641,0.0*
1,1,.001,-.02,.034641*
20,1,.001,-.02,.034641,-.013681,.037588,0.0*
1,1,.001,-.013681,.037588*
20,1,.001,-.013681,.037588,-.006946,.039392,0.0*
1,1,.001,-.006946,.039392*
20,1,.001,-.006946,.039392,0.0,.04,0.0*
1,1,.001,0.0,.04*
20,1,.001,0.0,.04,.006946,.039392,0.0*
1,1,.001,.006946,.039392*
20,1,.001,.006946,.039392,.013681,.037588,0.0*
1,1,.001,.013681,.037588*
20,1,.001,.013681,.037588,.02,.034641,0.0*
1,1,.001,.02,.034641*
20,1,.001,.02,.034641,.025712,.030642,0.0*
1,1,.001,.025712,.030642*
20,1,.001,.025712,.030642,.030642,.025712,0.0*
1,1,.001,.030642,.025712*
20,1,.001,.030642,.025712,.034641,.02,0.0*
1,1,.001,.034641,.02*
20,1,.001,.034641,.02,.037588,.013681,0.0*
1,1,.001,.037588,.013681*
20,1,.001,.037588,.013681,.039392,.006946,0.0*
1,1,.001,.039392,.006946*
20,1,.001,.039392,.006946,.04,0.0,0.0*
1,1,.001,.04,0.0*
1,1,.001,.004,0.0*
20,1,.001,.004,0.0,.0173,0.0,0.0*
1,1,.001,.0173,0.0*
20,1,.001,.0173,0.0,.0173,-.012,0.0*
1,1,.001,.0173,-.012*
20,1,.001,.0173,-.012,.0133,-.016,0.0*
1,1,.001,.0133,-.016*
20,1,.001,.0133,-.016,.0087,-.0187,0.0*
1,1,.001,.0087,-.0187*
20,1,.001,.0087,-.0187,.002,-.02,0.0*
1,1,.001,.002,-.02*
20,1,.001,.002,-.02,-.0047,-.0187,0.0*
1,1,.001,-.0047,-.0187*
20,1,.001,-.0047,-.0187,-.0093,-.016,0.0*
1,1,.001,-.0093,-.016*
20,1,.001,-.0093,-.016,-.0133,-.012,0.0*
1,1,.001,-.0133,-.012*
20,1,.001,-.0133,-.012,-.016,-.0073,0.0*
1,1,.001,-.016,-.0073*
20,1,.001,-.016,-.0073,-.0173,-.002,0.0*
1,1,.001,-.0173,-.002*
20,1,.001,-.0173,-.002,-.0173,.0027,0.0*
1,1,.001,-.0173,.0027*
20,1,.001,-.0173,.0027,-.016,.0067,0.0*
1,1,.001,-.016,.0067*
20,1,.001,-.016,.0067,-.0133,.0113,0.0*
1,1,.001,-.0133,.0113*
20,1,.001,-.0133,.0113,-.0093,.0153,0.0*
1,1,.001,-.0093,.0153*
20,1,.001,-.0093,.0153,-.0053,.018,0.0*
1,1,.001,-.0053,.018*
20,1,.001,-.0053,.018,0.0,.02,0.0*
1,1,.001,0.0,.02*
20,1,.001,0.0,.02,.0047,.02,0.0*
1,1,.001,.0047,.02*
20,1,.001,.0047,.02,.01,.0187,0.0*
1,1,.001,.01,.0187*
20,1,.001,.01,.0187,.014,.016,0.0*
1,1,.001,.014,.016*
%
%ADD21MACRO21*%
%AMMACRO12*
1,1,.001,.019,0.0*
20,1,.001,.019,0.0,.018711,-.003299,0.0*
1,1,.001,.018711,-.003299*
20,1,.001,.018711,-.003299,.017854,-.006498,0.0*
1,1,.001,.017854,-.006498*
20,1,.001,.017854,-.006498,.016454,-.0095,0.0*
1,1,.001,.016454,-.0095*
20,1,.001,.016454,-.0095,.014555,-.012213,0.0*
1,1,.001,.014555,-.012213*
20,1,.001,.014555,-.012213,.012213,-.014555,0.0*
1,1,.001,.012213,-.014555*
20,1,.001,.012213,-.014555,.0095,-.016454,0.0*
1,1,.001,.0095,-.016454*
20,1,.001,.0095,-.016454,.006498,-.017854,0.0*
1,1,.001,.006498,-.017854*
20,1,.001,.006498,-.017854,.003299,-.018711,0.0*
1,1,.001,.003299,-.018711*
20,1,.001,.003299,-.018711,0.0,-.019,0.0*
1,1,.001,0.0,-.019*
20,1,.001,0.0,-.019,-.003299,-.018711,0.0*
1,1,.001,-.003299,-.018711*
20,1,.001,-.003299,-.018711,-.006498,-.017854,0.0*
1,1,.001,-.006498,-.017854*
20,1,.001,-.006498,-.017854,-.0095,-.016454,0.0*
1,1,.001,-.0095,-.016454*
20,1,.001,-.0095,-.016454,-.012213,-.014555,0.0*
1,1,.001,-.012213,-.014555*
20,1,.001,-.012213,-.014555,-.014555,-.012213,0.0*
1,1,.001,-.014555,-.012213*
20,1,.001,-.014555,-.012213,-.016454,-.0095,0.0*
1,1,.001,-.016454,-.0095*
20,1,.001,-.016454,-.0095,-.017854,-.006498,0.0*
1,1,.001,-.017854,-.006498*
20,1,.001,-.017854,-.006498,-.018711,-.003299,0.0*
1,1,.001,-.018711,-.003299*
20,1,.001,-.018711,-.003299,-.019,0.0,0.0*
1,1,.001,-.019,0.0*
20,1,.001,-.019,0.0,-.018711,.003299,0.0*
1,1,.001,-.018711,.003299*
20,1,.001,-.018711,.003299,-.017854,.006498,0.0*
1,1,.001,-.017854,.006498*
20,1,.001,-.017854,.006498,-.016454,.0095,0.0*
1,1,.001,-.016454,.0095*
20,1,.001,-.016454,.0095,-.014555,.012213,0.0*
1,1,.001,-.014555,.012213*
20,1,.001,-.014555,.012213,-.012213,.014555,0.0*
1,1,.001,-.012213,.014555*
20,1,.001,-.012213,.014555,-.0095,.016454,0.0*
1,1,.001,-.0095,.016454*
20,1,.001,-.0095,.016454,-.006498,.017854,0.0*
1,1,.001,-.006498,.017854*
20,1,.001,-.006498,.017854,-.003299,.018711,0.0*
1,1,.001,-.003299,.018711*
20,1,.001,-.003299,.018711,0.0,.019,0.0*
1,1,.001,0.0,.019*
20,1,.001,0.0,.019,.003299,.018711,0.0*
1,1,.001,.003299,.018711*
20,1,.001,.003299,.018711,.006498,.017854,0.0*
1,1,.001,.006498,.017854*
20,1,.001,.006498,.017854,.0095,.016454,0.0*
1,1,.001,.0095,.016454*
20,1,.001,.0095,.016454,.012213,.014555,0.0*
1,1,.001,.012213,.014555*
20,1,.001,.012213,.014555,.014555,.012213,0.0*
1,1,.001,.014555,.012213*
20,1,.001,.014555,.012213,.016454,.0095,0.0*
1,1,.001,.016454,.0095*
20,1,.001,.016454,.0095,.017854,.006498,0.0*
1,1,.001,.017854,.006498*
20,1,.001,.017854,.006498,.018711,.003299,0.0*
1,1,.001,.018711,.003299*
20,1,.001,.018711,.003299,.019,0.0,0.0*
1,1,.001,.019,0.0*
1,1,.001,.007,.0079*
20,1,.001,.007,.0079,.0051,.0089,0.0*
1,1,.001,.0051,.0089*
20,1,.001,.0051,.0089,.0029,.0095,0.0*
1,1,.001,.0029,.0095*
20,1,.001,.0029,.0095,.0003,.0095,0.0*
1,1,.001,.0003,.0095*
20,1,.001,.0003,.0095,-.0025,.0085,0.0*
1,1,.001,-.0025,.0085*
20,1,.001,-.0025,.0085,-.0047,.007,0.0*
1,1,.001,-.0047,.007*
20,1,.001,-.0047,.007,-.0063,.0051,0.0*
1,1,.001,-.0063,.0051*
20,1,.001,-.0063,.0051,-.0076,.0019,0.0*
1,1,.001,-.0076,.0019*
20,1,.001,-.0076,.0019,-.0079,-.001,0.0*
1,1,.001,-.0079,-.001*
20,1,.001,-.0079,-.001,-.0073,-.0038,0.0*
1,1,.001,-.0073,-.0038*
20,1,.001,-.0073,-.0038,-.0063,-.0057,0.0*
1,1,.001,-.0063,-.0057*
20,1,.001,-.0063,-.0057,-.0044,-.0076,0.0*
1,1,.001,-.0044,-.0076*
20,1,.001,-.0044,-.0076,-.0022,-.0089,0.0*
1,1,.001,-.0022,-.0089*
20,1,.001,-.0022,-.0089,0.0,-.0095,0.0*
1,1,.001,0.0,-.0095*
20,1,.001,0.0,-.0095,.0022,-.0095,0.0*
1,1,.001,.0022,-.0095*
20,1,.001,.0022,-.0095,.0044,-.0089,0.0*
1,1,.001,.0044,-.0089*
20,1,.001,.0044,-.0089,.0063,-.0079,0.0*
1,1,.001,.0063,-.0079*
20,1,.001,.0063,-.0079,.0079,-.0067,0.0*
1,1,.001,.0079,-.0067*
%
%ADD12MACRO12*%
%AMMACRO10*
1,1,.001,-.0438,-.0625*
20,1,.001,-.0438,-.0625,.0438,.0625,0.0*
1,1,.001,.0438,.0625*
1,1,.001,-.0438,.0625*
20,1,.001,-.0438,.0625,.0438,-.0625,0.0*
1,1,.001,.0438,-.0625*
%
%ADD10MACRO10*%
%AMMACRO17*
1,1,.001,.043,0.0*
20,1,.001,.043,0.0,.042347,-.007467,0.0*
1,1,.001,.042347,-.007467*
20,1,.001,.042347,-.007467,.040407,-.014707,0.0*
1,1,.001,.040407,-.014707*
20,1,.001,.040407,-.014707,.037239,-.0215,0.0*
1,1,.001,.037239,-.0215*
20,1,.001,.037239,-.0215,.03294,-.02764,0.0*
1,1,.001,.03294,-.02764*
20,1,.001,.03294,-.02764,.02764,-.03294,0.0*
1,1,.001,.02764,-.03294*
20,1,.001,.02764,-.03294,.0215,-.037239,0.0*
1,1,.001,.0215,-.037239*
20,1,.001,.0215,-.037239,.014707,-.040407,0.0*
1,1,.001,.014707,-.040407*
20,1,.001,.014707,-.040407,.007467,-.042347,0.0*
1,1,.001,.007467,-.042347*
20,1,.001,.007467,-.042347,0.0,-.043,0.0*
1,1,.001,0.0,-.043*
20,1,.001,0.0,-.043,-.007467,-.042347,0.0*
1,1,.001,-.007467,-.042347*
20,1,.001,-.007467,-.042347,-.014707,-.040407,0.0*
1,1,.001,-.014707,-.040407*
20,1,.001,-.014707,-.040407,-.0215,-.037239,0.0*
1,1,.001,-.0215,-.037239*
20,1,.001,-.0215,-.037239,-.02764,-.03294,0.0*
1,1,.001,-.02764,-.03294*
20,1,.001,-.02764,-.03294,-.03294,-.02764,0.0*
1,1,.001,-.03294,-.02764*
20,1,.001,-.03294,-.02764,-.037239,-.0215,0.0*
1,1,.001,-.037239,-.0215*
20,1,.001,-.037239,-.0215,-.040407,-.014707,0.0*
1,1,.001,-.040407,-.014707*
20,1,.001,-.040407,-.014707,-.042347,-.007467,0.0*
1,1,.001,-.042347,-.007467*
20,1,.001,-.042347,-.007467,-.043,0.0,0.0*
1,1,.001,-.043,0.0*
20,1,.001,-.043,0.0,-.042347,.007467,0.0*
1,1,.001,-.042347,.007467*
20,1,.001,-.042347,.007467,-.040407,.014707,0.0*
1,1,.001,-.040407,.014707*
20,1,.001,-.040407,.014707,-.037239,.0215,0.0*
1,1,.001,-.037239,.0215*
20,1,.001,-.037239,.0215,-.03294,.02764,0.0*
1,1,.001,-.03294,.02764*
20,1,.001,-.03294,.02764,-.02764,.03294,0.0*
1,1,.001,-.02764,.03294*
20,1,.001,-.02764,.03294,-.0215,.037239,0.0*
1,1,.001,-.0215,.037239*
20,1,.001,-.0215,.037239,-.014707,.040407,0.0*
1,1,.001,-.014707,.040407*
20,1,.001,-.014707,.040407,-.007467,.042347,0.0*
1,1,.001,-.007467,.042347*
20,1,.001,-.007467,.042347,0.0,.043,0.0*
1,1,.001,0.0,.043*
20,1,.001,0.0,.043,.007467,.042347,0.0*
1,1,.001,.007467,.042347*
20,1,.001,.007467,.042347,.014707,.040407,0.0*
1,1,.001,.014707,.040407*
20,1,.001,.014707,.040407,.0215,.037239,0.0*
1,1,.001,.0215,.037239*
20,1,.001,.0215,.037239,.02764,.03294,0.0*
1,1,.001,.02764,.03294*
20,1,.001,.02764,.03294,.03294,.02764,0.0*
1,1,.001,.03294,.02764*
20,1,.001,.03294,.02764,.037239,.0215,0.0*
1,1,.001,.037239,.0215*
20,1,.001,.037239,.0215,.040407,.014707,0.0*
1,1,.001,.040407,.014707*
20,1,.001,.040407,.014707,.042347,.007467,0.0*
1,1,.001,.042347,.007467*
20,1,.001,.042347,.007467,.043,0.0,0.0*
1,1,.001,.043,0.0*
1,1,.001,-.0136,-.0215*
20,1,.001,-.0136,-.0215,-.0136,.0215,0.0*
1,1,.001,-.0136,.0215*
20,1,.001,-.0136,.0215,.0136,.0215,0.0*
1,1,.001,.0136,.0215*
1,1,.001,.0036,.0007*
20,1,.001,.0036,.0007,-.0136,.0007,0.0*
1,1,.001,-.0136,.0007*
%
%ADD17MACRO17*%
%AMMACRO27*
1,1,.001,.04,0.0*
20,1,.001,.04,0.0,.02,.034641,0.0*
1,1,.001,.02,.034641*
20,1,.001,.02,.034641,-.02,.034641,0.0*
1,1,.001,-.02,.034641*
20,1,.001,-.02,.034641,-.04,0.0,0.0*
1,1,.001,-.04,0.0*
20,1,.001,-.04,0.0,-.02,-.034641,0.0*
1,1,.001,-.02,-.034641*
20,1,.001,-.02,-.034641,.02,-.034641,0.0*
1,1,.001,.02,-.034641*
20,1,.001,.02,-.034641,.04,0.0,0.0*
1,1,.001,.04,0.0*
%
%ADD27MACRO27*%
%AMMACRO20*
1,1,.001,-.028,-.04*
20,1,.001,-.028,-.04,.028,.04,0.0*
1,1,.001,.028,.04*
1,1,.001,-.028,.04*
20,1,.001,-.028,.04,.028,-.04,0.0*
1,1,.001,.028,-.04*
%
%ADD20MACRO20*%
%AMMACRO19*
1,1,.001,.014,0.0*
20,1,.001,.014,0.0,.007,.012124,0.0*
1,1,.001,.007,.012124*
20,1,.001,.007,.012124,-.007,.012124,0.0*
1,1,.001,-.007,.012124*
20,1,.001,-.007,.012124,-.014,0.0,0.0*
1,1,.001,-.014,0.0*
20,1,.001,-.014,0.0,-.007,-.012124,0.0*
1,1,.001,-.007,-.012124*
20,1,.001,-.007,-.012124,.007,-.012124,0.0*
1,1,.001,.007,-.012124*
20,1,.001,.007,-.012124,.014,0.0,0.0*
1,1,.001,.014,0.0*
%
%ADD19MACRO19*%
%ADD30C,.005*%
%ADD31C,.001*%
%ADD32C,.05*%
G75*
%LPD*%
G75*
G54D10*
X10000Y10000D03*
Y340000D03*
X640000Y10000D03*
Y340000D03*
G54D20*
X684700Y3750D03*
G54D11*
X14000Y70000D03*
Y76000D03*
Y82000D03*
Y88000D03*
Y94000D03*
X32000D03*
Y88000D03*
X26000Y94000D03*
Y88000D03*
X20000Y94000D03*
Y88000D03*
X38000Y70000D03*
Y76000D03*
Y82000D03*
Y88000D03*
Y94000D03*
X73000Y266500D03*
X64400Y271000D03*
X88000Y124500D03*
Y146500D03*
X100000Y188000D03*
Y212000D03*
X112000Y188000D03*
Y194000D03*
Y206000D03*
Y200000D03*
Y212000D03*
X170000Y162000D03*
X185000Y114500D03*
X185500Y146500D03*
X238000Y180000D03*
X241500Y209500D03*
Y221500D03*
X248500D03*
X256500Y21500D03*
Y98000D03*
Y113000D03*
Y147440D03*
X253000Y180000D03*
Y204500D03*
X260500Y267000D03*
X271500Y54000D03*
Y74000D03*
Y94000D03*
X271000Y112500D03*
Y147500D03*
X267500Y170500D03*
X271000Y267000D03*
X267000Y319500D03*
X278000Y28000D03*
Y40000D03*
X277000Y112500D03*
X283000Y126000D03*
X277000Y147500D03*
X283000D03*
X288500Y170500D03*
X277000Y187500D03*
X283000D03*
X277000Y200500D03*
X283000D03*
X277000Y293000D03*
X283000Y292500D03*
Y307000D03*
X277000Y319500D03*
X295500Y88000D03*
X293500Y204000D03*
X301500Y288500D03*
X308000Y86000D03*
X311000Y99500D03*
X305000D03*
X311000Y292000D03*
X326000Y263500D03*
X329500Y288500D03*
X341500Y38000D03*
Y46500D03*
X333000Y79500D03*
X338000Y99500D03*
X341500Y114000D03*
X336000D03*
X341500Y145500D03*
X336000Y150500D03*
X354000Y6000D03*
Y20000D03*
Y39500D03*
Y61000D03*
X345000Y99500D03*
X362000Y39000D03*
Y79000D03*
X369000Y150500D03*
X384000Y61000D03*
X374000Y83000D03*
X375900Y241000D03*
X383000Y244000D03*
Y252000D03*
X375800Y291500D03*
X382100Y329000D03*
X394000Y74500D03*
X404000Y58000D03*
X405500Y286500D03*
Y303500D03*
X410500Y305000D03*
X417500Y145500D03*
Y167500D03*
X413000Y283500D03*
X434000Y58500D03*
X430000Y154500D03*
X431500Y206500D03*
X438500Y213500D03*
X432500Y267500D03*
Y287500D03*
X444000Y58500D03*
X450000Y115000D03*
X444500Y219500D03*
X451500Y226500D03*
X452100Y279600D03*
X452000Y303500D03*
X445300Y319400D03*
X454000Y58500D03*
X464000Y115000D03*
Y153500D03*
X465100Y257100D03*
X469000Y17000D03*
X469500Y39000D03*
Y70000D03*
Y62000D03*
Y76000D03*
X474000Y114500D03*
Y137500D03*
Y157000D03*
X471000Y192000D03*
X479000Y185000D03*
X471000D03*
Y198000D03*
X475000Y256500D03*
X473500Y287000D03*
X489000Y39000D03*
X481000Y70000D03*
Y62000D03*
Y76000D03*
X484000Y115000D03*
Y148500D03*
X485000Y192000D03*
Y198000D03*
X501000Y43500D03*
X495500Y205000D03*
X506000Y218500D03*
Y211000D03*
X495500D03*
X506500Y287500D03*
X501000D03*
X495500D03*
X506500Y297500D03*
X501000Y299500D03*
X495500Y301500D03*
X527000Y31500D03*
X526500Y52000D03*
X527500Y71500D03*
X528000Y218500D03*
Y211500D03*
X526000Y295000D03*
X544500Y115000D03*
Y145000D03*
X538000Y151500D03*
Y158500D03*
X558500Y56500D03*
X558000Y73000D03*
Y80000D03*
X548500Y97000D03*
X555500Y115000D03*
X561000Y129000D03*
X555500Y145000D03*
X550000D03*
X561000D03*
X556500Y206500D03*
Y213000D03*
X555000Y240000D03*
Y246000D03*
X566500Y56500D03*
X573000Y59500D03*
Y86500D03*
Y109000D03*
X566000Y151500D03*
Y158500D03*
X568000Y255000D03*
X577500Y97000D03*
Y124500D03*
Y153000D03*
X590500Y196000D03*
X607500Y41500D03*
Y51500D03*
Y61500D03*
X621000Y137000D03*
X638000D03*
G54D30*
G01X-49130Y-12200D02*
Y-4700D01*
X-46700Y-10950D01*
X-44270Y-4700D01*
Y-12200D01*
G01X-37330D02*
X-41070D01*
Y-4700D01*
X-37330D01*
G01X-38830Y-8320D02*
X-41070D01*
G01X-29650Y-5330D02*
X-30210Y-4950D01*
X-30860Y-4700D01*
X-31610D01*
X-32450Y-5080D01*
X-33100Y-5700D01*
X-33570Y-6450D01*
X-33940Y-7700D01*
X-34030Y-8830D01*
X-33850Y-9950D01*
X-33570Y-10700D01*
X-33010Y-11450D01*
X-32350Y-11950D01*
X-31700Y-12200D01*
X-31050D01*
X-30390Y-11950D01*
X-29830Y-11580D01*
X-29370Y-11080D01*
G01X-26160Y-12200D02*
Y-4700D01*
G01X-22240D02*
Y-12200D01*
G01Y-8450D02*
X-26160D01*
G01X670750Y114900D02*
Y119900D01*
X673150D01*
G01X672270Y117480D02*
X670750D01*
G01X676290Y119900D02*
X677810D01*
G01X677050D02*
Y114900D01*
G01X676290D02*
X677810D01*
G01X682530Y117400D02*
X683800D01*
Y115900D01*
X683420Y115400D01*
X682970Y115070D01*
X682340Y114900D01*
X681710Y115070D01*
X681260Y115400D01*
X680880Y115900D01*
X680630Y116480D01*
X680500Y117150D01*
Y117730D01*
X680630Y118230D01*
X680880Y118820D01*
X681260Y119320D01*
X681640Y119650D01*
X682150Y119900D01*
X682590D01*
X683100Y119730D01*
X683480Y119400D01*
G01X685860Y119900D02*
Y116320D01*
X686110Y115570D01*
X686620Y115070D01*
X687250Y114900D01*
X687880Y115070D01*
X688390Y115570D01*
X688640Y116320D01*
Y119900D01*
G01X691080Y114900D02*
Y119900D01*
X692670D01*
X693170Y119650D01*
X693490Y119320D01*
X693620Y118650D01*
X693490Y117980D01*
X693110Y117570D01*
X692670Y117320D01*
X691080D01*
G01X692670D02*
X693620Y114900D01*
G01X698720D02*
X696180D01*
Y119900D01*
X698720D01*
G01X697700Y117480D02*
X696180D01*
G01X700560Y151200D02*
Y156200D01*
X701820D01*
X702330Y155950D01*
X702710Y155620D01*
X703030Y155120D01*
X703280Y154530D01*
X703340Y153700D01*
X703280Y152870D01*
X703030Y152280D01*
X702710Y151780D01*
X702330Y151450D01*
X701820Y151200D01*
X700560D01*
G01X705780D02*
Y156200D01*
X707370D01*
X707870Y155950D01*
X708190Y155620D01*
X708320Y154950D01*
X708190Y154280D01*
X707810Y153870D01*
X707370Y153620D01*
X705780D01*
G01X707370D02*
X708320Y151200D01*
G01X711390Y156200D02*
X712910D01*
G01X712150D02*
Y151200D01*
G01X711390D02*
X712910D01*
G01X715980Y156200D02*
Y151200D01*
X718520D01*
G01X721080Y156200D02*
Y151200D01*
X723620D01*
G01X733940Y155780D02*
X733560Y156030D01*
X733120Y156200D01*
X732610D01*
X732040Y155950D01*
X731600Y155530D01*
X731280Y155030D01*
X731030Y154200D01*
X730970Y153450D01*
X731090Y152700D01*
X731280Y152200D01*
X731660Y151700D01*
X732110Y151370D01*
X732550Y151200D01*
X732990D01*
X733440Y151370D01*
X733820Y151620D01*
X734130Y151950D01*
G01X736320Y151200D02*
Y156200D01*
G01X738980D02*
Y151200D01*
G01Y153700D02*
X736320D01*
G01X741170Y151200D02*
X742750Y156200D01*
X744330Y151200D01*
G01X743760Y152950D02*
X741740D01*
G01X746580Y151200D02*
Y156200D01*
X748170D01*
X748670Y155950D01*
X748990Y155620D01*
X749120Y154950D01*
X748990Y154280D01*
X748610Y153870D01*
X748170Y153620D01*
X746580D01*
G01X748170D02*
X749120Y151200D01*
G01X752950Y156200D02*
Y151200D01*
G01X751490Y156200D02*
X754410D01*
G01X758050Y151030D02*
X757920Y151120D01*
Y151280D01*
X758050Y151370D01*
X758180Y151280D01*
Y151120D01*
X758050Y151030D01*
G01Y153280D02*
X757920Y153370D01*
Y153530D01*
X758050Y153620D01*
X758180Y153530D01*
Y153370D01*
X758050Y153280D01*
G01X768250Y156200D02*
Y151200D01*
G01X766790Y156200D02*
X769710D01*
G01X773350Y151200D02*
X772840Y151280D01*
X772400Y151620D01*
X772020Y152120D01*
X771770Y152700D01*
X771640Y153370D01*
Y154030D01*
X771770Y154700D01*
X772020Y155280D01*
X772400Y155780D01*
X772840Y156120D01*
X773350Y156200D01*
X773860Y156120D01*
X774300Y155780D01*
X774680Y155280D01*
X774930Y154700D01*
X775060Y154030D01*
Y153370D01*
X774930Y152700D01*
X774680Y152120D01*
X774300Y151620D01*
X773860Y151280D01*
X773350Y151200D01*
G01X777180D02*
Y156200D01*
X778700D01*
X779210Y155950D01*
X779590Y155370D01*
X779720Y154700D01*
X779590Y154030D01*
X779270Y153530D01*
X778700Y153280D01*
X777180D01*
G01X788650Y156200D02*
Y151200D01*
G01X787760Y154530D02*
X789540D01*
G01X793750Y151200D02*
X793370Y151280D01*
X792990Y151620D01*
X792740Y152200D01*
X792610Y152870D01*
X792740Y153530D01*
X792990Y154120D01*
X793370Y154450D01*
X793750Y154530D01*
X794130Y154450D01*
X794510Y154120D01*
X794760Y153530D01*
X794830Y152870D01*
X794760Y152200D01*
X794510Y151620D01*
X794130Y151280D01*
X793750Y151200D01*
G01X804460Y153870D02*
X804710Y154120D01*
X804900Y154530D01*
X805030Y155120D01*
X804900Y155620D01*
X804650Y155950D01*
X804200Y156200D01*
X802490D01*
Y151200D01*
X804580D01*
X805030Y151530D01*
X805280Y152030D01*
X805410Y152620D01*
X805280Y153200D01*
X804900Y153700D01*
X804460Y153870D01*
X802490D01*
G01X809050Y151200D02*
X808540Y151280D01*
X808100Y151620D01*
X807720Y152120D01*
X807470Y152700D01*
X807340Y153370D01*
Y154030D01*
X807470Y154700D01*
X807720Y155280D01*
X808100Y155780D01*
X808540Y156120D01*
X809050Y156200D01*
X809560Y156120D01*
X810000Y155780D01*
X810380Y155280D01*
X810630Y154700D01*
X810760Y154030D01*
Y153370D01*
X810630Y152700D01*
X810380Y152120D01*
X810000Y151620D01*
X809560Y151280D01*
X809050Y151200D01*
G01X814150Y156200D02*
Y151200D01*
G01X812690Y156200D02*
X815610D01*
G01X819250D02*
Y151200D01*
G01X817790Y156200D02*
X820710D01*
G01X824350Y151200D02*
X823840Y151280D01*
X823400Y151620D01*
X823020Y152120D01*
X822770Y152700D01*
X822640Y153370D01*
Y154030D01*
X822770Y154700D01*
X823020Y155280D01*
X823400Y155780D01*
X823840Y156120D01*
X824350Y156200D01*
X824860Y156120D01*
X825300Y155780D01*
X825680Y155280D01*
X825930Y154700D01*
X826060Y154030D01*
Y153370D01*
X825930Y152700D01*
X825680Y152120D01*
X825300Y151620D01*
X824860Y151280D01*
X824350Y151200D01*
G01X827800D02*
Y156200D01*
X829450Y152030D01*
X831100Y156200D01*
Y151200D01*
G01X713120Y126200D02*
X714700Y131200D01*
X716280Y126200D01*
G01X715710Y127950D02*
X713690D01*
G01X718530Y131200D02*
Y126200D01*
X721070D01*
G01X723630Y131200D02*
Y126200D01*
X726170D01*
G01X733710Y131200D02*
Y127620D01*
X733960Y126870D01*
X734470Y126370D01*
X735100Y126200D01*
X735730Y126370D01*
X736240Y126870D01*
X736490Y127620D01*
Y131200D01*
G01X738740Y126200D02*
Y131200D01*
X741660Y126200D01*
Y131200D01*
G01X744540D02*
X746060D01*
G01X745300D02*
Y126200D01*
G01X744540D02*
X746060D01*
G01X750400Y131200D02*
Y126200D01*
G01X748940Y131200D02*
X751860D01*
G01X754170Y126870D02*
X754680Y126450D01*
X755250Y126200D01*
X755750D01*
X756260Y126450D01*
X756640Y126870D01*
X756830Y127450D01*
X756700Y128030D01*
X756390Y128530D01*
X755820Y128870D01*
X755060Y129030D01*
X754610Y129370D01*
X754420Y129950D01*
X754550Y130530D01*
X754870Y130950D01*
X755310Y131200D01*
X755750D01*
X756200Y131030D01*
X756580Y130620D01*
G01X764120Y126200D02*
X765700Y131200D01*
X767280Y126200D01*
G01X766710Y127950D02*
X764690D01*
G01X769530Y126200D02*
Y131200D01*
X771120D01*
X771620Y130950D01*
X771940Y130620D01*
X772070Y129950D01*
X771940Y129280D01*
X771560Y128870D01*
X771120Y128620D01*
X769530D01*
G01X771120D02*
X772070Y126200D01*
G01X777170D02*
X774630D01*
Y131200D01*
X777170D01*
G01X776150Y128780D02*
X774630D01*
G01X785340Y131200D02*
X786860D01*
G01X786100D02*
Y126200D01*
G01X785340D02*
X786860D01*
G01X789740D02*
Y131200D01*
X792660Y126200D01*
Y131200D01*
G01X799750Y126200D02*
Y131200D01*
X801400Y127030D01*
X803050Y131200D01*
Y126200D01*
G01X805740Y131200D02*
X807260D01*
G01X806500D02*
Y126200D01*
G01X805740D02*
X807260D01*
G01X810330Y131200D02*
Y126200D01*
X812870D01*
G01X815370Y126870D02*
X815880Y126450D01*
X816450Y126200D01*
X816950D01*
X817460Y126450D01*
X817840Y126870D01*
X818030Y127450D01*
X817900Y128030D01*
X817590Y128530D01*
X817020Y128870D01*
X816260Y129030D01*
X815810Y129370D01*
X815620Y129950D01*
X815750Y130530D01*
X816070Y130950D01*
X816510Y131200D01*
X816950D01*
X817400Y131030D01*
X817780Y130620D01*
G01X731900Y1250D02*
Y6250D01*
X731140Y5250D01*
G01Y1250D02*
X732660D01*
G01X735800Y5420D02*
X736180Y5920D01*
X736620Y6170D01*
X737130Y6250D01*
X737760Y6080D01*
X738200Y5670D01*
X738330Y5170D01*
X738270Y4670D01*
X738010Y4250D01*
X736750Y3420D01*
X736180Y2830D01*
X735800Y2000D01*
X735670Y1250D01*
X738330D01*
G01X740710Y2000D02*
X741090Y1580D01*
X741530Y1330D01*
X742100Y1250D01*
X742670Y1420D01*
X743110Y1750D01*
X743430Y2330D01*
X743490Y3000D01*
X743370Y3670D01*
X743050Y4080D01*
X742610Y4420D01*
X742160Y4500D01*
X741720Y4420D01*
X741150Y4080D01*
X741340Y6250D01*
X743050D01*
G01X747200Y1080D02*
X747070Y1170D01*
Y1330D01*
X747200Y1420D01*
X747330Y1330D01*
Y1170D01*
X747200Y1080D01*
G01X752300Y6250D02*
X751790Y6080D01*
X751410Y5670D01*
X751160Y5170D01*
X750970Y4500D01*
X750910Y3750D01*
X750970Y3000D01*
X751160Y2330D01*
X751410Y1830D01*
X751790Y1420D01*
X752300Y1250D01*
X752810Y1420D01*
X753190Y1830D01*
X753440Y2330D01*
X753630Y3000D01*
X753690Y3750D01*
X753630Y4500D01*
X753440Y5170D01*
X753190Y5670D01*
X752810Y6080D01*
X752300Y6250D01*
G01X731900Y12550D02*
Y17550D01*
X731140Y16550D01*
G01Y12550D02*
X732660D01*
G01X735800Y16720D02*
X736180Y17220D01*
X736620Y17470D01*
X737130Y17550D01*
X737760Y17380D01*
X738200Y16970D01*
X738330Y16470D01*
X738270Y15970D01*
X738010Y15550D01*
X736750Y14720D01*
X736180Y14130D01*
X735800Y13300D01*
X735670Y12550D01*
X738330D01*
G01X740710Y13300D02*
X741090Y12880D01*
X741530Y12630D01*
X742100Y12550D01*
X742670Y12720D01*
X743110Y13050D01*
X743430Y13630D01*
X743490Y14300D01*
X743370Y14970D01*
X743050Y15380D01*
X742610Y15720D01*
X742160Y15800D01*
X741720Y15720D01*
X741150Y15380D01*
X741340Y17550D01*
X743050D01*
G01X747200Y12380D02*
X747070Y12470D01*
Y12630D01*
X747200Y12720D01*
X747330Y12630D01*
Y12470D01*
X747200Y12380D01*
G01X752300Y17550D02*
X751790Y17380D01*
X751410Y16970D01*
X751160Y16470D01*
X750970Y15800D01*
X750910Y15050D01*
X750970Y14300D01*
X751160Y13630D01*
X751410Y13130D01*
X751790Y12720D01*
X752300Y12550D01*
X752810Y12720D01*
X753190Y13130D01*
X753440Y13630D01*
X753630Y14300D01*
X753690Y15050D01*
X753630Y15800D01*
X753440Y16470D01*
X753190Y16970D01*
X752810Y17380D01*
X752300Y17550D01*
G01X734450Y23850D02*
X734890Y23930D01*
X735400Y24180D01*
X735720Y24600D01*
X735840Y25180D01*
X735720Y25770D01*
X735340Y26270D01*
X734770Y26520D01*
X734130D01*
X733750Y26680D01*
X733440Y27100D01*
X733310Y27680D01*
X733500Y28270D01*
X733940Y28680D01*
X734450Y28850D01*
X734960Y28680D01*
X735400Y28270D01*
X735590Y27680D01*
X735460Y27100D01*
X735150Y26680D01*
X734770Y26520D01*
X734130D01*
X733560Y26270D01*
X733180Y25770D01*
X733060Y25180D01*
X733180Y24600D01*
X733500Y24180D01*
X734010Y23930D01*
X734450Y23850D01*
G01X738350Y25930D02*
X738790Y26520D01*
X739170Y26850D01*
X739680Y27020D01*
X740120Y26850D01*
X740440Y26520D01*
X740690Y26020D01*
X740750Y25430D01*
X740690Y24930D01*
X740440Y24430D01*
X740060Y24020D01*
X739610Y23850D01*
X739110Y24020D01*
X738660Y24520D01*
X738410Y25270D01*
X738350Y26100D01*
X738470Y27180D01*
X738660Y27770D01*
X738980Y28350D01*
X739420Y28770D01*
X739870Y28850D01*
X740310Y28680D01*
X740630Y28270D01*
G01X744650Y23680D02*
X744520Y23770D01*
Y23930D01*
X744650Y24020D01*
X744780Y23930D01*
Y23770D01*
X744650Y23680D01*
G01X749750Y28850D02*
X749240Y28680D01*
X748860Y28270D01*
X748610Y27770D01*
X748420Y27100D01*
X748360Y26350D01*
X748420Y25600D01*
X748610Y24930D01*
X748860Y24430D01*
X749240Y24020D01*
X749750Y23850D01*
X750260Y24020D01*
X750640Y24430D01*
X750890Y24930D01*
X751080Y25600D01*
X751140Y26350D01*
X751080Y27100D01*
X750890Y27770D01*
X750640Y28270D01*
X750260Y28680D01*
X749750Y28850D01*
G01X734320Y35150D02*
X734450Y36230D01*
X734640Y37150D01*
X734890Y37980D01*
X735210Y38900D01*
X735720Y40150D01*
X733180D01*
G01X739550D02*
X739040Y39980D01*
X738660Y39570D01*
X738410Y39070D01*
X738220Y38400D01*
X738160Y37650D01*
X738220Y36900D01*
X738410Y36230D01*
X738660Y35730D01*
X739040Y35320D01*
X739550Y35150D01*
X740060Y35320D01*
X740440Y35730D01*
X740690Y36230D01*
X740880Y36900D01*
X740940Y37650D01*
X740880Y38400D01*
X740690Y39070D01*
X740440Y39570D01*
X740060Y39980D01*
X739550Y40150D01*
G01X744650Y34980D02*
X744520Y35070D01*
Y35230D01*
X744650Y35320D01*
X744780Y35230D01*
Y35070D01*
X744650Y34980D01*
G01X749750Y40150D02*
X749240Y39980D01*
X748860Y39570D01*
X748610Y39070D01*
X748420Y38400D01*
X748360Y37650D01*
X748420Y36900D01*
X748610Y36230D01*
X748860Y35730D01*
X749240Y35320D01*
X749750Y35150D01*
X750260Y35320D01*
X750640Y35730D01*
X750890Y36230D01*
X751080Y36900D01*
X751140Y37650D01*
X751080Y38400D01*
X750890Y39070D01*
X750640Y39570D01*
X750260Y39980D01*
X749750Y40150D01*
G01X733060Y58750D02*
X733440Y58170D01*
X733940Y57830D01*
X734510Y57750D01*
X735020Y57830D01*
X735530Y58250D01*
X735840Y58750D01*
X735910Y59250D01*
X735780Y59830D01*
X735340Y60250D01*
X734890Y60420D01*
X734320D01*
G01X734890D02*
X735270Y60670D01*
X735590Y61080D01*
X735720Y61580D01*
X735590Y62080D01*
X735270Y62500D01*
X734700Y62750D01*
X734130Y62670D01*
X733560Y62330D01*
G01X739550Y57750D02*
X739990Y57830D01*
X740500Y58080D01*
X740820Y58500D01*
X740940Y59080D01*
X740820Y59670D01*
X740440Y60170D01*
X739870Y60420D01*
X739230D01*
X738850Y60580D01*
X738540Y61000D01*
X738410Y61580D01*
X738600Y62170D01*
X739040Y62580D01*
X739550Y62750D01*
X740060Y62580D01*
X740500Y62170D01*
X740690Y61580D01*
X740560Y61000D01*
X740250Y60580D01*
X739870Y60420D01*
X739230D01*
X738660Y60170D01*
X738280Y59670D01*
X738160Y59080D01*
X738280Y58500D01*
X738600Y58080D01*
X739110Y57830D01*
X739550Y57750D01*
G01X744650Y57580D02*
X744520Y57670D01*
Y57830D01*
X744650Y57920D01*
X744780Y57830D01*
Y57670D01*
X744650Y57580D01*
G01X749750Y62750D02*
X749240Y62580D01*
X748860Y62170D01*
X748610Y61670D01*
X748420Y61000D01*
X748360Y60250D01*
X748420Y59500D01*
X748610Y58830D01*
X748860Y58330D01*
X749240Y57920D01*
X749750Y57750D01*
X750260Y57920D01*
X750640Y58330D01*
X750890Y58830D01*
X751080Y59500D01*
X751140Y60250D01*
X751080Y61000D01*
X750890Y61670D01*
X750640Y62170D01*
X750260Y62580D01*
X749750Y62750D01*
G01X735210Y46450D02*
Y51450D01*
X732870Y47870D01*
X736030D01*
G01X738350Y50620D02*
X738730Y51120D01*
X739170Y51370D01*
X739680Y51450D01*
X740310Y51280D01*
X740750Y50870D01*
X740880Y50370D01*
X740820Y49870D01*
X740560Y49450D01*
X739300Y48620D01*
X738730Y48030D01*
X738350Y47200D01*
X738220Y46450D01*
X740880D01*
G01X744650Y46280D02*
X744520Y46370D01*
Y46530D01*
X744650Y46620D01*
X744780Y46530D01*
Y46370D01*
X744650Y46280D01*
G01X749750Y51450D02*
X749240Y51280D01*
X748860Y50870D01*
X748610Y50370D01*
X748420Y49700D01*
X748360Y48950D01*
X748420Y48200D01*
X748610Y47530D01*
X748860Y47030D01*
X749240Y46620D01*
X749750Y46450D01*
X750260Y46620D01*
X750640Y47030D01*
X750890Y47530D01*
X751080Y48200D01*
X751140Y48950D01*
X751080Y49700D01*
X750890Y50370D01*
X750640Y50870D01*
X750260Y51280D01*
X749750Y51450D01*
G01X733060Y70050D02*
X733440Y69470D01*
X733940Y69130D01*
X734510Y69050D01*
X735020Y69130D01*
X735530Y69550D01*
X735840Y70050D01*
X735910Y70550D01*
X735780Y71130D01*
X735340Y71550D01*
X734890Y71720D01*
X734320D01*
G01X734890D02*
X735270Y71970D01*
X735590Y72380D01*
X735720Y72880D01*
X735590Y73380D01*
X735270Y73800D01*
X734700Y74050D01*
X734130Y73970D01*
X733560Y73630D01*
G01X738160Y69800D02*
X738540Y69380D01*
X738980Y69130D01*
X739550Y69050D01*
X740120Y69220D01*
X740560Y69550D01*
X740880Y70130D01*
X740940Y70800D01*
X740820Y71470D01*
X740500Y71880D01*
X740060Y72220D01*
X739610Y72300D01*
X739170Y72220D01*
X738600Y71880D01*
X738790Y74050D01*
X740500D01*
G01X744650Y68880D02*
X744520Y68970D01*
Y69130D01*
X744650Y69220D01*
X744780Y69130D01*
Y68970D01*
X744650Y68880D01*
G01X749750Y74050D02*
X749240Y73880D01*
X748860Y73470D01*
X748610Y72970D01*
X748420Y72300D01*
X748360Y71550D01*
X748420Y70800D01*
X748610Y70130D01*
X748860Y69630D01*
X749240Y69220D01*
X749750Y69050D01*
X750260Y69220D01*
X750640Y69630D01*
X750890Y70130D01*
X751080Y70800D01*
X751140Y71550D01*
X751080Y72300D01*
X750890Y72970D01*
X750640Y73470D01*
X750260Y73880D01*
X749750Y74050D01*
G01X733250Y84520D02*
X733630Y85020D01*
X734070Y85270D01*
X734580Y85350D01*
X735210Y85180D01*
X735650Y84770D01*
X735780Y84270D01*
X735720Y83770D01*
X735460Y83350D01*
X734200Y82520D01*
X733630Y81930D01*
X733250Y81100D01*
X733120Y80350D01*
X735780D01*
G01X739550D02*
X739990Y80430D01*
X740500Y80680D01*
X740820Y81100D01*
X740940Y81680D01*
X740820Y82270D01*
X740440Y82770D01*
X739870Y83020D01*
X739230D01*
X738850Y83180D01*
X738540Y83600D01*
X738410Y84180D01*
X738600Y84770D01*
X739040Y85180D01*
X739550Y85350D01*
X740060Y85180D01*
X740500Y84770D01*
X740690Y84180D01*
X740560Y83600D01*
X740250Y83180D01*
X739870Y83020D01*
X739230D01*
X738660Y82770D01*
X738280Y82270D01*
X738160Y81680D01*
X738280Y81100D01*
X738600Y80680D01*
X739110Y80430D01*
X739550Y80350D01*
G01X744650Y80180D02*
X744520Y80270D01*
Y80430D01*
X744650Y80520D01*
X744780Y80430D01*
Y80270D01*
X744650Y80180D01*
G01X749750Y85350D02*
X749240Y85180D01*
X748860Y84770D01*
X748610Y84270D01*
X748420Y83600D01*
X748360Y82850D01*
X748420Y82100D01*
X748610Y81430D01*
X748860Y80930D01*
X749240Y80520D01*
X749750Y80350D01*
X750260Y80520D01*
X750640Y80930D01*
X750890Y81430D01*
X751080Y82100D01*
X751140Y82850D01*
X751080Y83600D01*
X750890Y84270D01*
X750640Y84770D01*
X750260Y85180D01*
X749750Y85350D01*
G01X733250Y95820D02*
X733630Y96320D01*
X734070Y96570D01*
X734580Y96650D01*
X735210Y96480D01*
X735650Y96070D01*
X735780Y95570D01*
X735720Y95070D01*
X735460Y94650D01*
X734200Y93820D01*
X733630Y93230D01*
X733250Y92400D01*
X733120Y91650D01*
X735780D01*
G01X739550D02*
X739990Y91730D01*
X740500Y91980D01*
X740820Y92400D01*
X740940Y92980D01*
X740820Y93570D01*
X740440Y94070D01*
X739870Y94320D01*
X739230D01*
X738850Y94480D01*
X738540Y94900D01*
X738410Y95480D01*
X738600Y96070D01*
X739040Y96480D01*
X739550Y96650D01*
X740060Y96480D01*
X740500Y96070D01*
X740690Y95480D01*
X740560Y94900D01*
X740250Y94480D01*
X739870Y94320D01*
X739230D01*
X738660Y94070D01*
X738280Y93570D01*
X738160Y92980D01*
X738280Y92400D01*
X738600Y91980D01*
X739110Y91730D01*
X739550Y91650D01*
G01X744650Y91480D02*
X744520Y91570D01*
Y91730D01*
X744650Y91820D01*
X744780Y91730D01*
Y91570D01*
X744650Y91480D01*
G01X749750Y96650D02*
X749240Y96480D01*
X748860Y96070D01*
X748610Y95570D01*
X748420Y94900D01*
X748360Y94150D01*
X748420Y93400D01*
X748610Y92730D01*
X748860Y92230D01*
X749240Y91820D01*
X749750Y91650D01*
X750260Y91820D01*
X750640Y92230D01*
X750890Y92730D01*
X751080Y93400D01*
X751140Y94150D01*
X751080Y94900D01*
X750890Y95570D01*
X750640Y96070D01*
X750260Y96480D01*
X749750Y96650D01*
G01X733250Y107120D02*
X733630Y107620D01*
X734070Y107870D01*
X734580Y107950D01*
X735210Y107780D01*
X735650Y107370D01*
X735780Y106870D01*
X735720Y106370D01*
X735460Y105950D01*
X734200Y105120D01*
X733630Y104530D01*
X733250Y103700D01*
X733120Y102950D01*
X735780D01*
G01X739550Y107950D02*
X739040Y107780D01*
X738660Y107370D01*
X738410Y106870D01*
X738220Y106200D01*
X738160Y105450D01*
X738220Y104700D01*
X738410Y104030D01*
X738660Y103530D01*
X739040Y103120D01*
X739550Y102950D01*
X740060Y103120D01*
X740440Y103530D01*
X740690Y104030D01*
X740880Y104700D01*
X740940Y105450D01*
X740880Y106200D01*
X740690Y106870D01*
X740440Y107370D01*
X740060Y107780D01*
X739550Y107950D01*
G01X744650Y102780D02*
X744520Y102870D01*
Y103030D01*
X744650Y103120D01*
X744780Y103030D01*
Y102870D01*
X744650Y102780D01*
G01X749750Y107950D02*
X749240Y107780D01*
X748860Y107370D01*
X748610Y106870D01*
X748420Y106200D01*
X748360Y105450D01*
X748420Y104700D01*
X748610Y104030D01*
X748860Y103530D01*
X749240Y103120D01*
X749750Y102950D01*
X750260Y103120D01*
X750640Y103530D01*
X750890Y104030D01*
X751080Y104700D01*
X751140Y105450D01*
X751080Y106200D01*
X750890Y106870D01*
X750640Y107370D01*
X750260Y107780D01*
X749750Y107950D01*
G01X733120Y115570D02*
X733630Y115150D01*
X734200Y114900D01*
X734700D01*
X735210Y115150D01*
X735590Y115570D01*
X735780Y116150D01*
X735650Y116730D01*
X735340Y117230D01*
X734770Y117570D01*
X734010Y117730D01*
X733560Y118070D01*
X733370Y118650D01*
X733500Y119230D01*
X733820Y119650D01*
X734260Y119900D01*
X734700D01*
X735150Y119730D01*
X735530Y119320D01*
G01X738790Y119900D02*
X740310D01*
G01X739550D02*
Y114900D01*
G01X738790D02*
X740310D01*
G01X743450Y119900D02*
X745850D01*
X743450Y114900D01*
X745850D01*
G01X751020D02*
X748480D01*
Y119900D01*
X751020D01*
G01X750000Y117480D02*
X748480D01*
G01X782740Y1250D02*
Y6250D01*
X785660Y1250D01*
Y6250D01*
G01X789300Y1250D02*
X788790Y1330D01*
X788350Y1670D01*
X787970Y2170D01*
X787720Y2750D01*
X787590Y3420D01*
Y4080D01*
X787720Y4750D01*
X787970Y5330D01*
X788350Y5830D01*
X788790Y6170D01*
X789300Y6250D01*
X789810Y6170D01*
X790250Y5830D01*
X790630Y5330D01*
X790880Y4750D01*
X791010Y4080D01*
Y3420D01*
X790880Y2750D01*
X790630Y2170D01*
X790250Y1670D01*
X789810Y1330D01*
X789300Y1250D01*
G01X792940D02*
Y6250D01*
X795860Y1250D01*
Y6250D01*
G01X798680Y2920D02*
X800320D01*
G01X803330Y1250D02*
Y6250D01*
X804850D01*
X805360Y6000D01*
X805740Y5420D01*
X805870Y4750D01*
X805740Y4080D01*
X805420Y3580D01*
X804850Y3330D01*
X803330D01*
G01X808430Y6250D02*
Y1250D01*
X810970D01*
G01X813220D02*
X814800Y6250D01*
X816380Y1250D01*
G01X815810Y3000D02*
X813790D01*
G01X819900Y6250D02*
Y1250D01*
G01X818440Y6250D02*
X821360D01*
G01X826270Y1250D02*
X823730D01*
Y6250D01*
X826270D01*
G01X825250Y3830D02*
X823730D01*
G01X828710Y1250D02*
Y6250D01*
X829970D01*
X830480Y6000D01*
X830860Y5670D01*
X831180Y5170D01*
X831430Y4580D01*
X831490Y3750D01*
X831430Y2920D01*
X831180Y2330D01*
X830860Y1830D01*
X830480Y1500D01*
X829970Y1250D01*
X828710D01*
G01X793130Y12550D02*
Y17550D01*
X794650D01*
X795160Y17300D01*
X795540Y16720D01*
X795670Y16050D01*
X795540Y15380D01*
X795220Y14880D01*
X794650Y14630D01*
X793130D01*
G01X798230Y17550D02*
Y12550D01*
X800770D01*
G01X803020D02*
X804600Y17550D01*
X806180Y12550D01*
G01X805610Y14300D02*
X803590D01*
G01X809700Y17550D02*
Y12550D01*
G01X808240Y17550D02*
X811160D01*
G01X816070Y12550D02*
X813530D01*
Y17550D01*
X816070D01*
G01X815050Y15130D02*
X813530D01*
G01X818510Y12550D02*
Y17550D01*
X819770D01*
X820280Y17300D01*
X820660Y16970D01*
X820980Y16470D01*
X821230Y15880D01*
X821290Y15050D01*
X821230Y14220D01*
X820980Y13630D01*
X820660Y13130D01*
X820280Y12800D01*
X819770Y12550D01*
X818510D01*
G01X793130Y23850D02*
Y28850D01*
X794650D01*
X795160Y28600D01*
X795540Y28020D01*
X795670Y27350D01*
X795540Y26680D01*
X795220Y26180D01*
X794650Y25930D01*
X793130D01*
G01X798230Y28850D02*
Y23850D01*
X800770D01*
G01X803020D02*
X804600Y28850D01*
X806180Y23850D01*
G01X805610Y25600D02*
X803590D01*
G01X809700Y28850D02*
Y23850D01*
G01X808240Y28850D02*
X811160D01*
G01X816070Y23850D02*
X813530D01*
Y28850D01*
X816070D01*
G01X815050Y26430D02*
X813530D01*
G01X818510Y23850D02*
Y28850D01*
X819770D01*
X820280Y28600D01*
X820660Y28270D01*
X820980Y27770D01*
X821230Y27180D01*
X821290Y26350D01*
X821230Y25520D01*
X820980Y24930D01*
X820660Y24430D01*
X820280Y24100D01*
X819770Y23850D01*
X818510D01*
G01X793130Y35150D02*
Y40150D01*
X794650D01*
X795160Y39900D01*
X795540Y39320D01*
X795670Y38650D01*
X795540Y37980D01*
X795220Y37480D01*
X794650Y37230D01*
X793130D01*
G01X798230Y40150D02*
Y35150D01*
X800770D01*
G01X803020D02*
X804600Y40150D01*
X806180Y35150D01*
G01X805610Y36900D02*
X803590D01*
G01X809700Y40150D02*
Y35150D01*
G01X808240Y40150D02*
X811160D01*
G01X816070Y35150D02*
X813530D01*
Y40150D01*
X816070D01*
G01X815050Y37730D02*
X813530D01*
G01X818510Y35150D02*
Y40150D01*
X819770D01*
X820280Y39900D01*
X820660Y39570D01*
X820980Y39070D01*
X821230Y38480D01*
X821290Y37650D01*
X821230Y36820D01*
X820980Y36230D01*
X820660Y35730D01*
X820280Y35400D01*
X819770Y35150D01*
X818510D01*
G01X793130Y57750D02*
Y62750D01*
X794650D01*
X795160Y62500D01*
X795540Y61920D01*
X795670Y61250D01*
X795540Y60580D01*
X795220Y60080D01*
X794650Y59830D01*
X793130D01*
G01X798230Y62750D02*
Y57750D01*
X800770D01*
G01X803020D02*
X804600Y62750D01*
X806180Y57750D01*
G01X805610Y59500D02*
X803590D01*
G01X809700Y62750D02*
Y57750D01*
G01X808240Y62750D02*
X811160D01*
G01X816070Y57750D02*
X813530D01*
Y62750D01*
X816070D01*
G01X815050Y60330D02*
X813530D01*
G01X818510Y57750D02*
Y62750D01*
X819770D01*
X820280Y62500D01*
X820660Y62170D01*
X820980Y61670D01*
X821230Y61080D01*
X821290Y60250D01*
X821230Y59420D01*
X820980Y58830D01*
X820660Y58330D01*
X820280Y58000D01*
X819770Y57750D01*
X818510D01*
G01X793130Y46450D02*
Y51450D01*
X794650D01*
X795160Y51200D01*
X795540Y50620D01*
X795670Y49950D01*
X795540Y49280D01*
X795220Y48780D01*
X794650Y48530D01*
X793130D01*
G01X798230Y51450D02*
Y46450D01*
X800770D01*
G01X803020D02*
X804600Y51450D01*
X806180Y46450D01*
G01X805610Y48200D02*
X803590D01*
G01X809700Y51450D02*
Y46450D01*
G01X808240Y51450D02*
X811160D01*
G01X816070Y46450D02*
X813530D01*
Y51450D01*
X816070D01*
G01X815050Y49030D02*
X813530D01*
G01X818510Y46450D02*
Y51450D01*
X819770D01*
X820280Y51200D01*
X820660Y50870D01*
X820980Y50370D01*
X821230Y49780D01*
X821290Y48950D01*
X821230Y48120D01*
X820980Y47530D01*
X820660Y47030D01*
X820280Y46700D01*
X819770Y46450D01*
X818510D01*
G01X793130Y69050D02*
Y74050D01*
X794650D01*
X795160Y73800D01*
X795540Y73220D01*
X795670Y72550D01*
X795540Y71880D01*
X795220Y71380D01*
X794650Y71130D01*
X793130D01*
G01X798230Y74050D02*
Y69050D01*
X800770D01*
G01X803020D02*
X804600Y74050D01*
X806180Y69050D01*
G01X805610Y70800D02*
X803590D01*
G01X809700Y74050D02*
Y69050D01*
G01X808240Y74050D02*
X811160D01*
G01X816070Y69050D02*
X813530D01*
Y74050D01*
X816070D01*
G01X815050Y71630D02*
X813530D01*
G01X818510Y69050D02*
Y74050D01*
X819770D01*
X820280Y73800D01*
X820660Y73470D01*
X820980Y72970D01*
X821230Y72380D01*
X821290Y71550D01*
X821230Y70720D01*
X820980Y70130D01*
X820660Y69630D01*
X820280Y69300D01*
X819770Y69050D01*
X818510D01*
G01X793130Y80350D02*
Y85350D01*
X794650D01*
X795160Y85100D01*
X795540Y84520D01*
X795670Y83850D01*
X795540Y83180D01*
X795220Y82680D01*
X794650Y82430D01*
X793130D01*
G01X798230Y85350D02*
Y80350D01*
X800770D01*
G01X803020D02*
X804600Y85350D01*
X806180Y80350D01*
G01X805610Y82100D02*
X803590D01*
G01X809700Y85350D02*
Y80350D01*
G01X808240Y85350D02*
X811160D01*
G01X816070Y80350D02*
X813530D01*
Y85350D01*
X816070D01*
G01X815050Y82930D02*
X813530D01*
G01X818510Y80350D02*
Y85350D01*
X819770D01*
X820280Y85100D01*
X820660Y84770D01*
X820980Y84270D01*
X821230Y83680D01*
X821290Y82850D01*
X821230Y82020D01*
X820980Y81430D01*
X820660Y80930D01*
X820280Y80600D01*
X819770Y80350D01*
X818510D01*
G01X793130Y91650D02*
Y96650D01*
X794650D01*
X795160Y96400D01*
X795540Y95820D01*
X795670Y95150D01*
X795540Y94480D01*
X795220Y93980D01*
X794650Y93730D01*
X793130D01*
G01X798230Y96650D02*
Y91650D01*
X800770D01*
G01X803020D02*
X804600Y96650D01*
X806180Y91650D01*
G01X805610Y93400D02*
X803590D01*
G01X809700Y96650D02*
Y91650D01*
G01X808240Y96650D02*
X811160D01*
G01X816070Y91650D02*
X813530D01*
Y96650D01*
X816070D01*
G01X815050Y94230D02*
X813530D01*
G01X818510Y91650D02*
Y96650D01*
X819770D01*
X820280Y96400D01*
X820660Y96070D01*
X820980Y95570D01*
X821230Y94980D01*
X821290Y94150D01*
X821230Y93320D01*
X820980Y92730D01*
X820660Y92230D01*
X820280Y91900D01*
X819770Y91650D01*
X818510D01*
G01X793130Y102950D02*
Y107950D01*
X794650D01*
X795160Y107700D01*
X795540Y107120D01*
X795670Y106450D01*
X795540Y105780D01*
X795220Y105280D01*
X794650Y105030D01*
X793130D01*
G01X798230Y107950D02*
Y102950D01*
X800770D01*
G01X803020D02*
X804600Y107950D01*
X806180Y102950D01*
G01X805610Y104700D02*
X803590D01*
G01X809700Y107950D02*
Y102950D01*
G01X808240Y107950D02*
X811160D01*
G01X816070Y102950D02*
X813530D01*
Y107950D01*
X816070D01*
G01X815050Y105530D02*
X813530D01*
G01X818510Y102950D02*
Y107950D01*
X819770D01*
X820280Y107700D01*
X820660Y107370D01*
X820980Y106870D01*
X821230Y106280D01*
X821290Y105450D01*
X821230Y104620D01*
X820980Y104030D01*
X820660Y103530D01*
X820280Y103200D01*
X819770Y102950D01*
X818510D01*
G01X793130Y114900D02*
Y119900D01*
X794650D01*
X795160Y119650D01*
X795540Y119070D01*
X795670Y118400D01*
X795540Y117730D01*
X795220Y117230D01*
X794650Y116980D01*
X793130D01*
G01X798230Y119900D02*
Y114900D01*
X800770D01*
G01X803020D02*
X804600Y119900D01*
X806180Y114900D01*
G01X805610Y116650D02*
X803590D01*
G01X809700Y119900D02*
Y114900D01*
G01X808240Y119900D02*
X811160D01*
G01X816070Y114900D02*
X813530D01*
Y119900D01*
X816070D01*
G01X815050Y117480D02*
X813530D01*
G01X818510Y114900D02*
Y119900D01*
X819770D01*
X820280Y119650D01*
X820660Y119320D01*
X820980Y118820D01*
X821230Y118230D01*
X821290Y117400D01*
X821230Y116570D01*
X820980Y115980D01*
X820660Y115480D01*
X820280Y115150D01*
X819770Y114900D01*
X818510D01*
G01X844150Y69050D02*
Y74050D01*
X843390Y73050D01*
G01Y69050D02*
X844910D01*
G01X848050Y71130D02*
X848490Y71720D01*
X848870Y72050D01*
X849380Y72220D01*
X849820Y72050D01*
X850140Y71720D01*
X850390Y71220D01*
X850450Y70630D01*
X850390Y70130D01*
X850140Y69630D01*
X849760Y69220D01*
X849310Y69050D01*
X848810Y69220D01*
X848360Y69720D01*
X848110Y70470D01*
X848050Y71300D01*
X848170Y72380D01*
X848360Y72970D01*
X848680Y73550D01*
X849120Y73970D01*
X849570Y74050D01*
X850010Y73880D01*
X850330Y73470D01*
G01X853150Y73220D02*
X853530Y73720D01*
X853970Y73970D01*
X854480Y74050D01*
X855110Y73880D01*
X855550Y73470D01*
X855680Y72970D01*
X855620Y72470D01*
X855360Y72050D01*
X854100Y71220D01*
X853530Y70630D01*
X853150Y69800D01*
X853020Y69050D01*
X855680D01*
G01X844150Y102950D02*
Y107950D01*
X843390Y106950D01*
G01Y102950D02*
X844910D01*
G01X848170Y103530D02*
X848620Y103120D01*
X849120Y102950D01*
X849630Y103120D01*
X850070Y103620D01*
X850390Y104370D01*
X850520Y105120D01*
Y106030D01*
X850390Y106780D01*
X850070Y107450D01*
X849690Y107780D01*
X849250Y107950D01*
X848740Y107780D01*
X848360Y107450D01*
X848110Y106950D01*
X847980Y106280D01*
X848110Y105700D01*
X848430Y105120D01*
X848810Y104780D01*
X849250Y104700D01*
X849760Y104870D01*
X850140Y105280D01*
X850520Y106030D01*
G01X852960Y103950D02*
X853340Y103370D01*
X853840Y103030D01*
X854410Y102950D01*
X854920Y103030D01*
X855430Y103450D01*
X855740Y103950D01*
X855810Y104450D01*
X855680Y105030D01*
X855240Y105450D01*
X854790Y105620D01*
X854220D01*
G01X854790D02*
X855170Y105870D01*
X855490Y106280D01*
X855620Y106780D01*
X855490Y107280D01*
X855170Y107700D01*
X854600Y107950D01*
X854030Y107870D01*
X853460Y107530D01*
G01X844150Y114900D02*
X843640Y114980D01*
X843200Y115320D01*
X842820Y115820D01*
X842570Y116400D01*
X842440Y117070D01*
Y117730D01*
X842570Y118400D01*
X842820Y118980D01*
X843200Y119480D01*
X843640Y119820D01*
X844150Y119900D01*
X844660Y119820D01*
X845100Y119480D01*
X845480Y118980D01*
X845730Y118400D01*
X845860Y117730D01*
Y117070D01*
X845730Y116400D01*
X845480Y115820D01*
X845100Y115320D01*
X844660Y114980D01*
X844150Y114900D01*
G01X844660Y116230D02*
X845420Y114900D01*
G01X849250Y119900D02*
Y114900D01*
G01X847790Y119900D02*
X850710D01*
G01X854350Y114900D02*
Y117150D01*
X853080Y119900D01*
G01X855620D02*
X854350Y117150D01*
G01X850010Y1250D02*
Y6250D01*
X847670Y2670D01*
X850830D01*
G01X847860Y13550D02*
X848240Y12970D01*
X848740Y12630D01*
X849310Y12550D01*
X849820Y12630D01*
X850330Y13050D01*
X850640Y13550D01*
X850710Y14050D01*
X850580Y14630D01*
X850140Y15050D01*
X849690Y15220D01*
X849120D01*
G01X849690D02*
X850070Y15470D01*
X850390Y15880D01*
X850520Y16380D01*
X850390Y16880D01*
X850070Y17300D01*
X849500Y17550D01*
X848930Y17470D01*
X848360Y17130D01*
G01X850010Y23850D02*
Y28850D01*
X847670Y25270D01*
X850830D01*
G01X850010Y35150D02*
Y40150D01*
X847670Y36570D01*
X850830D01*
G01X845310Y58750D02*
X845690Y58170D01*
X846190Y57830D01*
X846760Y57750D01*
X847270Y57830D01*
X847780Y58250D01*
X848090Y58750D01*
X848160Y59250D01*
X848030Y59830D01*
X847590Y60250D01*
X847140Y60420D01*
X846570D01*
G01X847140D02*
X847520Y60670D01*
X847840Y61080D01*
X847970Y61580D01*
X847840Y62080D01*
X847520Y62500D01*
X846950Y62750D01*
X846380Y62670D01*
X845810Y62330D01*
G01X850720Y58330D02*
X851170Y57920D01*
X851670Y57750D01*
X852180Y57920D01*
X852620Y58420D01*
X852940Y59170D01*
X853070Y59920D01*
Y60830D01*
X852940Y61580D01*
X852620Y62250D01*
X852240Y62580D01*
X851800Y62750D01*
X851290Y62580D01*
X850910Y62250D01*
X850660Y61750D01*
X850530Y61080D01*
X850660Y60500D01*
X850980Y59920D01*
X851360Y59580D01*
X851800Y59500D01*
X852310Y59670D01*
X852690Y60080D01*
X853070Y60830D01*
G01X845310Y47200D02*
X845690Y46780D01*
X846130Y46530D01*
X846700Y46450D01*
X847270Y46620D01*
X847710Y46950D01*
X848030Y47530D01*
X848090Y48200D01*
X847970Y48870D01*
X847650Y49280D01*
X847210Y49620D01*
X846760Y49700D01*
X846320Y49620D01*
X845750Y49280D01*
X845940Y51450D01*
X847650D01*
G01X850720Y47030D02*
X851170Y46620D01*
X851670Y46450D01*
X852180Y46620D01*
X852620Y47120D01*
X852940Y47870D01*
X853070Y48620D01*
Y49530D01*
X852940Y50280D01*
X852620Y50950D01*
X852240Y51280D01*
X851800Y51450D01*
X851290Y51280D01*
X850910Y50950D01*
X850660Y50450D01*
X850530Y49780D01*
X850660Y49200D01*
X850980Y48620D01*
X851360Y48280D01*
X851800Y48200D01*
X852310Y48370D01*
X852690Y48780D01*
X853070Y49530D01*
G01X848050Y84520D02*
X848430Y85020D01*
X848870Y85270D01*
X849380Y85350D01*
X850010Y85180D01*
X850450Y84770D01*
X850580Y84270D01*
X850520Y83770D01*
X850260Y83350D01*
X849000Y82520D01*
X848430Y81930D01*
X848050Y81100D01*
X847920Y80350D01*
X850580D01*
G01X846700Y91650D02*
Y96650D01*
X845940Y95650D01*
G01Y91650D02*
X847460D01*
G01X850600Y95820D02*
X850980Y96320D01*
X851420Y96570D01*
X851930Y96650D01*
X852560Y96480D01*
X853000Y96070D01*
X853130Y95570D01*
X853070Y95070D01*
X852810Y94650D01*
X851550Y93820D01*
X850980Y93230D01*
X850600Y92400D01*
X850470Y91650D01*
X853130D01*
G54D12*
X16500Y137000D03*
X16000Y308000D03*
X26500Y137000D03*
X26000Y308000D03*
X36500Y137000D03*
X36000Y308000D03*
X165500Y26000D03*
Y56000D03*
X185500Y26000D03*
Y56000D03*
X186500Y271000D03*
Y281000D03*
Y291000D03*
X374000Y22000D03*
X384000Y32000D03*
X374000D03*
X384000Y22000D03*
X394000Y32000D03*
Y22000D03*
X404000Y32000D03*
Y22000D03*
X424000Y32000D03*
X414000D03*
X424000Y22000D03*
X414000D03*
X434000Y32000D03*
Y22000D03*
X444000Y32000D03*
Y22000D03*
X464000Y32000D03*
X454000D03*
X464000Y22000D03*
X454000D03*
X474000Y32000D03*
Y22000D03*
X484000Y32000D03*
Y22000D03*
X494000Y32000D03*
Y22000D03*
G54D21*
X684700Y15050D03*
G54D31*
G01X666200Y-1900D02*
Y158700D01*
X865200D01*
Y-1900D01*
X666200D01*
G01Y9400D02*
X865200D01*
G01X666200Y20700D02*
X865200D01*
G01X666200Y43300D02*
X865200D01*
G01X666200Y32000D02*
X865200D01*
G01X666200Y54600D02*
X865200D01*
G01X666200Y65900D02*
X865200D01*
G01X666200Y77200D02*
X865200D01*
G01X666200Y88500D02*
X865200D01*
G01X666200Y99800D02*
X865200D01*
G01X666200Y122400D02*
X865200D01*
G01X666200Y111100D02*
X865200D01*
G01X666200Y133700D02*
X865200D01*
G01X703200Y122400D02*
Y-1900D01*
G01X781000Y122400D02*
Y-1900D01*
G01X833300Y122400D02*
Y-1900D01*
G54D22*
X684700Y26350D03*
G54D13*
X9500Y153500D03*
X49500D03*
X56100Y273100D03*
Y313100D03*
X61500Y170000D03*
Y210000D03*
X69500Y280500D03*
Y320500D03*
X92000Y28000D03*
Y38000D03*
Y58000D03*
Y48000D03*
Y68000D03*
Y78000D03*
Y98000D03*
Y88000D03*
X94000Y283000D03*
Y308000D03*
X122000Y28000D03*
Y38000D03*
Y48000D03*
Y58000D03*
Y68000D03*
Y78000D03*
Y88000D03*
Y98000D03*
X119500Y310500D03*
X138000Y172000D03*
Y202000D03*
X146000Y78000D03*
Y103000D03*
X148000Y172000D03*
Y202000D03*
X158000Y172000D03*
X168000D03*
Y202000D03*
X158000D03*
X159500Y310500D03*
X200000Y25500D03*
Y45500D03*
Y35500D03*
Y55500D03*
Y65500D03*
Y85500D03*
Y75500D03*
X209500Y261000D03*
Y301000D03*
X230000Y25500D03*
Y35500D03*
Y45500D03*
Y55500D03*
Y65500D03*
Y75500D03*
Y85500D03*
X232000Y278000D03*
Y328000D03*
X242000Y308000D03*
X262000Y278000D03*
Y328000D03*
X272000Y308000D03*
X288000Y15000D03*
Y28000D03*
Y38000D03*
Y58000D03*
Y48000D03*
Y68000D03*
Y78000D03*
Y88000D03*
X303500Y164000D03*
X293500Y184000D03*
X303500Y214000D03*
X328000Y15000D03*
X318000Y28000D03*
Y38000D03*
Y48000D03*
Y58000D03*
Y68000D03*
Y78000D03*
Y88000D03*
X329500Y164000D03*
X319500Y184000D03*
X329500Y214000D03*
X333000Y48000D03*
Y88000D03*
X358000Y164000D03*
Y174000D03*
Y194000D03*
Y184000D03*
Y204000D03*
Y214000D03*
Y224000D03*
X388000Y164000D03*
Y174000D03*
Y184000D03*
Y194000D03*
Y204000D03*
Y214000D03*
Y224000D03*
X402500Y253500D03*
X423500Y207000D03*
X422500Y253500D03*
X412500Y273500D03*
X430000Y167000D03*
X433500Y309000D03*
X437000Y322600D03*
X450000Y157000D03*
Y177000D03*
X448500Y207000D03*
X464000Y45000D03*
Y85000D03*
X460000Y223500D03*
Y253500D03*
X470000Y223500D03*
Y253500D03*
X473500Y309000D03*
X477000Y322600D03*
X480000Y223500D03*
X490000D03*
Y253500D03*
X480000D03*
X518500Y175000D03*
Y195000D03*
Y185000D03*
Y205000D03*
Y215000D03*
Y235000D03*
Y225000D03*
X552000Y31500D03*
Y21500D03*
Y41500D03*
Y51500D03*
Y71500D03*
Y61500D03*
Y81500D03*
X548500Y175000D03*
Y185000D03*
Y195000D03*
Y205000D03*
Y215000D03*
Y225000D03*
Y235000D03*
X573000Y181500D03*
Y171500D03*
Y191500D03*
Y201500D03*
Y221500D03*
Y211500D03*
Y231500D03*
X582000Y21500D03*
Y31500D03*
Y41500D03*
Y51500D03*
Y61500D03*
Y71500D03*
Y81500D03*
X603000Y171500D03*
Y181500D03*
Y191500D03*
Y201500D03*
Y211500D03*
Y221500D03*
Y231500D03*
G54D32*
G01X-2500Y17500D02*
Y-2500D01*
G01D02*
X17500D01*
G01X-2500Y352500D02*
Y332500D01*
G01X17500Y352500D02*
X-2500D01*
G01X632500Y-2500D02*
X652500D01*
G01Y352500D02*
X632500D01*
G01X652500Y-2500D02*
Y17500D01*
G01Y332500D02*
Y352500D01*
G54D23*
X684700Y37650D03*
G54D14*
X26500Y77000D03*
X26000Y248000D03*
X126500Y281000D03*
G54D24*
X684700Y60250D03*
G54D15*
X19600Y192200D03*
X39600D03*
X70000Y12000D03*
X148000Y150000D03*
X158000D03*
X168000D03*
X185000Y154000D03*
Y164000D03*
X206000Y312000D03*
X216000D03*
X236000Y172000D03*
Y202000D03*
X296000Y297000D03*
Y307000D03*
X316000Y297000D03*
X306000D03*
X316000Y307000D03*
X306000D03*
X326000Y297000D03*
Y307000D03*
X336000Y297000D03*
Y307000D03*
X345900Y174100D03*
X345700Y223900D03*
X352500Y243500D03*
Y253500D03*
Y263500D03*
Y273500D03*
Y283500D03*
X362500Y243500D03*
Y253500D03*
Y263500D03*
Y273500D03*
Y283500D03*
X380500Y313000D03*
Y323000D03*
X390500Y313000D03*
Y323000D03*
X399000Y184000D03*
X409000D03*
X399000Y204000D03*
X409000D03*
X410500Y313000D03*
X400500D03*
X410500Y323000D03*
X400500D03*
X420500Y313000D03*
Y323000D03*
X538000Y290500D03*
X548000D03*
Y300500D03*
X538000D03*
X558000Y290500D03*
Y300500D03*
X568000Y290500D03*
Y300500D03*
X578000Y290500D03*
Y300500D03*
X633700Y300700D03*
G54D25*
X684700Y48950D03*
G54D16*
X32500Y330000D03*
X48100D03*
X119500D03*
X135100D03*
G54D17*
X60500Y235000D03*
X90500D03*
X168500D03*
X198500D03*
G54D26*
X684700Y71550D03*
G54D27*
Y82850D03*
G54D18*
X132000Y24500D03*
Y50500D03*
X142000Y14500D03*
X152000Y24500D03*
X142000Y40500D03*
X152000Y50500D03*
X206000Y324000D03*
X196000Y334000D03*
X220000Y232000D03*
Y252000D03*
X216000Y334000D03*
X230000Y242000D03*
G54D19*
X439000Y253500D03*
X449000D03*
G54D28*
X684700Y94150D03*
G54D29*
Y105450D03*
M02*
