G04 ================== begin FILE IDENTIFICATION RECORD ==================*
G04 Layout Name:  controller.brd*
G04 Film Name:    SMB*
G04 File Format:  Gerber RS274X*
G04 File Origin:  Cadence Allegro 16.3-S021*
G04 Origin Date:  Sat Apr 30 17:24:08 2011*
G04 *
G04 Layer:  BOARD GEOMETRY/SOLDERMASK_BOTTOM*
G04 Layer:  VIA CLASS/SOLDERMASK_BOTTOM*
G04 Layer:  PIN/SOLDERMASK_BOTTOM*
G04 *
G04 Offset:    (0.0 0.0)*
G04 Mirror:    No*
G04 Mode:      Positive*
G04 Rotation:  0*
G04 FullContactRelief:  No*
G04 UndefLineWidth:     0.0*
G04 ================== end FILE IDENTIFICATION RECORD ====================*
%FSLAX25Y25*MOIN*%
%IR0*IPPOS*OFA0.00000B0.00000*MIA0B0*SFA1.00000B1.00000*%
%ADD19C,.1*%
%ADD20C,.114*%
%ADD17R,.1X.1*%
%ADD10C,.145*%
%ADD15C,.147*%
%ADD26C,.05*%
%ADD28C,.06*%
%ADD29C,.062*%
%ADD18C,.063*%
%ADD13C,.055*%
%ADD25C,.056*%
%ADD14R,.05X.05*%
%ADD12C,.075*%
%ADD31R,.06X.06*%
%ADD30C,.067*%
%ADD22C,.058*%
%ADD27R,.062X.062*%
%ADD16R,.063X.063*%
%ADD24R,.056X.056*%
%ADD23R,.058X.058*%
%ADD21R,.067X.067*%
%ADD11R,.086X.086*%
%ADD32C,.005*%
G75*
%LPD*%
G75*
G54D10*
X10000Y10000D03*
Y340000D03*
X640000Y10000D03*
Y340000D03*
G54D11*
X16500Y122000D03*
X29700D03*
X36500Y137000D03*
X36000Y308000D03*
X148000Y162000D03*
X161200D03*
X158000Y187000D03*
X171200D03*
X186500Y271000D03*
X305000Y184000D03*
Y197200D03*
X331500Y184000D03*
Y197200D03*
X375800Y283500D03*
X389000D03*
X410600Y335100D03*
X423800D03*
X500500Y240300D03*
Y253500D03*
G54D20*
X60500Y235000D03*
X90500D03*
X168500D03*
X198500D03*
G54D21*
X70000Y12000D03*
X185000Y154000D03*
X206000Y312000D03*
X336000Y307000D03*
X345900Y174100D03*
X345700Y223900D03*
X362500Y243500D03*
X399000Y184000D03*
Y204000D03*
X420500Y323000D03*
X578000Y300500D03*
X633700Y300700D03*
G54D30*
X185000Y164000D03*
X216000Y312000D03*
X296000Y297000D03*
Y307000D03*
X316000Y297000D03*
X306000D03*
X316000Y307000D03*
X306000D03*
X326000Y297000D03*
Y307000D03*
X336000Y297000D03*
X352500Y243500D03*
Y253500D03*
Y263500D03*
Y273500D03*
Y283500D03*
X362500Y253500D03*
Y263500D03*
Y273500D03*
Y283500D03*
X380500Y313000D03*
Y323000D03*
X390500Y313000D03*
Y323000D03*
X409000Y184000D03*
Y204000D03*
X410500Y313000D03*
X400500D03*
X410500Y323000D03*
X400500D03*
X420500Y313000D03*
X538000Y290500D03*
X548000D03*
Y300500D03*
X538000D03*
X558000Y290500D03*
Y300500D03*
X568000Y290500D03*
Y300500D03*
X578000Y290500D03*
G54D12*
X16500Y137000D03*
X16000Y308000D03*
X26500Y137000D03*
X26000Y308000D03*
X186500Y281000D03*
Y291000D03*
G54D22*
X92000Y28000D03*
Y38000D03*
Y58000D03*
Y48000D03*
Y68000D03*
Y78000D03*
Y88000D03*
X122000Y28000D03*
Y38000D03*
Y48000D03*
Y58000D03*
Y68000D03*
Y78000D03*
Y88000D03*
Y98000D03*
X138000Y202000D03*
X148000Y172000D03*
Y202000D03*
X158000Y172000D03*
X168000D03*
Y202000D03*
X158000D03*
X200000Y25500D03*
Y45500D03*
Y35500D03*
Y55500D03*
Y65500D03*
Y85500D03*
Y75500D03*
X230000Y35500D03*
Y45500D03*
Y55500D03*
Y65500D03*
Y75500D03*
Y85500D03*
X288000Y28000D03*
Y38000D03*
Y58000D03*
Y48000D03*
Y68000D03*
Y78000D03*
Y88000D03*
X318000Y38000D03*
Y48000D03*
Y58000D03*
Y68000D03*
Y78000D03*
Y88000D03*
X358000Y164000D03*
Y174000D03*
Y194000D03*
Y184000D03*
Y204000D03*
Y214000D03*
X388000Y164000D03*
Y174000D03*
Y184000D03*
Y194000D03*
Y204000D03*
Y214000D03*
Y224000D03*
X460000Y253500D03*
X470000Y223500D03*
Y253500D03*
X480000Y223500D03*
X490000D03*
Y253500D03*
X480000D03*
X518500Y175000D03*
Y195000D03*
Y185000D03*
Y205000D03*
Y215000D03*
Y225000D03*
X552000Y31500D03*
Y21500D03*
Y41500D03*
Y51500D03*
Y71500D03*
Y61500D03*
X548500Y175000D03*
Y185000D03*
Y195000D03*
Y205000D03*
Y215000D03*
Y225000D03*
Y235000D03*
X573000Y181500D03*
Y171500D03*
Y191500D03*
Y201500D03*
Y221500D03*
Y211500D03*
Y231500D03*
X582000Y21500D03*
Y31500D03*
Y41500D03*
Y51500D03*
Y61500D03*
Y71500D03*
Y81500D03*
X603000Y181500D03*
Y191500D03*
Y201500D03*
Y211500D03*
Y221500D03*
Y231500D03*
G54D31*
X404000Y32000D03*
X434000Y22000D03*
X449000Y253500D03*
X494000Y32000D03*
G54D13*
X9500Y153500D03*
X49500D03*
X56100Y273100D03*
Y313100D03*
X61500Y170000D03*
Y210000D03*
X69500Y280500D03*
Y320500D03*
X119500Y310500D03*
X159500D03*
X209500Y261000D03*
Y301000D03*
X288000Y15000D03*
X328000D03*
X333000Y48000D03*
Y88000D03*
X433500Y309000D03*
X437000Y322600D03*
X464000Y45000D03*
Y85000D03*
X473500Y309000D03*
X477000Y322600D03*
G54D32*
G01X-77260Y17100D02*
X-76510Y16470D01*
X-75670Y16100D01*
X-74930D01*
X-74180Y16470D01*
X-73620Y17100D01*
X-73340Y17980D01*
X-73530Y18850D01*
X-73990Y19600D01*
X-74830Y20100D01*
X-75950Y20350D01*
X-76610Y20850D01*
X-76890Y21720D01*
X-76700Y22600D01*
X-76230Y23220D01*
X-75580Y23600D01*
X-74930D01*
X-74270Y23350D01*
X-73710Y22720D01*
G01X-70230Y16100D02*
Y23600D01*
X-67800Y17350D01*
X-65370Y23600D01*
Y16100D01*
G01X-59550Y20100D02*
X-59180Y20470D01*
X-58900Y21100D01*
X-58710Y21980D01*
X-58900Y22720D01*
X-59270Y23220D01*
X-59930Y23600D01*
X-62450D01*
Y16100D01*
X-59370D01*
X-58710Y16600D01*
X-58340Y17350D01*
X-58150Y18230D01*
X-58340Y19100D01*
X-58900Y19850D01*
X-59550Y20100D01*
X-62450D01*
G54D23*
X92000Y98000D03*
X138000Y172000D03*
X230000Y25500D03*
X318000Y28000D03*
X358000Y224000D03*
X460000Y223500D03*
X518500Y235000D03*
X552000Y81500D03*
X603000Y171500D03*
G54D14*
X16000Y318500D03*
X7600D03*
X49500Y137100D03*
Y145500D03*
X56000Y264100D03*
X64400D03*
X61000Y288500D03*
X69400D03*
X112500Y98000D03*
Y106400D03*
X132000Y24500D03*
Y50500D03*
X166500Y210000D03*
X158100D03*
X184000Y202000D03*
X192400D03*
X195000Y155500D03*
Y163900D03*
X201600Y202000D03*
X198500Y287000D03*
Y278600D03*
X196000Y334000D03*
X219500Y15500D03*
X211100D03*
X211000Y25500D03*
X219400D03*
X210000Y202000D03*
X220000Y232000D03*
X271600Y48000D03*
Y68000D03*
Y88000D03*
X271000Y273600D03*
Y282000D03*
X280000Y48000D03*
Y68000D03*
Y88000D03*
X299000Y28000D03*
X295100Y155800D03*
X307400Y28000D03*
X308000Y45000D03*
Y36600D03*
X303500Y155800D03*
X321100Y155500D03*
X329500D03*
X326000Y319500D03*
X334400D03*
X369000Y165600D03*
Y174000D03*
Y184000D03*
Y194000D03*
Y204000D03*
Y213000D03*
Y221400D03*
X374000Y43600D03*
X384000D03*
X374000Y52000D03*
X384000D03*
X377500Y165600D03*
Y174000D03*
X377400Y184000D03*
Y194000D03*
Y204000D03*
X377500Y213000D03*
Y221400D03*
X382100Y334400D03*
X394000Y43600D03*
Y52000D03*
X390500Y334400D03*
X404000Y43600D03*
Y52000D03*
X434000Y43600D03*
Y52000D03*
X437000Y335000D03*
X444000Y43600D03*
Y52000D03*
X449000Y234500D03*
Y242900D03*
X445400Y335000D03*
X454000Y43600D03*
Y52000D03*
X461600Y233500D03*
Y243500D03*
X470000Y233500D03*
Y243500D03*
X488500Y214500D03*
X480100D03*
X480000Y233500D03*
X488400D03*
X490000Y261500D03*
X481600D03*
X530000Y235000D03*
X543500Y31500D03*
X535100D03*
X543500Y51500D03*
X535100D03*
X543500Y71500D03*
X535100D03*
X538400Y235000D03*
X573600Y13000D03*
X582000D03*
X583100Y171500D03*
X582000Y201500D03*
X591000Y41500D03*
X599400D03*
X591000Y51500D03*
X599400D03*
X591000Y61500D03*
X599400D03*
X591500Y171500D03*
X590400Y201500D03*
G54D24*
X94000Y283000D03*
X146000Y103000D03*
X232000Y278000D03*
X262000D03*
X303500Y214000D03*
X329500D03*
X422500Y253500D03*
X450000Y177000D03*
X448500Y207000D03*
G54D15*
X26500Y77000D03*
X26000Y248000D03*
X126500Y281000D03*
G54D16*
X19600Y192200D03*
X236000Y202000D03*
G54D25*
X94000Y308000D03*
X146000Y78000D03*
X232000Y328000D03*
X242000Y308000D03*
X262000Y328000D03*
X272000Y308000D03*
X303500Y164000D03*
X293500Y184000D03*
X329500Y164000D03*
X319500Y184000D03*
X402500Y253500D03*
X423500Y207000D03*
X412500Y273500D03*
X430000Y167000D03*
X450000Y157000D03*
G54D26*
X142000Y14500D03*
X152000Y24500D03*
X142000Y40500D03*
X152000Y50500D03*
X206000Y324000D03*
X220000Y252000D03*
X216000Y334000D03*
X230000Y242000D03*
G54D17*
X32500Y330000D03*
X119500D03*
G54D27*
X148000Y150000D03*
G54D18*
X39600Y192200D03*
X236000Y172000D03*
G54D28*
X165500Y26000D03*
Y56000D03*
X185500Y26000D03*
Y56000D03*
X256500Y21500D03*
Y95400D03*
Y113000D03*
Y145800D03*
X283900Y125700D03*
Y147500D03*
X284000Y188000D03*
Y200300D03*
Y292600D03*
Y307000D03*
X374000Y22000D03*
X384000Y32000D03*
X374000D03*
X384000Y22000D03*
X394000Y32000D03*
Y22000D03*
X404000D03*
X424000Y32000D03*
X414000D03*
X424000Y22000D03*
X414000D03*
X434000Y32000D03*
X439000Y253500D03*
X444000Y32000D03*
Y22000D03*
X464000Y32000D03*
X454000D03*
X464000Y22000D03*
X454000D03*
X474000Y32000D03*
Y22000D03*
Y114200D03*
Y137500D03*
X484000Y32000D03*
Y22000D03*
X494000D03*
X621000Y137000D03*
X638000D03*
G54D19*
X48100Y330000D03*
X135100D03*
G54D29*
X158000Y150000D03*
X168000D03*
M02*
