G04 ================== begin FILE IDENTIFICATION RECORD ==================*
G04 Layout Name:  controller.brd*
G04 Film Name:    SMT*
G04 File Format:  Gerber RS274X*
G04 File Origin:  Cadence Allegro 16.3-S021*
G04 Origin Date:  Sat Apr 30 17:24:08 2011*
G04 *
G04 Layer:  BOARD GEOMETRY/SOLDERMASK_TOP*
G04 Layer:  VIA CLASS/SOLDERMASK_TOP*
G04 Layer:  PIN/SOLDERMASK_TOP*
G04 *
G04 Offset:    (0.0 0.0)*
G04 Mirror:    No*
G04 Mode:      Positive*
G04 Rotation:  0*
G04 FullContactRelief:  No*
G04 UndefLineWidth:     0.0*
G04 ================== end FILE IDENTIFICATION RECORD ====================*
%FSLAX25Y25*MOIN*%
%IR0*IPPOS*OFA0.00000B0.00000*MIA0B0*SFA1.00000B1.00000*%
%ADD19C,.1*%
%ADD20C,.114*%
%ADD16R,.1X.1*%
%ADD10C,.145*%
%ADD14C,.147*%
%ADD29R,.088X.142*%
%ADD11C,.05*%
%ADD31C,.06*%
%ADD32C,.062*%
%ADD18C,.063*%
%ADD13C,.055*%
%ADD28C,.056*%
%ADD22R,.05X.05*%
%ADD12C,.075*%
%ADD34R,.06X.06*%
%ADD33C,.067*%
%ADD25C,.058*%
%ADD30R,.062X.062*%
%ADD24R,.048X.076*%
%ADD15R,.063X.063*%
%ADD27R,.056X.056*%
%ADD23R,.088X.048*%
%ADD26R,.058X.058*%
%ADD21R,.067X.067*%
%ADD17R,.086X.086*%
%ADD35C,.005*%
G75*
%LPD*%
G75*
G54D10*
X10000Y10000D03*
Y340000D03*
X640000Y10000D03*
Y340000D03*
G54D11*
X14000Y70000D03*
Y76000D03*
Y82000D03*
Y88000D03*
Y94000D03*
X32000D03*
Y88000D03*
X26000Y94000D03*
Y88000D03*
X20000Y94000D03*
Y88000D03*
X38000Y70000D03*
Y76000D03*
Y82000D03*
Y88000D03*
Y94000D03*
X73000Y266500D03*
X64400Y271000D03*
X88000Y124500D03*
Y146500D03*
X100000Y188000D03*
Y212000D03*
X112000Y188000D03*
Y194000D03*
Y206000D03*
Y200000D03*
Y212000D03*
X142000Y14500D03*
X152000Y24500D03*
X142000Y40500D03*
X152000Y50500D03*
X170000Y162000D03*
X185500Y114300D03*
Y146500D03*
X206000Y324000D03*
X220000Y252000D03*
X216000Y334000D03*
X230000Y242000D03*
X238000Y180000D03*
X241500Y209500D03*
Y221500D03*
X248500D03*
X253000Y180000D03*
Y204500D03*
X260500Y267000D03*
X271500Y54000D03*
Y74000D03*
Y94000D03*
X271000Y115200D03*
Y144800D03*
X267500Y170500D03*
X271000Y267000D03*
X267000Y319500D03*
X278000Y28000D03*
Y40000D03*
X277000Y115200D03*
Y144800D03*
X288500Y170500D03*
X277000Y188800D03*
Y199500D03*
Y293000D03*
Y319500D03*
X295500Y88000D03*
X293500Y204000D03*
X301500Y288500D03*
X308000Y86000D03*
X311000Y99500D03*
X305000D03*
X311000Y292000D03*
X326000Y263500D03*
X329500Y288500D03*
X341500Y38000D03*
Y46500D03*
X333000Y79500D03*
X338000Y99500D03*
X341500Y114000D03*
X336000Y115200D03*
X341500Y145500D03*
X336000Y150500D03*
X354000Y6000D03*
Y20000D03*
Y39500D03*
Y61000D03*
X345000Y99500D03*
X362000Y39000D03*
Y79000D03*
X369000Y150500D03*
X384000Y61000D03*
X374000Y83000D03*
X375900Y241000D03*
X383000Y244000D03*
Y252000D03*
X375800Y291500D03*
X382100Y329000D03*
X394000Y74500D03*
X404000Y58000D03*
X405500Y286500D03*
Y303500D03*
X410500Y305000D03*
X417500Y145500D03*
Y167500D03*
X413000Y283500D03*
X434000Y58500D03*
X430000Y154500D03*
X431500Y206500D03*
X438500Y213500D03*
X432500Y267500D03*
Y287500D03*
X444000Y58500D03*
X450000Y115000D03*
X444500Y219500D03*
X451500Y226500D03*
X452100Y279600D03*
X452000Y303500D03*
X445300Y319400D03*
X454000Y58500D03*
X464000Y115000D03*
Y153500D03*
X465100Y257100D03*
X469000Y17000D03*
X469500Y39000D03*
Y70000D03*
Y62000D03*
Y76000D03*
X474000Y157000D03*
X471000Y192000D03*
X479000Y185000D03*
X471000D03*
Y198000D03*
X475000Y256500D03*
X473500Y287000D03*
X489000Y39000D03*
X481000Y70000D03*
Y62000D03*
Y76000D03*
X484000Y115000D03*
Y148500D03*
X485000Y192000D03*
Y198000D03*
X501000Y43500D03*
X495500Y205000D03*
X506000Y218500D03*
Y211000D03*
X495500D03*
X506500Y287500D03*
X501000D03*
X495500D03*
X506500Y297500D03*
X501000Y299500D03*
X495500Y301500D03*
X527000Y31500D03*
X526500Y52000D03*
X527500Y71500D03*
X528000Y218500D03*
Y211500D03*
X526000Y295000D03*
X544500Y115000D03*
Y145000D03*
X538000Y151500D03*
Y158500D03*
X558500Y56500D03*
X558000Y73000D03*
Y80000D03*
X548500Y97000D03*
X555500Y115000D03*
X561000Y129000D03*
X555500Y145000D03*
X550000D03*
X561000D03*
X556500Y206500D03*
Y213000D03*
X555000Y240000D03*
Y246000D03*
X566500Y56500D03*
X573000Y59500D03*
Y86500D03*
Y109000D03*
X566000Y151500D03*
Y158500D03*
X568000Y255000D03*
X577500Y97000D03*
Y124500D03*
Y153000D03*
X590500Y196000D03*
X607500Y41500D03*
Y51500D03*
Y61500D03*
G54D20*
X60500Y235000D03*
X90500D03*
X168500D03*
X198500D03*
G54D21*
X70000Y12000D03*
X185000Y154000D03*
X206000Y312000D03*
X336000Y307000D03*
X345900Y174100D03*
X345700Y223900D03*
X362500Y243500D03*
X399000Y184000D03*
Y204000D03*
X420500Y323000D03*
X578000Y300500D03*
X633700Y300700D03*
G54D30*
X148000Y150000D03*
G54D12*
X16500Y137000D03*
X16000Y308000D03*
X26500Y137000D03*
X26000Y308000D03*
X186500Y281000D03*
Y291000D03*
G54D22*
X69000Y258000D03*
X60600D03*
X79500Y270500D03*
X88000Y154000D03*
X96400D03*
X88000Y165500D03*
X96400D03*
X87900Y270500D03*
X106100Y14500D03*
X114500D03*
X122000Y112800D03*
X132000Y24500D03*
Y50500D03*
X140200Y68000D03*
X131800D03*
X130400Y112800D03*
X196000Y334000D03*
X220000Y232000D03*
Y275000D03*
Y266600D03*
Y290000D03*
Y298400D03*
X239000Y233600D03*
Y242000D03*
X252000Y278000D03*
Y286400D03*
Y299500D03*
Y307900D03*
Y319500D03*
Y327900D03*
X398000Y224000D03*
X406400D03*
X428600Y336600D03*
X437000D03*
X459800Y213300D03*
X468200D03*
X478400Y271700D03*
X470000D03*
Y263400D03*
X478400D03*
X470000Y280000D03*
X478400D03*
X484000Y45100D03*
Y53500D03*
X492600Y49500D03*
X501000D03*
X563000Y176600D03*
Y185000D03*
X613600Y186000D03*
X622000D03*
G54D13*
X9500Y153500D03*
X49500D03*
X56100Y273100D03*
Y313100D03*
X61500Y170000D03*
Y210000D03*
X69500Y280500D03*
Y320500D03*
X119500Y310500D03*
X159500D03*
X209500Y261000D03*
Y301000D03*
X288000Y15000D03*
X328000D03*
X333000Y48000D03*
Y88000D03*
X433500Y309000D03*
X437000Y322600D03*
X464000Y45000D03*
Y85000D03*
X473500Y309000D03*
X477000Y322600D03*
G54D31*
X165500Y26000D03*
Y56000D03*
X185500Y26000D03*
Y56000D03*
X256500Y21500D03*
Y95400D03*
Y113000D03*
Y145800D03*
X283900Y125700D03*
Y147500D03*
X284000Y188000D03*
Y200300D03*
Y292600D03*
Y307000D03*
X374000Y22000D03*
X384000Y32000D03*
X374000D03*
X384000Y22000D03*
X394000Y32000D03*
Y22000D03*
X404000D03*
X424000Y32000D03*
X414000D03*
X424000Y22000D03*
X414000D03*
X434000Y32000D03*
X439000Y253500D03*
X444000Y32000D03*
Y22000D03*
X464000Y32000D03*
X454000D03*
X464000Y22000D03*
X454000D03*
X474000Y32000D03*
Y22000D03*
Y114200D03*
Y137500D03*
X484000Y32000D03*
Y22000D03*
X494000D03*
X621000Y137000D03*
X638000D03*
G54D23*
X78000Y192000D03*
Y201000D03*
Y210000D03*
G54D32*
X158000Y150000D03*
X168000D03*
G54D14*
X26500Y77000D03*
X26000Y248000D03*
X126500Y281000D03*
G54D15*
X19600Y192200D03*
X236000Y202000D03*
G54D24*
X83100Y258900D03*
X91000D03*
X97000Y270500D03*
X106000Y154000D03*
Y165500D03*
X104900Y270500D03*
X113900Y154000D03*
Y165500D03*
X260500Y257400D03*
X270100Y48000D03*
Y68000D03*
Y88000D03*
X268400Y257400D03*
X278000Y48000D03*
Y68000D03*
Y88000D03*
X541500Y31500D03*
X533600D03*
X541500Y71500D03*
X533600D03*
X593500Y41500D03*
Y61500D03*
X601400Y41500D03*
Y61500D03*
X614100Y196000D03*
X622000D03*
G54D33*
X185000Y164000D03*
X216000Y312000D03*
X296000Y297000D03*
Y307000D03*
X316000Y297000D03*
X306000D03*
X316000Y307000D03*
X306000D03*
X326000Y297000D03*
Y307000D03*
X336000Y297000D03*
X352500Y243500D03*
Y253500D03*
Y263500D03*
Y273500D03*
Y283500D03*
X362500Y253500D03*
Y263500D03*
Y273500D03*
Y283500D03*
X380500Y313000D03*
Y323000D03*
X390500Y313000D03*
Y323000D03*
X409000Y184000D03*
Y204000D03*
X410500Y313000D03*
X400500D03*
X410500Y323000D03*
X400500D03*
X420500Y313000D03*
X538000Y290500D03*
X548000D03*
Y300500D03*
X538000D03*
X558000Y290500D03*
Y300500D03*
X568000Y290500D03*
Y300500D03*
X578000Y290500D03*
G54D25*
X92000Y28000D03*
Y38000D03*
Y58000D03*
Y48000D03*
Y68000D03*
Y78000D03*
Y88000D03*
X122000Y28000D03*
Y38000D03*
Y48000D03*
Y58000D03*
Y68000D03*
Y78000D03*
Y88000D03*
Y98000D03*
X138000Y202000D03*
X148000Y172000D03*
Y202000D03*
X158000Y172000D03*
X168000D03*
Y202000D03*
X158000D03*
X200000Y25500D03*
Y45500D03*
Y35500D03*
Y55500D03*
Y65500D03*
Y85500D03*
Y75500D03*
X230000Y35500D03*
Y45500D03*
Y55500D03*
Y65500D03*
Y75500D03*
Y85500D03*
X288000Y28000D03*
Y38000D03*
Y58000D03*
Y48000D03*
Y68000D03*
Y78000D03*
Y88000D03*
X318000Y38000D03*
Y48000D03*
Y58000D03*
Y68000D03*
Y78000D03*
Y88000D03*
X358000Y164000D03*
Y174000D03*
Y194000D03*
Y184000D03*
Y204000D03*
Y214000D03*
X388000Y164000D03*
Y174000D03*
Y184000D03*
Y194000D03*
Y204000D03*
Y214000D03*
Y224000D03*
X460000Y253500D03*
X470000Y223500D03*
Y253500D03*
X480000Y223500D03*
X490000D03*
Y253500D03*
X480000D03*
X518500Y175000D03*
Y195000D03*
Y185000D03*
Y205000D03*
Y215000D03*
Y225000D03*
X552000Y31500D03*
Y21500D03*
Y41500D03*
Y51500D03*
Y71500D03*
Y61500D03*
X548500Y175000D03*
Y185000D03*
Y195000D03*
Y205000D03*
Y215000D03*
Y225000D03*
Y235000D03*
X573000Y181500D03*
Y171500D03*
Y191500D03*
Y201500D03*
Y221500D03*
Y211500D03*
Y231500D03*
X582000Y21500D03*
Y31500D03*
Y41500D03*
Y51500D03*
Y61500D03*
Y71500D03*
Y81500D03*
X603000Y181500D03*
Y191500D03*
Y201500D03*
Y211500D03*
Y221500D03*
Y231500D03*
G54D34*
X404000Y32000D03*
X434000Y22000D03*
X449000Y253500D03*
X494000Y32000D03*
G54D16*
X32500Y330000D03*
X119500D03*
G54D35*
G01X-49360Y17100D02*
X-48610Y16470D01*
X-47770Y16100D01*
X-47030D01*
X-46280Y16470D01*
X-45720Y17100D01*
X-45440Y17980D01*
X-45630Y18850D01*
X-46090Y19600D01*
X-46930Y20100D01*
X-48050Y20350D01*
X-48710Y20850D01*
X-48990Y21720D01*
X-48800Y22600D01*
X-48330Y23220D01*
X-47680Y23600D01*
X-47030D01*
X-46370Y23350D01*
X-45810Y22720D01*
G01X-42330Y16100D02*
Y23600D01*
X-39900Y17350D01*
X-37470Y23600D01*
Y16100D01*
G01X-32400Y23600D02*
Y16100D01*
G01X-34550Y23600D02*
X-30250D01*
G54D17*
X36500Y137000D03*
X36000Y308000D03*
X78000Y178000D03*
X91200D03*
X186500Y271000D03*
X376500Y268000D03*
Y281200D03*
X445100Y270900D03*
X458300D03*
G54D26*
X92000Y98000D03*
X138000Y172000D03*
X230000Y25500D03*
X318000Y28000D03*
X358000Y224000D03*
X460000Y223500D03*
X518500Y235000D03*
X552000Y81500D03*
X603000Y171500D03*
G54D27*
X94000Y283000D03*
X146000Y103000D03*
X232000Y278000D03*
X262000D03*
X303500Y214000D03*
X329500D03*
X422500Y253500D03*
X450000Y177000D03*
X448500Y207000D03*
G54D18*
X39600Y192200D03*
X236000Y172000D03*
G54D28*
X94000Y308000D03*
X146000Y78000D03*
X232000Y328000D03*
X242000Y308000D03*
X262000Y328000D03*
X272000Y308000D03*
X303500Y164000D03*
X293500Y184000D03*
X329500Y164000D03*
X319500Y184000D03*
X402500Y253500D03*
X423500Y207000D03*
X412500Y273500D03*
X430000Y167000D03*
X450000Y157000D03*
G54D19*
X48100Y330000D03*
X135100D03*
G54D29*
X102400Y201000D03*
M02*
